<?xml version="1.0" encoding="utf-8"?>
<!-- Generator: Adobe Illustrator 17.1.0, SVG Export Plug-In . SVG Version: 6.00 Build 0)  -->
<svg version="1.2" baseProfile="tiny" id="圖層_1"
	 xmlns="http://www.w3.org/2000/svg" xmlns:xlink="http://www.w3.org/1999/xlink" x="0px" y="0px" viewBox="0 0 45.5 58"
	 xml:space="preserve">
<g id="XMLID_368_">
	<path id="XMLID_373_" fill="#0098FF" d="M44.2,27.8H31.7c-0.2,0-0.4-0.2-0.4-0.4V1.3c0-0.8-0.7-1.4-1.4-1.3
		c-0.7,0.1-1.3,0.7-1.3,1.4v26v2.9h2.4h3.3h9.8c0.6,0,1.2-0.4,1.3-1.1C45.6,28.5,45,27.8,44.2,27.8z"/>
	<path id="XMLID_372_" d="M31.5,30.7v6.7c0,0.2-0.2,0.4-0.4,0.4h-2.7c-0.6,0-1.1,0.4-1.2,1c-0.1,0.7,0.4,1.3,1.1,1.3h2.7
		c0.2,0,0.4,0.2,0.4,0.4v12.4c0,0.7,0.1,1.4,0.3,2c0.2,0.6,0.5,1.1,0.9,1.6c0.4,0.5,0.9,0.8,1.6,1.1c0.7,0.3,1.4,0.4,2.3,0.4
		c3.7,0,6.3-1.2,7.3-1.9c0.4-0.3,0.4-0.8,0.1-1.2c-0.6-0.7-1.7-1.3-2.6-0.7c-2,1.3-3.4,1.4-4,1.5c-0.1,0-0.3,0-0.4,0
		c-0.8,0-1.7-0.3-2.1-0.8c-0.5-0.5-0.7-1.2-0.7-2V40.5c0-0.2,0.2-0.4,0.4-0.4h4.1c0.6,0,1.1-0.4,1.2-1c0.1-0.7-0.4-1.3-1.1-1.3h-4.1
		c-0.2,0-0.4-0.2-0.4-0.4v-6.7c0-0.2,0.2-0.4,0.4-0.4h-3.3C31.3,30.4,31.5,30.5,31.5,30.7z"/>
	<path id="XMLID_369_" d="M28.3,27.8h-2.2c0,0,0,0,0,0c-0.1,0-0.1,0-0.2-0.1c0,0,0,0-0.1-0.1L14.9,14.6c-0.1-0.1-0.1-0.3,0-0.4
		l8.5-11.9c0.6-0.8,0.3-1.8-0.6-2.1c-0.6-0.2-1.2,0-1.6,0.5l-7.9,11.2c-0.1,0.2-0.4,0.2-0.6,0l-8-11.3C4.5,0.3,4.1,0.1,3.6,0.1
		c-1.1,0-1.7,1.2-1.1,2.1l8.6,11.9c0.1,0.1,0.1,0.3,0,0.4L0.3,27.5c-0.1,0.1-0.1,0.2-0.2,0.2C0,27.9,0,28,0,28.2v1
		c0,0.6,0.5,1.1,1.1,1.1h10.3c0.2,0,0.4,0.2,0.4,0.4v25.8c0,0.7,0.5,1.3,1.2,1.4c0.9,0.1,1.6-0.5,1.6-1.4V30.7
		c0-0.2,0.2-0.4,0.4-0.4h11.2h2.6v-2.9C28.7,27.6,28.5,27.8,28.3,27.8z M22,28H4.1c-0.2-0.1-0.2-0.4-0.1-0.5l8.8-10.3
		c0.1-0.2,0.4-0.2,0.5,0l8.8,10.3C22.2,27.6,22.2,27.9,22,28z"/>
</g>
</svg>
