<?xml version="1.0" encoding="utf-8"?>
<!-- Generator: Adobe Illustrator 20.0.0, SVG Export Plug-In . SVG Version: 6.00 Build 0)  -->
<svg version="1.1" id="圖層_1" xmlns="http://www.w3.org/2000/svg" xmlns:xlink="http://www.w3.org/1999/xlink" x="0px" y="0px"
	 viewBox="0 0 500 100" style="enable-background:new 0 0 500 100;" xml:space="preserve">
<style type="text/css">
	.st0{fill:#898989;}
	.st1{fill:#5D5D5D;}
</style>
<g id="XMLID_21_">
	<g id="XMLID_23_">
		<path id="XMLID_35_" class="st0" d="M253,62.2c-5.1,0-8.5-4-8.5-9.2s3.4-9.1,8.5-9.1c3.2,0,5.5,1.5,6.8,3.7l4.4-3.1
			c-2.5-3.9-6.1-5.7-11.2-5.7c-8,0-14.4,6.1-14.4,14.3s6.4,14.4,14.4,14.4c5.4,0,9.3-2.4,11.7-6.2l-4.5-3.1
			C258.6,60.5,256.6,62.2,253,62.2z"/>
		<polygon id="XMLID_34_" class="st0" points="298.6,50.9 286.6,50.9 286.6,39 280.8,39 280.8,67 286.6,67 286.6,56 298.6,56 
			298.6,67 304.3,67 304.3,39 298.6,39 		"/>
		<path id="XMLID_31_" class="st0" d="M332.4,38.8L320,67h5.6l1.6-3.8H338l1.6,3.8h6.1l-12.8-28.2L332.4,38.8z M329.1,58.4l3.4-9.2
			l3.5,9.2H329.1z"/>
		<path id="XMLID_30_" class="st0" d="M414.5,56.7h6.7v4.5c-1.4,0.7-3.7,1-5.5,1c-5.9,0-9.3-4-9.3-9.2s3.3-9.1,8.4-9.1
			c3.2,0,4.9,1.1,6.3,2.5l3.9-3.9c-2.3-2.6-5.6-3.9-10.2-3.9c-8.4,0-14.3,6.1-14.3,14.3c0,8.3,6,14.4,15.2,14.4
			c5.1,0,9.1-1.9,10.7-3.2V51.6h-12L414.5,56.7L414.5,56.7z"/>
		<polygon id="XMLID_29_" class="st0" points="448.5,61.9 448.5,55.4 459.7,55.4 459.7,50.5 448.5,50.5 448.5,44.1 461.2,44.1 
			461.2,39 442.7,39 442.7,67 461.8,67 461.8,61.9 		"/>
		<polygon id="XMLID_27_" class="st0" points="379,54.8 361.9,38.8 361.4,38.8 361.4,48.4 361.4,67 361.4,67 366.8,67 366.8,67 
			366.8,51.3 383.8,67.2 384.4,67.2 384.4,56.6 384.4,39 379,39 		"/>
	</g>
</g>
<g id="XMLID_1_">
	<path id="XMLID_13_" d="M61.6,36.6l6.2-9.2h6.5L60.9,46.3l14.9,20.6h-7.2l-7.1-10.3c-1.4-2-3.2-4.9-4.4-6.8
		c-1.2,1.9-3.1,4.9-4.4,6.8l-7,10.3h-6.8l14.9-20.6L40,27.3h6.9l6.5,9.2c0.8,1.1,3.2,4.8,4.2,6.4C58.4,41.4,60.9,37.6,61.6,36.6z"/>
	<path id="XMLID_11_" d="M91.9,62h16.6v4.9H86.1V27.3h5.8V62z"/>
	<path id="XMLID_9_" d="M124,66.9V32.2l-12.3,0.2v-5h30v5l-12-0.2v34.7H124z"/>
	<path id="XMLID_7_" d="M159.1,38.2h7.8v4.3h-7.8v12.7c0,4.6,0.6,7.8,5,7.8c1.1,0,2.1-0.2,3.1-0.7l0.2,4.3c-1.3,0.5-2.9,0.8-4.6,0.8
		c-7.3,0-9-4.4-9-10.7V42.4h-6.6v-4.3h6.6v-6.8l5.3-1.8V38.2z"/>
	<path id="XMLID_4_" class="st1" d="M191.9,64.6c0,0.8-0.1,1.8-0.1,2.3h-2.2c0.1-1.1,0.1-2.6,0.1-4V47.1h2.4v5.1
		c0,1.3,0,2.6-0.1,3.5h0.1c0.9-1.5,2.6-2.5,4.6-2.5c3.5,0,5.7,3,5.7,6.9c0,4.1-2.3,7.1-5.9,7.1C194.4,67.2,192.9,66.1,191.9,64.6
		L191.9,64.6z M192.2,60.3c0,2.7,1.7,4.9,3.9,4.9c2.3,0,3.7-2.1,3.7-4.9c0-2.9-1.4-5-3.7-5C193.9,55.3,192.2,57.5,192.2,60.3z"/>
	<path id="XMLID_2_" class="st1" d="M211.9,61.6c0.3,0.8,0.7,2.3,1,3.3h0.1c0.3-0.9,0.7-2.5,1-3.3l2.7-8.1h2.5l-4.8,13.2
		c-1.7,4.5-2.8,6-5.6,6c-0.4,0-1-0.1-1.5-0.2l0.2-2c0.4,0.1,0.8,0.2,1.2,0.2c1.4,0,2-0.8,2.9-3.2l-5.1-13.9h2.7L211.9,61.6z"/>
</g>
</svg>
