<?xml version="1.0" encoding="utf-8"?>
<!-- Generator: Adobe Illustrator 17.1.0, SVG Export Plug-In . SVG Version: 6.00 Build 0)  -->
<!DOCTYPE svg PUBLIC "-//W3C//DTD SVG 1.1//EN" "http://www.w3.org/Graphics/SVG/1.1/DTD/svg11.dtd">
<svg version="1.1" id="圖層_1" xmlns="http://www.w3.org/2000/svg" xmlns:xlink="http://www.w3.org/1999/xlink" x="0px" y="0px"
	 viewBox="0 0 389.6 129.4" enable-background="new 0 0 389.6 129.4" xml:space="preserve">
<g>
	<g id="XMLID_103_">
		<g id="XMLID_104_">
			<path id="XMLID_147_" fill="#898989" d="M180.8,118.9c-5.1,0-8.5-4-8.5-9.2c0-5.2,3.4-9.1,8.5-9.1c3.2,0,5.5,1.5,6.8,3.7l4.4-3.1
				c-2.5-3.9-6.1-5.7-11.2-5.7c-8,0-14.4,6.1-14.4,14.3s6.4,14.4,14.4,14.4c5.4,0,9.3-2.4,11.7-6.2l-4.5-3.1
				C186.4,117.2,184.4,118.9,180.8,118.9z"/>
			<polygon id="XMLID_146_" fill="#898989" points="226.4,107.6 214.4,107.6 214.4,95.7 208.7,95.7 208.7,123.7 214.4,123.7 
				214.4,112.7 226.4,112.7 226.4,123.7 232.1,123.7 232.1,95.7 226.4,95.7 			"/>
			<path id="XMLID_108_" fill="#898989" d="M260.2,95.4l-12.3,28.2h5.6l1.6-3.8h10.9l1.6,3.8h6.1l-12.8-28.2L260.2,95.4z
				 M256.9,115.1l3.4-9.2l3.5,9.2H256.9z"/>
			<path id="XMLID_107_" fill="#898989" d="M342.3,113.3h6.7v4.5c-1.4,0.7-3.7,1-5.5,1c-5.9,0-9.3-4-9.3-9.2c0-5.2,3.3-9.1,8.4-9.1
				c3.2,0,4.9,1.1,6.3,2.5l3.9-3.9c-2.3-2.6-5.6-3.9-10.2-3.9c-8.4,0-14.3,6.1-14.3,14.3c0,8.3,6,14.4,15.2,14.4
				c5.1,0,9.1-1.9,10.7-3.2v-12.5h-12L342.3,113.3L342.3,113.3z"/>
			<polygon id="XMLID_106_" fill="#898989" points="376.3,118.6 376.3,112.1 387.5,112.1 387.5,107.2 376.3,107.2 376.3,100.8 
				389,100.8 389,95.7 370.5,95.7 370.5,123.7 389.6,123.7 389.6,118.6 			"/>
			<polygon id="XMLID_105_" fill="#898989" points="306.8,111.4 289.7,95.4 289.2,95.4 289.2,105.1 289.2,123.7 289.2,123.7 
				294.6,123.7 294.6,123.7 294.6,107.9 311.6,123.9 312.2,123.9 312.2,113.3 312.2,95.7 306.8,95.7 			"/>
		</g>
	</g>
	<g id="XMLID_9_">
		<path id="XMLID_12_" fill="#5D5D5D" d="M119.7,121.3c0,0.8-0.1,1.8-0.1,2.3h-2.2c0.1-1.1,0.1-2.6,0.1-4v-15.8h2.4v5.1
			c0,1.3,0,2.6-0.1,3.5h0.1c0.9-1.5,2.6-2.5,4.6-2.5c3.5,0,5.7,3,5.7,6.9c0,4.1-2.3,7.1-5.9,7.1
			C122.2,123.9,120.7,122.8,119.7,121.3L119.7,121.3z M120,116.9c0,2.7,1.7,4.9,3.9,4.9c2.3,0,3.7-2.1,3.7-4.9c0-2.9-1.4-5-3.7-5
			C121.7,112,120,114.2,120,116.9z"/>
		<path id="XMLID_10_" fill="#5D5D5D" d="M139.7,118.3c0.3,0.8,0.7,2.3,1,3.3h0.1c0.3-0.9,0.7-2.5,1-3.3l2.7-8.1h2.5l-4.8,13.2
			c-1.7,4.5-2.8,6-5.6,6c-0.4,0-1-0.1-1.5-0.2l0.2-2c0.4,0.1,0.8,0.2,1.2,0.2c1.4,0,2-0.8,2.9-3.2l-5.1-13.9h2.7L139.7,118.3z"/>
	</g>
	<g id="XMLID_2_">
		<path id="XMLID_8_" fill="#0098FF" d="M95.1,59.8H68.2c-0.4,0-0.8-0.3-0.8-0.8V2.9c0-1.7-1.4-3-3.1-2.9c-1.5,0.2-2.7,1.4-2.7,3v56
			v6.3h5.3h7H95c1.4,0,2.6-1,2.8-2.3C98,61.2,96.7,59.8,95.1,59.8z"/>
		<path id="XMLID_7_" d="M67.6,66v14.5c0,0.4-0.3,0.8-0.8,0.8H61c-1.2,0-2.3,0.9-2.5,2.1c-0.2,1.5,1,2.8,2.4,2.8h5.9
			c0.4,0,0.8,0.3,0.8,0.8v26.7c0,1.5,0.2,2.9,0.6,4.3c0.4,1.3,1,2.5,1.9,3.4c0.9,1,2,1.8,3.4,2.3c1.4,0.6,3.1,0.9,5,0.9
			c8,0.1,13.5-2.6,15.6-4.2c0.8-0.6,1-1.8,0.2-2.6c-1.4-1.5-3.6-2.8-5.7-1.5c-4.2,2.7-7.4,3.1-8.7,3.3c-0.3,0.1-0.6,0.1-0.9,0.1
			c-1.7-0.1-3.6-0.7-4.5-1.6c-1-1-1.6-2.5-1.6-4.4V87c0-0.4,0.3-0.8,0.8-0.8h8.7c1.2,0,2.3-0.9,2.5-2.1c0.2-1.5-1-2.8-2.4-2.8h-8.8
			c-0.4,0-0.8-0.3-0.8-0.8V66c0-0.4,0.3-0.8,0.8-0.8h-7C67.3,65.2,67.6,65.6,67.6,66z"/>
		<path id="XMLID_4_" d="M60.8,59.8H56c0,0,0,0,0,0c-0.2,0-0.3-0.1-0.4-0.1c-0.1,0-0.1-0.1-0.2-0.1L32,31.4c-0.2-0.3-0.2-0.7,0-0.9
			L50.2,4.9c1.2-1.7,0.6-3.8-1.4-4.5c-1.3-0.4-2.6,0-3.4,1.1L28.6,25.6c-0.3,0.4-1,0.4-1.3,0L10.2,1.4C9.6,0.6,8.8,0.2,7.8,0.2
			c-2.4,0-3.7,2.7-2.3,4.6L24,30.4c0.2,0.3,0.2,0.7,0,1L0.6,59.1c-0.1,0.2-0.2,0.3-0.3,0.5c-0.1,0.3-0.2,0.7-0.2,1v2.2
			c0,1.3,1.1,2.4,2.4,2.4h22.1c0.4,0,0.8,0.3,0.8,0.8v55.4c0,1.5,1,2.8,2.5,3.1c1.9,0.3,3.5-1.1,3.5-3V66c0-0.4,0.3-0.8,0.8-0.8h24
			h5.6V59C61.6,59.4,61.3,59.8,60.8,59.8z M47.3,60.1H8.8c-0.3-0.2-0.5-0.8-0.1-1.1l18.8-22.1c0.3-0.4,0.9-0.4,1.2,0L47.4,59
			C47.7,59.4,47.6,59.9,47.3,60.1z"/>
	</g>
</g>
</svg>
