<?xml version="1.0" encoding="utf-8"?>
<!-- Generator: Adobe Illustrator 17.1.0, SVG Export Plug-In . SVG Version: 6.00 Build 0)  -->
<svg version="1.2" baseProfile="tiny" id="圖層_1"
	 xmlns="http://www.w3.org/2000/svg" xmlns:xlink="http://www.w3.org/1999/xlink" x="0px" y="0px" viewBox="0 0 60.8 36.6"
	 xml:space="preserve">
<g id="XMLID_374_">
	<path id="XMLID_377_" fill="#231815" d="M60,5.2c0.3,0,0.6-0.3,0.6-0.6v-4C60.6,0.3,60.3,0,60,0H42.3c-1.4,0-2.6,1.2-2.6,2.6V34
		c0,1.4,1.2,2.6,2.6,2.6H60c0.3,0,0.6-0.3,0.6-0.6v-4c0-0.3-0.3-0.6-0.6-0.6H44.9V5.2H60z"/>
	<path id="XMLID_376_" fill="#231815" d="M20.3,5.2c0.3,0,0.6-0.3,0.6-0.6v-4c0-0.3-0.3-0.6-0.6-0.6H2.6C1.2,0,0,1.2,0,2.6V34
		c0,1.4,1.2,2.6,2.6,2.6h17.7c0.3,0,0.6-0.3,0.6-0.6v-4c0-0.3-0.3-0.6-0.6-0.6H5.2V5.2H20.3z"/>
	<path id="XMLID_375_" fill="#9E0047" d="M60.2,15.7h-39c-0.3,0-0.6,0.3-0.6,0.6v3.9c0,0.3,0.3,0.6,0.6,0.6h39
		c0.3,0,0.6-0.3,0.6-0.6v-3.9C60.8,16,60.5,15.7,60.2,15.7z"/>
</g>
</svg>
