<?xml version="1.0" encoding="utf-8"?>
<!-- Generator: Adobe Illustrator 17.1.0, SVG Export Plug-In . SVG Version: 6.00 Build 0)  -->
<!DOCTYPE svg PUBLIC "-//W3C//DTD SVG 1.1//EN" "http://www.w3.org/Graphics/SVG/1.1/DTD/svg11.dtd">
<svg version="1.1" id="圖層_1" xmlns="http://www.w3.org/2000/svg" xmlns:xlink="http://www.w3.org/1999/xlink" x="0px" y="0px"
	 viewBox="0 0 650.8 142.1" enable-background="new 0 0 650.8 142.1" xml:space="preserve">
<g>
	<g id="XMLID_214_">
		<path id="XMLID_219_" fill="#0098FF" d="M106.9,69.2H76.7c-0.5,0-0.9-0.4-0.9-0.9V5.2c0-1.9-1.6-3.4-3.5-3.2c-1.7,0.2-3,1.6-3,3.4
			v63v7h5.9h7.9h23.7c1.5,0,2.9-1.1,3.1-2.6C110.3,70.9,108.8,69.2,106.9,69.2z"/>
		<path id="XMLID_218_" d="M76.1,76.2v16.3c0,0.5-0.4,0.9-0.9,0.9h-6.5c-1.4,0-2.6,1-2.8,2.4c-0.2,1.7,1.1,3.2,2.7,3.2h6.6
			c0.5,0,0.9,0.4,0.9,0.9v30.1c0,1.7,0.2,3.3,0.7,4.8c0.4,1.5,1.1,2.8,2.1,3.9c1,1.1,2.2,2,3.8,2.6c1.6,0.7,3.5,1,5.7,1
			c9,0.1,15.1-2.9,17.6-4.7c0.9-0.7,1.1-2,0.3-2.9c-1.5-1.7-4-3.2-6.4-1.7c-4.8,3.1-8.3,3.5-9.7,3.7c-0.3,0.1-0.7,0.1-1,0.1
			c-1.9-0.1-4-0.8-5.1-1.9c-1.2-1.2-1.7-2.8-1.7-4.9V99.8c0-0.5,0.4-0.9,0.9-0.9H93c1.4,0,2.6-1,2.8-2.4c0.2-1.7-1.1-3.2-2.7-3.2
			h-9.9c-0.5,0-0.9-0.4-0.9-0.9V76.2c0-0.5,0.4-0.9,0.9-0.9h-7.9C75.7,75.4,76.1,75.8,76.1,76.2z"/>
		<path id="XMLID_215_" d="M68.4,69.2H63c0,0,0,0,0,0c-0.2,0-0.3-0.1-0.5-0.2c-0.1,0-0.1-0.1-0.2-0.2L36,37.3
			c-0.3-0.3-0.3-0.7,0-1.1L56.5,7.5c1.4-1.9,0.7-4.3-1.5-5.1c-1.5-0.5-3,0-3.8,1.2l-19,27.2c-0.3,0.5-1.1,0.5-1.4,0L11.5,3.6
			c-0.6-0.9-1.6-1.4-2.7-1.4c-2.6,0-4.2,3-2.6,5.1L27,36.2c0.2,0.3,0.2,0.8,0,1.1L0.6,68.5c-0.1,0.2-0.3,0.4-0.4,0.6
			C0.1,69.4,0,69.8,0,70.2v2.5c0,1.5,1.2,2.7,2.7,2.7h24.8c0.5,0,0.9,0.4,0.9,0.9v62.3c0,1.7,1.2,3.2,2.8,3.4c2.1,0.3,4-1.3,4-3.3
			V76.2c0-0.5,0.4-0.9,0.9-0.9h27h6.3v-7C69.3,68.8,68.9,69.2,68.4,69.2z M53.2,69.6H9.9c-0.4-0.3-0.5-0.9-0.2-1.3l21.2-24.9
			c0.3-0.4,1-0.4,1.3,0l21.2,24.9C53.7,68.8,53.5,69.4,53.2,69.6z"/>
	</g>
	<g id="XMLID_209_">
		<g id="XMLID_210_">
			<path id="XMLID_213_" fill="#231815" d="M372.5,56.2c0.6,0,1.1-0.5,1.1-1.1v-7.3c0-0.6-0.5-1.1-1.1-1.1h-32.3
				c-2.6,0-4.7,2.1-4.7,4.7v57.3c0,2.6,2.1,4.7,4.7,4.7h32.3c0.6,0,1.1-0.5,1.1-1.1v-7.3c0-0.6-0.5-1.1-1.1-1.1h-27.6V56.2H372.5z"
				/>
			<path id="XMLID_212_" fill="#231815" d="M300.1,56.2c0.6,0,1.1-0.5,1.1-1.1v-7.3c0-0.6-0.5-1.1-1.1-1.1h-32.3
				c-2.6,0-4.7,2.1-4.7,4.7v57.3c0,2.6,2.1,4.7,4.7,4.7h32.3c0.6,0,1.1-0.5,1.1-1.1v-7.3c0-0.6-0.5-1.1-1.1-1.1h-27.6V56.2H300.1z"
				/>
			<path id="XMLID_211_" fill="#9E0047" d="M372.9,75.4h-71.3c-0.6,0-1.1,0.5-1.1,1.1v7.1c0,0.6,0.5,1.1,1.1,1.1h71.3
				c0.6,0,1.1-0.5,1.1-1.1v-7.1C374,75.9,373.5,75.4,372.9,75.4z"/>
		</g>
	</g>
	<g>
		<line id="XMLID_208_" fill="none" stroke="#231815" stroke-miterlimit="10" x1="161.6" y1="57.8" x2="199.4" y2="97.3"/>
		<line id="XMLID_207_" fill="none" stroke="#231815" stroke-miterlimit="10" x1="199.4" y1="57.8" x2="161.6" y2="97.3"/>
	</g>
	<g>
		<g>
			<path fill="#231815" d="M556.6,102.7h12.2c7.1,0,9.5,5.2,9.5,10.4c0,7.2-4.4,10.4-11,10.4h-3.7v13.9h-7V102.7z M563.6,118.4h3.1
				c2.8,0,4.7-1.7,4.7-5.2c0-3.4-1.4-5.3-4.9-5.3h-2.9V118.4z"/>
			<path fill="#231815" d="M592.9,102c10.5,0,11.8,7.5,11.8,18c0,10.5-1.3,18-11.8,18c-10.5,0-11.8-7.5-11.8-18
				C581.1,109.5,582.4,102,592.9,102z M592.9,133c4.1,0,4.8-3.5,4.8-12.9c0-9.3-0.7-12.9-4.8-12.9c-4.1,0-4.8,3.6-4.8,12.9
				C588.1,129.4,588.8,133,592.9,133z"/>
			<path fill="#231815" d="M614.1,102.7l4.9,25.7h0.1l5.2-25.7h7.2l-8,34.7h-9l-8-34.7H614.1z"/>
		</g>
		<path fill="#231815" d="M592.9,0L535,88.5h9.7l11.9-18.3l11.9,18.3h82.2L592.9,0z M573,80.4l-11.5-17.6l31.4-48l42.9,65.6H573z"/>
	</g>
	<g>
		<line id="XMLID_221_" fill="none" stroke="#231815" stroke-miterlimit="10" x1="437.6" y1="57.8" x2="475.4" y2="97.3"/>
		<line id="XMLID_220_" fill="none" stroke="#231815" stroke-miterlimit="10" x1="475.4" y1="57.8" x2="437.6" y2="97.3"/>
	</g>
</g>
</svg>
