<?xml version="1.0" encoding="utf-8"?>
<!-- Generator: Adobe Illustrator 17.1.0, SVG Export Plug-In . SVG Version: 6.00 Build 0)  -->
<!DOCTYPE svg PUBLIC "-//W3C//DTD SVG 1.1//EN" "http://www.w3.org/Graphics/SVG/1.1/DTD/svg11.dtd">
<svg version="1.1" id="圖層_1" xmlns="http://www.w3.org/2000/svg" xmlns:xlink="http://www.w3.org/1999/xlink" x="0px" y="0px"
	 viewBox="0 0 1600 900" enable-background="new 0 0 1600 900" xml:space="preserve">
<g>
	<rect y="611" fill="#E4F9F8" width="1600" height="179.4"/>
	<g>
		<g id="XMLID_103_">
			<g id="XMLID_104_">
				<path id="XMLID_147_" fill="#898989" d="M1409.4,750.6c-3.7,0-6.1-2.7-6.1-6.5s2.4-6.5,6.1-6.5c2.4,0,3.7,1,4.8,2.7l3.1-2.4
					c-1.7-2.7-4.4-4.1-7.8-4.1c-5.8,0-10.2,4.4-10.2,10.2s4.4,10.2,10.2,10.2c3.7,0,6.5-1.7,8.2-4.4l-3.1-2
					C1413.4,749.6,1411.7,750.6,1409.4,750.6z"/>
				<polygon id="XMLID_146_" fill="#898989" points="1442,742.8 1433.2,742.8 1433.2,734.3 1429.1,734.3 1429.1,754 1433.2,754 
					1433.2,746.2 1442,746.2 1442,754 1446.1,754 1446.1,734.3 1442,734.3 				"/>
				<path id="XMLID_108_" fill="#898989" d="M1465.9,733.9L1457,754h4.1l1-2.7h7.8l1,2.7h4.4l-9.2-20.1H1465.9z M1463.8,747.9
					l2.4-6.5l2.4,6.5H1463.8z"/>
				<path id="XMLID_107_" fill="#898989" d="M1524.8,746.9h4.8v3.4c-1,0.3-2.7,0.7-3.7,0.7c-4.1,0-6.5-2.7-6.5-6.5s2.4-6.5,6.1-6.5
					c2.4,0,3.4,0.7,4.4,1.7l2.7-2.7c-1.7-2-4.1-2.7-7.1-2.7c-6.1,0-10.2,4.4-10.2,10.2s4.4,10.2,10.9,10.2c3.7,0,6.5-1.4,7.8-2.4
					v-8.9h-8.5L1524.8,746.9L1524.8,746.9z"/>
				<polygon id="XMLID_106_" fill="#898989" points="1548.9,750.6 1548.9,745.8 1556.8,745.8 1556.8,742.4 1548.9,742.4 
					1548.9,737.7 1558.1,737.7 1558.1,734.3 1544.9,734.3 1544.9,754 1558.5,754 1558.5,750.6 				"/>
				<polygon id="XMLID_105_" fill="#898989" points="1499.2,745.5 1487,733.9 1486.6,733.9 1486.6,740.7 1486.6,754 1486.6,754 
					1490.7,754 1490.7,754 1490.7,742.8 1502.6,754.3 1503,754.3 1503,746.5 1503,734.3 1499.2,734.3 				"/>
			</g>
		</g>
		<g id="XMLID_33_">
			<path id="XMLID_36_" fill="#5D5D5D" d="M1365.8,752.3c0,0.7,0,1.4,0,1.7h-1.7c0-0.7,0-1.7,0-2.7V740h1.7v3.7c0,1,0,1.7,0,2.4l0,0
				c0.7-1,1.7-1.7,3.4-1.7c2.4,0,4.1,2,4.1,4.8c0,3.1-1.7,5.1-4.1,5.1C1367.5,754.3,1366.5,753.7,1365.8,752.3L1365.8,752.3z
				 M1365.8,749.2c0,2,1.4,3.4,2.7,3.4c1.7,0,2.7-1.7,2.7-3.4c0-2-1-3.4-2.7-3.4C1367.1,745.8,1365.8,747.2,1365.8,749.2z"/>
			<path id="XMLID_34_" fill="#5D5D5D" d="M1380.1,750.3c0.3,0.7,0.7,1.7,0.7,2.4l0,0c0.3-0.7,0.7-1.7,0.7-2.4l2-5.8h1.7l-3.4,9.5
				c-1,3.4-2,4.1-4.1,4.1c-0.3,0-0.7,0-1,0v-1.4c0.3,0,0.7,0,0.7,0c1,0,1.4-0.7,2-2.4l-3.7-9.9h2L1380.1,750.3z"/>
		</g>
		<g id="XMLID_14_">
			<path id="XMLID_32_" fill="#0098FF" d="M1348.1,708.4H1329c-0.3,0-0.7-0.3-0.7-0.7v-39.8c0-1-1-2-2-2s-2,1-2,2v39.8v4.4h3.7h5.1
				h15c1,0,1.7-0.7,2-1.7C1350.1,709.4,1349.4,708.4,1348.1,708.4z"/>
			<path id="XMLID_31_" d="M1328.7,712.8V723c0,0.3-0.3,0.7-0.7,0.7h-4.1c-1,0-1.7,0.7-1.7,1.4c0,1,0.7,2,1.7,2h4.1
				c0.3,0,0.7,0.3,0.7,0.7v19.1c0,1,0,2,0.3,3.1c0.3,1,0.7,1.7,1.4,2.4c0.7,0.7,1.4,1.4,2.4,1.7s2,0.7,3.7,0.7
				c5.8,0,9.5-1.7,11.2-3.1c0.7-0.3,0.7-1.4,0.3-1.7c-1-1-2.7-2-4.1-1c-3.1,2-5.4,2-6.1,2.4c-0.3,0-0.3,0-0.7,0
				c-1.4,0-2.4-0.3-3.1-1s-1-1.7-1-3.1v-19.1c0-0.3,0.3-0.7,0.7-0.7h6.1c1,0,1.7-0.7,1.7-1.4c0-1-0.7-2-1.7-2h-6.5
				c-0.3,0-0.7-0.3-0.7-0.7v-10.2c0-0.3,0.3-0.7,0.7-0.7h-5.1C1328.3,712.5,1328.7,712.8,1328.7,712.8z"/>
			<path id="XMLID_17_" d="M1323.6,708.4h-3.4l0,0h-0.3l0,0l-16.7-20.1c0-0.3-0.3-0.3,0-0.7l12.9-18.4c1-1.4,0.3-2.7-1-3.1
				c-1-0.3-2,0-2.4,0.7l-11.9,17.4c-0.3,0.3-0.7,0.3-1,0l-12.3-17.4c-0.3-0.7-1-1-1.7-1c-1.7,0-2.7,2-1.7,3.4l13.3,18.4
				c0,0.3,0,0.3,0,0.7l-16.7,19.7c0,0,0,0.3-0.3,0.3c0,0.3,0,0.3,0,0.7v1.7c0,1,0.7,1.7,1.7,1.7h15.7c0.3,0,0.7,0.3,0.7,0.7v39.5
				c0,1,0.7,2,1.7,2c1.4,0.3,2.4-0.7,2.4-2v-39.5c0-0.3,0.3-0.7,0.7-0.7h17h4.1V708C1324.3,708.4,1323.9,708.4,1323.6,708.4z
				 M1314,708.7h-27.6c-0.3-0.3-0.3-0.7,0-0.7l13.3-15.7c0.3-0.3,0.7-0.3,0.7,0l13.3,15.7C1314.4,708.4,1314.4,708.7,1314,708.7z"/>
		</g>
	</g>
</g>
<g>
	<g id="XMLID_279_">
		<g id="XMLID_353_">
			<path id="XMLID_355_" fill="#8C4817" d="M397.3,296.5l80.3,2.4l5.1,5.8l-2.4,2.7c0,0-55.5,13.3-82.4,15l-8.5-15.3L397.3,296.5z"
				/>
			<polygon id="XMLID_354_" fill="#8C4817" points="107.6,302.3 236.9,291 235.9,282.9 115.1,282.9 			"/>
		</g>
		<path id="XMLID_303_" fill="#333333" d="M402,297.8c0,0,0.3-2-6.5-2s-22.8-3.4-22.8-3.4s-92.3-13.6-119.8,0c0,0-7.1,1-14.6,10.9
			c0,0-4.8,5.4-19.1,3.4c0,0-8.9-3.4-11.2-9.5c-2-6.1-22.5-11.9-22.5-11.9s-48.3-15.7-78.6-4.1l1,23.1c0,0,4.4,1.7,5.4,15
			c1.4,13.3,8.5,48,14.3,55.1c4.8,6.1,22.8,20.8,58.9,15.7c9.5-1.4,17.7-8.2,20.4-17.7c3.1-9.9,7.1-25.5,11.9-48.7
			c0,0,13.6-1.7,16.7,12.9c3.1,14.6,16.3,43.2,16.3,43.2s7.8,15.7,24.2,20.8c19.7,6.1,63,12.6,86.8-1.7c0,0,6.8-3.1,8.5-20.8
			l6.5-41.5c0,0-3.7-13.6,18.4-13.3c0,0,6.1,2.7,6.1-7.8C402.4,305.3,402,297.8,402,297.8z M198.8,370.3
			c-9.9,21.8-28.6,14.3-47,10.9s-25.2-34.4-25.2-34.4s-10.9-36.1-3.4-52.8c6.8-15.3,39.1-6.5,44.6-4.8c0.7,0,1,0.3,1.7,0.3
			c36.4,4.4,37.1,32.3,37.1,36.8c0,0.3,0,0.7,0,1C206.6,331.2,207.7,350.6,198.8,370.3z M365.3,334.9c-1,25.9,1,11.6-2.7,36.1
			c0,0-5.4,22.8-22.8,25.9c-17,2.7-47.7,5.1-65.4-5.8c-16.3-9.9-26.2-43.6-27.9-49c0-0.3-0.3-1-0.3-1.4l-2-17c0-0.3,0-1,0-1.4
			c0-4.1,1.4-22.8,21.8-25.5c0.7,0,1.4-0.3,2-0.3c5.4-1.4,16.7-5.1,44.3-3.1c32.7,2.4,38.8,8.5,38.8,8.5S366.6,309.1,365.3,334.9z"
			/>
		<path id="XMLID_302_" fill="#333333" d="M235.9,282.9v8.5l42.2-1l8.5,1c0,0,28.6,20.1,41.5,47.3c3.1,6.5,10.2,10.6,17.4,9.2l0,0
			c4.8-0.7,6.8-6.8,3.1-10.6l-50-46C298.6,291.4,289,280.1,235.9,282.9z"/>
		<path id="XMLID_280_" fill="#333333" d="M476.9,298.2v10.2l7.1-1.7c0.3,0,0.3,0,0.3,0.3c-1.4,5.1-12.6,47-9.2,51.1
			c4.4,5.4,10.9,5.8,8.5-3.4c-1-3.1-1-6.5,0-9.5c2.4-8.5,4.8-23.5,7.1-36.1C490.9,309.4,494,295.1,476.9,298.2z"/>
	</g>
	<g>
		<path fill="#5D5D5D" d="M183.1,494.9h-9.5v4.1h-5.4v-37.1h15L183.1,494.9L183.1,494.9z M173.6,467v8.5h4.4V467H173.6z M178,489.8
			v-9.2h-4.4v9.2H178z M200.5,469.4v4.4h9.5v5.1h-3.4v3.7h4.8v5.1h-4.8v10.6c0,2.7-0.7,4.1-2.4,5.1c-1.7,0.7-4.4,1-8.2,1
			c-0.3-1.7-1-3.7-1.7-5.4c2.4,0,5.1,0,5.8,0s1-0.3,1-1v-10.2h-17v-5.1h17V479h-15.3v-5.1h9.2v-4.4h-10.9v-5.1H195v-5.1h5.8v5.1
			h10.9v5.1h-11.2V469.4z M191,488.1c2,2.4,4.4,5.4,5.8,7.8l-5.1,3.1c-1-2-3.4-5.4-5.4-8.2L191,488.1z"/>
		<path fill="#5D5D5D" d="M224,472.1c-1-2.7-3.4-6.8-5.8-9.9l5.1-2c2.4,2.7,4.8,6.8,6.1,9.5L224,472.1z M256.3,497.7
			c0,2.7-0.7,4.4-2.4,5.1c-1.7,1-4.4,1-8.2,1c-0.3-1.7-1-4.1-1.7-5.4c2.4,0,4.8,0,5.8,0c0.7,0,1-0.3,1-1V478h-26.2v25.9h-5.8v-31.3
			h15.7V459h5.8v13.6h16V497.7z M233.9,496v3.1h-5.1v-17.4h17.7v14.6h-12.6L233.9,496L233.9,496z M233.9,486.1v5.1h7.1v-5.1H233.9z
			 M256.7,461.9c-2,3.7-4.8,7.8-6.8,10.2l-4.8-2c2-2.7,4.4-7.1,5.8-10.2L256.7,461.9z"/>
		<path fill="#5D5D5D" d="M303,499.4c0.3,0,0.7,0,0.7,0s0.3-0.3,0.3-1s0-2,0-3.7c1,1,3.1,2,4.4,2.4c0,1.7-0.3,3.7-0.7,4.4
			c-0.3,1-1,1.4-2,2c-0.7,0.3-2,0.3-2.7,0.3h-3.1c-1,0-2.7-0.3-3.4-1c-0.7-0.7-1.4-1.7-1.4-4.8v-6.5h-2.7
			c-0.7,6.5-2.7,10.6-11.6,12.9c-0.3-1.4-1.7-3.1-2.7-4.1c-5.1,1-9.9,2-14,2.7l-1-5.1c2-0.3,4.4-0.7,7.1-1V484h-6.5v-4.8h6.5v-3.4
			h-4.1v-1.7c-0.7,0.7-1.4,1.4-2,1.7c-0.3-1.4-1.4-4.4-2-5.8c3.7-2.7,7.5-6.8,9.5-11.2l4.1,2c-0.3,0.7-0.7,1-1,1.7
			c3.1,1.7,6.1,3.7,7.8,5.8l-1.7,2.7h5.8c-0.3-1-0.7-2.4-1-3.4l3.7-0.7h-6.8v-4.4h9.2c-0.3-0.7-0.7-1.7-1-2l5.1-1.4
			c0.7,1,1.4,2.4,1.7,3.4h9.5v4.4h-7.8l4.4,0.7c-0.7,1.4-1.4,2.4-1.7,3.4h6.1v4.4h-26.6v-4.1l-1,1.4l0,0v3.4h-4.8v3.4h6.1v4.8h-6.1
			V496l6.5-1.4l0.3,4.1c3.4-1.4,4.4-3.7,5.1-7.1h-3.7V477H306v14.6h-5.1v6.8c0,0.7,0,1,0.3,1c0,0,0.3,0.3,0.7,0.3h1v-0.3H303z
			 M268.3,486.1c0.7,2.7,1.4,6.1,1.7,8.2l-3.7,1c0-2.4-0.7-5.8-1.4-8.5L268.3,486.1z M278.8,471.1c-1.7-1.4-3.7-3.1-6.1-4.4
			c-1,1.7-2,3.1-3.4,4.4H278.8z M276.4,493.6c0.7-2,1.4-5.4,1.7-7.8l4.1,1c-1,2.7-1.7,5.8-2.4,7.8L276.4,493.6z M288.7,482.7H301v-2
			h-12.3V482.7z M288.7,487.8H301v-2h-12.3V487.8z M291.1,466.3c0.7,1.4,1.4,3.1,1.7,4.4h4.4c0.7-1.4,1.4-3.1,1.4-4.4H291.1z"/>
		<path fill="#5D5D5D" d="M356.4,496.6v5.1h-27.9v-20.4l-2.7,4.4c-0.7-1.4-1.7-3.1-3.1-4.8V504h-5.1v-19.1c-1.4,3.4-2.7,6.5-4.4,8.9
			c-0.7-1.7-1.7-4.1-2.7-5.8c2.7-3.1,5.4-8.9,6.8-14.3h-5.8v-5.4h6.1v-9.5h5.1v9.5h4.4v5.4h-4.4v0.7c1.4,1.4,4.4,4.8,5.4,6.1v-18.7
			h27.2v5.1h-21.8v29.6L356.4,496.6L356.4,496.6z M342.1,489.1V484H336v-4.8h6.1v-4.8h-6.5v-4.8h19.1v4.8h-7.1v4.8h6.1v4.8h-6.1v5.1
			h7.5v4.8h-19.7v-4.8H342.1z"/>
		<path fill="#9E9E9E" d="M223.7,522.5v27.2h-4.1v-2h-20.1v2.4h-4.1v-27.6L223.7,522.5L223.7,522.5z M219.6,544v-3.7
			c-0.3,0-1,0-1.7,0h-3.1c-3.1,0-3.7-1.7-3.7-5.1v-8.9h-3.4c0,8.2-1,13.3-6.1,16c-0.3-1-1.4-2.4-2.4-3.1v4.4h20.4V544z M199.5,526.3
			v12.9c4.1-2.4,4.4-6.1,4.4-12.9H199.5z M219.6,526.3h-4.8v8.9c0,1,0,1.7,0.7,1.7h2.4c0.3,0,1.4,0,1.7,0L219.6,526.3L219.6,526.3z"
			/>
		<path fill="#9E9E9E" d="M233.9,541.6c-0.7,2.4-1.7,5.4-2.7,7.1c-0.7-0.3-2.4-1-3.1-1.4c1-1.7,2-4.4,2.4-6.5L233.9,541.6z
			 M238.6,540.2v10.9h-3.7v-10.9h-6.5v-3.4h16.7v3.4H238.6z M234.9,525.6h-6.1v-3.4h6.1v-2.4h3.7v2.4h5.8v3.4h-5.8v1.7h5.1v3.4
			h-14.3v-3.4h5.4v-1.7H234.9z M243.7,532.4c1.7-3.4,2.7-7.8,3.4-12.6l3.7,0.7c-0.3,1.7-0.7,3.7-1,5.4h6.8h0.7l2.7,0.7
			c-0.7,3.4-1.7,7.1-2.4,9.5l-3.4-1c0.3-1.4,1-3.4,1.4-5.4h-6.5c-0.7,2.7-1.7,4.8-2.7,6.8c-0.7-0.3-1.7-1.4-2.4-2v1.4h-13.6v-3.4
			h13.3V532.4z M242.7,540.9c0.7,1.7,1.7,3.7,2,5.1l-3.1,1.4c-0.3-1.4-1.4-3.7-2-5.4L242.7,540.9z M253.3,533.1c0,1,0,2,0,3.1
			c1,5.1,3.4,9.2,7.1,11.2c-1,0.7-2,2.4-2.7,3.4c-2.7-1.7-4.4-4.4-5.8-7.8c-1,2.7-2.7,5.4-5.4,7.8c-0.7-1-2-2-3.1-2.7
			c5.4-4.8,6.1-11.2,6.1-15.3V531h3.7v2.1H253.3z"/>
		<path fill="#9E9E9E" d="M273.7,537.5c-1,0.3-2,0.7-3.1,1v8.5c0,1.7-0.3,2.7-1.4,3.4c-1,0.7-2.4,0.7-4.8,0.7c0-1-0.7-2.7-1-3.7
			c1.4,0,2.4,0,2.7,0c0.3,0,0.7,0,0.7-0.7v-7.5l-3.1,1l-1-3.7c1-0.3,2.4-0.7,4.1-1v-5.8h-3.4V526h3.4v-6.5h3.7v6.5h3.1v3.7h-3.1v4.8
			c1-0.3,1.7-0.3,2.7-0.7L273.7,537.5z M294.5,547H286v4.1h-3.7V547h-8.5v-3h8.5v-1.4h-7.5v-3.1h3.7c-0.3-0.7-0.3-1.4-0.7-2l2.4-0.7
			H274v-3.1h8.2v-1.4h-6.8v-2.7h6.8v-1.4h-7.1v-7.5h18.7v7.5H286v1.4h7.1v2.7H286v1.4h8.2v3.1h-5.4l2.4,0.7l-1,2h3.1v3.1H286v1.4
			h8.5V547z M280.2,523.5h-2v2.4h2V523.5z M280.9,536.8c0.3,0.7,0.7,1.7,1,2.4h4.4c0.3-0.7,0.7-1.7,1-2.4H280.9z M282.9,525.6h2
			v-2.4h-2V525.6z M288,525.6h2v-2.4h-2V525.6z"/>
		<path fill="#9E9E9E" d="M329.2,532.7v4.4h-31v-4.4H329.2z"/>
	</g>
	<g id="XMLID_273_">
		<line id="XMLID_277_" fill="none" stroke="#9E9E9E" stroke-miterlimit="10" x1="564.4" y1="342.1" x2="596.1" y2="342.1"/>
		<line id="XMLID_276_" fill="none" stroke="#9E9E9E" stroke-miterlimit="10" x1="580.1" y1="358.1" x2="580.1" y2="326.1"/>
	</g>
	<g>
		<path fill="#5D5D5D" d="M673,482.7c-1.7-1.4-5.4-3.4-8.2-4.8l2.7-3.7c2.7,1,6.5,2.7,8.2,4.4L673,482.7z M666.6,498.7
			c2.4-3.4,5.8-8.5,8.2-13.6l3.7,3.4c-2.4,4.4-5.1,9.5-7.5,13.6L666.6,498.7z M675.7,471.1c-1.7-1.4-5.4-3.4-8.2-4.8l2.7-3.7
			c2.7,1,6.5,3.1,8.2,4.4L675.7,471.1z M700.3,502.8c-0.3-1-0.7-2.4-1.4-3.7c-14.3,1.7-16.7,2-18,2.7c-0.3-1-1-3.7-1.7-5.1
			c1-0.3,1.7-1.4,2.7-2.7c0.7-1,2.7-5.1,4.8-9.2h-8.2V480h10.2v-6.1h-8.5v-4.8h8.5v-6.5h5.1v6.5h8.9v4.8h-8.9v6.1h10.6v4.8h-11.9
			c-1.7,4.1-3.7,7.8-6.1,11.2l10.2-1c-1-1.7-2-3.1-3.1-4.4l4.1-2c2.7,3.7,6.1,8.9,7.1,12.3L700.3,502.8z"/>
		<path fill="#5D5D5D" d="M747.6,464v38.8h-5.1v-1.7h-26.9v1.7h-4.8V464H747.6z M742.5,496.3v-27.9H737c1.4,0.7,2.7,1.7,3.7,2.4
			l-1.7,1.7h2v3.7h-7.8c0.3,2.4,0.3,4.8,0.7,6.8c1-1.7,1.4-3.4,2-5.4l4.1,0.7c-1,3.7-2.7,7.1-4.4,9.9c0.7,1.4,1.4,2,2,2.4
			c0.3,0.3,0.7-1.4,1-4.1c0.7,0.7,2.4,2,3.1,2.4c-0.7,5.4-3.1,7.1-5.8,5.8c-1.4-0.3-2.4-1.4-3.4-2.7c-1.4,1.4-2.7,2.7-4.4,3.7
			c-0.7-0.7-2-2.4-2.7-3.1c0.3-0.3,1-0.7,1.4-1c-3.4,0.7-6.8,1-9.9,1.4l-0.3-3.7c3.1-0.3,7.8-1,12.3-1.4v2c0.7-0.7,1.4-1.4,2-2
			c-1-3.1-1.4-7.1-1.7-11.2h-11.9V473h11.9c0-1.4,0-2.4-0.3-3.7h4.1c0,1.4,0,2.4,0.3,3.7h4.8c-1-0.7-2.4-1.7-3.4-2.4l2-2h-21.1v27.9
			L742.5,496.3L742.5,496.3z M727.8,486.8h-9.5v-8.2h9.5V486.8z M724.1,481H721v2.7h3.1V481z"/>
		<path fill="#5D5D5D" d="M763.6,469.4v26.2c0,2.7-0.3,4.1-2,4.8c-1.7,0.7-3.7,1-7.1,1c-0.3-1.4-0.7-3.7-1.4-5.1c2,0,4.1,0,4.8,0
			s1-0.3,1-1v-26.2h-6.1v-4.8h15.7v4.8h-4.8v0.3H763.6z M775.1,493.9l4.1,2.7c-2.7,2.4-7.5,4.4-11.2,5.8c-0.7-1-2-2.7-3.1-3.4
			c3.4-1,7.8-3.1,9.9-4.8h-4.4v-22.8h6.8c0.3-1,0.3-2,0.7-3.1H769v-4.8h23.8v4.4h-9.2c-0.3,1-0.7,2-1,3.1h9.2v22.8L775.1,493.9
			L775.1,493.9z M775.1,477.6h11.2v-2.7h-11.2V477.6z M775.1,484h11.2v-2.7h-11.2V484z M775.1,490.2h11.2v-2.7h-11.2V490.2z
			 M785.4,494.3c2.7,1.4,6.5,3.7,8.5,5.4l-4.1,3.1c-1.7-1.7-5.4-4.1-8.2-5.8L785.4,494.3z"/>
		<path fill="#5D5D5D" d="M802.4,491.2c-0.3,3.7-1,7.8-2,10.6c-1-0.3-2.7-1-3.7-1.4c1-2.7,1.4-6.5,1.7-9.9L802.4,491.2z
			 M796.6,474.5c1-0.3,1.7-1,2.4-2.4c1-1,3.7-5.8,5.1-10.6l4.8,2c-1.7,3.4-3.7,7.1-5.8,10.2l3.1-0.3c1-1.7,2.4-3.7,3.1-5.8l4.4,2.7
			c-2.4,4.4-5.8,8.9-9.2,12.6l4.4-0.7c-0.3-1-0.7-2-1.4-3.1l3.4-1.4c1.4,2.7,2.7,6.1,3.1,8.5l-3.7,1.4c0-0.7-0.3-1.4-0.3-2
			c-9.2,1.7-10.9,2-11.9,2.7c-0.3-1-1-3.4-1.7-4.4c1-0.3,2-1.4,3.4-2.7c0.7-0.7,1.7-1.7,2.7-3.4c-3.4,0.3-4.4,0.7-5.1,1
			C798,478.3,797.3,475.9,796.6,474.5z M806.8,490.2c0.7,2.7,1,6.5,1,8.5l-3.7,1c0-2.4-0.3-6.1-1-8.9L806.8,490.2z M836.4,476.9
			c-1,6.5-3.1,11.9-5.8,16.3c1.7,2,4.1,3.7,6.8,4.8c-1,1-2.7,3.1-3.4,4.4c-2.4-1.4-4.4-3.1-6.1-5.1c-1.7,2-3.7,3.7-6.1,5.1
			c-0.7-1.4-2-3.1-3.4-3.7c2.4-1.4,4.4-3.1,6.5-5.4c-1.4-2.4-2.4-4.8-3.4-7.5c-1,6.5-2.4,12.3-5.4,16.7c-0.7-0.7-3.1-2.7-4.4-3.1
			c0.7-1,1.4-2,1.7-3.1l-3.1,1c-0.3-1.7-1.4-4.8-2-7.1l3.4-1c0.7,2,1.4,4.4,2,6.1c3.1-6.8,3.4-16,3.4-26.6h-3.7V464H828l0.7-0.3
			l3.7,0.3c-0.3,3.7-1.4,8.2-2,11.9h1.7l0.7-0.3L836.4,476.9z M822.1,468.7c0,2.4,0,5.1-0.3,7.1h4.1c0.3-2.4,1-5.1,1.4-7.1H822.1z
			 M823.8,480.6c0.7,3.1,2,5.8,3.4,8.2c1.4-2.4,2.4-5.1,3.1-8.2H823.8z"/>
		<path fill="#5D5D5D" d="M880.7,481.3c-2.4,2-5.4,4.4-7.8,6.1c2.4,4.1,5.1,7.5,8.5,9.9c-1,1-2.7,2.7-3.7,4.1
			c-6.5-4.8-10.9-13.3-13.6-22.8c-0.7,1-1.7,2-2.7,3.1v14l6.8-2c0,1.4,0.3,3.4,0.7,4.4c-9.9,3.4-11.6,4.1-12.6,4.8
			c-0.3-1-1.7-2.7-2.7-3.7c1-0.7,2.7-2.4,2.7-4.8v-7.8c-1.4,1-2.4,2-3.7,2.7c-0.7-0.7-1.7-2.4-2.4-3.4v16.3h-5.1v-21.8
			c-0.7,1-1.7,2-2.4,3.1c-0.3-1.4-2-4.1-2.7-5.4c3.7-4.1,7.5-10.2,9.5-16.3l4.8,1.4c-1,3.1-2.7,6.5-4.4,9.5V484
			c4.1-2.7,8.2-6.5,10.9-10.2h-8.9V469H864c-0.7-1.7-1.4-4.1-2.4-6.1l4.8-1.4c1,2,2.4,4.8,2.7,6.5l-3.1,1h13.6v4.8H867
			c0.7,3.1,1.7,6.1,3.1,9.2c2-1.7,4.4-4.1,5.8-5.8L880.7,481.3z"/>
		<path fill="#5D5D5D" d="M898.7,489.8c-0.7-1-2-2.7-3.1-4.1v16.7h-5.1v-16c-1.7,1.4-3.4,2.7-5.1,3.7c-0.3-1.4-1.4-4.4-2-5.1
			c4.4-2.4,8.5-6.8,11.2-11.2h-9.9V469h7.5c-0.7-1.4-2-3.4-3.1-4.8l4.1-2.4c1.4,1.7,3.1,3.7,3.7,5.4l-2.4,1.7h3.1l1-0.3l2.7,2
			c-1.4,3.1-3.1,6.1-5.1,9.2c1.7,1.4,4.8,4.8,5.8,5.4L898.7,489.8z M920.2,498c0.7,0,1-0.7,1-4.8c1,0.7,3.1,1.7,4.1,2
			c-0.3,5.8-1.7,7.5-4.8,7.5h-2.7c-3.7,0-4.8-1.4-4.8-5.8v-8.5h-2.4c-0.7,7.1-2.4,11.9-10.6,14.6c-0.3-1-1.7-3.1-2.7-3.7
			c6.8-2,8.2-5.4,8.5-10.9h-2.7v-24.9h19.4v24.2h-4.4v8.5c0,1,0,1.4,0.7,1.4h1.4V498z M907.9,470.8h9.5V468h-9.5V470.8z
			 M907.9,477.2h9.5v-2.7h-9.5V477.2z M907.9,484h9.5v-2.7h-9.5V484z"/>
		<path fill="#5D5D5D" d="M966.5,467.4c-1.4,4.4-3.4,8.5-6.1,11.6c2.4,2,5.4,3.7,8.9,4.8c-1,1-2.4,3.1-3.1,4.4l0,0v14.3H961v-1.4
			h-7.8v1.4h-4.8v-14l-1,0.3c-0.3-0.7-1-1.7-1.7-2.4v1.4h-4.8v5.8l5.1-1l0.3,4.4c-6.1,1.4-12.6,3.1-17.7,4.1l-1-5.1l2-0.3V481h4.1
			v13.6l2-0.3V478h-6.1v-14.3h15v10.9c3.1-3.1,5.8-7.5,7.1-12.3l4.8,1.4c-0.3,1-0.7,2-1,3.1h6.1l1-0.3L966.5,467.4z M934.8,473.5
			h5.8V468h-5.8V473.5z M945.7,484.4c3.1-1.4,5.8-3.1,8.2-5.4c-1-1.4-2-2.7-2.7-3.7c-0.7,1-1.7,2-2.7,3.1c-0.7-0.7-2.4-2-3.4-3.1
			v2.7h-4.4v5.1h4.8v1.4h0.2V484.4z M962.7,486.4c-2-1-3.7-2.4-5.4-4.1c-1.7,1.4-3.4,2.7-5.4,4.1H962.7z M961,496.6v-5.8h-7.8v5.8
			H961z M954.2,470.4l-0.3,0.7c1,1.4,2,3.1,3.1,4.4c1.4-1.7,2.4-3.4,3.1-5.1H954.2z"/>
		<path fill="#5D5D5D" d="M710.1,530c-1.4-1-4.8-3.1-6.8-4.1l3.1-3.7c2,1,5.4,2.7,6.8,3.7L710.1,530z M713.9,536.5
			c-1.4,4.8-3.4,9.5-5.1,14l-4.8-2.7c1.7-3.4,3.7-8.9,5.4-14L713.9,536.5z M711.8,518.8c-1.4-1-4.8-3.1-6.8-4.4l3.1-3.7
			c2,1,5.1,3.1,6.8,4.1L711.8,518.8z M720.7,527.6c0,6.8-0.7,16.7-4.8,23.1c-0.7-0.7-2.7-2.4-3.7-2.7c3.7-5.8,4.1-14.3,4.1-20.4
			v-10.9h10.2v-6.1h4.8v1.7h10.6v3.1h-10.6v1.4h8.9h0.7l3.4,0.7c-0.3,2.4-1.4,4.8-2,6.5l-3.7-0.7c0.3-0.7,0.3-1.7,0.7-2.7h-8.5v1.4
			l5.8-0.3v2.7l-6.1,0.3c0,0.7,0.3,1,1.4,1h4.8c1,0,3.1,0,3.7-0.3c0,1.4,0.3,2,0.3,3.1c-0.7,0.3-2.7,0.3-4.1,0.3h-6.5
			c-3.1,0-4.1-1.4-4.4-3.4l-4.1,0.3l-0.3-3.4l4.1-0.3v-1.7H720v7.5h0.7V527.6z M718.6,548c1.7-1.4,2.7-3.7,3.1-6.1l3.7,1.4
			c-0.7,2.7-1.4,5.4-3.4,7.1L718.6,548z M740.8,550.1c-0.3-1-1-2.4-2-3.7c-0.3,3.4-1.7,4.4-4.1,4.4h-4.1c-3.7,0-4.8-1-4.8-4.4V543
			h3.7c-0.7-0.3-1.4-0.7-2-1l1-1H722v-10.6h19.1V541h-8.5c1,0.7,2.4,1.4,3.1,2l-2.4,2.4c-0.7-0.7-2-1.4-3.4-2.4v3.4c0,1,0.3,1,1,1
			h3.1c0.7,0,1-0.3,1-2.4c0.7,0.7,2,1,3.1,1.4c-0.7-1-1.4-1.7-2-2.7l3.4-1.7c2,2,4.1,4.8,4.8,6.8L740.8,550.1z M726.1,534.1h3.4
			v-1.7h-3.4V534.1z M726.1,537.8h3.4v-1.7h-3.4V537.8z M737,532.4h-3.4v1.7h3.4V532.4z M737,536.1h-3.4v1.7h3.4V536.1z"/>
		<path fill="#5D5D5D" d="M788.1,545.3v4.1h-40.5v-4.1h5.1v-8.2h30.6v8.2H788.1z M756.4,516.4h-8.2v-4.1h8.2v-2.4h5.1v2.4h5.1v4.1
			h-5.1v1.7h-5.1V516.4z M786.7,526.3h-12.3c-1,2.4-2.7,4.4-4.4,6.1c-0.3-0.7-1.7-2.4-2.7-3.4v2h-4.4v1.7h5.8v3.1h-18.4v-16.7h18.4
			v3.1h-5.8v1.7h4.4v4.1c2.4-2.4,4.1-5.8,5.1-9.5l4.4,1c-0.3,0.7-0.3,1.7-0.7,2.4h10.6L786.7,526.3L786.7,526.3z M754.4,522.2v1.7
			h4.1v-1.7H754.4z M763.2,526.6h-8.9v1.7h8.9V526.6z M758.8,531h-4.1v1.7h4.1V531z M757.4,545.3h4.1v-4.4h-4.1V545.3z M765.6,540.9
			v4.4h4.1v-4.4H765.6z M774.1,516.4h-5.8v-4.1h5.8v-2h5.1v2h7.8v4.1h-7.8v1.7h-5.1V516.4z M772.1,535.1v-4.4h13.6v4.4H772.1z
			 M774.1,540.9v4.4h4.1v-4.4H774.1z"/>
		<path fill="#5D5D5D" d="M825.2,545c1,0,1.4-0.7,1.7-4.1c1,0.7,3.4,1.7,4.8,2c-0.7,5.4-2,7.1-5.8,7.1h-5.4c-5.1,0-6.1-1.7-6.1-6.8
			v-12.6h-5.8c-1,8.9-3.1,16-14,20.1c-0.7-1.4-2-3.4-3.1-4.4c9.5-3.1,11.2-8.5,11.6-15.7h-10.6v-5.1h16.3v-15.7h5.4v15.7h16.3v5.1
			h-11.2v12.6c0,1.7,0.3,1.7,1.7,1.7h4.2V545z M801.4,524.2c-1-2.4-3.7-6.1-6.1-9.2l4.1-2.4c2.4,2.7,5.1,6.5,6.5,8.9L801.4,524.2z
			 M829.3,515c-2.4,3.4-5.1,6.8-7.1,9.2l-4.4-1.7c2-2.4,4.8-6.5,6.1-9.5L829.3,515z"/>
		<path fill="#5D5D5D" d="M871.1,546.7c0.3,0,0.3,0,0.7,0s0.3-0.3,0.3-1s0-1.7,0-3.4c1,0.7,2.7,1.7,4.1,2c0,1.7-0.3,3.4-0.7,4.1
			s-1,1.4-1.7,1.7s-1.7,0.3-2.4,0.3h-2.7c-1,0-2.4-0.3-3.1-1s-1-1.7-1-4.4v-5.8h-2.4c-0.7,5.8-2.4,9.5-10.2,11.6
			c-0.3-1-1.4-2.7-2.4-3.7c-4.4,1-9.2,1.7-12.6,2.7l-1-4.8c1.7-0.3,4.1-0.7,6.5-1v-11.2h-5.8v-4.4h5.8v-3.1h-3.7v-1.4
			c-0.7,0.7-1,1-1.7,1.7c-0.3-1-1.4-4.1-2-5.4c3.4-2.4,6.8-6.1,8.5-10.2l3.7,1.7c-0.3,0.7-0.7,1-0.7,1.7c2.7,1.7,5.4,3.4,7.1,5.1
			l-1.4,2.4h5.4c-0.3-1-0.7-2.4-1-3.1l3.4-0.7h-6.8v-3.7h8.5c-0.3-0.7-0.7-1.4-1-2l4.4-1c0.7,1,1,2,1.7,3.1h8.5v3.7h-7.1l4.1,0.7
			c-0.7,1-1,2.4-1.7,3.1h5.4v4.1h-23.8v-3.4l-0.7,1.4l0,0v3.1h-4.1v3.1h5.4v4.4h-5.4V544l5.8-1l0.3,3.4c3.1-1.4,4.1-3.4,4.4-6.5
			h-3.4v-13.3h20.1v13.3h-4.4v6.1c0,0.7,0,1,0.3,1c0,0,0.3,0.3,0.7,0.3H871v-0.6H871.1z M839.8,534.4c0.7,2.4,1.4,5.4,1.7,7.5
			l-3.4,1c0-2-0.7-5.1-1.4-7.5L839.8,534.4z M849.4,521.1c-1.4-1.4-3.4-2.7-5.4-4.1c-1,1.4-2,2.7-3.1,4.1H849.4z M847,541.2
			c0.7-2,1.4-5.1,1.4-7.1l3.7,1c-0.7,2.4-1.4,5.1-2,7.1L847,541.2z M858.2,531.4h11.2v-2h-11.2V531.4z M858.2,536.1h11.2v-2h-11.2
			V536.1z M860.3,516.7c0.7,1,1,2.7,1.4,3.7h3.7c0.7-1.4,1-2.7,1.4-3.7H860.3z"/>
		<path fill="#5D5D5D" d="M912,531v19.7h-5.4v-14.6h-16c-0.7,5.4-2.7,10.6-6.8,15c-0.7-1.4-2.7-3.1-3.7-4.1c5.4-5.8,6.1-14,6.1-21.4
			V511h5.1v9.2h14v-9.9h5.4v15h-19.4v0.3c0,1.7,0,3.4,0,5.4L912,531L912,531z"/>
	</g>
	<g id="XMLID_346_">
		<line id="XMLID_348_" fill="none" stroke="#9E9E9E" stroke-miterlimit="10" x1="1034.2" y1="342.1" x2="1065.9" y2="342.1"/>
		<line id="XMLID_347_" fill="none" stroke="#9E9E9E" stroke-miterlimit="10" x1="1049.9" y1="358.1" x2="1049.9" y2="326.1"/>
	</g>
	<g>
		<path fill="#5D5D5D" d="M1157.8,494.6h-9.5v4.1c0,2.4-0.3,3.7-2.4,4.4c-1.7,0.7-4.1,0.7-7.5,0.7c-0.3-1.4-1-3.1-1.4-4.4
			c2,0,4.4,0,5.1,0s1-0.3,1-0.7v-4.1h-12.3c1.7,1.4,3.7,2.7,4.8,4.1l-3.7,3.4c-1.4-1.7-4.1-4.1-6.5-5.8l1.7-1.4h-8.9v-4.1h24.9v-1.7
			c-8.5,0.3-16.7,0.3-22.8,0.3v-3.7c4.1,0,9.5,0,15.3,0V484H1123v-12.6h12.6v-1.7h-16V466h16v-2.7h5.1v2.7h16v3.7h-16.3v1.7h13.3
			V484h-3.1c2,1,4.1,2.4,5.4,3.4l-3.1,2.7c-0.7-0.3-1-1-1.7-1.4h-3.1v1.7h9.5v4.2H1157.8z M1127.5,476.2h7.8v-1.7h-7.8V476.2z
			 M1135.3,480.6v-1.7h-7.8v1.7H1135.3z M1140.4,474.5v1.7h8.2v-1.7H1140.4z M1148.3,480.6v-1.7h-7.8v1.7H1148.3z M1140.4,485.4h5.4
			c-0.7-0.3-1.4-0.7-1.7-0.7l1-0.7h-4.8L1140.4,485.4L1140.4,485.4z"/>
		<path fill="#5D5D5D" d="M1175.5,475.9h7.8v4.8h-7.8v1.4c2,1.7,6.5,5.4,7.5,6.5l-3.1,4.4c-1-1.4-3.1-3.4-4.8-5.4v15.7h-5.1V488
			c-2,3.7-4.1,7.5-6.5,9.9c-0.7-1.7-1.7-3.7-2.7-5.1c3.1-3.1,6.1-7.8,8.2-12.3h-7.1v-4.8h8.2v-5.4c-2.4,0.3-4.8,1-7.1,1
			c-0.3-1-1-3.1-1.4-4.1c6.1-1,13.3-2.7,17.4-4.4l3.7,4.1c-2,1-4.8,1.7-7.1,2.4L1175.5,475.9L1175.5,475.9z M1191.1,492.6h-5.1
			v-24.2h5.1V492.6z M1200.3,464v33.4c0,3.1-0.7,4.4-2.4,5.4c-1.7,1-4.8,1-8.5,1c-0.3-1.4-1-3.7-1.7-5.4c2.7,0,5.8,0,6.5,0
			s1-0.3,1-1V464H1200.3z"/>
		<path fill="#5D5D5D" d="M1219.7,466.7c-1,3.7-2.4,7.8-3.7,11.2c2.4,3.4,3.1,6.5,3.1,9.2s-0.7,4.8-2,5.8c-0.7,0.7-1.4,0.7-2.4,1
			c-0.7,0-1.7,0-2.7,0c0-1.4-0.3-3.1-1-4.4c0.7,0,1.4,0,1.7,0s0.7,0,1-0.3s0.7-1.4,0.7-2.7c0-2-0.7-4.8-3.1-7.8
			c0.7-2.7,1.7-6.1,2.4-9.2h-3.4v34h-4.1v-38.8h9.2l0.7-0.3L1219.7,466.7z M1217.7,501.4c1.4-2,2.4-4.8,3.1-7.1l3.7,1.4
			c-0.7,2.4-1.7,5.4-3.1,7.5L1217.7,501.4z M1243.9,492.9h-10.6c1,1,2.4,2,3.1,2.7l-2.7,2.7c-1-1.4-3.4-3.4-4.8-4.8l1-0.7h-8.5v-3.1
			h18v-1.4H1220v-2.7h19.4v-1.4h-18v-3.1h22.5v4.4h2v2.7h-2V492.9z M1224.5,469.1c-1,0-2.4,0-3.4,0c0-1-0.7-2.4-1-3.4
			c7.8-0.3,17.4-1,22.5-2.4l3.1,3.1c-1.7,0.3-3.7,0.7-5.4,1l3.4,1c-0.7,1-1.4,2.4-2,3.7h2.7v3.1h-8.9v1.7h10.6v3.1h-25.2v-3.1h9.9
			v-1.7h-8.5v-3.1h2c-0.3-0.7-1-1.7-1.4-2.4L1224.5,469.1z M1242.2,503.1c-0.3-1-1.4-2.7-2-4.1c-0.3,3.7-1.7,4.8-4.8,4.8h-5.1
			c-4.4,0-5.4-1-5.4-4.8v-4.8h4.4v4.4c0,1,0.3,1,1.7,1h4.1c1,0,1.4-0.3,1.4-2.4c1,0.7,2.7,1,3.7,1.4c-0.7-1-1-2.4-1.7-3.1l3.7-1.4
			c1.4,2.4,3.1,5.1,4.1,7.1L1242.2,503.1z M1232,468.4c-1.7,0.3-3.7,0.3-5.8,0.3c0.7,0.7,1.4,1.7,1.7,2.4l-2.4,1h5.4
			c-0.3-1-1-2-1.4-2.7L1232,468.4z M1236.8,472.1c1-1.4,2-3.1,2.7-4.4c-1.7,0.3-3.7,0.7-5.8,0.7c0.7,1,1.4,2,1.7,3.1l-2.4,1h3.7
			v-0.4H1236.8z"/>
		<path fill="#5D5D5D" d="M1288.2,480.3c-1,5.4-2.7,10.2-5.1,14.6c1,2.7,1.7,4.4,2.7,4.4c0.7,0,1-1.4,1.4-5.4c1,1,2.4,1.7,3.4,2.4
			c-0.7,6.5-2,7.8-5.1,7.8c-2,0-3.7-1.7-5.1-4.4c-1.4,1.7-3.1,3.4-4.8,4.8c-0.7-0.7-2.7-2.4-3.7-3.1c0.7-0.7,1.4-1,2-1.7h-7.5l0,0
			h-3.4v-19.4h12.6v3.4h-3.1v2h3.4v8.5h-3.4v2.4h3.4v1.4c1-1,1.7-2,2.4-3.4c-1-4.1-1.7-9.5-2-16h-14.6v8.9c0,5.4-0.3,12.6-2.7,17
			c-0.7-0.7-2.7-1.7-3.7-2c1.7-2.7,2-6.5,2.4-10.2h-2v1c0,3.1-0.3,7.8-3.1,10.9c-0.7-0.7-2-1.7-3.1-2c2-2.7,2.4-6.5,2.4-8.9v-1h-2.4
			v-4.8h7.8v-0.7v-1.7h-6.1v-10.9h3.7v6.5h2.4v-6.8h18.7v-2.4h0.3v-1.4h-5.4V466h5.4v-2.7h5.1v2.7h7.8v4.1h-3.4
			c1.4,0.7,2.4,2,3.1,2.7l-1.4,1h2v4.4h-8.9c0.3,3.4,0.3,6.8,1,9.5c1-2.4,1.7-5.1,2-7.8L1288.2,480.3z M1258.2,470.1h-8.2V466h8.2
			v-2.7h5.1v2.7h5.4v4.1h-5.4v2h-5.1V470.1z M1266.4,483v2h2.4v-2H1266.4z M1266.4,488.1v2.4h5.4v-2.4H1266.4z M1266.4,496h2.4v-2.4
			h-2.4V496z M1280.3,473.8h3.7c-0.7-0.7-1.4-1.4-2.4-1.7l2.7-2h-3.4v1.7h-0.7L1280.3,473.8L1280.3,473.8z"/>
		<path fill="#5D5D5D" d="M1321.2,475.5c1,12.6,3.4,22.8,6.8,22.8c1,0,1.4-2.4,1.7-7.8c1,1.4,3.1,2.4,4.4,3.1
			c-0.7,8.2-2.4,10.2-6.8,10.2c-7.5,0-10.6-12.9-11.6-28.3h-21.4v-5.1h21.4c0-2.4,0-4.8,0-7.1h5.4c0,2.4,0,4.8,0,7.1h6.8
			c-1-1.4-3.4-3.4-5.1-4.4l3.4-2.7c2,1.4,4.4,3.4,5.8,4.8l-3.1,2.7h4.1v5.1h-11.9L1321.2,475.5L1321.2,475.5z M1307.6,494.9
			c2.7-0.3,5.4-1,8.2-1.4l0.3,4.8c-7.1,1.7-14.6,3.1-20.4,4.4l-1.4-5.1c2.4-0.3,5.1-0.7,8.2-1.4v-10.6h-6.5v-5.1h18.7v5.1h-6.8v9.2
			h-0.3V494.9z"/>
		<path fill="#5D5D5D" d="M1377,499v4.1h-39.1V499h17v-2h-12.6v-3.7l-0.3,0.3l-3.7-2.4c1.7-1,3.7-3.1,4.8-5.1h-4.8v-3.4h16.7V481
			h-13.3v-3.4h13.3v-1.4h-13v-11.9h31.3v11.9H1360v1.4h14.3v3.4H1360v1.7h16.7v3.4h-4.8c2,1.4,4.1,3.4,5.4,4.8l-4.1,2
			c-1-1.4-3.7-3.7-5.8-5.4l2.7-1.4h-7.1c1.4,1.4,2.4,3.1,3.1,4.4l-4.1,1.7c-0.7-1.4-1.7-3.4-3.1-4.8l3.4-1.4H1344l3.4,1
			c-1,2-3.1,4.4-4.8,5.8h12.3v-2l-3.7,1c-0.3-1.4-0.7-3.1-1.4-4.8l4.4-1c0.7,1.4,1.4,3.1,1.7,4.4l-1,0.3h5.1v2h12.6v4.1H1360v2h17
			V499z M1346.7,473.1h3.1c-0.3-1.4-1-3.4-1.7-4.8l2.7-1h-4.1V473.1L1346.7,473.1z M1354.9,473.1v-5.8h-3.4c1,1.4,1.7,3.4,1.7,4.8
			l-2.7,1H1354.9L1354.9,473.1z M1363.1,473.1l-2-0.7c0.7-1.4,1.4-3.4,2-5.1h-3.4v5.8L1363.1,473.1L1363.1,473.1z M1368.2,467.4
			h-4.1l3.1,1c-0.7,1.7-1.7,3.4-2.4,4.8h3.4V467.4L1368.2,467.4z"/>
		<path fill="#5D5D5D" d="M1416.9,499.7c0.3,0,0.3,0,0.7,0s0.3-0.3,0.3-1s0-1.7,0-3.4c1,0.7,2.7,1.7,4.1,2c0,1.7-0.3,3.4-0.7,4.1
			s-1,1.4-1.7,1.7s-1.7,0.3-2.4,0.3h-2.7c-1,0-2.4-0.3-3.1-1s-1-1.7-1-4.4v-5.8h-2.4c-0.7,5.8-2.4,9.5-10.2,11.6
			c-0.3-1-1.4-2.7-2.4-3.7c-4.4,1-9.2,1.7-12.6,2.7l-1-4.8c1.7-0.3,4.1-0.7,6.5-1v-11.2h-6.1v-4.4h5.8v-3.1h-3.7v-1.4
			c-0.7,0.7-1,1-1.7,1.7c-0.3-1-1.4-4.1-2-5.4c3.4-2.4,6.8-6.1,8.5-10.2l3.7,1.7c-0.3,0.7-0.7,1-0.7,1.7c2.7,1.7,5.4,3.4,7.1,5.1
			l-1.4,2.4h5.4c-0.3-1-0.7-2.4-1-3.1l3.4-0.7h-6.8v-3.7h8.5c-0.3-0.7-0.7-1.4-1-2l4.4-1c0.7,1,1,2,1.7,3.1h8.5v3.7h-7.1l4.1,0.7
			c-0.7,1-1,2.4-1.7,3.1h5.4v4.1h-23.8v-3.4l-0.7,1.4l0,0v3.1h-4.8v3.1h5.4v4.4h-5.4V497l5.8-1l0.3,3.4c3.1-1.4,4.1-3.4,4.4-6.5
			h-3.4v-13.3h20.1v13.3h-4.4v6.1c0,0.7,0,1,0.3,1c0,0,0.3,0.3,0.7,0.3h0.7L1416.9,499.7L1416.9,499.7z M1385.5,487.4
			c0.7,2.4,1.4,5.4,1.7,7.5l-3.4,1c0-2-0.7-5.1-1.4-7.5L1385.5,487.4z M1395.1,473.8c-1.4-1.4-3.4-2.7-5.4-4.1c-1,1.4-2,2.7-3.1,4.1
			H1395.1z M1392.7,493.9c0.7-2,1.4-5.1,1.4-7.1l3.7,1c-0.7,2.4-1.4,5.1-2,7.1L1392.7,493.9z M1403.9,484.4h11.2v-2h-11.2V484.4z
			 M1403.9,489.1h11.2v-2h-11.2V489.1z M1406.3,469.7c0.7,1,1,2.7,1.4,3.7h3.7c0.7-1.4,1-2.7,1.4-3.7H1406.3z"/>
		<path fill="#5D5D5D" d="M1445.1,498.7c0,2.4-0.3,3.4-2,4.1c-1.4,0.7-3.4,0.7-6.1,0.7c-0.3-1.4-1-3.1-1.7-4.4c1.7,0,3.4,0,3.7,0
			c0.7,0,0.7-0.3,0.7-0.7v-3.7h-7.5c-0.3,3.4-1.4,6.5-3.1,9.2c-0.7-0.7-2.7-2.4-3.7-3.1c2.7-3.7,3.1-9.5,3.1-13.6v-9.9h16.7
			L1445.1,498.7L1445.1,498.7z M1464.9,469.7v4.8h-39.1v-4.8h9.2c-0.7-1.4-2-3.4-3.4-4.8l4.8-1.7c1.7,1.7,3.4,4.1,4.1,5.8l-2.4,0.7
			h11.9c1.4-2,2.7-4.4,3.4-6.5l5.4,1.7c-1,1.7-2.4,3.4-3.4,4.8H1464.9L1464.9,469.7z M1440,490.9v-2.7h-7.1c0,1,0,1.7,0,2.7H1440z
			 M1432.9,481.3v3.1h7.1v-3.1H1432.9z M1453.6,495.3h-4.8v-17.7h4.8V495.3z M1457.4,476.6h5.1V498c0,2.7-0.3,3.7-2.4,4.8
			c-1.7,0.7-4.1,1-7.1,1c-0.3-1.4-1-3.4-1.7-4.8c2.4,0,4.4,0,5.1,0s1-0.3,1-0.7V476.6L1457.4,476.6z"/>
		<path fill="#5D5D5D" d="M1482.2,485.7c-1.4,0.3-2.7,0.7-4.1,1.4v11.2c0,2.4-0.3,3.7-1.7,4.4c-1.4,0.7-3.1,1-5.8,1
			c0-1.4-0.7-3.4-1.4-4.8c1.7,0,3.1,0,3.7,0s0.7-0.3,0.7-0.7v-9.9c-1.4,0.3-2.7,0.7-4.1,1l-1-5.1c1.4-0.3,3.4-0.7,5.1-1.4v-7.5h-4.4
			v-4.8h4.4v-8.2h4.8v8.2h3.4v4.8h-3.4v6.1l3.4-1L1482.2,485.7z M1496.9,495.3v4.1c-5.8,0.7-11.9,1.7-16.7,2.4l-0.7-4.4
			c2-0.3,4.4-0.3,7.1-0.7v-5.1h-5.1v-4.1h5.1v-5.1h4.4v5.1h5.1v4.1h-5.1v4.4L1496.9,495.3z M1487,472.5h-4.8v-4.1h4.8v-5.1h4.8v5.1
			h4.4v4.1h-4.4v4.4h5.1v4.1h-15.3v-4.1h5.4V472.5z M1507.1,488.1c-1-1.4-3.1-3.7-4.8-5.8v21.1h-4.8v-40.5h4.8v13.6
			c2,1.4,6.5,5.8,7.8,6.8L1507.1,488.1z"/>
		<path fill="#9E9E9E" d="M1263.3,525.6v3.1h11.9v18.7c0,1.7-0.3,2.7-1.7,3.4c-1,0.7-3.1,0.7-5.4,0.7c-0.3-1-0.7-2.4-1.4-3.4
			c1.4,0,3.1,0,3.7,0c0.3,0,0.7,0,0.7-0.7V545c-0.7,0.3-1.4,1-1.7,1.4c-1-1.4-1.7-2.7-2-4.1c-0.7,1.7-1.4,3.1-2.4,4.1
			c-0.3-0.3-1.4-1-2-1.4v6.5h-3.4v-5.8c-0.3,0.3-1,0.7-1.4,1c-1-1.4-1.7-2.7-2-4.4c-0.7,1.7-1.4,3.4-2.4,4.4c-0.3-0.3-1-1-1.7-1.4
			v6.1h-3.7v-23.1h11.6v-3.1h-12.6v-3.7h29.6v4.1H1263.3z M1257.5,533.7c0,3.4,0.3,6.8,2,9.9V532h-7.5v12.3c1.7-2,2.7-4.8,3.1-8.2
			h-1.7v-2.7h4.1V533.7z M1263.3,532v12.3c1.7-2,2.7-4.8,3.1-8.2h-1.7v-2.7h4.4c0,3.7,0.3,7.5,2.4,10.2v-11.9h-8.2L1263.3,532
			L1263.3,532z"/>
		<path fill="#9E9E9E" d="M1285.8,541.6c-0.7,2.4-1.7,5.4-2.7,7.1c-0.7-0.3-2.4-1-3.1-1.4c1-1.7,2-4.4,2.4-6.5L1285.8,541.6z
			 M1290.9,540.2v10.9h-4.1v-10.9h-6.5v-3.4h16.7v3.4H1290.9z M1286.8,525.6h-6.1v-3.4h6.1v-2.4h3.7v2.4h5.8v3.4h-5.8v1.7h5.1v3.4
			h-14.3v-3.4h5.1v-1.7H1286.8z M1295.7,532.4c1.7-3.4,2.7-7.8,3.4-12.6l3.7,0.7c-0.3,1.7-0.7,3.7-1,5.4h6.8h0.7l2.7,0.7
			c-0.7,3.4-1.7,7.1-2.4,9.5l-3.4-1c0.3-1.4,1-3.4,1.4-5.4h-6.5c-0.7,2.7-1.7,4.8-2.7,6.8c-0.7-0.3-1.7-1.4-2.4-2v1.4h-13.6v-3.4
			h13.3V532.4z M1294.6,540.9c0.7,1.7,1.7,3.7,2,5.1l-3.1,1.4c-0.3-1.4-1.4-3.7-2-5.4L1294.6,540.9z M1305.2,533.1c0,1,0,2,0,3.1
			c1,5.1,3.4,9.2,7.1,11.2c-1,0.7-2,2.4-2.7,3.4c-2.7-1.7-4.4-4.4-5.8-7.8c-1,2.7-2.7,5.4-5.4,7.8c-0.7-1-2-2-3.1-2.7
			c5.4-4.8,6.1-11.2,6.1-15.3V531h3.7v2.1H1305.2z"/>
		<path fill="#9E9E9E" d="M1325.6,537.5c-1,0.3-2,0.7-3.1,1v8.5c0,1.7-0.3,2.7-1.4,3.4s-2.4,0.7-4.8,0.7c0-1-0.7-2.7-1-3.7
			c1.4,0,2.4,0,2.7,0c0.3,0,0.7,0,0.7-0.7v-7.5l-3.1,1l-1-3.7c1-0.3,2.4-0.7,4.1-1v-5.8h-3.4V526h3.4v-6.5h3.7v6.5h3.1v3.7h-3.1v4.8
			c1-0.3,1.7-0.3,2.7-0.7L1325.6,537.5z M1346.4,547h-8.5v4.1h-3.7V547h-8.5v-3h8.5v-1.4h-7.5v-3.1h3.7c-0.3-0.7-0.3-1.4-0.7-2
			l2.4-0.7h-6.1v-3.1h8.2v-1.4h-6.8v-2.7h6.8v-1.4h-7.1v-7.5h18.7v7.5h-7.8v1.4h7.1v2.7h-7.1v1.4h8.2v3.1h-5.4l2.4,0.7l-1,2h3.1v3.1
			h-7.1v1.4h8.5v3H1346.4z M1332.1,523.5h-2v2.4h2V523.5z M1333.1,536.8c0.3,0.7,0.7,1.7,1,2.4h4.4c0.3-0.7,0.7-1.7,1-2.4H1333.1z
			 M1335.1,525.6h2v-2.4h-2V525.6z M1340.3,525.6h2v-2.4h-2V525.6z"/>
		<path fill="#9E9E9E" d="M1381.1,532.7v4.4h-31v-4.4H1381.1z"/>
	</g>
	<g>
		<path fill="#9E9E9E" d="M1294.6,304.3c0-7.1,5.1-11.2,10.2-11.2c5.4,0,10.2,4.1,10.2,11.2s-5.1,11.2-10.2,11.2
			S1294.6,311.4,1294.6,304.3z M1309.6,304.3c0-4.1-1.7-6.8-4.4-6.8c-3.1,0-4.4,2.7-4.4,6.8s1.7,6.8,4.4,6.8
			C1307.9,310.8,1309.6,308.4,1309.6,304.3z"/>
		<path fill="#9E9E9E" d="M1320.2,293.4h4.8l0.3,3.7l0,0c1.7-2.7,3.7-4.4,6.1-4.4c1.4,0,2,0.3,2.4,0.3l-1,4.8
			c-0.7-0.3-1.4-0.3-2.4-0.3c-1.7,0-3.7,1-5.1,4.1v12.9h-5.8v-21.1H1320.2z"/>
	</g>
	<g id="XMLID_1_">
		<path id="XMLID_11_" fill="#8572B7" d="M1297,239.6c-3.4,16.7-4.8,20.4-14,31s-44.3,6.5-44.3,6.5s-15-1.4-27.2-8.5
			c-12.3-6.8-12.9-41.2-12.9-41.2s-1.4-15.3,11.2-20.4s38.1-3.1,38.1-3.1c43.9,0.7,47.7,14.6,47.7,14.6S1299.7,225,1297,239.6z"/>
		<g>
			<g>
				<g>
					<defs>
						<path id="SVGID_1_" d="M1295,217.8c0,0-3.7-14.3-48.3-15c0,0-25.9-2-38.5,3.1c-12.9,5.1-11.6,20.8-11.6,20.8s1,34.4,13.3,41.5
							s27.6,8.5,27.6,8.5s35.7,4.4,44.6-6.5c9.2-10.9,10.9-14.6,14-31.3C1299.1,224.3,1295,217.8,1295,217.8z"/>
					</defs>
					<clipPath id="SVGID_2_">
						<use xlink:href="#SVGID_1_"  overflow="visible"/>
					</clipPath>
					<path clip-path="url(#SVGID_2_)" fill="#B9ACE5" d="M1312.7,209.7c0,0-54.8,80.7-135.8,0l-1,68.4l64.3,24.2l77.3-42.6
						L1312.7,209.7z"/>
				</g>
			</g>
		</g>
		<path id="XMLID_9_" fill="#8572B7" d="M1332.8,217.8c0,0,3.7-14.3,48.3-15c0,0,25.9-2,38.5,3.1c12.9,5.1,11.6,20.8,11.6,20.8
			s-1,34.4-13.3,41.5s-27.6,8.5-27.6,8.5s-35.7,4.4-44.6-6.5c-9.2-10.9-10.9-14.6-14-31.3C1328.7,224.3,1332.8,217.8,1332.8,217.8z"
			/>
		<g>
			<g>
				<g>
					<defs>
						<path id="SVGID_3_" d="M1332.4,216.8c0,0,3.7-14.3,48.3-15c0,0,25.9-2,38.5,3.1c12.9,5.1,11.6,20.8,11.6,20.8
							s-1,34.4-13.3,41.5s-27.6,8.5-27.6,8.5s-35.7,4.4-44.6-6.5c-9.2-10.9-10.9-14.6-14-31.3
							C1328.3,223.3,1332.4,216.8,1332.4,216.8z"/>
					</defs>
					<clipPath id="SVGID_4_">
						<use xlink:href="#SVGID_3_"  overflow="visible"/>
					</clipPath>
					<path clip-path="url(#SVGID_4_)" fill="#B9ACE5" d="M1314.7,208.6c0,0,54.8,80.7,135.8,0l1,68.4l-64.3,24.2l-76.9-42.2
						L1314.7,208.6z"/>
				</g>
			</g>
		</g>
		<path id="XMLID_4_" fill="#333333" d="M1439.3,200.8c-7.5-0.7-33.7-3.4-42.6-3.1c-8.5,0.3-38.8,1-56.2,6.5c0,0-6.5,1.4-11.2,6.5
			c-4.8,4.8-16,5.1-16,5.1s-11.2-0.3-16-5.1s-11.2-6.5-11.2-6.5c-17.4-5.4-47.7-6.5-56.2-6.5c-8.5-0.3-35.1,2.7-42.6,3.1
			c-7.5,0.7-7.5,2-7.5,2l0.3,15.3c0,0,0.3,2.7,3.4,2.4s7.5,3.7,8.2,9.2c1,5.4,4.4,30.3,9.9,38.1c0,0,4.1,6.8,10.6,8.5
			c8.9,2.4,24.5,5.8,38.1,4.8s23.5-0.3,30.3-3.7c7.1-3.7,9.5-9.2,9.5-9.2s10.9-22.8,11.6-30.3s5.8-9.9,11.2-9.9
			c5.4,0,10.6,2.7,11.2,9.9c0.7,7.1,11.6,30.3,11.6,30.3s2.4,5.4,9.5,9.2c6.8,3.4,17,2.7,30.3,3.7c13.6,1,29.3-3.1,38.1-4.8
			c8.9-1.7,10.6-8.5,10.6-8.5c6.1-8.2,9.2-32.7,9.9-38.1c1-5.4,5.1-9.5,8.2-9.2s3.4-2.4,3.4-2.4l0.3-15.3
			C1446.8,202.5,1446.8,201.1,1439.3,200.8z M1296,239.3c-3.1,16.3-4.8,20.1-13.6,30.6s-43.9,6.5-43.9,6.5s-15-1.4-26.9-8.2
			c-11.9-6.8-12.9-40.9-12.9-40.9s-1.4-15.3,11.2-20.4s37.8-3.1,37.8-3.1c43.6,0.7,47.3,14.6,47.3,14.6S1298.7,224.6,1296,239.3z
			 M1429.8,227c0,0-1,33.7-12.9,40.9c-11.9,6.8-26.9,8.2-26.9,8.2s-35.1,4.4-43.9-6.5c-8.9-10.6-10.6-14.3-13.6-30.6
			c-2.7-14.6,1-20.8,1-20.8s3.7-14,47.3-14.6c0,0,25.2-2,37.8,3.1C1431.5,211.7,1429.8,227,1429.8,227z"/>
		<line id="XMLID_3_" fill="none" stroke="#747475" stroke-miterlimit="10" x1="1300.8" y1="217.1" x2="1304.9" y2="227.4"/>
		<line id="XMLID_2_" fill="none" stroke="#747475" stroke-miterlimit="10" x1="1328" y1="217.1" x2="1323.9" y2="227.4"/>
	</g>
	<g>
		<g>
			<path fill="#B6CCCA" d="M807.5,330.9c0,32.7-32.7,67.1-65,67.1c-32.7,0-53.1-34.4-53.1-67.1s23.8-65,56.5-65
				C778.6,265.8,807.5,298.2,807.5,330.9z"/>
			<path fill="#E4F9F8" d="M800,331.5c0,32.7-24.9,66-57.5,66c-32.7,0-60.6-33.4-60.6-66s23.8-65,56.5-65
				C771.1,266.2,800,298.9,800,331.5z"/>
			<g opacity="0.47" enable-background="new    ">
				<g>
					<g>
						<defs>
							<path id="SVGID_5_" d="M800,331.5c0,32.7-24.9,66-57.5,66c-32.7,0-60.6-33.4-60.6-66s23.8-65,56.5-65
								C771.1,266.2,800,298.9,800,331.5z"/>
						</defs>
						<clipPath id="SVGID_6_">
							<use xlink:href="#SVGID_5_"  overflow="visible"/>
						</clipPath>
						<path clip-path="url(#SVGID_6_)" fill="none" stroke="#B0A3EF" stroke-width="10" stroke-miterlimit="10" d="M736,256.6
							c0,0-42.6,47-40.2,179.1"/>
					</g>
				</g>
				<g>
					<g>
						<defs>
							<path id="SVGID_7_" d="M800,331.5c0,32.7-24.9,66-57.5,66c-32.7,0-60.6-33.4-60.6-66s23.8-65,56.5-65
								C771.1,266.2,800,298.9,800,331.5z"/>
						</defs>
						<clipPath id="SVGID_8_">
							<use xlink:href="#SVGID_7_"  overflow="visible"/>
						</clipPath>
						<path clip-path="url(#SVGID_8_)" fill="none" stroke="#B0A3EF" stroke-width="10" stroke-miterlimit="10" d="M733.3,234.2
							c0,0-42.6,47-40.2,179.1"/>
					</g>
				</g>
			</g>
		</g>
		<g>
			<path fill="#B6CCCA" d="M952.2,330.9c0,32.7-32.7,67.1-65,67.1c-32.7,0-53.1-34.4-53.1-67.1s23.8-65,56.5-65
				C923.2,265.8,952.2,298.2,952.2,330.9z"/>
			<path fill="#E4F9F8" d="M944.7,331.5c0,32.7-24.9,66-57.5,66c-32.7,0-60.6-33.4-60.6-66s23.8-65,56.5-65
				C915.7,266.2,944.7,298.9,944.7,331.5z"/>
			<g opacity="0.47" enable-background="new    ">
				<g>
					<g>
						<defs>
							<path id="SVGID_9_" d="M944.7,331.5c0,32.7-24.9,66-57.5,66c-32.7,0-60.6-33.4-60.6-66s23.8-65,56.5-65
								C915.7,266.2,944.7,298.9,944.7,331.5z"/>
						</defs>
						<clipPath id="SVGID_10_">
							<use xlink:href="#SVGID_9_"  overflow="visible"/>
						</clipPath>
						<path clip-path="url(#SVGID_10_)" fill="none" stroke="#B0A3EF" stroke-width="10" stroke-miterlimit="10" d="M880.7,256.6
							c0,0-42.6,47-40.2,179.1"/>
					</g>
				</g>
				<g>
					<g>
						<defs>
							<path id="SVGID_11_" d="M944.7,331.5c0,32.7-24.9,66-57.5,66c-32.7,0-60.6-33.4-60.6-66s23.8-65,56.5-65
								C915.7,266.2,944.7,298.9,944.7,331.5z"/>
						</defs>
						<clipPath id="SVGID_12_">
							<use xlink:href="#SVGID_11_"  overflow="visible"/>
						</clipPath>
						<path clip-path="url(#SVGID_12_)" fill="none" stroke="#B0A3EF" stroke-width="10" stroke-miterlimit="10" d="M878,234.2
							c0,0-42.6,47-40.2,179.1"/>
					</g>
				</g>
			</g>
		</g>
	</g>
	<g>
		<path id="XMLID_30_" fill="#352616" d="M1296.3,369c-3.4,16.7-4.8,20.4-14,31s-44.3,6.5-44.3,6.5s-15-1.4-27.2-8.5
			s-12.9-41.2-12.9-41.2s-1.4-15.3,11.2-20.4s38.1-3.1,38.1-3.1c43.9,0.7,47.7,14.6,47.7,14.6S1299.4,354.3,1296.3,369z"/>
		<path id="XMLID_29_" fill="#352616" d="M1333.4,348.9c0,0,3.7-14.3,48.3-15c0,0,25.9-2,38.5,3.1c12.9,5.1,11.6,20.8,11.6,20.8
			s-1,34.4-13.3,41.5s-27.6,8.5-27.6,8.5s-35.7,4.4-44.6-6.5c-9.2-10.9-10.9-14.6-14-31.3C1329.4,355.4,1333.4,348.9,1333.4,348.9z"
			/>
		<g>
			<g>
				<g>
					<defs>
						<path id="SVGID_13_" d="M1295.3,348.9c0,0-3.7-14.3-48.3-15c0,0-25.9-2-38.5,3.1c-12.9,5.1-11.6,20.8-11.6,20.8
							s1,34.4,13.3,41.5s27.6,8.5,27.6,8.5s35.7,4.4,44.6-6.5c9.2-10.9,10.9-14.6,14-31.3C1299.4,355.4,1295.3,348.9,1295.3,348.9z"
							/>
					</defs>
					<clipPath id="SVGID_14_">
						<use xlink:href="#SVGID_13_"  overflow="visible"/>
					</clipPath>
					<path clip-path="url(#SVGID_14_)" fill="#5D5F60" d="M1312.7,340.4c0,0-54.8,80.7-135.8,0l-1,68.4l64.3,24.2l77.3-42.6
						L1312.7,340.4z"/>
				</g>
			</g>
		</g>
		<g>
			<g>
				<g>
					<defs>
						<path id="SVGID_15_" d="M1332.8,347.9c0,0,3.7-14.3,48.3-15c0,0,25.9-2,38.5,3.1c12.9,5.1,11.6,20.8,11.6,20.8
							s-1,34.4-13.3,41.5s-27.6,8.5-27.6,8.5s-35.7,4.4-44.6-6.5s-10.9-14.6-14-31.3C1328.7,354.3,1332.8,347.9,1332.8,347.9z"/>
					</defs>
					<clipPath id="SVGID_16_">
						<use xlink:href="#SVGID_15_"  overflow="visible"/>
					</clipPath>
					<path clip-path="url(#SVGID_16_)" fill="#5D5F60" d="M1315.1,339.4c0,0,54.8,80.7,135.8,0l1,68.4l-64.3,24.2l-76.9-42.2
						L1315.1,339.4z"/>
				</g>
			</g>
		</g>
		<g id="XMLID_20_">
			<path id="XMLID_23_" fill="#333333" d="M1439.3,331.2c-7.5-0.7-33.7-3.4-42.6-3.1c-8.5,0.3-38.8,1-56.2,6.5c0,0-6.5,1.4-11.2,6.5
				c-4.8,5.1-16,5.1-16,5.1s-11.2-0.3-16-5.1c-4.8-4.8-11.2-6.5-11.2-6.5c-17.4-5.4-47.7-6.5-56.2-6.5c-8.5-0.3-35.1,2.7-42.6,3.1
				c-7.5,0.7-7.5,2-7.5,2l0.3,15.3c0,0,0.3,2.7,3.4,2.4s7.5,3.7,8.2,9.2c1,5.4,4.4,30.3,9.9,38.1c0,0,4.1,6.8,10.6,8.5
				c8.9,2.4,24.5,5.8,38.1,4.8s23.5-0.3,30.3-3.7c7.1-3.7,9.5-9.2,9.5-9.2s10.9-22.8,11.6-30.3s5.8-9.9,11.2-9.9
				c5.4,0,10.6,2.7,11.2,9.9s11.6,30.3,11.6,30.3s2.4,5.4,9.5,9.2c6.8,3.4,17,2.7,30.3,3.7c13.6,1,29.3-3.1,38.1-4.8
				c8.9-1.7,10.6-8.5,10.6-8.5c6.1-8.2,9.2-32.7,9.9-38.1c1-5.4,5.1-9.5,8.2-9.2s3.4-2.4,3.4-2.4l0.3-15.3
				C1446.8,333.2,1446.8,331.9,1439.3,331.2z M1296,370c-3.1,16.3-4.8,20.1-13.6,30.6s-43.9,6.5-43.9,6.5s-15-1.4-26.9-8.2
				c-11.9-6.8-12.9-40.9-12.9-40.9s-1.4-15.3,11.2-20.4s37.8-3.1,37.8-3.1c43.6,0.7,47.3,14.6,47.3,14.6S1298.7,355.4,1296,370z
				 M1429.8,357.7c0,0-1,33.7-12.9,40.9c-11.9,6.8-26.9,8.2-26.9,8.2s-35.1,4.4-43.9-6.5c-8.9-10.6-10.6-14.3-13.6-30.6
				c-2.7-14.6,1-20.8,1-20.8s3.7-14,47.3-14.6c0,0,25.2-2,37.8,3.1C1431.5,342.4,1429.8,357.7,1429.8,357.7z"/>
			<line id="XMLID_22_" fill="none" stroke="#747475" stroke-miterlimit="10" x1="1300.8" y1="347.5" x2="1304.9" y2="358.1"/>
			<line id="XMLID_21_" fill="none" stroke="#747475" stroke-miterlimit="10" x1="1328" y1="347.5" x2="1323.9" y2="358.1"/>
		</g>
	</g>
</g>
<g>
	<path fill="#5D5D5D" d="M110.3,746.9c1,0,1.4-0.7,1.4-4.1c0.7,0.7,2.4,1.4,3.7,1.4c-0.3,4.8-1.4,6.1-4.8,6.1h-4.1
		c-4.1,0-4.8-1.4-4.8-4.8v-6.1h-4.4c-0.3,6.5-2,10.2-10.9,11.9c-0.3-1-1.4-2.7-2-3.4c7.5-1.4,8.5-3.4,8.9-8.5h-8.5v-3.7h30v3.7h-9.2
		v6.5c0,1,0.3,1.4,1.4,1.4h3.4L110.3,746.9L110.3,746.9z M89.2,731.5h-4.1V723h12.3c-0.3-1-0.7-1.7-1-2.7l4.1-1.4
		c0.7,1,1.4,2.7,1.7,3.7h11.6v8.5h-4.1v-4.4H89.2V731.5z M90.6,732.9v-3.7H108v3.7H90.6z"/>
	<path fill="#5D5D5D" d="M148.1,726.1c-0.7,2-1.7,4.1-2.7,5.4c1.4,1,3.4,2,5.8,2.7c-0.7,0.7-1.7,2-2,3.1c-2.4-0.7-4.1-2-5.8-3.4
		c-1.7,1.4-3.7,2.4-6.1,3.1c-0.3-0.7-1.4-2-2.4-2.7c2.4-0.7,4.1-1.4,5.8-2.7c-0.7-1-1.4-2-2-3.1c-0.3,0.7-1,1-1.4,1.7
		c-0.3-0.7-1.4-1.7-2-2.4v3.4h-3.1c1,0.7,2.4,1.4,3.1,2l-1.7,2.4c-0.7-0.7-2.4-1.7-3.7-2.7v3.4h-3.4v-2.7c-1.4,1.4-3.1,2.7-4.4,3.4
		c-0.3-0.7-1.4-2-2.4-2.4c2-0.7,4.1-2,5.4-3.4H121v-6.5h5.1v-1H120V721h6.1v-1.7h3.4v1.7h5.8v2.7h-5.8v1h5.4v2
		c2-1.7,3.4-4.4,4.1-7.5l3.7,0.7c-0.3,1-0.7,1.7-1,2.7h8.5v3.1h-2v0.4H148.1z M136.9,746.9h13.6v3.4h-30.6v-3.4h5.1v-5.1h3.7v5.1
		h4.1v-6.5h-11.2V737h26.6v3.4h-11.6v1.7h8.9v3.1h-8.9v1.7H136.9z M123.9,729.1h2v-1.7h-2.4v1.7H123.9z M129.7,727.4v1.7h2v-1.7
		H129.7z M130.4,731.5h-1v1L130.4,731.5z M140.6,726.1c0.7,1,1.4,2,2,3.1c0.7-1,1-2,1.7-3.1H140.6z"/>
	<path fill="#5D5D5D" d="M184.2,729.5c-1,5.1-2,9.2-4.1,12.6c1.7,2.4,4.1,4.1,6.5,5.4c-1,0.7-2,2.4-2.7,3.4
		c-2.4-1.4-4.4-3.1-6.1-5.4c-1.7,2.4-4.1,4.1-6.8,5.4c-0.3-0.7-1.7-2.4-2.7-3.4c3.1-1.4,5.1-3.4,7.1-5.8c-1.4-2-2.4-4.8-3.1-7.5
		c-0.7,1-1,1.7-1.7,2.4c-0.3-0.7-1.7-2.4-2.4-3.1v17h-4.1v-8.9c-5.4,2-6.5,2.4-7.1,3.1c-0.3-1-1-2.7-1.7-3.7c0.7-0.3,1.4-1,1.4-2.4
		v-16.3h4.1v16.3l3.7-1v-18.4h4.1v13.3c2.7-3.4,4.1-8.5,5.1-14l4.1,0.7c-0.3,2-0.7,3.7-1,5.4H187v3.7h-2.7v1.2H184.2z M174.6,729.5
		c0,0.3-0.3,0.7-0.3,1c0.7,3.1,1.7,5.8,3.1,8.2c1.4-2.7,2-5.4,2.7-8.9h-5.4v-0.3H174.6z"/>
	<path fill="#5D5D5D" d="M220.3,732.9c-1,4.4-2.4,8.2-4.1,11.2c0.7,2.4,1.4,3.4,2,3.4c0.7,0,1-1,1-4.1c0.7,0.7,1.7,1.4,2.7,1.7
		c-0.3,5.1-1.4,6.1-4.1,6.1c-1.7,0-3.1-1.4-4.1-3.4c-1,1.4-2.4,2.7-3.7,3.7c-0.7-0.7-2-2-3.1-2.4c0.7-0.3,1-0.7,1.7-1.4h-5.8l0,0
		h-2.7v-15.3h9.9v2.4h-2.4v1.7h2.7v6.8h-2.7v1.7h2.7v1c0.7-0.7,1.4-1.7,2-2.4c-0.7-3.4-1.4-7.5-1.7-12.3h-11.2v6.8
		c0,4.1-0.3,9.9-2,13.3c-0.7-0.3-2-1.4-3.1-1.7c1.4-2.4,1.7-5.1,1.7-7.8h-1.7v1c0,2.4-0.3,6.1-2.4,8.5c-0.3-0.3-1.7-1.4-2.4-1.7
		c1.7-2,2-5.1,2-7.1v-0.7H190v-3.4h6.1V738v-1.4h-4.8v-8.5h3.1v5.1h1.7v-5.4h14.6v-2l0,0v-1h-4.4v-3.4h4.4v-2h4.1v2h6.1v3.4h-2.7
		c1,0.7,2,1.4,2.4,2l-1,0.7h1.7v3.4h-6.8c0,2.7,0.3,5.1,0.7,7.5c0.7-2,1.4-4.1,1.7-6.1L220.3,732.9z M197.1,724.7H191v-3.4h6.1v-2
		h4.1v2h4.1v3.4h-4.1v1.7h-4.1V724.7z M203.6,734.9v1.7h1.7v-1.7H203.6z M203.6,739v2h4.1v-2H203.6z M203.6,745.1h1.7v-1.7h-1.7
		V745.1z M214.1,727.8h3.1c-0.7-0.3-1-1-1.7-1.4l2-1.4h-2.7v1.4h-0.7L214.1,727.8L214.1,727.8z"/>
	<path fill="#5D5D5D" d="M243.1,725.4v3.1H255v18.7c0,1.7-0.3,2.7-1.7,3.4c-1,0.7-3.1,0.7-5.4,0.7c-0.3-1-0.7-2.4-1.4-3.4
		c1.4,0,3.1,0,3.7,0c0.3,0,0.7,0,0.7-0.7v-2.4c-0.7,0.3-1.4,1-1.7,1.4c-1-1.4-1.7-2.7-2-4.1c-0.7,1.7-1.4,3.1-2.4,4.1
		c-0.3-0.3-1.4-1-2-1.4v6.5H239v-5.8c-0.3,0.3-1,0.7-1.4,1c-1-1.4-1.7-2.7-2-4.4c-0.7,1.7-1.4,3.4-2.4,4.4c-0.3-0.3-1-1-1.7-1.4v6.1
		h-3.7v-22.8h11.6v-3.1h-12.6v-4.1h29.6v4.1L243.1,725.4L243.1,725.4z M237.3,733.6c0,3.4,0.3,6.8,2,9.9v-11.6h-7.8v12.3
		c1.7-2,2.7-4.8,3.1-8.2h-1.7v-2.7h4.4V733.6z M243.1,732.2v12.3c1.7-2,2.7-4.8,3.1-8.2h-1.7v-2.7h4.4c0,3.7,0.3,7.5,2.4,10.2v-11.9
		h-8.2V732.2z"/>
	<path fill="#5D5D5D" d="M266.6,741.7c-0.7,2.4-1.7,5.4-2.7,7.1c-0.7-0.3-2.4-1-3.1-1.4c1-1.7,2-4.4,2.4-6.5L266.6,741.7z
		 M271.3,740.4v10.9h-3.7v-10.9h-6.5V737h16.7v3.4H271.3z M267.6,725.4h-6.1V722h6.1v-2.4h3.7v2.4h5.8v3.4h-5.8v1.7h5.1v3.4h-14.3
		v-3.4h5.1v-1.7H267.6z M276.4,732.2c1.7-3.4,2.7-7.8,3.4-12.6l3.7,0.7c-0.3,1.7-0.7,3.7-1,5.4h6.8h0.7l2.7,0.7
		c-0.7,3.4-1.7,7.1-2.4,9.5l-3.4-1c0.3-1.4,1-3.4,1.4-5.4h-6.5c-0.7,2.7-1.7,4.8-2.7,6.8c-0.7-0.3-1.7-1.4-2.4-2v1.4h-13.6v-3.4
		L276.4,732.2L276.4,732.2z M275.4,740.7c0.7,1.7,1.7,3.7,2,5.1l-3.1,1.4c-0.3-1.4-1.4-3.7-2-5.4L275.4,740.7z M286,733.2
		c0,1,0,2,0,3.1c1,5.1,3.4,9.2,7.1,11.2c-1,0.7-2,2.4-2.7,3.4c-2.7-1.7-4.4-4.4-5.8-7.8c-1,2.7-2.7,5.4-5.4,7.8c-0.7-1-2-2-3.1-2.7
		c5.4-4.8,6.1-11.2,6.1-15.3v-1.7h3.7L286,733.2L286,733.2z"/>
	<path fill="#5D5D5D" d="M312.2,747.2c0,1.7-0.3,2.7-1.4,3.4s-2.7,0.7-4.8,0.7c-0.3-1-0.7-2.4-1.4-3.4c1.4,0,2.7,0,3.1,0
		s0.7,0,0.7-0.7v-3.1h-5.8c-0.3,2.7-1,5.1-2.4,7.1c-0.7-0.7-2-1.7-3.1-2.4c2-3.1,2.4-7.1,2.4-10.6v-7.8h12.9v16.7L312.2,747.2
		L312.2,747.2z M327.5,724.7v3.7h-30.6v-3.7h7.1c-0.7-1-1.7-2.7-2.4-3.7l3.7-1.4c1.4,1.4,2.7,3.1,3.1,4.4l-1.7,0.7h9.5
		c1-1.7,2-3.4,2.7-5.1l4.4,1.4c-0.7,1.4-1.7,2.7-2.7,3.7L327.5,724.7L327.5,724.7z M308.4,741.1v-2H303c0,0.7,0,1.4,0,2H308.4z
		 M302.6,733.6v2.4h5.4v-2.4H302.6z M318.6,744.5h-3.7v-13.6h3.7V744.5z M321.7,729.8h4.1v16.7c0,2-0.3,3.1-1.7,3.7
		c-1.4,0.7-3.1,0.7-5.4,0.7c-0.3-1-0.7-2.7-1.4-3.7c1.7,0,3.4,0,4.1,0s0.7,0,0.7-0.7v-16.7H321.7z"/>
	<path fill="#5D5D5D" d="M342.5,737.3c-1,0.3-2,0.7-3.1,1v8.9c0,1.7-0.3,2.7-1.4,3.4c-1,0.7-2.4,0.7-4.4,0.7c0-1-0.7-2.7-1-3.7
		c1.4,0,2.4,0,2.7,0s0.7,0,0.7-0.7v-7.5c-1,0.3-2,0.7-3.1,1l-1-3.7c1-0.3,2.4-0.7,4.1-1v-5.8h-3.4v-3.7h3.4v-6.5h3.7v6.5h2.7v3.7
		h-2.7v4.8l2.7-0.7L342.5,737.3z M353.7,744.5v3.1c-4.4,0.7-9.2,1.4-12.9,1.7l-0.7-3.4c1.7,0,3.4-0.3,5.4-0.7v-3.7h-4.1v-3.1h4.1
		v-4.1h3.4v4.1h3.7v3.1h-3.7v3.4L353.7,744.5z M345.9,726.8h-3.7v-3.1h3.7v-4.1h3.7v4.1h3.4v3.1h-3.4v3.4h4.1v3.1h-11.9v-3.1h4.4
		v-3.4H345.9z M361.9,739c-1-1-2.4-3.1-3.7-4.4v16.3h-3.7v-31.7h3.7v10.6c1.4,1,5.1,4.4,6.1,5.1L361.9,739z"/>
	<path fill="#5D5D5D" d="M381.6,742.1c-2.7,3.4-6.5,6.8-10.2,8.9c-0.7-0.7-2.4-2-3.4-2.7c3.4-2,7.5-5.1,9.2-7.8L381.6,742.1z
		 M395.2,722v16h-23.8v-16H395.2z M375.5,734.3h15.3v-8.5h-15.3V734.3z M389.1,740.4c3.1,2.4,7.1,5.8,9.2,8.2l-3.7,2.4
		c-1.7-2.4-5.8-6.1-8.9-8.5L389.1,740.4z"/>
	<path fill="#5D5D5D" d="M420.4,739c-0.3,0.7-0.3,1-0.7,1.7h11.9v6.8c0,1.7-0.3,2.4-1.4,3.1c-1,0.7-2.4,0.7-4.1,0.7
		c0-1-0.7-2.4-1-3.4c1,0,2,0,2.4,0s0.3,0,0.3-0.3v-3.7h-3.7v7.1h-3.7v-7.1H417v7.1h-3.7v-7.1h-3.4v7.5h-3.7v-10.6h9.9
		c0-0.7,0.3-1,0.3-1.7h-12.6V736h4.8l-1-2.7c2-0.3,5.1-0.7,8.2-1v2.4c-2.4,0.7-4.8,1-6.8,1.7h24.9v3.1h-13.3V739H420.4z
		 M407.8,732.9h-3.7v-7.5h12.6v-1.7h-11.2V721H432v2.7h-11.2v1.7h12.9v7.5h-4.1v-4.4h-2l1.4,1.7c-1.7,0.7-4.4,1.4-6.1,1.7l-1.4-2
		c1.4-0.3,3.4-1,4.8-1.4h-5.8v6.5h-4.1v-6.5h-6.8c1.7,0.3,4.1,1,5.4,1.4l-1,2c-1.4-0.7-4.1-1.4-5.8-1.7l1-2h-2v4.8L407.8,732.9
		L407.8,732.9z M421.8,731.5c2.4,0.3,5.8,1,7.8,1.7l-0.7,2.7c-1.7-0.7-5.1-1.4-7.8-2L421.8,731.5z"/>
	<path fill="#5D5D5D" d="M454.5,725.4c0,0,0,1.4,0,1.7c-0.3,14.3-1,19.4-2,21.1c-0.7,1-1.4,1.7-2.7,1.7c-1,0.3-2.4,0.3-3.7,0
		c0-1.4-0.3-3.1-1-4.1c1,0,2.4,0,2.7,0c0.3,0,0.7,0,1-0.7c0.7-1,1.4-5.1,1.7-16.3H447c-0.3,8.5-1.7,16.3-5.8,21.8
		c-0.7-1-2-2.4-3.1-2.7c3.7-4.4,4.4-11.2,4.8-18.7h-3.7v-4.1h4.1c0-2,0-4.1,0-5.8h4.1c0,2,0,4.1,0,5.8L454.5,725.4z M468.8,723.4
		v26.9h-4.1v-2h-4.4v2.4h-4.1v-26.9h12.6V723.4z M464.3,744.1v-17h-4.4v17H464.3z"/>
	<path fill="#5D5D5D" d="M483.7,720.6c-0.7,2-1.7,4.4-2.7,6.5v23.8h-3.7v-17c-0.7,1-1.4,2-2,2.7c-0.3-1-1.4-3.4-2-4.4
		c2.7-3.1,5.1-8.2,6.8-12.9L483.7,720.6z M498.7,746.2c2.7,1,5.4,2,7.1,2.7l-3.4,2.4c-1.7-1-4.4-2.4-7.1-3.4l2-1.7h-6.5l2.4,1.7
		c-2,1.7-5.4,2.7-8.5,3.4c-0.3-0.7-1.4-2-2-2.7c2.4-0.3,5.1-1.4,7.1-2.4H485v-12.6h19.1v12.6H498.7z M498.4,724v1.4h5.8v6.8h-20.1
		v-6.8h5.4V724h-6.1v-3h21.4v3.1L498.4,724L498.4,724z M487.5,730.2h2v-2.4h-2V730.2z M488.2,737h11.6v-1h-11.6V737z M488.2,740.4
		h11.6v-1h-11.6V740.4z M488.2,743.8h11.6v-1.4h-11.6V743.8z M495,724h-2v1.4h2V724z M492.9,730.2h2v-2.4h-2V730.2z M498.4,727.8
		v2.4h2v-2.4H498.4z"/>
	<path fill="#5D5D5D" d="M521.9,742.8c1,1,2.4,1.7,4.1,1.7c2.7,0,5.1-2,5.4-8.5c-1.4,1.7-3.4,2.7-5.1,2.7c-4.1,0-7.1-2.7-7.1-7.8
		s3.7-8.5,7.8-8.5c4.8,0,8.9,3.7,8.9,12.3c0,9.5-4.8,13.6-9.5,13.6c-3.1,0-5.4-1.4-6.8-2.7L521.9,742.8z M531.1,732.6
		c-0.3-4.4-2-6.1-4.4-6.1c-1.7,0-3.4,1.4-3.4,4.4c0,3.1,1.4,4.4,3.4,4.4C528.3,735.3,530,734.6,531.1,732.6z"/>
	<path fill="#5D5D5D" d="M540.6,735.6c0-8.5,3.4-12.9,8.5-12.9s8.5,4.1,8.5,12.9s-3.4,12.9-8.5,12.9S540.6,744.1,540.6,735.6z
		 M552.9,735.6c0-7.1-1.7-8.9-3.7-8.9s-3.7,2-3.7,8.9c0,7.1,1.7,9.2,3.7,9.2C551.1,744.8,552.9,742.8,552.9,735.6z"/>
	<path fill="#5D5D5D" d="M562,735.6c0-8.5,3.4-12.9,8.5-12.9s8.5,4.1,8.5,12.9s-3.4,12.9-8.5,12.9S562,744.1,562,735.6z
		 M574.3,735.6c0-7.1-1.7-8.9-3.7-8.9s-3.7,2-3.7,8.9c0,7.1,1.7,9.2,3.7,9.2C572.9,744.8,574.3,742.8,574.3,735.6z"/>
	<path fill="#5D5D5D" d="M585.5,723.4h5.1l7.1,13.3l2.4,5.4l0,0c-0.3-2.7-0.7-5.8-0.7-8.9v-9.9h4.8v24.9h-5.1l-7.1-13.3l-2.4-5.4
		l0,0c0.3,2.7,0.7,5.8,0.7,8.9v9.9h-4.8V723.4z"/>
	<path fill="#5D5D5D" d="M617.2,727.4H610v-4.1h19.1v4.1H622v20.8h-5.1v-20.8H617.2z"/>
	<path fill="#5D5D5D" d="M635.2,723.4h6.8c7.5,0,12.3,4.1,12.3,12.3c0,8.5-4.8,12.6-12.3,12.6h-7.1v-24.9L635.2,723.4L635.2,723.4z
		 M641.7,744.1c4.8,0,7.5-2.4,7.5-8.5s-3.1-8.5-7.5-8.5H640v17H641.7z"/>
</g>
<g>
	
		<rect x="54.1" y="655.7" transform="matrix(0.866 0.5 -0.5 0.866 345.9711 61.7207)" opacity="0.73" fill="#0098FF" enable-background="new    " width="7.5" height="41.5"/>
	
		<rect x="47.9" y="664.1" transform="matrix(0.866 0.5 -0.5 0.866 346.62 65.1924)" opacity="0.73" fill="#9DEDE6" enable-background="new    " width="7.5" height="30.6"/>
</g>
<g>
	
		<rect x="54.1" y="713.5" transform="matrix(0.866 0.5 -0.5 0.866 374.8968 69.4639)" opacity="0.73" fill="#0098FF" enable-background="new    " width="7.5" height="41.5"/>
	
		<rect x="47.9" y="722" transform="matrix(0.866 0.5 -0.5 0.866 375.5823 72.9723)" opacity="0.73" fill="#9DEDE6" enable-background="new    " width="7.5" height="30.6"/>
</g>
<g>
	<path fill="#5D5D5D" d="M111.6,661.1c-1.9,3-4.6,5.6-7.7,7.8c3.5,1.6,7.6,2.7,11.8,3.4c-0.9,0.9-2,2.6-2.6,3.7
		c-1.1-0.2-2.1-0.5-3.1-0.7v12.2h-4.3v-1.1H93.7v1.2h-4v-12.3c-1.3,0.4-2.5,0.7-3.8,1c-0.4-1.1-1.2-2.7-1.9-3.6
		c4.1-0.8,8.5-2.1,12.3-3.8c-1.4-1.1-2.8-2.2-4-3.5c-1.5,1.4-3.1,2.5-4.7,3.5c-0.6-0.8-2.1-2.3-2.9-3c4.2-2.2,8.3-5.9,10.6-9.9
		l3.8,1.3c-0.5,0.7-0.9,1.5-1.5,2.2h10.6l0.7-0.2L111.6,661.1z M109.1,675c-3.3-1-6.4-2.2-9.2-3.8c-3,1.6-6.2,2.8-9.6,3.8H109.1z
		 M105.8,682.8v-4.2H93.7v4.2H105.8z M94.8,662.9c1.4,1.4,3.2,2.7,5.1,3.9c2-1.2,3.7-2.5,5.1-3.9H94.8z"/>
	<path fill="#5D5D5D" d="M124.5,678.1c-0.6,2.4-1.7,5.3-2.7,7.1c-0.7-0.4-2.2-1-3-1.3c1-1.7,1.9-4.3,2.5-6.5L124.5,678.1z
		 M129.4,676.7v10.8h-3.7v-10.8h-6.4v-3.3h16.4v3.3H129.4z M125.6,662.2h-6v-3.2h6v-2.4h3.7v2.4h5.9v3.2h-5.9v1.7h5.1v3.2h-14v-3.2
		h5.1V662.2z M134.3,668.9c1.7-3.2,2.8-7.9,3.3-12.5l3.8,0.5c-0.2,1.8-0.5,3.7-0.9,5.4h6.6l0.6-0.1l2.8,0.7
		c-0.7,3.3-1.6,7.1-2.5,9.5l-3.2-1c0.4-1.4,0.9-3.5,1.3-5.5h-6.5c-0.8,2.5-1.7,4.8-2.8,6.6c-0.5-0.5-1.6-1.4-2.5-2v1.4h-13.6v-3.2
		h13.6L134.3,668.9z M133.2,677.3c0.8,1.6,1.8,3.8,2.2,5.1l-3.1,1.3c-0.4-1.4-1.2-3.6-2-5.3L133.2,677.3z M143.7,669.7
		c0,0.9,0,2-0.1,3.1c1.1,5,3.3,9.3,7.1,11.2c-0.9,0.8-2.1,2.3-2.6,3.4c-2.7-1.7-4.5-4.4-5.9-7.7c-1,2.7-2.6,5.5-5.2,7.9
		c-0.7-0.9-2-2.1-3-2.7c5.5-4.8,6-11.1,6-15.3v-1.6h3.8V669.7z"/>
	<path fill="#5D5D5D" d="M175.8,665.8c0.7,9.8,2.7,17.5,5.2,17.5c0.7,0,1.1-1.8,1.3-6c0.9,0.9,2.4,1.9,3.5,2.3
		c-0.6,6.3-1.9,7.9-5.1,7.9c-5.7,0-8.2-9.9-9-21.7h-16.6V662h16.4c-0.1-1.8-0.1-3.7-0.1-5.5h4.3c0,1.8,0,3.7,0,5.5h5.3
		c-0.9-1.1-2.6-2.5-3.9-3.5l2.6-2.2c1.5,1,3.5,2.6,4.4,3.7l-2.3,2h3.1v3.9H175.8z M165.2,680.8c2-0.4,4.2-0.8,6.2-1.2l0.3,3.5
		c-5.5,1.2-11.4,2.4-15.7,3.3l-1.1-4c1.7-0.3,3.9-0.6,6.3-1v-8.1h-5v-3.8h14.3v3.8h-5.3V680.8z"/>
	<path fill="#5D5D5D" d="M218.2,673.1c0,0-0.1,1.1-0.1,1.6c-0.4,6.8-0.9,9.8-2,10.9c-0.9,1-1.8,1.3-3.2,1.4
		c-1.1,0.1-3.1,0.1-5.1,0.1c-0.1-1.2-0.6-2.8-1.3-4c1.9,0.2,3.8,0.2,4.6,0.2c0.6,0,1-0.1,1.4-0.4c0.6-0.5,1-2.4,1.3-6.3h-8.6
		c-1.4,4.9-4.8,8.6-13.4,10.8c-0.4-1.1-1.4-2.7-2.2-3.6c6.9-1.5,9.8-4,11.2-7.2h-9.8v-3.5h10.7c0.1-0.9,0.2-1.9,0.3-2.9h4.2
		c-0.1,1-0.2,2-0.3,2.9H218.2z M216.8,669.1h-23.8v-11.5h23.8V669.1z M212.6,661.5H197v3.9h15.6V661.5z"/>
	<path fill="#5D5D5D" d="M231.7,675.1v7.8c0,1.8-0.3,2.8-1.3,3.4c-1,0.7-2.5,0.8-4.6,0.8c-0.1-1-0.5-2.6-1-3.6c1.2,0,2.4,0,2.8,0
		c0.4,0,0.6-0.1,0.6-0.6v-6.7c-1.1,0.3-2.1,0.6-3.1,0.9l-0.9-3.8c1.1-0.2,2.5-0.6,4-1v-5.9h-3.6v-3.7h3.6v-6.3h3.6v6.3h3.3v3.7h-3.3
		v4.9l3-0.8l0.5,3.6L231.7,675.1z M246.9,683.5c0.8,0.1,1.5,0.1,2.3,0.1c1.1,0,5.3,0,6.7,0c-0.5,0.8-0.9,2.5-1.1,3.5h-5.8
		c-4.4,0-7.8-0.8-10-4.8c-0.9,2.1-2,3.9-3.5,5.2c-0.6-0.6-2.1-1.9-2.9-2.4c2.8-2.2,4.1-5.9,4.6-10.5l3.6,0.4
		c-0.2,1.2-0.4,2.3-0.6,3.4c0.7,1.9,1.7,3.1,2.9,3.9v-8.7h-7.9v-3.2h19.7v3.2h-8.2v2.9h6.4v3.1h-6.4V683.5z M253.4,668.8H237v-11.5
		h16.4V668.8z M249.6,660.1h-9v1.7h9V660.1z M249.6,664.3h-9v1.7h9V664.3z"/>
	<path fill="#5D5D5D" d="M270.3,657.5c-0.9,2.3-2,4.7-3.2,7v23h-3.9v-16.9c-0.7,0.9-1.4,1.7-2.1,2.5c-0.4-1-1.4-3.2-2.1-4.1
		c3-3,5.9-7.7,7.6-12.5L270.3,657.5z M278.1,679.6c-1.7,2.9-4.3,5.8-6.6,7.8c-0.7-0.7-2.2-2-3.1-2.5c2.3-1.6,4.7-4,6-6.4
		L278.1,679.6z M290.7,673.3v3.9H269v-3.9h4.5v-6.7h-3.6v-3.8h3.6v-6.2h3.9v6.2h4.8v-6.3h3.9v6.3h4.3v3.8h-4.3v6.7H290.7z
		 M277.3,673.3h4.8v-6.7h-4.8V673.3z M284.8,678.5c2.2,2.1,4.5,4.9,5.7,6.9l-3.3,2.1c-1.1-2-3.4-5.1-5.5-7.2L284.8,678.5z"/>
	<path fill="#5D5D5D" d="M300.5,663.3c-1.3,1.4-2.6,2.7-3.9,3.7c-0.4-0.7-1.6-2.5-2.3-3.2c2.7-1.9,5.4-4.8,6.9-7.9l3.4,1.1
		c-0.4,0.9-1,1.8-1.6,2.8h21v3.5H300.5z M295,686.1c1.2-1.6,2.8-4.2,3.7-6.5l3.8,1c-0.9,2.3-2.5,5.2-3.7,7.1L295,686.1z
		 M321.1,671.1v4.2h4v3.5h-29.8v-3.5h4.6v-4.2h-3.6v-3.5h3.6v-3h3.5v3h2.3v-3h3.3v3h2.6v-3h3.3v3h2.5v-3h3.7v3h3.3v3.5H321.1z
		 M303.4,675.3h2.3v-4.2h-2.3V675.3z M308.1,680.5c0.4,2,0.8,4.6,0.8,6.2l-3.9,0.6c0-1.6-0.2-4.3-0.6-6.4L308.1,680.5z M309,671.1
		v4.2h2.6v-4.2H309z M314.9,680.2c0.8,1.9,1.7,4.5,2,6.2l-4,0.8c-0.2-1.6-1-4.3-1.7-6.3L314.9,680.2z M317.4,671.1h-2.5v4.2h2.5
		V671.1z M321.6,679.3c1.4,2,3.1,4.8,3.9,6.6l-3.9,1.7c-0.7-1.7-2.3-4.6-3.6-6.8L321.6,679.3z"/>
	<path fill="#5D5D5D" d="M360.9,683.2v3.2h-31.2v-3.2h3.9V677h23.7v6.3H360.9z M336.6,661.1h-6.3V658h6.3v-1.7h3.9v1.7h3.9v3.1h-3.9
		v1.4h-3.9V661.1z M360,668.6h-9.5c-0.9,1.8-2.1,3.5-3.4,4.7c-0.3-0.6-1.3-1.9-2-2.7v1.6h-3.5v1.4h4.5v2.3h-14.3v-12.8H346v2.3h-4.4
		v1.3h3.5v3.3c1.8-1.9,3.1-4.6,3.9-7.4l3.5,0.9c-0.2,0.6-0.4,1.2-0.6,1.8h8L360,668.6z M335.1,665.5v1.3h3.3v-1.3H335.1z
		 M341.9,668.8h-6.9v1.4h6.9V668.8z M338.4,672.2h-3.3v1.4h3.3V672.2z M337.3,683.2h3.1v-3.4h-3.1V683.2z M343.7,679.8v3.4h3.2v-3.4
		H343.7z M350.3,661.1h-4.4v-3.1h4.4v-1.7h3.8v1.7h6.1v3.1h-6.1v1.4h-3.8V661.1z M348.6,675.3V672h10.5v3.3H348.6z M350.2,679.8v3.4
		h3.1v-3.4H350.2z"/>
	<path fill="#5D5D5D" d="M390.9,683c0.9,0,1.1-0.5,1.2-3.1c0.8,0.6,2.5,1.3,3.7,1.5c-0.5,4.2-1.5,5.4-4.5,5.4h-4.2
		c-3.8,0-4.8-1.2-4.8-5.1v-9.6H378c-0.7,6.9-2.3,12.4-10.7,15.5c-0.5-1.1-1.5-2.6-2.5-3.4c7.4-2.4,8.5-6.6,9-12.1h-8.2v-3.9h12.6
		v-12.1h4.2v12.1h12.7v3.9h-8.7v9.6c0,1.2,0.2,1.3,1.3,1.3H390.9z M372.5,667c-0.9-1.9-3-4.8-4.8-7.1l3.2-1.8c1.8,2,4,4.9,5,6.8
		L372.5,667z M393.8,659.9c-1.7,2.6-3.8,5.3-5.5,7.1l-3.5-1.4c1.6-1.9,3.6-4.9,4.7-7.2L393.8,659.9z"/>
	<path fill="#5D5D5D" d="M427.3,684.3c0.2,0,0.4,0,0.5-0.1c0.1-0.1,0.3-0.3,0.3-0.7s0.1-1.4,0.1-2.6c0.7,0.6,2.1,1.3,3.1,1.7
		c-0.1,1.3-0.2,2.6-0.5,3.2c-0.3,0.6-0.7,1-1.3,1.3c-0.5,0.2-1.3,0.3-1.9,0.3h-2c-0.8,0-1.8-0.2-2.4-0.8c-0.6-0.6-0.9-1.3-0.9-3.3
		v-4.5h-1.9c-0.4,4.5-1.9,7.3-8,8.9c-0.3-0.8-1.1-2.1-1.8-2.8c-3.5,0.7-7,1.4-9.8,2l-0.8-3.6c1.4-0.2,3.1-0.4,4.9-0.8v-8.7h-4.5
		v-3.3h4.5v-2.4h-2.9v-1.1c-0.4,0.4-0.9,0.8-1.3,1.2c-0.2-0.9-1-3.1-1.5-4.1c2.5-1.8,5.1-4.7,6.6-7.8l2.9,1.3
		c-0.2,0.4-0.4,0.8-0.6,1.2c2.2,1.2,4.2,2.7,5.5,3.9l-1.1,1.8h4.1c-0.2-0.8-0.5-1.7-0.8-2.5l2.7-0.5h-5.3v-3h6.4
		c-0.2-0.5-0.4-1.1-0.7-1.5l3.5-0.8c0.4,0.7,0.9,1.5,1.2,2.3h6.5v3h-5.4l3,0.5c-0.4,0.9-0.9,1.7-1.2,2.5h4.2v3.1h-18.4v-2.7l-0.6,1
		l-0.1-0.1v2.3h-3.2v2.4h4.2v3.3h-4.2v8.1l4.5-0.8l0.2,2.7c2.5-1,3.1-2.6,3.4-5h-2.6v-10.1h15.4v10.1h-3.5v4.6c0,0.4,0,0.7,0.1,0.8
		s0.2,0.2,0.4,0.2H427.3z M403.4,674.9c0.6,1.8,1,4.2,1.2,5.7l-2.7,0.7c-0.1-1.6-0.5-4-1-5.8L403.4,674.9z M410.7,664.6
		c-1.2-1-2.7-2.1-4.2-3c-0.7,1.1-1.5,2.1-2.3,3H410.7z M408.9,680.1c0.5-1.5,1-3.8,1.2-5.4l2.9,0.7c-0.6,1.9-1.1,4-1.6,5.4
		L408.9,680.1z M417.5,672.5h8.6V671h-8.6V672.5z M417.5,676.3h8.6v-1.5h-8.6V676.3z M419.2,661.4c0.4,0.9,0.9,2.1,1.1,3h3
		c0.4-0.9,0.8-2.1,1-3H419.2z"/>
	<path fill="#5D5D5D" d="M460.2,672.2v15.3H456v-11.3h-12.4c-0.6,4.1-2,8.2-5.1,11.4c-0.6-1-2.1-2.5-3-3.1
		c4.1-4.5,4.6-10.7,4.6-16.4v-11.3h4v7.1H455v-7.6h4.1v11.6h-15v0.3c0,1.4,0,2.7-0.1,4.1H460.2z"/>
	<path fill="#5D5D5D" d="M475.5,669.7c0,0.8,0,1.7,0,2.5h6.6v15.1h-3.6v-11.6h-3.2c-0.3,4.3-1,8.7-2.8,11.9
		c-0.6-0.7-1.9-1.9-2.7-2.4c1.9-4.1,2.2-10.6,2.2-15.5v-13.2h3.5v9.5h3.3v-8.8h3.6v12.3h-6.9V669.7z M500.4,666.9
		c-0.7,5.2-2.1,9.5-4.2,13c1.5,1.7,3.2,3.2,5.2,4.2c-0.9,0.7-2.1,2.3-2.7,3.3c-1.9-1.1-3.5-2.5-4.9-4.1c-1.5,1.7-3.2,3.2-5.1,4.4
		c-0.5-0.9-1.4-2.1-2.1-2.9c-0.4,1.1-0.8,2.1-1.4,3.1c-0.7-0.7-2.1-1.7-3.1-2.1c2.4-4.3,2.6-11,2.6-15.6v-11.8h15.1v3.6h-11.4v4.5
		h8.8l0.7-0.1L500.4,666.9z M491.6,679.8c-1.3-2.2-2.2-4.7-3.1-7.4c-0.1,3.7-0.5,8-1.6,11.5C488.7,683,490.2,681.5,491.6,679.8z
		 M491.2,669.9c0.6,2.3,1.5,4.4,2.5,6.4c1-1.9,1.8-4.1,2.3-6.4H491.2z"/>
	<path fill="#5D5D5D" d="M526.9,666.8c2.1,4.9,5.5,9.5,9.4,12.1c-1,0.8-2.4,2.4-3.1,3.5c-1.3-1-2.4-2.1-3.5-3.4v2.9h-6.9v5.6h-4.2
		v-5.6h-7v-3c-1.2,1.4-2.4,2.6-3.8,3.7c-0.7-1-2-2.5-2.9-3.2c3.9-2.7,7.3-7.5,9.4-12.5H506v-4h12.5v-6.4h4.2v6.4h12.6v4H526.9z
		 M518.6,677.8v-11h-0.2c-1.5,4.1-3.5,7.9-5.9,11H518.6z M528.7,677.8c-2.4-3.1-4.3-6.9-5.8-11h-0.1v11H528.7z"/>
	<path fill="#5D5D5D" d="M546,671.9c0-7.2,3-12.5,6.6-16l3.2,1.4c-3.3,3.6-6,8.2-6,14.6s2.6,11,6,14.6l-3.2,1.4
		C548.9,684.4,546,679,546,671.9z"/>
	<path fill="#5D5D5D" d="M559,678.4c0-3.2,1.9-5.2,4.2-6.4v-0.2c-1.9-1.4-3.3-3.2-3.3-5.9c0-4,3.1-6.5,7.5-6.5
		c4.4,0,7.2,2.6,7.2,6.6c0,2.4-1.5,4.5-3.2,5.6v0.2c2.3,1.2,4.1,3.2,4.1,6.6c0,3.7-3.3,6.6-8.3,6.6C562.5,685,559,682.3,559,678.4z
		 M571,678.3c0-2.6-2.3-3.6-5.5-4.9c-1.3,1.1-2.3,2.7-2.3,4.6c0,2.2,1.8,3.7,4.1,3.7C569.4,681.6,571,680.4,571,678.3z M570.6,666.3
		c0-2-1.2-3.4-3.3-3.4c-1.7,0-3,1.1-3,3.1c0,2.3,1.9,3.5,4.5,4.5C570,669.2,570.6,667.8,570.6,666.3z"/>
	<path fill="#5D5D5D" d="M579.6,681.7l2.3-3.1c1.4,1.4,3.1,2.5,5.4,2.5c2.6,0,4.4-1.6,4.4-4.5c0-2.9-1.7-4.5-4.2-4.5
		c-1.5,0-2.3,0.4-3.7,1.3l-2.2-1.5l0.7-12h13.2v4.1h-9l-0.5,5.2c1-0.5,1.8-0.7,3-0.7c4.1,0,7.6,2.5,7.6,7.9c0,5.5-4.1,8.7-8.7,8.7
		C584.1,685,581.5,683.5,579.6,681.7z"/>
	<path fill="#5D5D5D" d="M623.2,673.9c-1.4,0.4-2.9,0.8-4.3,1.2v8.1c0,1.9-0.4,2.9-1.5,3.5c-1.1,0.6-2.7,0.7-5,0.7
		c-0.1-1-0.6-2.6-1.1-3.6c1.3,0.1,2.7,0.1,3.1,0.1c0.4,0,0.6-0.2,0.6-0.6v-7.1c-1.3,0.3-2.5,0.6-3.7,0.9l-1-3.8
		c1.3-0.3,2.9-0.6,4.6-1v-5.9h-4.1v-3.7h4.1v-6.2h3.9v6.2h4.1v3.7h-4.1v5c1.3-0.3,2.6-0.7,3.8-1L623.2,673.9z M641.6,671.1h-4.8
		v16.2h-3.9v-16.2h-4.6c-0.1,5.6-0.9,11.3-4.1,16.4c-0.8-0.9-2.1-1.9-3.2-2.6c3.1-5.1,3.4-10.7,3.4-15.6v-10
		c4.9-0.6,10.3-1.7,13.8-2.9l2.4,3.3c-3.5,1.1-8,1.9-12.2,2.4v5.1h13.4V671.1z"/>
	<path fill="#5D5D5D" d="M655.1,657.4c-0.6,2-1.4,4.1-2.3,6.1v24h-3.8v-16.8c-0.7,1-1.4,2-2.1,2.8c-0.3-0.9-1.3-3.2-1.9-4.3
		c2.6-3.1,5-8,6.4-12.9L655.1,657.4z M676.7,674.7h-3c0.6,0.6,1.1,1.3,1.4,1.7l-2.1,1.3c-0.4-0.6-1.1-1.5-1.8-2.3
		c-0.3,1.4-1.1,1.8-2.9,1.8h-2.9c-0.3,0.3-0.6,0.7-0.9,1h6.8l0.7-0.1l2.4,1.3c-1.1,1.6-2.6,3-4.7,4.1c2.2,0.5,4.6,0.8,7.1,1
		c-0.7,0.7-1.5,2-1.9,2.9c-3.5-0.4-6.7-1-9.5-2c-2.8,0.9-6,1.6-9.7,2.1c-0.4-0.9-1.2-2.1-1.9-2.9c2.7-0.3,5.3-0.7,7.5-1.2
		c-0.7-0.4-1.3-0.8-1.9-1.2c-0.9,0.5-1.8,1-2.8,1.5c-0.4-0.7-1.4-1.8-2.1-2.2c1-0.4,1.9-0.8,2.7-1.2c-0.4-0.5-0.8-0.9-1.2-1.4l2.9-1
		c0.2,0.3,0.5,0.6,0.8,0.9c0.9-0.7,1.7-1.3,2.3-2c-0.6-0.3-0.9-0.9-1-1.8c-0.7,1-1.6,2-2.6,2.7l-2.2-1.7c0.5-0.3,1.1-0.8,1.6-1.3
		h-3.1v-4.7h3v-8.3h5.5c0.1-0.4,0.2-0.8,0.2-1.2h-7.8v-2.8h20.7v2.8h-8.8l-0.5,1.2h7.2v8.3h2.8V674.7z M671.7,672.6
		c0.5,0.5,1,0.9,1.5,1.5v-2h-6.4c0.7,0.6,1.4,1.2,1.8,1.6l-2.2,1.3c-0.6-0.7-1.6-1.7-2.5-2.4l1-0.5h-7.1v2.3c0.5-0.6,1-1.1,1.4-1.7
		l1.6,0.8v-0.7h3.1v1.5c0,0.7,0.2,0.8,1.1,0.8h2.9c0.7,0,0.8-0.2,0.9-1.1c0.4,0.2,1,0.4,1.6,0.6c-0.2-0.3-0.5-0.5-0.7-0.7
		L671.7,672.6z M661,663.6v1h9.3v-1H661z M670.2,666.2H661v1.1h9.3V666.2z M661,669.9h9.3v-1.1H661V669.9z M665.3,682.3
		c1.3-0.5,2.5-1.1,3.4-1.7l-6.9,0C662.8,681.3,664,681.9,665.3,682.3z"/>
	<path fill="#5D5D5D" d="M680.8,684.6c1.3-1.5,2.4-3.9,3.1-5.9l3.4,1.4c-0.7,2.1-1.8,4.7-3.1,6.5L680.8,684.6z M693.9,661h-12.1
		v-3.1h12.1v-1.6h4.1v1.6h12.5v3.1H698v1.5h10.2v9.9h-3.3c2.2,1.2,4.5,2.9,5.8,4.1l-2.8,2.1c-0.4-0.5-1-0.9-1.6-1.5
		c-3.2,0.1-6.4,0.1-9.6,0.2c1.5,1,3.1,2.2,4,3.2l-2.7,2.3c-1-1.2-3.2-2.9-5-4.1l1.7-1.4c-4.8,0.1-9.3,0.1-12.8,0.2l-0.2-3.3
		c3.2,0,7.4,0,12,0v-1.9h-10.1v-9.9h10.1V661z M687.5,666.3h6.4v-1.5h-6.4V666.3z M693.9,670v-1.5h-6.4v1.5H693.9z M700.1,683.7
		c1.5,0,1.8-0.4,1.9-2.9c0.8,0.5,2.4,1,3.4,1.2c-0.5,3.9-1.6,4.8-5,4.8h-6.5c-4.6,0-5.8-1-5.8-4.2v-3.8h3.9v3.8c0,0.9,0.3,1,2.3,1
		H700.1z M698,664.8v1.5h6.2v-1.5H698z M698,670h6.2v-1.5H698V670z M702.2,674.2c-0.5-0.3-1-0.6-1.5-0.8l1.5-1H698v1.9L702.2,674.2z
		 M707.8,678.8c1.5,2,3,4.6,3.5,6.5l-3.7,1.2c-0.4-1.7-1.8-4.5-3.2-6.6L707.8,678.8z"/>
	<path fill="#5D5D5D" d="M724.4,671.9c0,7.2-3,12.5-6.6,16l-3.2-1.4c3.3-3.6,6-8.2,6-14.6s-2.6-11-6-14.6l3.2-1.4
		C721.4,659.4,724.4,664.7,724.4,671.9z"/>
</g>
</svg>
