<?xml version="1.0" encoding="utf-8"?>
<!-- Generator: Adobe Illustrator 17.1.0, SVG Export Plug-In . SVG Version: 6.00 Build 0)  -->
<!DOCTYPE svg PUBLIC "-//W3C//DTD SVG 1.1//EN" "http://www.w3.org/Graphics/SVG/1.1/DTD/svg11.dtd">
<svg version="1.1" id="圖層_1" xmlns="http://www.w3.org/2000/svg" xmlns:xlink="http://www.w3.org/1999/xlink" x="0px" y="0px"
	 viewBox="0 0 1600 900" enable-background="new 0 0 1600 900" xml:space="preserve">
<rect x="168.9" y="662.8" fill="#E4F9F8" width="1264.5" height="237.1"/>
<g id="XMLID_63_">
	<g id="XMLID_70_">
		<path id="XMLID_72_" fill="#8C4817" d="M447,81.9l52.2,1.3l3.1,3.6l-1.4,1.8c0,0-36,8.6-53.5,9.9l-5.4-9.9L447,81.9z"/>
		<polygon id="XMLID_71_" fill="#8C4817" points="258.4,85.5 342.6,77.8 342.1,72.9 263.4,72.9 		"/>
	</g>
	<path id="XMLID_66_" fill="#333333" d="M450.1,82.3c0,0,0.4-1.3-4.1-1.3s-14.8-2.2-14.8-2.2s-59.9-9-77.9,0c0,0-4.9,0.5-9.4,7.2
		c0,0-3.2,3.6-12.2,2.2c0,0-5.8-2.2-7.2-6.3c-1.4-4-14.4-7.7-14.4-7.7s-31.5-9.9-51.3-2.7l0.5,15.3c0,0,2.7,0.9,3.6,9.9
		c0.9,8.5,5.4,31.5,9,35.6c3.1,4,14.8,13.5,38.2,10.3c6.3-0.9,11.7-5.4,13.5-11.2c1.8-6.3,4.9-16.7,7.6-31.9c0,0,9-0.9,10.8,8.5
		c1.8,9.5,10.8,28.3,10.8,28.3s5,9.9,15.8,13.5c12.6,4.1,41,8.1,56.2-0.9c0,0,4.5-1.8,5.4-13.5l4.1-27c0,0-2.7-9,12.1-8.6
		c0,0,4.1,1.8,4.1-4.9S450.1,82.3,450.1,82.3z M317.8,129.6c-6.3,14-18.4,9.5-30.6,7.2c-11.7-2.2-16.2-22.5-16.2-22.5
		s-7.2-23.4-2.2-34.2c4.5-9.9,25.6-4.1,28.8-3.2c0.5,0,0.9,0,0.9,0c23.4,3.2,24.3,21.2,23.8,23.8c0,0.5,0,0.5,0,0.9
		C322.8,104,323.7,117,317.8,129.6z M426.3,106.7c-0.9,16.7,0.9,7.7-1.8,23.4c0,0-3.6,14.9-14.9,16.7s-31.1,3.1-42.3-3.6
		c-10.8-6.3-17.1-28.3-18-31.9c0-0.4,0-0.4,0-0.9L348,99c0-0.5,0-0.5,0-0.9c0-2.7,0.9-14.8,13.9-16.7c0.4,0,0.9,0,1.4-0.5
		c3.6-0.9,10.8-3.2,28.8-1.8c21.2,1.3,25.2,5.4,25.2,5.4S427.2,90,426.3,106.7z"/>
	<path id="XMLID_65_" fill="#333333" d="M342.1,72.9v5.4l27.4-0.4l5.4,0.4c0,0,18.4,13.1,27,30.6c2.2,4.1,6.8,6.8,11.2,5.8l0,0
		c3.1-0.5,4.5-4.5,2.2-6.8l-32.9-30.2C382.6,78.3,376.8,71.1,342.1,72.9z"/>
	<path id="XMLID_64_" fill="#333333" d="M498.7,82.8v6.8l4.5-0.9c0,0,0.5,0,0.5,0.5c-0.9,3.2-8.1,30.6-5.9,33.3
		c2.7,3.6,7.2,4.1,5.4-2.2c-0.4-2.2-0.4-4,0-6.3c1.4-5.4,3.1-15.3,4.5-23.4C507.7,90,510,81,498.7,82.8z"/>
</g>
<g>
	<path fill="#5D5D5D" d="M591.9,130.5h-13v5.4h-7.2V87.3h20.2V130.5z M578.8,94v11.2h5.8V94H578.8z M584.7,123.8v-12.2h-5.8v12.2
		H584.7z M614.8,96.8v5.8h12.6v6.8h-4.5v4.9h6.3v6.8h-6.3v14c0,3.6-0.9,5.4-3.1,6.8c-2.2,0.9-5.9,1.3-10.8,1.3
		c-0.5-2.2-1.4-4.9-2.2-7.2c3.1,0,6.8,0,7.6,0s1.4-0.4,1.4-1.3V121h-22.5v-6.8h22.5v-4.9h-20.2v-6.8h12.1v-5.8h-14.4V90h14.4v-6.8
		h7.6V90h14.4v6.8H614.8z M601.8,122c2.7,3.2,5.9,7.2,7.7,10.3l-6.8,4c-1.4-2.7-4.5-7.2-7.2-10.8L601.8,122z"/>
	<path fill="#5D5D5D" d="M645.9,100.8c-1.4-3.6-4.5-9-7.6-13L645,85c3.1,3.6,6.3,9,8.1,12.6L645.9,100.8z M688.6,134.6
		c0,3.6-0.9,5.8-3.1,6.8c-2.2,1.3-5.9,1.3-10.8,1.3c-0.4-2.2-1.3-5.4-2.2-7.2c3.2,0,6.3,0,7.7,0c0.9,0,1.3-0.5,1.3-1.4v-25.6h-34.6
		v34.2h-7.6v-41.4H660v-18h7.7v18h21.1v33.3H688.6z M658.5,132.3v4h-6.8v-22.9h23.4v19.4h-16.6L658.5,132.3L658.5,132.3z
		 M658.5,119.2v6.8h9.4v-6.8H658.5z M689.1,86.8c-2.7,4.9-6.3,10.3-9,13.5l-6.3-2.7c2.7-3.6,5.9-9.4,7.7-13.5L689.1,86.8z"/>
	<path fill="#5D5D5D" d="M749.8,136.8c0.5,0,0.9,0,0.9,0s0.5-0.5,0.5-1.4s0-2.7,0-4.9c1.3,1.3,4,2.7,5.8,3.2c0,2.2-0.5,4.9-0.9,5.8
		c-0.5,1.3-1.4,1.8-2.7,2.7c-0.9,0.5-2.7,0.5-3.6,0.5h-4c-1.3,0-3.6-0.5-4.5-1.4s-0.9-2.7-0.9-6.3v-8.5h-3.6
		c-0.9,8.5-3.6,14-15.3,17.1c-0.5-1.8-2.2-4.1-3.6-5.4c-6.8,1.3-13,2.7-18.4,3.6l-1.4-6.8c2.7-0.4,5.9-0.9,9.5-1.3V117H699v-6.3h8.5
		v-4.5h-5.4v-2.7c-0.9,0.9-1.8,1.8-2.7,2.2c-0.5-1.8-1.8-5.8-2.7-7.7c5-3.6,9.9-9,12.6-14.8l5.4,2.7c-0.5,0.9-0.9,1.3-1.4,2.2
		c4.1,2.2,8.1,4.9,10.4,7.7l-2.2,3.6h7.6c-0.4-1.3-0.9-3.2-1.3-4.5l5-0.9h-10.4v-5.8h12.1c-0.4-0.9-0.9-2.2-1.3-2.7l6.8-1.8
		c0.9,1.3,1.8,3.2,2.2,4.5h12.6V94h-10.3l5.8,0.9c-0.9,1.8-1.8,3.2-2.2,4.5h8.1v5.8H721v-5.4l-1.3,1.8l0,0v4.5h-6.3v4.5h8.1v6.3
		h-8.1v15.3l8.6-1.8l0.4,5.4c4.5-1.8,5.9-4.9,6.8-9.4h-4.9v-19.3h29.2v19.3h-6.8v9c0,0.9,0,1.3,0.5,1.3c0,0,0.5,0.4,0.9,0.4h1.8
		v-0.3H749.8z M704.4,119.2c0.9,3.6,1.8,8.1,2.2,10.8l-5,1.3c0-3.2-0.9-7.7-1.8-11.2L704.4,119.2z M718.3,99.5
		c-2.2-1.8-5-4.1-8.1-5.8c-1.4,2.2-2.7,4-4.5,5.8H718.3z M714.7,128.7c0.9-2.7,1.8-7.2,2.2-10.3l5.4,1.3c-1.4,3.6-2.2,7.7-3.1,10.3
		L714.7,128.7z M731.4,114.3h16.2v-2.7h-16.2V114.3z M731.4,121.5h16.2v-2.7h-16.2V121.5z M734.5,93.2c0.9,1.8,1.8,4.1,2.2,5.8h5.9
		c0.9-1.8,1.8-4,1.8-5.8H734.5z"/>
	<path fill="#5D5D5D" d="M820.9,133.2v6.8H784v-27l-3.6,5.8c-0.9-1.8-2.2-4-4-6.3v30.6h-6.8v-25.2c-1.8,4.5-3.6,8.6-5.9,11.7
		c-0.9-2.2-2.2-5.4-3.6-7.6c3.6-4.1,7.2-11.7,9-18.9h-7.7v-7.2h8.1V83.2h6.8v12.6h5.9v7.2h-5.9v0.5c1.8,1.8,5.9,6.3,7.2,8.1V86.8h36
		v6.8h-28.8v39.2h30.1v0.4H820.9z M802,122.8V116h-8.1v-6.3h8.1v-6.3h-8.5v-6.3h25.2v6.3h-9.5v6.3h8.1v6.3h-8.1v6.8h9.9v6.3H793
		v-6.3H802z"/>
	<g>
		<path fill="#9E9E9E" d="M897,95.8v36h-5.4v-2.7H865v3.2h-5.4V95.8H897z M891.1,124.2v-5c-0.5,0-1.4,0-2.2,0h-4c-4,0-5-2.2-5-6.8
			v-11.7h-4.5c0,10.8-1.4,17.6-8.1,21.2c-0.5-1.3-1.8-3.2-3.1-4.1v5.8h27v0.6H891.1z M864.6,100.8v17.1c5.4-3.2,5.9-8.1,5.9-17.1
			H864.6z M891.1,100.8h-6.3v11.7c0,1.3,0,2.2,0.9,2.2h2.7c0.5,0,1.8,0,2.2,0v-14h0.5V100.8z"/>
		<path fill="#9E9E9E" d="M910,121.5c-0.9,3.2-2.2,7.2-3.6,9.4c-0.9-0.4-3.2-1.3-4-1.8c1.4-2.3,2.7-5.9,3.1-8.6L910,121.5z
			 M916.8,119.2v14.4h-5v-14.4h-8.5v-4.5h22v4.5C925.3,119.2,916.8,119.2,916.8,119.2z M911.8,99.9h-8.1v-4.5h8.1v-3.2h5v3.2h7.7
			v4.5h-7.7v2.2h6.8v4.5h-18.9v-4.5h6.8v-2.2H911.8z M923.1,108.9c2.2-4.5,3.6-10.3,4.5-16.7l5,0.9c-0.5,2.2-0.9,5-1.3,7.2h9h0.9
			l3.6,0.9c-0.9,4.5-2.2,9.5-3.2,12.6l-4.5-1.3c0.5-1.8,1.4-4.5,1.8-7.2h-8.5c-0.9,3.6-2.2,6.3-3.6,9c-0.9-0.4-2.2-1.8-3.2-2.7v1.8
			h-18v-4.5H923.1L923.1,108.9z M921.7,120.2c0.9,2.2,2.2,5,2.7,6.8l-4,1.8c-0.5-1.8-1.8-4.9-2.7-7.2L921.7,120.2z M935.7,110.2
			c0,1.3,0,2.7,0,4c1.3,6.8,4.5,12.2,9.5,14.8c-1.4,0.9-2.7,3.2-3.6,4.5c-3.6-2.2-5.8-5.8-7.6-10.3c-1.4,3.6-3.6,7.2-7.2,10.3
			c-0.9-1.3-2.7-2.7-4-3.6c7.2-6.3,8.1-14.8,8.1-20.3V108h5L935.7,110.2L935.7,110.2z"/>
		<path fill="#9E9E9E" d="M962.7,115.7c-1.4,0.5-2.7,0.9-4,1.3v11.2c0,2.2-0.5,3.6-1.8,4.5s-3.1,0.9-6.3,0.9c0-1.4-0.9-3.6-1.3-5
			c1.8,0,3.1,0,3.6,0s0.9,0,0.9-0.9v-9.9l-4,1.3l-1.4-5c1.4-0.4,3.2-0.9,5.4-1.3v-7.7h-4.5v-4.9h4.5v-8.6h5v8.6h4v4.9h-4v6.3
			c1.4-0.5,2.2-0.5,3.6-0.9L962.7,115.7z M990.1,128.2h-11.2v5.4h-5v-5.4h-11.2v-4h11.2v-1.8H964v-4h5c-0.5-0.9-0.5-1.8-0.9-2.7
			l3.2-0.9h-8.1v-4H974V109h-9v-3.6h9v-1.8h-9.5v-9.9h24.8v9.9H979v1.8h9.5v3.6H979v1.8h10.8v4h-7.2l3.1,0.9l-1.4,2.7h4v4h-9.4v1.8
			h11.2L990.1,128.2L990.1,128.2z M971.2,97.2h-2.7v3.2h2.7V97.2z M972.6,115.2c0.5,0.9,0.9,2.2,1.4,3.2h5.8
			c0.5-0.9,0.9-2.2,1.4-3.2H972.6z M975.3,99.9h2.7v-3.2h-2.7V99.9z M982,99.9h2.7v-3.2H982V99.9z"/>
		<path fill="#9E9E9E" d="M1036,109.8v5.8h-41v-5.8H1036z"/>
	</g>
</g>
<g>
	<path fill="#5D5D5D" d="M582.9,322.2c-2.2-1.8-7.2-4.5-10.8-6.3l3.6-5c3.6,1.4,8.6,3.6,10.8,5.9L582.9,322.2z M573.9,343.4
		c3.1-4.5,7.6-11.2,10.8-18l5,4.5c-3.1,5.9-6.8,12.6-9.9,18L573.9,343.4z M586,306.9c-2.2-1.8-7.2-4.5-10.8-6.3l3.6-4.9
		c4,1.4,8.5,4,11.2,5.9L586,306.9z M618.9,348.8c-0.5-1.4-0.9-3.1-1.8-4.9c-18.9,2.2-22.1,2.7-23.9,3.6c-0.5-1.4-1.4-5-2.2-6.8
		c1.4-0.5,2.2-1.8,3.6-3.6c0.9-1.4,3.6-6.8,6.3-12.1h-10.8v-6.3h13.5v-8.1h-11.7v-6.3h11.2v-8.5h6.8v8.5h11.7v6.3h-11.7v8.1h14v6.3
		h-15.8c-2.2,5.4-5,10.4-8.1,14.9l13.5-1.4c-1.4-2.2-2.7-4.1-4-5.9l5.4-2.7c3.6,5,8.1,11.7,9.5,16.2L618.9,348.8z"/>
	<path fill="#5D5D5D" d="M681,296.1v51.3h-6.8v-2.2h-35.6v2.2h-6.3v-51.3H681z M674.2,338.9V302H667c1.8,0.9,3.6,2.2,5,3.1l-2.2,2.2
		h2.7v5h-10.3c0.4,3.1,0.4,6.3,0.9,9c1.4-2.2,1.8-4.5,2.7-7.2l5.4,0.9c-1.3,4.9-3.6,9.4-5.8,13.1c0.9,1.8,1.8,2.7,2.7,3.1
		c0.5,0.5,0.9-1.8,1.4-5.4c0.9,0.9,3.1,2.7,4,3.1c-0.9,7.2-4,9.5-7.6,7.6c-1.8-0.4-3.2-1.8-4.5-3.6c-1.8,1.8-3.6,3.6-5.9,4.9
		c-0.9-0.9-2.7-3.1-3.6-4c0.4-0.5,1.3-0.9,1.8-1.4c-4.5,0.9-9,1.4-13,1.8l-0.5-4.9c4-0.5,10.3-1.4,16.2-1.8v2.7
		c0.9-0.9,1.8-1.8,2.7-2.7c-1.3-4.1-1.8-9.4-2.2-14.9h-15.8v-5h15.8c0-1.8,0-3.1-0.4-4.9h5.4c0,1.8,0,3.1,0.5,4.9h6.3
		c-1.4-0.9-3.1-2.2-4.5-3.1l2.7-2.7H639v36.9L674.2,338.9L674.2,338.9z M654.9,326.2h-12.6V315h12.6V326.2z M650.4,319.1h-4v3.6h4
		V319.1z"/>
	<path fill="#5D5D5D" d="M702.6,303.3v34.6c0,3.6-0.5,5.4-2.7,6.3s-5,1.4-9.5,1.4c-0.4-1.8-0.9-4.9-1.8-6.8c2.7,0,5.4,0,6.3,0
		s1.4-0.4,1.4-1.4v-34.6h-8.1V297h20.7v6.3H702.6z M717.9,336.1l5.4,3.6c-3.6,3.1-9.9,5.9-14.8,7.6c-0.9-1.4-2.7-3.6-4.1-4.5
		c4.5-1.4,10.4-4.1,13.1-6.3h-5.9V306h9c0.5-1.4,0.5-2.7,0.9-4.1h-11.7V296h31.5v5.9h-12.2c-0.4,1.4-0.9,2.7-1.3,4.1h12.1v30.1
		H717.9z M717.4,314.6h14.9V311h-14.9V314.6z M717.4,322.6h14.9V319h-14.9V322.6z M717.4,331.2h14.9v-3.6h-14.9V331.2z M730.9,336.1
		c3.6,1.8,8.6,4.9,11.2,7.2l-5.4,4.1c-2.2-2.2-7.2-5.4-10.8-7.6L730.9,336.1z"/>
	<path fill="#5D5D5D" d="M753.9,333.4c-0.5,5-1.4,10.4-2.7,14c-1.4-0.5-3.6-1.4-5-1.8c1.3-3.6,1.8-8.5,2.2-13L753.9,333.4z
		 M746.2,311.9c1.3-0.4,2.2-1.4,3.1-3.1c1.4-1.4,5-7.6,6.8-13.9l6.3,2.7c-2.2,4.5-5,9.5-7.7,13.5l4-0.4c1.4-2.2,3.2-4.9,4-7.6
		l5.9,3.6c-3.2,5.9-7.7,11.7-12.2,16.6l5.9-0.9c-0.5-1.4-0.9-2.7-1.8-4.1l4.5-1.8c1.8,3.6,3.6,8.1,4,11.2l-5,1.8
		c0-0.9-0.5-1.8-0.5-2.7c-12.1,2.2-14.4,2.7-15.8,3.6c-0.5-1.4-1.3-4.5-2.2-5.9c1.4-0.5,2.7-1.8,4.5-3.6c0.9-0.9,2.2-2.2,3.6-4.5
		c-4.5,0.5-5.9,0.9-6.8,1.4C748,316.4,746.7,313.2,746.2,311.9z M759.7,332.6c0.9,3.6,1.3,8.5,1.3,11.2l-5,1.4
		c0-3.1-0.5-8.1-1.4-11.7L759.7,332.6z M798.4,315c-1.4,8.6-4,15.8-7.7,21.6c2.2,2.7,5.4,5,9,6.3c-1.3,1.4-3.6,4-4.5,5.9
		c-3.1-1.8-5.8-4.1-8.1-6.8c-2.2,2.7-5,4.9-8.1,6.8c-0.9-1.8-2.7-4.1-4.5-4.9c3.2-1.8,5.9-4.1,8.5-7.2c-1.8-3.1-3.1-6.3-4.5-9.9
		c-1.4,8.5-3.1,16.2-7.2,22c-0.9-0.9-4-3.6-5.9-4c0.9-1.4,1.8-2.7,2.2-4.1l-4,1.4c-0.5-2.2-1.8-6.3-2.7-9.4l4.5-1.4
		c0.9,2.7,1.8,5.9,2.7,8.1c4-9,4.5-21.1,4.5-35.1h-5V298H787l0.9-0.4l5,0.4c-0.5,4.9-1.8,10.8-2.7,15.8h2.2l0.9-0.4L798.4,315z
		 M779.5,303.8c0,3.1,0,6.8-0.5,9.4h5.4c0.5-3.1,1.3-6.8,1.8-9.4H779.5z M782.2,319.5c0.9,4.1,2.7,7.6,4.5,10.8
		c1.8-3.1,3.1-6.8,4-10.8H782.2z"/>
	<path fill="#5D5D5D" d="M856.9,320.4c-3.2,2.7-7.2,5.9-10.4,8.1c3.2,5.4,6.8,9.9,11.2,13.1c-1.3,1.4-3.6,3.6-5,5.4
		c-8.5-6.3-14.4-17.5-18-30.1c-0.9,1.4-2.2,2.7-3.6,4v18.5l9-2.7c0,1.8,0.5,4.5,0.9,5.9c-13,4.5-15.3,5.4-16.7,6.3
		c-0.5-1.4-2.2-3.6-3.6-4.9c1.3-0.9,3.6-3.1,3.6-6.3v-10.4c-1.8,1.4-3.1,2.7-5,3.6c-0.9-0.9-2.2-3.1-3.1-4.5V348h-6.8v-28.8
		c-0.9,1.4-2.2,2.7-3.2,4c-0.5-1.8-2.7-5.4-3.6-7.2c5-5.4,9.9-13.5,12.6-21.6l6.3,1.8c-1.4,4.1-3.6,8.6-5.9,12.6V324
		c5.4-3.6,10.8-8.5,14.4-13.5h-11.7v-6.3h16.2c-0.9-2.2-1.8-5.4-3.2-8.1l6.3-1.8c1.4,2.7,3.1,6.3,3.6,8.5l-4,1.4h18v6.3h-16.6
		c0.9,4.1,2.2,8.1,4,12.1c2.7-2.2,5.9-5.4,7.7-7.6L856.9,320.4z"/>
	<path fill="#5D5D5D" d="M881.2,331.6c-0.9-1.4-2.7-3.6-4-5.4v22.1h-6.8v-21.1c-2.2,1.8-4.5,3.6-6.8,4.9c-0.5-1.8-1.8-5.9-2.7-6.8
		c5.8-3.1,11.2-9,14.8-14.9h-13v-6.3h9.9c-0.9-1.8-2.7-4.5-4-6.3l5.4-3.1c1.8,2.2,4,4.9,5,7.2l-3.2,2.2h4l1.4-0.4l3.6,2.7
		c-1.8,4.1-4,8.1-6.8,12.1c2.2,1.8,6.3,6.3,7.7,7.2L881.2,331.6z M909.1,342.4c0.9,0,1.4-0.9,1.4-6.3c1.3,0.9,4,2.2,5.4,2.7
		c-0.5,7.6-2.2,9.9-6.3,9.9H906c-5,0-6.3-1.8-6.3-7.6v-11.2h-3.2c-0.9,9.5-3.1,15.8-14,19.4c-0.5-1.4-2.2-4-3.6-4.9
		c9-2.7,10.8-7.2,11.2-14.4h-3.6v-33h25.6v31.9h-5.8v11.2c0,1.4,0,1.8,0.9,1.8h1.8L909.1,342.4L909.1,342.4z M893.4,306.4H906v-3.6
		h-12.6V306.4z M893.4,315H906v-3.6h-12.6V315z M893.4,324H906v-3.6h-12.6V324z"/>
	<path fill="#5D5D5D" d="M970.8,301.9c-1.8,5.9-4.5,11.2-8.1,15.3c3.1,2.7,7.2,4.9,11.7,6.3c-1.4,1.4-3.1,4-4,5.9l0,0v18.9h-6.8
		v-1.8h-10.8v1.8h-6.3v-18.5l-1.4,0.5c-0.5-0.9-1.4-2.2-2.2-3.1v1.8h-6.3v7.6l6.8-1.4l0.5,5.9c-8.1,1.8-16.7,4.1-23.4,5.4l-1.3-6.8
		l2.7-0.4v-19.4h5.4v18l2.7-0.4v-21.6h-8.1V297h19.8v14.4c4-4.1,7.6-9.9,9.5-16.2l6.3,1.8c-0.5,1.4-0.9,2.7-1.4,4.1h8.1l1.3-0.5
		L970.8,301.9z M928.5,310.1h7.6v-7.2h-7.6V310.1z M942.9,324.4c4-1.8,7.6-4,10.8-7.2c-1.4-1.8-2.7-3.6-3.6-4.9
		c-0.9,1.4-2.2,2.7-3.6,4c-0.9-0.9-3.2-2.7-4.5-4v3.6h-5.9v6.8h6.3v1.8L942.9,324.4L942.9,324.4z M965.4,327.1
		c-2.7-1.4-5-3.1-7.2-5.4c-2.2,1.8-4.5,3.6-7.2,5.4H965.4z M963.6,340.6V333h-10.8v7.6H963.6z M954.1,306.4l-0.5,0.9
		c1.3,1.8,2.7,4.1,4,5.9c1.8-2.2,3.1-4.5,4-6.8H954.1z"/>
	<path fill="#5D5D5D" d="M1013.5,321.3c-1.8-1.4-6.3-4.1-9-5.4l4-5c2.7,1.4,7.2,3.6,9,5L1013.5,321.3z M1018.5,329.9
		c-1.8,6.3-4.5,12.6-6.8,18.5l-6.3-3.6c2.2-4.5,5-11.7,7.2-18.4L1018.5,329.9z M1015.8,306.4c-1.8-1.4-6.3-4-9-5.9l4-4.9
		c2.7,1.4,6.8,4,9,5.4L1015.8,306.4z M1027.5,317.7c0,9-0.9,22.1-6.3,30.6c-0.9-0.9-3.6-3.1-5-3.6c5-7.6,5.4-18.9,5.4-27v-14.4h13.5
		v-8.1h6.3v2.2h14v4.1h-14v1.8h11.7h0.9l4.5,0.9c-0.5,3.1-1.8,6.3-2.7,8.6l-5-0.9c0.5-0.9,0.5-2.2,0.9-3.6h-11.2v1.8l7.7-0.5v3.6
		l-8.1,0.5c0,0.9,0.4,1.4,1.8,1.4h6.3c1.4,0,4.1,0,5-0.4c0,1.8,0.5,2.7,0.5,4c-0.9,0.5-3.6,0.5-5.4,0.5h-8.6c-4,0-5.4-1.8-5.8-4.5
		l-5.4,0.4l-0.4-4.5l5.4-0.4V308h-6.8v9.9h0.8V317.7z M1024.8,344.7c2.2-1.8,3.6-4.9,4-8.1l5,1.8c-0.9,3.6-1.8,7.2-4.5,9.4
		L1024.8,344.7z M1054,347.4c-0.5-1.4-1.4-3.1-2.7-5c-0.5,4.5-2.2,5.9-5.4,5.9h-5.4c-5,0-6.3-1.4-6.3-5.9v-4.5h5
		c-0.9-0.4-1.8-0.9-2.7-1.4l1.4-1.4h-8.6v-13.9h25.2v13.9h-11.2c1.3,0.9,3.2,1.8,4,2.7l-3.1,3.1c-0.9-0.9-2.7-1.8-4.5-3.1v4.5
		c0,1.4,0.4,1.4,1.3,1.4h4c0.9,0,1.4-0.5,1.4-3.1c0.9,0.9,2.7,1.4,4,1.8c-0.9-1.4-1.8-2.2-2.7-3.6l4.5-2.2c2.7,2.7,5.4,6.3,6.3,9
		L1054,347.4z M1035.1,326.2h4.5V324h-4.5V326.2z M1035.1,331.6h4.5v-2.2h-4.5V331.6z M1049.1,324h-4.5v2.2h4.5V324z M1049.1,329.4
		h-4.5v2.2h4.5V329.4z"/>
	<path fill="#5D5D5D" d="M1116.6,342v5.4H1063V342h6.8v-10.8h40.5V342H1116.6z M1074.7,304.2h-10.8v-5.4h10.8v-3.1h6.8v3.1h6.8v5.4
		h-6.8v2.2h-6.8V304.2z M1114.8,316.8h-16.2c-1.3,3.1-3.6,5.9-5.8,8.1c-0.5-0.9-2.2-3.1-3.6-4.5v2.7h-5.8v2.2h7.7v4.1h-24.3v-22.1
		h24.3v4.1h-7.7v2.2h5.8v5.8c3.2-3.1,5.4-7.6,6.8-12.6l5.9,1.4c-0.5,0.9-0.5,2.2-0.9,3.1h14v5.5H1114.8z M1072,311.4v2.2h5.4v-2.2
		H1072z M1084.2,317.2h-11.7v2.2h11.7V317.2z M1077.9,323.1h-5.4v2.2h5.4V323.1z M1076.1,342h5.4v-5.9h-5.4V342z M1086.9,336.1v5.9
		h5.4v-5.9H1086.9z M1098.1,304.2h-7.7v-5.4h7.7v-2.7h6.8v2.7h10.3v5.4h-10.3v2.2h-6.8V304.2z M1095.4,328.5v-5.9h18v5.9H1095.4z
		 M1098.1,336.1v5.9h5.4v-5.9H1098.1z"/>
	<path fill="#5D5D5D" d="M1166.1,341.1c1.3,0,1.8-0.9,2.2-5.4c1.3,0.9,4.5,2.2,6.3,2.7c-0.9,7.2-2.7,9.4-7.7,9.4h-7.2
		c-6.8,0-8.1-2.2-8.1-9v-16.6h-7.6c-1.4,11.7-4.1,21.1-18.5,26.6c-0.9-1.8-2.7-4.5-4-5.9c12.6-4.1,14.8-11.2,15.3-20.7h-14v-6.8
		h21.6v-20.7h7.2v20.7h21.6v6.8h-14.9v16.6c0,2.2,0.5,2.2,2.2,2.2L1166.1,341.1L1166.1,341.1z M1134.1,313.2
		c-1.3-3.1-5-8.1-8.1-12.1l5.4-3.1c3.2,3.6,6.8,8.5,8.6,11.7L1134.1,313.2z M1171,301.1c-3.2,4.5-6.8,9-9.5,12.1l-5.8-2.2
		c2.7-3.1,6.3-8.5,8.1-12.6L1171,301.1z"/>
	<path fill="#5D5D5D" d="M1226.4,343.4c0.5,0,0.5,0,0.9,0s0.4-0.4,0.4-1.4s0-2.2,0-4.5c1.4,0.9,3.6,2.2,5.4,2.7
		c0,2.2-0.5,4.5-0.9,5.4s-1.3,1.8-2.2,2.2c-0.9,0.5-2.2,0.5-3.1,0.5h-3.6c-1.3,0-3.1-0.5-4-1.4s-1.3-2.2-1.3-5.9v-7.6h-3.2
		c-0.9,7.6-3.2,12.6-13.5,15.3c-0.5-1.4-1.8-3.6-3.2-4.9c-5.8,1.4-12.1,2.2-16.6,3.6l-1.4-6.3c2.2-0.4,5.4-0.9,8.6-1.4v-14.9h-7.7
		V319h7.7v-4h-5v-1.8c-0.9,0.9-1.3,1.4-2.2,2.2c-0.5-1.4-1.8-5.4-2.7-7.2c4.5-3.1,9-8.1,11.2-13.5l5,2.2c-0.5,0.9-0.9,1.4-0.9,2.2
		c3.6,2.2,7.2,4.5,9.5,6.8l-1.8,3.1h7.2c-0.4-1.4-0.9-3.1-1.3-4.1l4.5-0.9h-9v-4.9h11.2c-0.5-0.9-0.9-1.8-1.3-2.7l5.8-1.4
		c0.9,1.4,1.3,2.7,2.2,4.1h11.2v4.9h-10.4l5.4,0.9c-0.9,1.4-1.4,3.1-2.2,4.1h7.2v5.4h-31.5V310l-0.9,1.8l0,0v3.2h-5.4v4.1h7.2v5.9
		h-7.2v13.9l7.7-1.4l0.4,4.5c4.1-1.8,5.4-4.5,5.9-8.6h-4.5v-17.5h26.5v17.5h-5.8v8.1c0,0.9,0,1.4,0.4,1.4c0,0,0.5,0.4,0.9,0.4h0.4
		V343.4z M1185,327.1c0.9,3.1,1.8,7.2,2.2,9.9l-4.5,1.4c0-2.7-0.9-6.8-1.8-9.9L1185,327.1z M1197.6,309.1c-1.8-1.8-4.5-3.6-7.2-5.4
		c-1.3,1.8-2.7,3.6-4,5.4H1197.6z M1194.4,336.1c0.9-2.7,1.8-6.8,1.8-9.5l4.9,1.4c-0.9,3.1-1.8,6.8-2.7,9.4L1194.4,336.1z
		 M1209.3,323.1h14.8v-2.7h-14.8V323.1z M1209.3,329.4h14.8v-2.7h-14.8V329.4z M1212,303.8c0.9,1.4,1.4,3.6,1.8,4.9h4.9
		c0.9-1.8,1.4-3.6,1.8-4.9H1212z"/>
	<path fill="#5D5D5D" d="M1280.4,322.2v26.1h-7.2v-19.4H1252c-0.9,7.2-3.6,14-9,19.8c-0.9-1.8-3.6-4.1-5-5.4
		c7.2-7.6,8.1-18.4,8.1-28.4v-19.4h6.8v12.1h18.5v-13.1h7.2v19.8h-25.7v0.5c0,2.2,0,4.5,0,7.2h27.5V322.2z"/>
</g>
<g>
	<path fill="#5D5D5D" d="M624.3,545h-12.6v5.4c0,3.1-0.5,5-3.2,5.9c-2.2,0.9-5.4,0.9-9.9,0.9c-0.5-1.8-1.4-4-1.8-5.9
		c2.7,0,5.8,0,6.8,0c0.9,0,1.3-0.4,1.3-0.9V545h-16.2c2.2,1.8,4.9,3.6,6.3,5.4l-5,4.5c-1.8-2.2-5.4-5.4-8.5-7.6l2.2-1.8H572V540
		h32.9v-2.2c-11.2,0.5-22,0.5-30.2,0.5v-5c5.4,0,12.6,0,20.2,0V531h-16.6v-16.6H595v-2.2h-21.1v-5H595v-3.6h6.8v3.6H623v5h-21.2v2.2
		h17.6V531h-4.1c2.7,1.4,5.4,3.1,7.2,4.5l-4,3.6c-0.9-0.5-1.4-1.4-2.2-1.8h-4v2.2h12.6v5.4L624.3,545L624.3,545z M584.2,520.6h10.3
		v-2.2h-10.3V520.6z M594.6,527v-2.2h-10.4v2.2H594.6z M601.3,518.4v2.2h10.8v-2.2H601.3z M612.1,527v-2.2h-10.8v2.2H612.1z
		 M601.3,532.8h7.2c-0.9-0.4-1.8-0.9-2.2-0.9l1.4-0.9h-5.9v1.8L601.3,532.8L601.3,532.8z"/>
	<path fill="#5D5D5D" d="M647.7,520.6H658v6.3h-10.4v1.8c2.7,2.2,8.6,7.2,9.9,8.5l-4.1,5.9c-1.3-1.8-4-4.5-6.3-7.2v20.7h-6.8v-20.2
		c-2.7,5-5.4,9.9-8.5,13c-0.9-2.2-2.2-4.9-3.6-6.8c4-4,8.1-10.3,10.8-16.2h-9.4v-6.3h10.8V513c-3.1,0.4-6.3,1.3-9.5,1.3
		c-0.4-1.3-1.3-4-1.8-5.4c8.1-1.4,17.5-3.6,23-5.9l4.9,5.4c-2.7,1.4-6.3,2.2-9.4,3.1L647.7,520.6L647.7,520.6z M668.4,542.7h-6.8
		v-32h6.8V542.7z M680.5,504.4v44.1c0,4.1-0.9,5.9-3.1,7.2c-2.2,1.4-6.3,1.4-11.2,1.4c-0.5-1.8-1.4-5-2.2-7.2c3.6,0,7.6,0,8.5,0
		s1.4-0.5,1.4-1.4v-44.1H680.5z"/>
	<path fill="#5D5D5D" d="M706.2,508.1c-1.3,4.9-3.1,10.4-4.9,14.9c3.1,4.5,4,8.5,4,12.1s-0.9,6.3-2.7,7.7c-0.9,0.9-1.8,0.9-3.1,1.3
		c-0.9,0-2.2,0-3.6,0c0-1.8-0.4-4-1.3-5.8c0.9,0,1.8,0,2.2,0s0.9,0,1.3-0.5s0.9-1.8,0.9-3.6c0-2.7-0.9-6.3-4.1-10.3
		c0.9-3.6,2.2-8.1,3.2-12.1h-4.5v45h-5.4v-51.3h12.2l0.9-0.4L706.2,508.1z M703.5,554c1.8-2.7,3.1-6.3,4-9.5l5,1.8
		c-0.9,3.2-2.2,7.2-4.1,9.9L703.5,554z M738.1,542.7h-14c1.4,1.3,3.2,2.7,4.1,3.6l-3.6,3.6c-1.4-1.8-4.5-4.5-6.3-6.3l1.3-0.9h-11.2
		v-4h23.9v-1.8h-25.6v-3.6h25.6v-1.8h-23.9v-4.1h29.7v5.9h2.7v3.6h-2.7V542.7z M712.5,511.2c-1.4,0-3.2,0-4.5,0
		c0-1.4-0.9-3.1-1.4-4.5c10.4-0.4,23-1.4,29.7-3.1l4,4c-2.2,0.5-5,0.9-7.2,1.4l4.5,1.4c-0.9,1.4-1.8,3.1-2.7,5h3.6v4h-11.7v2.2h13.9
		v4h-33.3V522h13v-2.2h-11.7v-4h2.7c-0.5-0.9-1.4-2.2-1.8-3.2L712.5,511.2z M735.9,556.2c-0.5-1.4-1.8-3.6-2.7-5.4
		c-0.4,5-2.2,6.3-6.3,6.3h-6.8c-5.9,0-7.2-1.4-7.2-6.3v-6.3h5.9v5.9c0,1.3,0.5,1.3,2.2,1.3h5.4c1.4,0,1.8-0.4,1.8-3.1
		c1.3,0.9,3.6,1.3,4.9,1.8c-0.9-1.3-1.3-3.1-2.2-4l5-1.8c1.8,3.1,4,6.8,5.4,9.4L735.9,556.2z M722.4,510.8c-2.2,0.4-5,0.4-7.6,0.4
		c0.9,0.9,1.8,2.3,2.2,3.1l-3.2,1.4h7.2c-0.5-1.4-1.4-2.7-1.8-3.6L722.4,510.8z M728.7,515.7c1.4-1.8,2.7-4.1,3.6-5.9
		c-2.2,0.5-5,0.9-7.6,0.9c0.9,1.4,1.8,2.7,2.2,4.1l-3.2,1.3h4.9L728.7,515.7L728.7,515.7z"/>
	<path fill="#5D5D5D" d="M796.6,526c-1.4,7.2-3.6,13.5-6.8,19.4c1.4,3.6,2.2,5.9,3.6,5.9c0.9,0,1.3-1.8,1.8-7.2
		c1.4,1.3,3.2,2.2,4.5,3.1c-0.9,8.6-2.7,10.4-6.8,10.4c-2.7,0-5-2.2-6.8-5.9c-1.8,2.2-4,4.5-6.3,6.3c-0.9-0.9-3.6-3.2-5-4.1
		c0.9-0.9,1.8-1.3,2.7-2.2h-9.9l0,0h-5v-25.6h16.6v4.5h-4v2.7h4.5v11.2h-4.5v3.1h4.5v1.8c1.3-1.3,2.2-2.7,3.1-4.5
		c-1.4-5.4-2.2-12.6-2.7-21.1h-19.4v11.7c0,7.2-0.5,16.6-3.6,22.5c-0.9-0.9-3.6-2.2-5-2.7c2.2-3.6,2.7-8.5,3.2-13.5H753v1.3
		c0,4.1-0.5,10.4-4,14.4c-0.9-0.9-2.7-2.2-4.1-2.7c2.7-3.6,3.2-8.5,3.2-11.7v-1.3h-2.7v-6.3h10.4v-0.9v-2.2h-8.1V518h5v8.6h3.2v-9
		h24.8v-3.1h0.5v-1.8H774v-5.4h7.2v-3.6h6.8v3.6h10v5.4h-4.5c1.8,0.9,3.1,2.7,4,3.6l-1.8,1.4h2.7v5.8h-11.7c0.5,4.5,0.5,9,1.3,12.6
		c1.4-3.2,2.2-6.8,2.7-10.4L796.6,526z M757.5,512.5h-10.8v-5.4h10.8v-3.6h6.8v3.6h7.2v5.4h-7.2v2.7h-6.8V512.5z M767.8,529.6v2.7
		h3.2v-2.7H767.8z M767.8,536.4v3.2h7.2v-3.2H767.8z M767.8,546.8h3.2v-3.1h-3.2V546.8z M786.3,517.5h5c-0.9-0.9-1.8-1.8-3.2-2.2
		l3.6-2.7h-4.5v2.2h-0.9L786.3,517.5L786.3,517.5z"/>
	<path fill="#5D5D5D" d="M840.3,520.2c1.4,16.6,4.5,30.1,9,30.1c1.4,0,1.8-3.1,2.2-10.4c1.4,1.8,4,3.2,5.9,4.1
		c-0.9,10.8-3.1,13.5-9,13.5c-9.9,0-14-17.1-15.3-37.4h-28.3v-6.8h28.3c0-3.1,0-6.3,0-9.4h7.2c0,3.1,0,6.3,0,9.4h9
		c-1.3-1.8-4.5-4.5-6.8-5.9l4.5-3.6c2.7,1.8,5.9,4.5,7.7,6.3l-4,3.6h5.4v6.8h-15.8L840.3,520.2L840.3,520.2z M822.3,545.9
		c3.6-0.5,7.2-1.4,10.8-1.8l0.5,6.3c-9.5,2.2-19.3,4-27,5.8l-1.8-6.8c3.1-0.4,6.8-0.9,10.8-1.8v-14H807v-7.2h24.8v6.8h-9v12.6h-0.5
		V545.9z"/>
	<path fill="#5D5D5D" d="M914.1,550.8v5.4h-52.2v-5.4h22.5v-2.7h-16.6v-5l-0.5,0.5l-5-3.2c2.2-1.3,5-4,6.3-6.8h-6.3v-4.5h22V527
		h-17.5v-4.5h17.5v-1.8h-17.1v-15.8h41.4v15.8h-17.5v1.8H910v4.5h-18.9v2.2h22v4.5h-6.3c2.7,1.8,5.4,4.5,7.2,6.3l-5.4,2.7
		c-1.4-1.8-5-4.9-7.7-7.2l3.6-1.8H895c1.8,1.8,3.1,4.1,4,5.9l-5.4,2.2c-0.9-1.8-2.2-4.5-4-6.3l4.5-1.8H870l4.5,1.4
		c-1.4,2.7-4,5.8-6.3,7.6h16.2V540l-5,1.4c-0.5-1.8-0.9-4.1-1.8-6.3l5.9-1.3c0.9,1.8,1.8,4,2.2,5.8l-0.9,0.5h6.8v2.7h16.6v5.4h-16.6
		v2.7h22.5V550.8z M874,516.6h4c-0.5-1.8-1.3-4.5-2.2-6.3l3.6-1.4H874V516.6z M884.8,516.6V509h-4.5c1.4,1.8,2.2,4.5,2.2,6.3
		l-3.6,1.3H884.8L884.8,516.6z M895.6,516.6l-2.7-0.9c0.9-1.8,1.8-4.5,2.7-6.8h-4.5v7.7H895.6z M902.4,508.9H897l4,1.4
		c-0.9,2.2-2.2,4.5-3.1,6.3h4.5V508.9z"/>
	<path fill="#5D5D5D" d="M966.7,551.7c0.5,0,0.5,0,0.9,0c0.5,0,0.5-0.5,0.5-1.4s0-2.2,0-4.5c1.4,0.9,3.6,2.2,5.4,2.7
		c0,2.2-0.5,4.5-0.9,5.4c-0.5,0.9-1.3,1.8-2.2,2.2c-0.9,0.5-2.2,0.5-3.1,0.5h-3.6c-1.3,0-3.1-0.5-4-1.4s-1.3-2.2-1.3-5.8v-7.7H955
		c-0.9,7.7-3.1,12.6-13.5,15.3c-0.5-1.4-1.8-3.6-3.1-5c-5.9,1.3-12.1,2.2-16.6,3.6l-1.4-6.3c2.2-0.5,5.4-0.9,8.5-1.3v-14.9h-7.7
		v-5.9h7.7v-4h-5v-1.8c-0.9,0.9-1.4,1.3-2.2,2.2c-0.5-1.4-1.8-5.4-2.7-7.2c4.5-3.1,9-8.1,11.2-13.5l5,2.2c-0.5,0.9-0.9,1.4-0.9,2.2
		c3.6,2.2,7.2,4.5,9.5,6.8l-1.8,3.1h7.2c-0.5-1.3-0.9-3.1-1.4-4l4.5-0.9h-9v-5h11.2c-0.5-0.9-0.9-1.8-1.3-2.7l5.8-1.4
		c0.9,1.4,1.4,2.7,2.2,4.1h11.2v5h-9.5l5.4,0.9c-0.9,1.4-1.3,3.1-2.2,4h7.2v5.4H942v-4.5l-0.9,1.8l0,0v4h-5.4v4.1h7.2v5.8h-7.2v14
		l7.6-1.4l0.5,4.5c4-1.8,5.4-4.5,5.8-8.5h-4.5v-17.5h26.5v17.5h-5.9v8.1c0,0.9,0,1.3,0.5,1.3c0,0,0.5,0.5,0.9,0.5h-0.5v-0.6H966.7z
		 M925.8,536c0.9,3.1,1.8,7.2,2.2,9.9l-4.5,1.4c0-2.7-0.9-6.8-1.8-9.9L925.8,536z M937.9,518c-1.8-1.8-4.5-3.6-7.2-5.4
		c-1.4,1.8-2.7,3.6-4,5.4H937.9z M935.2,544.5c0.9-2.7,1.8-6.8,1.8-9.5l5,1.4c-0.9,3.1-1.8,6.8-2.7,9.5L935.2,544.5z M949.6,531.5
		h14.9v-2.7h-14.9V531.5z M949.6,538.2h14.9v-2.7h-14.9V538.2z M952.8,512.5c0.9,1.4,1.4,3.6,1.8,5h5c0.9-1.8,1.4-3.6,1.8-5H952.8z"
		/>
	<path fill="#5D5D5D" d="M1004.1,550.4c0,3.1-0.5,4.5-2.7,5.4c-1.8,0.9-4.5,0.9-8.1,0.9c-0.5-1.8-1.3-4-2.2-5.8c2.2,0,4.5,0,5,0
		c0.9,0,0.9-0.5,0.9-0.9v-5h-10c-0.5,4.5-1.8,8.5-4,12.1c-0.9-0.9-3.6-3.1-5-4c3.6-5,4-12.6,4-18V522h22L1004.1,550.4L1004.1,550.4z
		 M1030.2,512.1v6.3h-51.7v-6.3h12.1c-0.9-1.8-2.7-4.5-4.5-6.3l6.3-2.2c2.2,2.2,4.5,5.4,5.4,7.6l-3.1,0.9h15.8
		c1.8-2.7,3.6-5.9,4.5-8.5l7.2,2.2c-1.3,2.2-3.1,4.5-4.5,6.3H1030.2L1030.2,512.1z M997.3,540.5v-3.6h-9.5c0,1.4,0,2.2,0,3.6H997.3z
		 M987.9,527.4v4.1h9.5v-4.1H987.9z M1015.3,546.3h-6.3v-23.4h6.3V546.3z M1020.3,521.1h6.8v28.3c0,3.6-0.5,5-3.2,6.3
		c-2.2,0.9-5.4,1.3-9.5,1.3c-0.5-1.8-1.4-4.5-2.2-6.3c3.1,0,5.8,0,6.8,0c0.9,0,1.3-0.5,1.3-0.9L1020.3,521.1L1020.3,521.1z"/>
	<path fill="#5D5D5D" d="M1053.1,533.7c-1.8,0.4-3.6,0.9-5.4,1.8v14.9c0,3.1-0.4,4.9-2.2,5.8c-1.8,0.9-4,1.4-7.6,1.4
		c0-1.8-0.9-4.5-1.8-6.3c2.2,0,4.1,0,5,0s0.9-0.5,0.9-0.9v-13c-1.8,0.5-3.6,0.9-5.4,1.3l-1.3-6.8c1.8-0.4,4.5-0.9,6.8-1.8v-9.9h-5.9
		v-6.3h5.9v-10.8h6.3v10.8h4.5v6.3h-4.5v8.1l4.5-1.3L1053.1,533.7z M1072.5,545.9v5.4c-7.6,0.9-15.8,2.2-22,3.1l-0.9-5.8
		c2.7-0.5,5.9-0.5,9.5-0.9v-6.8h-6.8v-5.4h6.8v-6.8h5.8v6.8h6.8v5.4h-6.8v5.9L1072.5,545.9z M1059.4,515.7h-6.3v-5.4h6.3v-6.8h6.3
		v6.8h5.8v5.4h-5.8v5.8h6.8v5.4h-20.2v-5.4h7.2v-5.8H1059.4z M1086.4,536.4c-1.3-1.8-4-4.9-6.3-7.6v27.9h-6.8v-53.5h6.3v18
		c2.7,1.8,8.6,7.6,10.4,9L1086.4,536.4z"/>
	<path fill="#9E9E9E" d="M1149,516.1v4.1h15.8V545c0,2.2-0.4,3.6-2.2,4.5c-1.3,0.9-4,0.9-7.2,0.9c-0.5-1.4-0.9-3.1-1.8-4.5
		c1.8,0,4.1,0,5,0c0.5,0,0.9,0,0.9-0.9v-3.2c-0.9,0.5-1.8,1.4-2.2,1.8c-1.4-1.8-2.2-3.6-2.7-5.4c-0.9,2.2-1.8,4.1-3.2,5.4
		c-0.4-0.5-1.8-1.4-2.7-1.8v8.6h-5v-7.7c-0.5,0.5-1.3,0.9-1.8,1.4c-1.4-1.8-2.2-3.6-2.7-5.9c-0.9,2.2-1.8,4.5-3.2,5.9
		c-0.4-0.5-1.3-1.4-2.2-1.8v8.1h-4.9v-30.1h15.3v-4.1h-16.6v-5.4h39.2v5.4L1149,516.1L1149,516.1z M1141.3,527c0,4.5,0.4,9,2.7,13
		v-15.3h-9.9v16.2c2.2-2.7,3.6-6.3,4-10.8h-2.2v-3.6h5.4V527z M1149,524.7v16.2c2.2-2.7,3.6-6.3,4.1-10.8h-2.2v-3.6h5.8
		c0,5,0.5,9.9,3.2,13.5v-15.8H1149V524.7z"/>
	<path fill="#9E9E9E" d="M1178.7,538.6c-0.9,3.2-2.2,7.2-3.6,9.5c-0.9-0.5-3.2-1.4-4-1.8c1.3-2.2,2.7-5.9,3.1-8.6L1178.7,538.6z
		 M1185.4,536.9v14.4h-4.9v-14.4h-8.6v-4.5h22.1v4.5H1185.4z M1180,517.5h-7.7V513h8.1v-3.1h5v3.1h7.7v4.5h-7.7v2.2h6.8v4.5h-18.9
		v-4.5h6.8v-2.2H1180z M1191.7,526c2.2-4.5,3.6-10.3,4.5-16.6l5,0.9c-0.5,2.2-0.9,4.9-1.3,7.2h9h0.9l3.6,0.9
		c-0.9,4.5-2.2,9.5-3.2,12.6l-4.5-1.4c0.5-1.8,1.3-4.5,1.8-7.2h-8.5c-0.9,3.6-2.2,6.3-3.6,9c-0.9-0.5-2.2-1.8-3.2-2.7v1.8h-18V526
		H1191.7L1191.7,526z M1190.4,537.3c0.9,2.2,2.2,5,2.7,6.8l-4.1,1.8c-0.4-1.8-1.8-5-2.7-7.2L1190.4,537.3z M1204.3,527.4
		c0,1.4,0,2.7,0,4.1c1.3,6.8,4.5,12.1,9.4,14.8c-1.3,0.9-2.7,3.2-3.6,4.5c-3.6-2.2-5.8-5.8-7.7-10.3c-1.3,3.6-3.6,7.2-7.2,10.3
		c-0.9-1.3-2.7-2.7-4.1-3.6c7.2-6.3,8.1-14.9,8.1-20.2v-2.2h4.9v2.6H1204.3z"/>
	<path fill="#9E9E9E" d="M1231.3,532.8c-1.4,0.5-2.7,0.9-4.1,1.4v11.2c0,2.2-0.4,3.6-1.8,4.5s-3.2,0.9-6.3,0.9
		c0-1.3-0.9-3.6-1.3-4.9c1.8,0,3.2,0,3.6,0c0.5,0,0.9,0,0.9-0.9v-9.5l-4,1.4l-1.4-5c1.4-0.5,3.2-0.9,5.4-1.4v-7.6h-4.5v-5h4.5v-8.5
		h5v8.5h4v5h-4v6.3c1.3-0.4,2.2-0.4,3.6-0.9L1231.3,532.8z M1258.8,545.9h-11.2v5.4h-5v-5.4h-11.7v-4.1h11.2V540h-9.9v-4h5
		c-0.5-0.9-0.5-1.8-0.9-2.7l3.2-0.9h-8.1v-4.1h10.8v-1.8h-9v-3.6h9v-1.8h-9.5v-9.9h24.8v9.9h-10.3v1.8h9.5v3.6h-9.5v1.8h10.8v4.1
		h-7.2l3.2,0.9l-1.4,2.7h4.1v4h-9.9v1.8h11.2v4.1L1258.8,545.9L1258.8,545.9z M1239.9,514.4h-2.7v3.1h2.7V514.4z M1241.2,532.4
		c0.5,0.9,0.9,2.2,1.4,3.1h5.8c0.5-0.9,0.9-2.2,1.3-3.1H1241.2z M1243.9,517.5h2.7v-3.1h-2.7V517.5z M1250.7,517.5h2.7v-3.1h-2.7
		V517.5z"/>
	<path fill="#9E9E9E" d="M1304.7,527.4v5.9h-40.9v-5.9H1304.7z"/>
</g>
<g>
	<path fill="#9E9E9E" d="M366,533.2c0-5,3.6-7.6,7.2-7.6s7.2,3.1,7.2,8.1s-3.6,7.7-7.2,7.7C369.1,541.4,365.5,538.2,366,533.2z
		 M375.9,533.2c0-2.7-0.9-4.5-3.1-4.5c-1.8,0-3.2,1.8-3.2,4.5s0.9,4.5,3.2,4.5C375,538.2,375.9,536.4,375.9,533.2z"/>
	<path fill="#9E9E9E" d="M383.5,526h3.2l0.4,2.7l0,0c0.9-1.8,2.7-3.1,4.1-3.1c0.9,0,1.3,0,1.8,0.4l-0.9,3.2c-0.4,0-0.9-0.5-1.4-0.5
		c-1.3,0-2.7,0.9-3.6,2.7v9H383L383.5,526z"/>
</g>
<g id="XMLID_46_">
	<path id="XMLID_56_" fill="#8572B7" d="M367.8,489.1c-2.2,11.2-3.6,13.9-9.9,21.1s-30.6,4-30.6,4s-10.3-0.9-18.4-5.9
		c-8.1-4.9-8.6-28.4-8.6-28.4s-0.9-10.4,8.1-14s26.1-1.8,26.1-1.8c30.1,0.9,32.8,10.4,32.8,10.4S370,478.8,367.8,489.1z"/>
	<g>
		<g>
			<g>
				<defs>
					<path id="SVGID_1_" d="M366.4,473.9c0,0-2.7-9.9-32.9-10.4c0,0-17.6-1.8-26.5,1.8c-9,3.6-8.1,14.4-8.1,14.4s0.5,23.9,8.5,28.8
						c8.6,5,18.9,5.9,18.9,5.9s24.3,3.1,30.6-4.1c6.3-7.2,7.7-9.9,9.9-21.6C369.1,478.4,366.4,473.9,366.4,473.9z"/>
				</defs>
				<clipPath id="SVGID_2_">
					<use xlink:href="#SVGID_1_"  overflow="visible"/>
				</clipPath>
				<path clip-path="url(#SVGID_2_)" fill="#B9ACE5" d="M378.6,468.4c0,0-38.2,55.4-93.1-0.9l-0.9,46.8l44.1,17.1l53.1-28.8
					L378.6,468.4z"/>
			</g>
		</g>
	</g>
	<path id="XMLID_54_" fill="#8572B7" d="M392.5,474.3c0,0,2.7-9.9,33.3-9.9c0,0,17.6-1.4,26.6,2.2S460,481,460,481
		s-0.9,23.9-9.5,28.4c-8.5,5-18.9,5.9-18.9,5.9s-24.8,2.7-30.6-4.5c-6.3-7.6-7.2-9.9-9.4-21.6C389.4,478.8,392.5,474.3,392.5,474.3z
		"/>
	<g>
		<g>
			<g>
				<defs>
					<path id="SVGID_3_" d="M392.5,473.4c0,0,2.7-9.9,33.3-9.9c0,0,17.6-1.4,26.6,2.2s7.6,14.4,7.6,14.4s-0.9,23.9-9.5,28.4
						c-8.5,5-18.9,5.9-18.9,5.9s-24.8,2.7-30.6-4.5c-6.3-7.6-7.2-9.9-9.4-21.6C389.4,477.9,392.5,473.4,392.5,473.4z"/>
				</defs>
				<clipPath id="SVGID_4_">
					<use xlink:href="#SVGID_3_"  overflow="visible"/>
				</clipPath>
				<path clip-path="url(#SVGID_4_)" fill="#B9ACE5" d="M380.4,467.6c0,0,37.4,55.8,93.1,0.9v46.8L429,531.5l-52.6-29.7L380.4,467.6
					z"/>
			</g>
		</g>
	</g>
	<path id="XMLID_49_" fill="#333333" d="M465.9,463.1c-4.9-0.5-23.4-2.7-29.2-2.2c-5.9,0-26.6,0.4-38.7,4c0,0-4.5,0.9-7.7,4.1
		c-3.1,3.2-11.2,3.6-11.2,3.6s-7.6-0.4-10.8-3.6c-3.2-3.6-7.7-4.5-7.7-4.5c-12.1-4.1-32.8-4.5-38.7-5c-5.9-0.4-23.9,1.4-29.2,1.8
		s-5,1.4-5,1.4V473c0,0,0,1.8,2.2,1.8s5,2.7,5.9,6.3c0.5,3.6,2.7,20.7,6.8,26.1c0,0,2.7,5,7.2,5.9c5.8,1.8,17.1,4,26.1,3.6
		c9.5-0.4,16.2,0,20.7-2.2c4.9-2.7,6.8-6.3,6.8-6.3s7.6-15.8,8.1-20.7c0.5-5,4.1-6.8,7.7-6.8s7.2,1.8,7.6,6.8
		c0.4,4.9,7.6,21.1,7.6,21.1s1.4,3.6,6.3,6.3c4.5,2.2,11.7,2.2,20.7,2.7c9,0.4,20.2-1.8,26.1-3.2c6.3-0.9,7.2-5.9,7.2-5.9
		c4.1-5.9,6.3-22.5,7.2-26.1c0.5-3.6,3.6-6.3,5.9-6.3s2.2-1.4,2.2-1.4l0.4-10.4C470.8,464.4,471.3,463.5,465.9,463.1z M367.3,488.7
		c-2.2,11.2-3.6,14-9.4,21.1c-6.3,7.2-30.1,4-30.1,4s-10.4-0.9-18.5-5.8s-8.5-27.9-8.5-27.9s-0.9-10.4,7.6-14
		c8.6-3.6,26.1-1.8,26.1-1.8c30.1,0.9,32.4,10.4,32.4,10.4S369.1,478.8,367.3,488.7z M459.1,481.1c0,0-0.9,23.4-9,27.9
		s-18.4,5.4-18.4,5.4s-23.9,2.7-30.2-4.5c-5.8-7.2-7.2-9.9-9.4-21.1c-1.8-9.9,0.9-14.4,0.9-14.4s2.7-9.5,32.4-9.9
		c0,0,17.5-1.4,26.1,2.2C460.5,470.7,459.1,481.1,459.1,481.1z"/>
	<line id="XMLID_48_" fill="none" stroke="#747475" stroke-miterlimit="10" x1="370.5" y1="473.4" x2="373.2" y2="480.6"/>
	<line id="XMLID_47_" fill="none" stroke="#747475" stroke-miterlimit="10" x1="389.4" y1="473.4" x2="386.2" y2="480.6"/>
</g>
<g>
	<g>
		<path fill="#B6CCCA" d="M369.1,316.4c0,27.9-27.9,57.1-55.8,57.1s-45.4-29.2-45.4-57.1s20.2-55.8,48.1-55.8
			C343.9,260.6,369.1,288.4,369.1,316.4z"/>
		<path fill="#E4F9F8" d="M362.8,316.8c0,27.9-21.6,56.2-49.5,56.2s-51.8-28.4-51.8-56.2c0-27.9,20.7-55.8,48.6-55.8
			S362.8,288.9,362.8,316.8z"/>
		<g opacity="0.47" enable-background="new    ">
			<g>
				<g>
					<defs>
						<path id="SVGID_5_" d="M362.8,316.8c0,27.9-21.6,56.2-49.5,56.2s-51.8-28.4-51.8-56.2c0-27.9,20.7-55.8,48.6-55.8
							S362.8,288.9,362.8,316.8z"/>
					</defs>
					<clipPath id="SVGID_6_">
						<use xlink:href="#SVGID_5_"  overflow="visible"/>
					</clipPath>
					<path clip-path="url(#SVGID_6_)" fill="none" stroke="#B0A3EF" stroke-width="10" stroke-miterlimit="10" d="M307.9,252.9
						c0,0-36.4,40.5-34.2,153"/>
				</g>
			</g>
			<g>
				<g>
					<defs>
						<path id="SVGID_7_" d="M362.8,316.8c0,27.9-21.6,56.2-49.5,56.2s-51.8-28.4-51.8-56.2c0-27.9,20.7-55.8,48.6-55.8
							S362.8,288.9,362.8,316.8z"/>
					</defs>
					<clipPath id="SVGID_8_">
						<use xlink:href="#SVGID_7_"  overflow="visible"/>
					</clipPath>
					<path clip-path="url(#SVGID_8_)" fill="none" stroke="#B0A3EF" stroke-width="10" stroke-miterlimit="10" d="M305.7,233.6
						c0,0-36.4,40.5-34.2,153"/>
				</g>
			</g>
		</g>
	</g>
	<g>
		<path fill="#B6CCCA" d="M492.9,316.4c0,27.9-27.9,57.1-55.8,57.1s-45.4-29.2-45.4-57.1s20.2-55.8,48.1-55.8
			S492.9,288.4,492.9,316.4z"/>
		<path fill="#E4F9F8" d="M486.6,316.8c0,27.9-21.6,56.2-49.5,56.2s-51.8-28.4-51.8-56.2c0-27.9,20.7-55.8,48.6-55.8
			C461.8,261,486.6,288.9,486.6,316.8z"/>
		<g opacity="0.47" enable-background="new    ">
			<g>
				<g>
					<defs>
						<path id="SVGID_9_" d="M486.6,316.8c0,27.9-21.6,56.2-49.5,56.2s-51.8-28.4-51.8-56.2c0-27.9,20.7-55.8,48.6-55.8
							C461.8,261,486.6,288.9,486.6,316.8z"/>
					</defs>
					<clipPath id="SVGID_10_">
						<use xlink:href="#SVGID_9_"  overflow="visible"/>
					</clipPath>
					<path clip-path="url(#SVGID_10_)" fill="none" stroke="#B0A3EF" stroke-width="10" stroke-miterlimit="10" d="M431.7,252.9
						c0,0-36.5,40.5-34.2,153"/>
				</g>
			</g>
			<g>
				<g>
					<defs>
						<path id="SVGID_11_" d="M486.6,316.8c0,27.9-21.6,56.2-49.5,56.2s-51.8-28.4-51.8-56.2c0-27.9,20.7-55.8,48.6-55.8
							C461.8,261,486.6,288.9,486.6,316.8z"/>
					</defs>
					<clipPath id="SVGID_12_">
						<use xlink:href="#SVGID_11_"  overflow="visible"/>
					</clipPath>
					<path clip-path="url(#SVGID_12_)" fill="none" stroke="#B0A3EF" stroke-width="10" stroke-miterlimit="10" d="M429.4,233.6
						c0,0-36.5,40.5-34.2,153"/>
				</g>
			</g>
		</g>
	</g>
</g>
<g>
	<path id="XMLID_45_" fill="#352616" d="M366.4,577.8c-2.2,11.2-3.6,14-9.9,21.1c-6.3,7.2-30.1,4.1-30.1,4.1s-10.4-0.9-18.5-5.9
		s-8.5-28.3-8.5-28.3s-0.9-10.4,8.1-14s26.1-1.8,26.1-1.8c30.2,0.9,32.9,10.3,32.9,10.3S368.7,567.9,366.4,577.8z"/>
	<path id="XMLID_44_" fill="#352616" d="M392.1,564.3c0,0,2.7-9.9,33.3-9.9c0,0,17.6-1.4,26.6,2.2s7.6,14.4,7.6,14.4
		s-0.9,23.8-9.4,28.3c-8.6,5-18.9,5.9-18.9,5.9s-24.8,2.7-30.6-4.5c-6.3-7.6-7.2-9.9-9.4-21.6C389.4,568.8,392.1,564.3,392.1,564.3z
		"/>
	<g>
		<g>
			<g>
				<defs>
					<path id="SVGID_13_" d="M366,563.9c0,0-2.7-9.9-32.9-10.4c0,0-17.6-1.8-26.5,1.8c-9,3.6-8.1,14.4-8.1,14.4s0.5,23.8,8.5,28.8
						c8.1,5,18.9,5.9,18.9,5.9s24.3,3.1,30.6-4c6.3-7.2,7.7-9.9,9.9-21.6C368.7,568.4,366,563.9,366,563.9z"/>
				</defs>
				<clipPath id="SVGID_14_">
					<use xlink:href="#SVGID_13_"  overflow="visible"/>
				</clipPath>
				<path clip-path="url(#SVGID_14_)" fill="#5D5F60" d="M378.1,558.5c0,0-38.2,55.3-93.1-0.9l-0.9,46.8l44.1,17.1l53.1-28.8
					L378.1,558.5z"/>
			</g>
		</g>
	</g>
	<g>
		<g>
			<g>
				<defs>
					<path id="SVGID_15_" d="M391.6,563.4c0,0,2.7-9.9,33.3-9.9c0,0,17.5-1.4,26.5,2.2s7.6,14.4,7.6,14.4s-0.9,23.9-9.4,28.4
						c-8.6,5-18.9,5.9-18.9,5.9s-24.8,2.7-30.6-4.5c-6.3-7.7-7.2-9.9-9.5-21.6C388.9,567.9,391.6,563.4,391.6,563.4z"/>
				</defs>
				<clipPath id="SVGID_16_">
					<use xlink:href="#SVGID_15_"  overflow="visible"/>
				</clipPath>
				<path clip-path="url(#SVGID_16_)" fill="#5D5F60" d="M379.5,557.5c0,0,37.3,55.8,93.1,0.9v46.8L428,621.4l-52.2-29.2
					L379.5,557.5z"/>
			</g>
		</g>
	</g>
	<g id="XMLID_12_">
		<path id="XMLID_16_" fill="#333333" d="M465,553c-4.9-0.4-23.4-2.7-29.2-2.2c-5.8,0-26.5,0.5-38.7,4.1c0,0-4.5,0.9-7.6,4
			c-3.6,3.1-11.2,3.6-11.2,3.6s-7.7-0.5-10.8-3.6s-7.6-4.5-7.6-4.5c-12.2-4-32.9-4.5-38.7-5c-5.8-0.4-23.8,1.4-29.2,1.8
			c-4.9,0.4-4.9,1.3-4.9,1.3V563c0,0,0,1.8,2.2,1.8s4.9,2.7,5.8,6.3c0.5,3.6,2.7,20.7,6.8,26.1c0,0,2.7,5,7.2,5.9
			c5.9,1.8,17.1,4,26.1,3.6c9.4-0.5,16.2,0,20.7-2.2c4.9-2.7,6.8-6.3,6.8-6.3s7.6-15.8,8.1-20.7c0.4-5,4-6.8,7.6-6.8
			s7.2,1.8,7.6,6.8s7.7,21.1,7.7,21.1s1.3,3.6,6.3,6.3c4.5,2.2,11.7,2.2,20.7,2.7c9.4,0.9,20.2-1.8,26.1-3.1
			c6.3-0.9,7.2-5.9,7.2-5.9c4-5.9,6.3-22.5,7.2-26.1c0.4-3.6,3.6-6.3,5.9-6.3s2.2-1.3,2.2-1.3l0.4-10.4
			C470.4,554.4,470.4,553.5,465,553z M366.4,578.7c-2.2,11.2-3.6,14-9.5,21.2c-6.3,7.2-30.1,4-30.1,4s-10.4-0.9-18.5-5.8
			s-8.5-27.9-8.5-27.9s-0.9-10.3,7.6-13.9c8.6-3.6,26.1-1.8,26.1-1.8c30.1,0.9,32.4,10.4,32.4,10.4S368.2,568.4,366.4,578.7z
			 M458.2,571c0,0-0.9,23.4-9,27.9s-18.4,5.4-18.4,5.4s-23.9,2.7-30.1-4.5c-6.3-7.2-7.2-9.9-9.5-21.2c-1.8-9.9,0.9-14.4,0.9-14.4
			s2.7-9.5,32.4-9.9c0,0,17.5-1.3,26.1,2.2C459.6,560.7,458.2,571,458.2,571z"/>
		<line id="XMLID_15_" fill="none" stroke="#747475" stroke-miterlimit="10" x1="369.6" y1="563.4" x2="372.3" y2="570.1"/>
		<line id="XMLID_13_" fill="none" stroke="#747475" stroke-miterlimit="10" x1="388.5" y1="563.4" x2="385.3" y2="570.6"/>
	</g>
</g>
<g>
	<path fill="#5D5D5D" d="M301.2,842.4c1.4,0,1.8-0.9,1.8-5.4c0.9,0.9,3.1,1.8,4.9,1.8c-0.4,6.3-1.8,8.1-6.3,8.1h-5.4
		c-5.4,0-6.3-1.8-6.3-6.3v-8.1h-5.8c-0.5,8.5-2.7,13.5-14.4,15.8c-0.4-1.4-1.8-3.6-2.7-4.5c9.9-1.8,11.2-4.5,11.7-11.2h-11.2v-5H307
		v5h-12.1v8.5c0,1.3,0.5,1.8,1.8,1.8h4.5L301.2,842.4L301.2,842.4z M273.3,822.1h-5.4v-11.2h16.2c-0.5-1.3-0.9-2.2-1.4-3.6l5.4-1.8
		c0.9,1.4,1.8,3.6,2.2,5h15.3v11.2h-5.4v-5.8h-27L273.3,822.1L273.3,822.1z M275.1,824v-5H298v5H275.1z"/>
	<path fill="#5D5D5D" d="M351.1,815c-0.9,2.7-2.2,5.4-3.6,7.2c1.8,1.4,4.5,2.7,7.7,3.6c-0.9,0.9-2.2,2.7-2.7,4
		c-3.1-0.9-5.4-2.7-7.6-4.5c-2.2,1.8-4.9,3.1-8.1,4c-0.4-0.9-1.8-2.7-3.1-3.6c3.1-0.9,5.4-1.8,7.6-3.6c-0.9-1.3-1.8-2.7-2.7-4
		c-0.5,0.9-1.4,1.3-1.8,2.2c-0.4-0.9-1.8-2.2-2.7-3.2v4.5H330c1.4,0.9,3.2,1.8,4.1,2.7l-2.2,3.2c-0.9-0.9-3.1-2.2-5-3.6v4.5h-4.5
		v-3.6c-1.8,1.8-4,3.6-5.8,4.5c-0.5-0.9-1.8-2.7-3.2-3.2c2.7-0.9,5.4-2.7,7.2-4.5h-5.4v-8.5h6.7v-1.3h-8.1v-3.6h8.1V806h4.5v2.2h7.6
		v3.6h-7.6v1.3h7.2v2.7c2.7-2.2,4.5-5.9,5.4-9.9l4.9,0.9c-0.4,1.3-0.9,2.2-1.4,3.6h11.2v4H351L351.1,815L351.1,815z M336.3,842.4h18
		v4.5h-40.5v-4.5h6.8v-6.8h5v6.8h5.4v-8.5h-15v-4.5h35.1v4.5h-15.3v2.2h11.7v4h-11.7v2.2L336.3,842.4L336.3,842.4z M319.2,819h2.7
		v-2.2h-3.1v2.2H319.2z M326.8,816.8v2.2h2.7v-2.2H326.8z M327.7,822.1h-1.4v1.4L327.7,822.1z M341.2,815c0.9,1.4,1.8,2.7,2.7,4
		c0.9-1.4,1.4-2.7,2.2-4H341.2z"/>
	<path fill="#5D5D5D" d="M398.8,819.5c-1.3,6.8-2.7,12.2-5.4,16.7c2.2,3.1,5.4,5.4,8.6,7.2c-1.4,0.9-2.7,3.1-3.6,4.5
		c-3.1-1.8-5.9-4-8.1-7.2c-2.2,3.1-5.4,5.4-9,7.2c-0.4-0.9-2.2-3.2-3.6-4.5c4-1.8,6.8-4.5,9.4-7.7c-1.8-2.7-3.1-6.3-4.1-9.9
		c-0.9,1.4-1.3,2.2-2.2,3.1c-0.4-0.9-2.2-3.1-3.1-4v22.5h-5.4v-11.7c-7.2,2.7-8.6,3.2-9.5,4c-0.4-1.3-1.3-3.6-2.2-5
		c0.9-0.5,1.8-1.4,1.8-3.1V810h5.4v21.6l5-1.4V806h5.4v17.5c3.6-4.5,5.4-11.2,6.8-18.5l5.4,0.9c-0.4,2.7-0.9,5-1.3,7.2h13.5v5H399
		v1.4H398.8z M386.2,819.5c0,0.5-0.5,0.9-0.5,1.4c0.9,4,2.2,7.6,4.1,10.8c1.8-3.6,2.7-7.2,3.6-11.7h-7.2V819.5z"/>
	<path fill="#5D5D5D" d="M446.5,824c-1.3,5.9-3.1,10.8-5.4,14.9c0.9,3.1,1.8,4.5,2.7,4.5c0.9,0,1.4-1.4,1.4-5.4
		c0.9,0.9,2.2,1.8,3.6,2.2c-0.5,6.8-1.8,8.1-5.4,8.1c-2.2,0-4-1.8-5.4-4.5c-1.4,1.8-3.1,3.6-4.9,5c-0.9-0.9-2.7-2.7-4.1-3.1
		c0.9-0.5,1.4-0.9,2.2-1.8h-7.6l0,0H420v-20.3h13v3.1h-3.2v2.2h3.6v9h-3.6v2.2h3.6v1.4c0.9-0.9,1.8-2.2,2.7-3.1
		c-0.9-4.5-1.8-9.9-2.2-16.2H419v9c0,5.4-0.5,13-2.7,17.5c-0.9-0.5-2.7-1.8-4-2.2c1.8-3.1,2.2-6.8,2.2-10.3h-2.2v1.3
		c0,3.2-0.5,8.1-3.1,11.2c-0.5-0.5-2.2-1.8-3.2-2.2c2.2-2.7,2.7-6.8,2.7-9.5v-0.9h-2.2v-4.5h8.1v-0.9v-1.8h-6.3v-11.2h4v6.8h2.2
		v-7.2h19.4v-2.7l0,0v-1.4H428v-4.5h5.9V806h5.4v2.7h8.1v4.5h-3.6c1.4,0.9,2.7,1.8,3.2,2.7l-1.4,0.9h2.3v4.5h-9
		c0,3.6,0.4,6.8,0.9,9.9c0.9-2.7,1.8-5.4,2.2-8.1L446.5,824z M415.9,813.1h-8.1v-4.5h8.1v-2.7h5.4v2.7h5.4v4.5h-5.4v2.2h-5.4V813.1z
		 M424.5,826.6v2.2h2.2v-2.2H424.5z M424.5,832v2.7h5.4V832H424.5z M424.5,840.1h2.2v-2.2h-2.2V840.1z M438.4,817.2h4
		c-0.9-0.5-1.3-1.3-2.2-1.8l2.7-1.8h-3.6v1.8h-0.9V817.2z"/>
	<path fill="#5D5D5D" d="M476.7,814v4h15.8v24.8c0,2.2-0.5,3.6-2.2,4.5c-1.4,0.9-4.1,0.9-7.2,0.9c-0.4-1.4-0.9-3.1-1.8-4.5
		c1.8,0,4,0,4.9,0c0.4,0,0.9,0,0.9-0.9v-3.2c-0.9,0.5-1.8,1.4-2.2,1.8c-1.4-1.8-2.2-3.6-2.7-5.4c-0.9,2.2-1.8,4-3.1,5.4
		c-0.5-0.5-1.8-1.4-2.7-1.8v8.5h-4.9v-7.6c-0.5,0.5-1.4,0.9-1.8,1.3c-1.4-1.8-2.2-3.6-2.7-5.8c-0.9,2.2-1.8,4.5-3.1,5.8
		c-0.4-0.5-1.4-1.3-2.2-1.8v8.1h-4.9V818h15.3v-4h-16.6v-5.4h39.1v5.4H476.7L476.7,814z M469,824.9c0,4.5,0.4,9,2.7,13v-15.3h-10.3
		v16.2c2.2-2.7,3.6-6.3,4.1-10.8h-2.2v-3.6h5.8v0.5H469z M476.7,823v16.2c2.2-2.7,3.6-6.3,4-10.8h-2.2v-3.6h5.9
		c0,5,0.5,9.9,3.1,13.5v-15.8h-10.8V823z"/>
	<path fill="#5D5D5D" d="M507.7,835.6c-0.9,3.2-2.2,7.2-3.6,9.5c-0.9-0.5-3.1-1.4-4.1-1.8c1.4-2.2,2.7-5.9,3.1-8.5L507.7,835.6z
		 M514,833.9v14.4h-4.9v-14.4h-8.5v-4.5h22.1v4.5H514z M509.1,814H501v-4.5h8.1v-3.2h4.9v3.2h7.7v4.5H514v2.2h6.8v4.5h-18.9v-4.5
		h6.8V814H509.1z M520.8,823c2.2-4.5,3.6-10.4,4.5-16.7l5,0.9c-0.5,2.2-0.9,5-1.4,7.2h9h0.9l3.6,0.9c-0.9,4.5-2.2,9.5-3.1,12.6
		l-4.5-1.4c0.5-1.8,1.4-4.5,1.8-7.2H528c-0.9,3.6-2.2,6.3-3.6,9c-0.9-0.5-2.2-1.8-3.1-2.7v1.8h-18V823H520.8L520.8,823z
		 M519.4,834.3c0.9,2.2,2.2,5,2.7,6.8l-4,1.8c-0.5-1.8-1.8-5-2.7-7.2L519.4,834.3z M533.4,824.4c0,1.4,0,2.7,0,4
		c1.4,6.8,4.5,12.2,9.5,14.9c-1.4,0.9-2.7,3.1-3.6,4.5c-3.6-2.2-5.9-5.9-7.6-10.4c-1.4,3.6-3.6,7.2-7.2,10.4c-0.9-1.4-2.7-2.7-4-3.6
		c7.2-6.3,8.1-14.8,8.1-20.2v-2.2h5v2.6H533.4z"/>
	<path fill="#5D5D5D" d="M568,842.9c0,2.2-0.4,3.6-1.8,4.5c-1.4,0.9-3.6,0.9-6.3,0.9c-0.5-1.4-0.9-3.1-1.8-4.5c1.8,0,3.6,0,4.1,0
		c0.4,0,0.9,0,0.9-0.9v-4h-7.6c-0.5,3.6-1.4,6.8-3.2,9.5c-0.9-0.9-2.7-2.2-4-3.1c2.7-4,3.1-9.5,3.1-14V821h17.1v22H568V842.9z
		 M588.3,813.1v5h-40.5v-5h9.5c-0.9-1.3-2.2-3.6-3.1-5l4.9-1.8c1.8,1.8,3.6,4,4.1,5.9l-2.2,0.9h12.6c1.4-2.2,2.7-4.5,3.6-6.8
		l5.9,1.8c-0.9,1.8-2.2,3.6-3.6,5L588.3,813.1L588.3,813.1z M563.1,834.8V832h-7.2c0,0.9,0,1.8,0,2.7L563.1,834.8L563.1,834.8z
		 M555.4,824.9v3.1h7.2v-3.1H555.4z M576.6,839.2h-5v-18h5V839.2z M580.6,819.9h5.4v22c0,2.7-0.4,4-2.2,5c-1.8,0.9-4,0.9-7.2,0.9
		c-0.5-1.4-0.9-3.6-1.8-5c2.2,0,4.5,0,5.4,0s0.9,0,0.9-0.9v-22H580.6z"/>
	<path fill="#5D5D5D" d="M608.1,829.8c-1.4,0.5-2.7,0.9-4.1,1.3v11.7c0,2.2-0.4,3.6-1.8,4.5c-1.4,0.9-3.1,0.9-5.9,0.9
		c0-1.4-0.9-3.6-1.3-5c1.8,0,3.1,0,3.6,0s0.9,0,0.9-0.9v-9.9c-1.4,0.5-2.7,0.9-4,1.4l-1.4-5c1.4-0.5,3.1-0.9,5.4-1.3v-7.7H595v-5
		h4.5v-8.5h5v8.5h3.6v5h-3.6v6.3l3.6-0.9V829.8z M622.9,839.2v4c-5.8,0.9-12.1,1.8-17.1,2.2l-0.9-4.5c2.2,0,4.5-0.5,7.2-0.9v-5h-5.4
		v-4h5.4v-5.4h4.5v5.4h5v4h-5v4.5L622.9,839.2z M612.6,815.9h-5v-4h5v-5.4h4.9v5.4h4.5v4h-4.5v4.5h5.4v4h-15.8v-4h5.8v-4.5H612.6z
		 M633.7,832c-1.4-1.4-3.2-4-5-5.9v21.6h-5v-41.9h5v14c1.8,1.4,6.8,5.9,8.1,6.8L633.7,832z"/>
	<path fill="#5D5D5D" d="M659.8,836.1c-3.6,4.5-8.6,9-13.5,11.7c-0.9-0.9-3.2-2.7-4.5-3.6c4.5-2.7,9.9-6.8,12.1-10.3L659.8,836.1z
		 M677.8,809.5v21.1h-31.5v-21.1H677.8z M651.7,825.8H672v-11.2h-20.2L651.7,825.8L651.7,825.8z M669.7,833.9
		c4,3.1,9.4,7.6,12.1,10.8l-5,3.2c-2.2-3.2-7.6-8.1-11.7-11.2L669.7,833.9z"/>
	<path fill="#5D5D5D" d="M711.1,832c-0.5,0.9-0.5,1.3-0.9,2.2H726v9c0,2.2-0.5,3.1-1.8,4s-3.1,0.9-5.4,0.9c0-1.4-0.9-3.1-1.4-4.5
		c1.4,0,2.7,0,3.2,0c0.4,0,0.4,0,0.4-0.5v-5h-4.9v9.5h-5v-9.5h-4.5v9.5h-5v-9.5h-4.5v9.9h-4.9v-14h13c0-0.9,0.5-1.3,0.5-2.2H689v-4
		h6.3l-1.4-3.6c2.7-0.5,6.8-0.9,10.8-1.3v3.1c-3.1,0.9-6.3,1.4-9,2.2h32.9v4H711V832H711.1z M694.5,824h-5v-9.9h16.6v-2.2h-14.8
		v-3.6h35.1v3.6h-14.8v2.2h17.1v9.9h-5.4v-5.8h-2.7l1.8,2.2c-2.2,0.9-5.9,1.8-8.1,2.2l-1.8-2.7c1.8-0.5,4.5-1.3,6.3-1.8h-7.6v8.5
		h-5.4v-8.5h-9c2.2,0.5,5.4,1.3,7.2,1.8l-1.4,2.7c-1.8-0.9-5.4-1.8-7.6-2.2l1.3-2.7h-2.7v6.3H694.5z M712.9,822.1
		c3.2,0.5,7.7,1.4,10.4,2.2l-0.9,3.6c-2.2-0.9-6.8-1.8-10.4-2.7L712.9,822.1z"/>
	<path fill="#5D5D5D" d="M756.1,814c0,0,0,1.8,0,2.2c-0.5,18.9-1.4,25.6-2.7,27.9c-0.9,1.4-1.8,2.2-3.6,2.2c-1.3,0.5-3.1,0.5-5,0
		c0-1.8-0.4-4-1.3-5.4c1.3,0,3.2,0,3.6,0c0.5,0,0.9,0,1.4-0.9c0.9-1.3,1.8-6.8,2.2-21.6h-4.5c-0.5,11.2-2.2,21.6-7.7,28.8
		c-0.9-1.4-2.7-3.2-4-3.6c5-5.9,5.8-14.9,6.3-24.8h-4.9v-5.4h5.4c0-2.7,0-5.4,0-7.7h5.4c0,2.7,0,5.4,0,7.7L756.1,814z M775,811.4
		v35.5h-5.4v-2.7h-5.9v3.2h-5.4v-35.5H775V811.4z M769.2,838.8v-22.5h-5.9v22.5H769.2z"/>
	<path fill="#5D5D5D" d="M794.8,807.8c-0.9,2.7-2.2,5.9-3.6,8.5v31.5h-5v-22.5c-0.9,1.3-1.8,2.7-2.7,3.6c-0.5-1.3-1.8-4.5-2.7-5.8
		c3.6-4,6.8-10.8,9-17.1L794.8,807.8z M814.6,841.5c3.6,1.4,7.2,2.7,9.5,3.6l-4.5,3.1c-2.2-1.4-5.8-3.1-9.5-4.5l2.7-2.2h-8.5
		l3.2,2.2c-2.7,2.2-7.2,3.6-11.2,4.5c-0.5-0.9-1.8-2.7-2.7-3.6c3.1-0.5,6.8-1.8,9.5-3.1h-6.3v-16.6H822v16.6H814.6z M814.2,812.2
		v1.8h7.6v9h-26.5v-9h7.2v-1.8h-8.1v-4h28.4v4H814.2z M799.8,820.4h2.7v-3.2h-2.7V820.4z M800.7,829.4H816V828h-15.3V829.4z
		 M800.7,833.9H816v-1.4h-15.3V833.9z M800.7,838.4H816v-1.8h-15.3V838.4z M809.7,812.2H807v1.8h2.7V812.2z M807,820.4h2.7v-3.2H807
		V820.4z M814.2,817.2v3.2h2.7v-3.2H814.2z"/>
	<path fill="#5D5D5D" d="M845.2,837c1.3,1.4,3.1,2.2,5.4,2.2c3.6,0,6.8-2.7,7.2-11.2c-1.8,2.2-4.5,3.6-6.8,3.6
		c-5.4,0-9.5-3.6-9.5-10.4s5-11.2,10.4-11.2c6.3,0,11.7,5,11.7,16.2c0,12.6-6.3,18-12.6,18c-4,0-7.2-1.8-9-3.6L845.2,837z
		 M857.4,823.5c-0.5-5.9-2.7-8.1-5.9-8.1c-2.2,0-4.5,1.8-4.5,5.9c0,4,1.8,5.9,4.5,5.9C853.8,827.1,856,826.2,857.4,823.5z"/>
	<path fill="#5D5D5D" d="M870,827.5c0-11.2,4.5-17.1,11.2-17.1s11.2,5.4,11.2,17.1s-4.5,17.1-11.2,17.1S870,838.8,870,827.5z
		 M886.2,827.5c0-9.5-2.2-11.7-5-11.7c-2.7,0-5,2.7-5,11.7c0,9.5,2.2,12.1,5,12.1C883.9,839.7,886.2,837,886.2,827.5z"/>
	<path fill="#5D5D5D" d="M898.3,827.5c0-11.2,4.5-17.1,11.2-17.1s11.2,5.4,11.2,17.1s-4.5,17.1-11.2,17.1S898.3,838.8,898.3,827.5z
		 M914.5,827.5c0-9.5-2.2-11.7-5-11.7s-5,2.7-5,11.7c0,9.5,2.2,12.1,5,12.1C912.7,839.7,914.5,837,914.5,827.5z"/>
	<path fill="#5D5D5D" d="M929.4,811.4h6.8l9.5,17.5l3.2,7.2l0,0c-0.5-3.6-0.9-7.7-0.9-11.7v-13h6.3v32.8h-6.8l-9.5-17.5l-3.2-7.2
		l0,0c0.5,3.6,0.9,7.7,0.9,11.7v13h-6.3V811.4z"/>
	<path fill="#5D5D5D" d="M971.2,816.8h-9.5v-5.4H987v5.4h-9.5v27.5h-6.8v-27.5H971.2z"/>
	<path fill="#5D5D5D" d="M995.1,811.4h9c9.9,0,16.2,5.4,16.2,16.2c0,11.2-6.3,16.6-16.2,16.6h-9.5v-32.8H995.1z M1003.6,838.8
		c6.3,0,9.9-3.2,9.9-11.2c0-8.1-4-11.2-9.9-11.2h-2.2v22.5L1003.6,838.8L1003.6,838.8z"/>
</g>
<g>
	
		<rect x="226.9" y="721.8" transform="matrix(0.866 0.5 -0.5 0.866 405.7187 -15.5371)" opacity="0.73" fill="#0098FF" enable-background="new    " width="9.9" height="54.9"/>
	
		<rect x="218.7" y="733" transform="matrix(0.866 0.5 -0.5 0.866 406.578 -10.9264)" opacity="0.73" fill="#9DEDE6" enable-background="new    " width="9.9" height="40.5"/>
</g>
<g>
	
		<rect x="226.9" y="798.3" transform="matrix(0.866 0.5 -0.5 0.866 443.9681 -5.288)" opacity="0.73" fill="#0098FF" enable-background="new    " width="9.9" height="54.9"/>
	
		<rect x="218.7" y="809.5" transform="matrix(0.866 0.5 -0.5 0.866 444.8275 -0.6774)" opacity="0.73" fill="#9DEDE6" enable-background="new    " width="9.9" height="40.5"/>
</g>
<g>
	<path fill="#5D5D5D" d="M302,736.2c-2.5,4-6,7.3-10.1,10.1c4.6,2,9.9,3.6,15.4,4.4c-1.1,1.2-2.6,3.4-3.4,4.8c-1.4-0.3-2.7-0.6-4-1
		v15.8h-5.6V769h-15.8v1.6h-5.3v-16.1c-1.7,0.5-3.3,0.9-5,1.3c-0.5-1.4-1.6-3.5-2.5-4.7c5.4-1,11-2.7,16-5c-1.9-1.4-3.6-2.9-5.2-4.6
		c-2,1.8-4,3.3-6.1,4.6c-0.8-1-2.7-3-3.8-3.9c5.5-2.9,10.8-7.7,13.8-12.9l4.9,1.7c-0.6,1-1.2,2-1.9,2.9h13.8l0.9-0.3L302,736.2z
		 M298.8,754.3c-4.3-1.3-8.4-2.9-12-5c-3.9,2.1-8.1,3.7-12.5,5H298.8z M294.4,764.4V759h-15.8v5.4H294.4z M280.1,738.5
		c1.8,1.9,4.1,3.6,6.7,5.1c2.6-1.6,4.8-3.2,6.7-5.1H280.1z"/>
	<path fill="#5D5D5D" d="M318.8,758.3c-0.8,3.2-2.3,6.9-3.5,9.2c-1-0.5-2.9-1.3-4-1.7c1.3-2.3,2.4-5.6,3.2-8.5L318.8,758.3z
		 M325.2,756.5v14h-4.9v-14h-8.4v-4.3h21.4v4.3H325.2z M320.2,737.6h-7.8v-4.2h7.8v-3.2h4.8v3.2h7.7v4.2h-7.7v2.2h6.7v4.2h-18.2
		v-4.2h6.7V737.6z M331.6,746.3c2.3-4.2,3.6-10.2,4.3-16.3l5,0.7c-0.3,2.4-0.7,4.8-1.2,7.1h8.6l0.7-0.2l3.6,1
		c-0.9,4.3-2.1,9.2-3.2,12.4l-4.2-1.3c0.6-1.9,1.2-4.6,1.7-7.2h-8.4c-1,3.3-2.2,6.2-3.7,8.6c-0.7-0.7-2.1-1.8-3.3-2.6v1.8h-17.7V746
		h17.7L331.6,746.3z M330.2,757.2c1.1,2.1,2.3,4.9,2.8,6.7l-4,1.7c-0.5-1.8-1.6-4.7-2.6-6.9L330.2,757.2z M343.9,747.4
		c0,1.2,0,2.6-0.1,4c1.4,6.5,4.3,12.1,9.2,14.6c-1.1,1-2.7,3-3.4,4.4c-3.5-2.2-5.9-5.7-7.7-10.1c-1.3,3.6-3.4,7.1-6.8,10.3
		c-0.9-1.1-2.7-2.8-3.9-3.5c7.2-6.2,7.8-14.5,7.8-19.9v-2h4.9V747.4z"/>
	<path fill="#5D5D5D" d="M385.6,742.3c0.9,12.7,3.6,22.8,6.7,22.8c0.9,0,1.4-2.3,1.7-7.8c1.2,1.2,3.1,2.5,4.5,3
		c-0.8,8.2-2.5,10.2-6.7,10.2c-7.4,0-10.7-12.9-11.8-28.2h-21.6v-5h21.4c-0.1-2.4-0.1-4.8-0.1-7.2h5.6c0,2.4,0,4.8,0,7.2h6.9
		c-1.2-1.5-3.4-3.3-5.1-4.6l3.4-2.8c2,1.3,4.5,3.4,5.7,4.8l-3,2.6h4.1v5H385.6z M371.9,761.9c2.7-0.5,5.4-1,8.1-1.5l0.4,4.6
		c-7.1,1.6-14.8,3.2-20.4,4.4l-1.4-5.2c2.2-0.3,5.1-0.8,8.2-1.3v-10.5h-6.6v-5h18.7v5h-7V761.9z"/>
	<path fill="#5D5D5D" d="M440.9,751.8c0,0-0.1,1.4-0.2,2.1c-0.5,8.8-1.2,12.7-2.6,14.2c-1.1,1.3-2.4,1.7-4.1,1.8
		c-1.5,0.2-4,0.2-6.7,0.1c-0.1-1.6-0.8-3.7-1.7-5.2c2.4,0.3,4.9,0.3,6.1,0.3c0.8,0,1.3-0.1,1.8-0.5c0.7-0.7,1.3-3.1,1.7-8.3h-11.2
		c-1.9,6.4-6.3,11.2-17.5,14.1c-0.5-1.4-1.8-3.5-2.9-4.7c8.9-2,12.8-5.2,14.5-9.4h-12.7v-4.6h14c0.2-1.2,0.3-2.5,0.4-3.8h5.5
		c-0.1,1.3-0.3,2.6-0.4,3.8H440.9z M439.1,746.6h-31v-14.9h31V746.6z M433.6,736.6h-20.3v5.1h20.3V736.6z"/>
	<path fill="#5D5D5D" d="M458.5,754.3v10.1c0,2.4-0.4,3.7-1.7,4.4c-1.3,0.9-3.2,1-6,1c-0.1-1.3-0.7-3.4-1.3-4.7c1.6,0,3.1,0,3.6,0
		c0.5,0,0.7-0.2,0.7-0.7v-8.7c-1.4,0.4-2.7,0.8-4,1.1l-1.2-5c1.5-0.3,3.2-0.8,5.2-1.3v-7.7h-4.7v-4.8h4.7v-8.2h4.7v8.2h4.4v4.8h-4.4
		v6.4l3.9-1l0.7,4.7L458.5,754.3z M478.3,765.3c1,0.1,2,0.1,3,0.1c1.5,0,6.9,0,8.8,0c-0.6,1-1.2,3.2-1.4,4.5h-7.6
		c-5.7,0-10.1-1-13.1-6.3c-1.1,2.7-2.7,5.1-4.6,6.8c-0.8-0.8-2.7-2.4-3.8-3.1c3.6-2.9,5.4-7.7,6.1-13.6l4.7,0.6
		c-0.2,1.6-0.5,3-0.8,4.4c1,2.5,2.2,4.1,3.8,5.1v-11.4h-10.2v-4.2H489v4.2h-10.6v3.8h8.3v4h-8.3V765.3z M486.8,746.2h-21.4v-15h21.4
		V746.2z M481.8,734.8h-11.7v2.2h11.7V734.8z M481.8,740.3h-11.7v2.2h11.7V740.3z"/>
	<path fill="#5D5D5D" d="M508.8,731.5c-1.1,3-2.6,6.1-4.1,9.1v30h-5.1v-22.1c-0.9,1.2-1.8,2.2-2.7,3.2c-0.5-1.3-1.9-4.1-2.8-5.4
		c3.9-3.9,7.7-10.1,9.9-16.3L508.8,731.5z M518.9,760.3c-2.2,3.8-5.7,7.6-8.7,10.1c-1-1-2.9-2.6-4-3.3c3-2,6.1-5.2,7.9-8.3
		L518.9,760.3z M535.3,752v5h-28.3v-5h5.8v-8.7h-4.7v-5h4.7v-8.1h5.1v8.1h6.3v-8.2h5.1v8.2h5.7v5h-5.7v8.7H535.3z M518,752h6.3v-8.7
		H518V752z M527.7,758.8c2.8,2.7,5.8,6.4,7.4,9l-4.4,2.7c-1.4-2.6-4.4-6.6-7.2-9.4L527.7,758.8z"/>
	<path fill="#5D5D5D" d="M548.2,739c-1.7,1.8-3.4,3.5-5.1,4.8c-0.6-1-2-3.2-3-4.2c3.6-2.4,7-6.3,9-10.3l4.5,1.5
		c-0.6,1.2-1.3,2.4-2,3.6H579v4.6H548.2z M541,768.6c1.6-2,3.7-5.5,4.9-8.5l5,1.3c-1.2,3-3.2,6.8-4.8,9.2L541,768.6z M575,749.1v5.5
		h5.2v4.6h-38.8v-4.6h6v-5.5h-4.7v-4.6h4.7v-3.9h4.6v3.9h3v-3.9h4.3v3.9h3.4v-3.9h4.3v3.9h3.3v-3.9h4.8v3.9h4.3v4.6H575z
		 M551.9,754.7h3v-5.5h-3V754.7z M558,761.4c0.6,2.6,1,6.1,1.1,8.1l-5.1,0.7c0-2.1-0.3-5.7-0.8-8.4L558,761.4z M559.2,749.1v5.5h3.4
		v-5.5H559.2z M566.9,761c1.1,2.5,2.2,5.9,2.6,8.1l-5.2,1c-0.3-2.1-1.3-5.6-2.3-8.3L566.9,761z M570.2,749.1h-3.3v5.5h3.3V749.1z
		 M575.6,759.8c1.8,2.6,4,6.2,5.1,8.6l-5.1,2.2c-0.9-2.3-3-6.1-4.7-8.9L575.6,759.8z"/>
	<path fill="#5D5D5D" d="M626.8,765v4.2h-40.7V765h5.1v-8.2h30.8v8.2H626.8z M595.2,736.1h-8.3v-4h8.3v-2.2h5.1v2.2h5.1v4h-5.1v1.9
		h-5.1V736.1z M625.6,745.9h-12.4c-1.2,2.4-2.7,4.6-4.4,6.2c-0.4-0.8-1.7-2.5-2.6-3.6v2.1h-4.5v1.8h5.9v3H589v-16.6h18.4v3h-5.7v1.7
		h4.5v4.3c2.3-2.5,4.1-6,5-9.6l4.6,1.1c-0.2,0.7-0.5,1.6-0.7,2.4h10.4L625.6,745.9z M593.2,741.8v1.7h4.3v-1.7H593.2z M602.1,746.1
		h-8.9v1.8h8.9V746.1z M597.5,750.6h-4.3v1.8h4.3V750.6z M596.1,765h4v-4.4h-4V765z M604.4,760.5v4.4h4.2v-4.4H604.4z M613,736.1
		h-5.7V732h5.7v-2.2h5v2.2h7.9v4.1H618v1.9h-5V736.1z M610.8,754.6v-4.3h13.7v4.3H610.8z M612.9,760.5v4.4h4.1v-4.4H612.9z"/>
	<path fill="#5D5D5D" d="M666,764.7c1.2,0,1.4-0.6,1.6-4.1c1.1,0.8,3.3,1.7,4.8,2c-0.7,5.5-2,7.1-5.9,7.1H661c-5,0-6.2-1.6-6.2-6.7
		v-12.5h-5.7c-0.9,9-3,16.2-14,20.2c-0.6-1.4-2-3.4-3.2-4.5c9.6-3.1,11.1-8.6,11.7-15.7h-10.7v-5h16.5v-15.7h5.5v15.7h16.5v5h-11.3
		V763c0,1.6,0.2,1.7,1.7,1.7H666z M641.9,743.8c-1.1-2.4-3.9-6.3-6.2-9.2l4.1-2.4c2.4,2.7,5.3,6.4,6.6,8.8L641.9,743.8z
		 M669.7,734.5c-2.3,3.4-5,7-7.1,9.3l-4.5-1.9c2.1-2.5,4.7-6.4,6.2-9.4L669.7,734.5z"/>
	<path fill="#5D5D5D" d="M713.4,766.3c0.3,0,0.5,0,0.7-0.1c0.2-0.1,0.3-0.3,0.4-0.9c0.1-0.6,0.1-1.8,0.1-3.4c0.9,0.8,2.8,1.7,4,2.2
		c-0.1,1.7-0.3,3.4-0.6,4.1c-0.3,0.8-1,1.3-1.7,1.7c-0.7,0.3-1.7,0.4-2.5,0.4h-2.6c-1,0-2.4-0.3-3.1-1c-0.8-0.7-1.1-1.7-1.1-4.3
		v-5.9h-2.5c-0.6,5.9-2.5,9.4-10.4,11.6c-0.4-1.1-1.4-2.7-2.4-3.7c-4.5,1-9.1,1.8-12.7,2.6l-1-4.7c1.8-0.3,4-0.6,6.4-1v-11.4h-5.9
		v-4.4h5.9V745h-3.8v-1.5c-0.6,0.6-1.2,1.1-1.7,1.6c-0.3-1.2-1.3-4.1-2-5.4c3.3-2.4,6.7-6.1,8.6-10.1l3.8,1.7
		c-0.3,0.5-0.5,1-0.8,1.6c2.8,1.6,5.5,3.5,7.1,5.1l-1.4,2.4h5.3c-0.3-1-0.6-2.2-1-3.2l3.5-0.7h-6.9v-3.9h8.4c-0.3-0.7-0.6-1.4-0.9-2
		l4.6-1.1c0.5,0.9,1.1,2,1.6,3h8.5v3.9h-7.1l4,0.7c-0.6,1.2-1.1,2.3-1.6,3.2h5.5v4h-24v-3.6l-0.8,1.3l-0.1-0.1v3h-4.2v3.2h5.5v4.4
		h-5.5v10.6l5.9-1.1l0.3,3.6c3.2-1.3,4.1-3.4,4.5-6.5h-3.4v-13.1h20.1v13.1h-4.5v6c0,0.6,0,0.9,0.2,1c0.1,0.1,0.3,0.2,0.6,0.2H713.4
		z M682.2,754.1c0.7,2.4,1.3,5.5,1.6,7.5l-3.5,1c-0.1-2.1-0.7-5.2-1.3-7.6L682.2,754.1z M691.7,740.6c-1.5-1.3-3.5-2.7-5.4-4
		c-0.9,1.4-2,2.7-3,4H691.7z M689.4,760.8c0.6-1.9,1.3-5,1.5-7.1l3.7,0.9c-0.8,2.4-1.5,5.2-2.1,7L689.4,760.8z M700.5,751h11.2v-1.9
		h-11.2V751z M700.5,755.9h11.2V754h-11.2V755.9z M702.7,736.5c0.6,1.2,1.2,2.7,1.4,3.9h3.9c0.5-1.2,1.1-2.7,1.3-3.9H702.7z"/>
	<path fill="#5D5D5D" d="M756.2,750.6v19.9h-5.5v-14.7h-16.1c-0.8,5.4-2.7,10.6-6.7,14.9c-0.8-1.3-2.7-3.2-3.9-4.1
		c5.4-5.9,6-14,6-21.3v-14.8h5.2v9.2h14.1v-9.8h5.4v15.1h-19.5v0.3c0,1.8,0,3.5-0.1,5.4H756.2z"/>
	<path fill="#5D5D5D" d="M776.1,747.4c0,1.1,0,2.2,0,3.3h8.7v19.7H780v-15.1h-4.1c-0.4,5.7-1.3,11.3-3.6,15.5
		c-0.8-0.9-2.5-2.4-3.6-3.1c2.5-5.4,2.8-13.8,2.8-20.2v-17.2h4.6v12.4h4.3v-11.5h4.7v16h-8.9V747.4z M808.6,743.7
		c-1,6.7-2.8,12.4-5.4,16.9c1.9,2.3,4.2,4.1,6.8,5.4c-1.2,1-2.7,3-3.5,4.3c-2.4-1.4-4.5-3.2-6.4-5.4c-1.9,2.3-4.1,4.2-6.6,5.7
		c-0.6-1.1-1.8-2.7-2.8-3.7c-0.5,1.4-1.1,2.8-1.8,4c-0.9-0.9-2.8-2.2-4-2.8c3.1-5.6,3.4-14.4,3.4-20.4v-15.4H808v4.7h-14.8v5.9h11.4
		l0.9-0.2L808.6,743.7z M797.1,760.5c-1.7-2.9-2.9-6.1-4-9.6c-0.1,4.8-0.6,10.4-2.1,15C793.3,764.6,795.3,762.8,797.1,760.5z
		 M796.6,747.6c0.8,3,2,5.8,3.3,8.4c1.3-2.5,2.3-5.4,3-8.4H796.6z"/>
	<path fill="#5D5D5D" d="M843.2,743.6c2.7,6.4,7.1,12.3,12.2,15.8c-1.3,1-3.2,3.1-4.1,4.5c-1.7-1.3-3.2-2.8-4.6-4.5v3.8h-9v7.4h-5.5
		v-7.4h-9.1v-3.9c-1.5,1.8-3.2,3.4-4.9,4.8c-0.9-1.3-2.6-3.3-3.8-4.2c5.1-3.5,9.5-9.7,12.2-16.3h-10.7v-5.3h16.3v-8.4h5.5v8.4h16.4
		v5.3H843.2z M832.2,757.9v-14.3h-0.3c-1.9,5.3-4.6,10.2-7.7,14.3H832.2z M845.5,757.9c-3.1-4.1-5.7-9-7.6-14.3h-0.2v14.3H845.5z"/>
	<path fill="#5D5D5D" d="M867.9,750.2c0-9.3,3.9-16.3,8.6-20.9l4.1,1.8c-4.4,4.7-7.8,10.7-7.8,19.1s3.4,14.4,7.8,19.1l-4.1,1.8
		C871.8,766.5,867.9,759.5,867.9,750.2z"/>
	<path fill="#5D5D5D" d="M884.9,758.7c0-4.1,2.5-6.8,5.5-8.4v-0.2c-2.5-1.8-4.3-4.2-4.3-7.7c0-5.2,4.1-8.5,9.7-8.5
		c5.7,0,9.4,3.4,9.4,8.6c0,3.2-2,5.8-4.1,7.4v0.2c3,1.6,5.4,4.2,5.4,8.6c0,4.9-4.3,8.6-10.8,8.6
		C889.5,767.3,884.9,763.8,884.9,758.7z M900.5,758.5c0-3.4-3-4.7-7.1-6.4c-1.7,1.4-3,3.6-3,6c0,2.9,2.4,4.8,5.4,4.8
		C898.5,762.8,900.5,761.3,900.5,758.5z M900,742.9c0-2.6-1.6-4.5-4.3-4.5c-2.2,0-3.9,1.4-3.9,4c0,3,2.5,4.5,5.9,5.9
		C899.3,746.7,900,744.8,900,742.9z"/>
	<path fill="#5D5D5D" d="M911.8,762.9l3-4.1c1.8,1.8,4.1,3.3,7.1,3.3c3.4,0,5.7-2.1,5.7-5.9c0-3.7-2.2-5.8-5.4-5.8
		c-1.9,0-3,0.5-4.8,1.7l-2.9-1.9l0.9-15.6h17.2v5.4h-11.7l-0.6,6.8c1.3-0.6,2.4-0.9,3.9-0.9c5.4,0,9.9,3.2,9.9,10.2
		c0,7.2-5.3,11.3-11.3,11.3C917.6,767.3,914.2,765.3,911.8,762.9z"/>
	<path fill="#5D5D5D" d="M968.5,752.8c-1.8,0.5-3.7,1-5.6,1.6v10.5c0,2.5-0.5,3.8-2,4.6c-1.4,0.8-3.5,0.9-6.6,0.9
		c-0.1-1.3-0.8-3.4-1.4-4.7c1.7,0.1,3.5,0.1,4,0.1c0.6,0,0.8-0.2,0.8-0.8v-9.2c-1.7,0.4-3.3,0.8-4.8,1.2l-1.3-5
		c1.7-0.3,3.8-0.8,6.1-1.3v-7.7h-5.3V738h5.3v-8.1h5.1v8.1h5.3v4.8h-5.3v6.5c1.7-0.4,3.4-0.9,5-1.3L968.5,752.8z M992.6,749.2h-6.3
		v21.1h-5.1v-21.1h-6.1c-0.1,7.3-1.1,14.8-5.4,21.4c-1-1.1-2.8-2.5-4.2-3.4c4-6.7,4.5-13.9,4.5-20.4v-13c6.4-0.8,13.4-2.2,18-3.7
		l3.1,4.4c-4.6,1.4-10.4,2.4-15.9,3.2v6.6h17.5V749.2z"/>
	<path fill="#5D5D5D" d="M1010.2,731.3c-0.8,2.6-1.8,5.3-3,7.9v31.2h-4.9v-21.9c-0.9,1.3-1.8,2.6-2.7,3.7c-0.4-1.2-1.7-4.2-2.5-5.6
		c3.4-4.1,6.5-10.4,8.4-16.8L1010.2,731.3z M1038.3,753.8h-4c0.8,0.8,1.4,1.7,1.9,2.3l-2.8,1.7c-0.5-0.8-1.4-2-2.4-3
		c-0.4,1.8-1.5,2.4-3.8,2.4h-3.8c-0.4,0.4-0.7,0.9-1.1,1.3h8.8l0.9-0.2l3.1,1.7c-1.4,2.1-3.4,3.9-6.1,5.4c2.9,0.6,6,1,9.3,1.3
		c-0.9,1-1.9,2.7-2.5,3.8c-4.6-0.5-8.7-1.3-12.4-2.6c-3.7,1.2-7.9,2.1-12.7,2.8c-0.5-1.1-1.6-2.7-2.5-3.7c3.6-0.3,6.9-0.9,9.7-1.5
		c-0.9-0.5-1.7-1-2.5-1.6c-1.1,0.7-2.4,1.3-3.7,1.9c-0.6-1-1.9-2.3-2.8-2.9c1.3-0.5,2.4-1,3.6-1.6c-0.6-0.6-1.1-1.2-1.5-1.8l3.7-1.3
		c0.3,0.4,0.7,0.8,1,1.2c1.2-0.9,2.2-1.7,3-2.6c-0.8-0.4-1.2-1.2-1.3-2.4c-1,1.3-2.1,2.6-3.4,3.5l-2.8-2.2c0.7-0.4,1.4-1,2-1.7h-4.1
		v-6.2h4v-10.8h7.2c0.1-0.5,0.2-1,0.3-1.5h-10.1v-3.7h26.9v3.7H1026l-0.7,1.5h9.3v10.8h3.7V753.8z M1031.7,751.1
		c0.7,0.6,1.3,1.2,2,2v-2.6h-8.4c0.9,0.7,1.8,1.5,2.4,2.1l-2.9,1.7c-0.7-0.9-2.1-2.3-3.3-3.1l1.3-0.7h-9.2v3
		c0.7-0.7,1.3-1.5,1.8-2.2l2,1v-0.9h4v2c0,0.9,0.3,1,1.4,1h3.8c0.9,0,1.1-0.2,1.2-1.5c0.5,0.3,1.3,0.5,2,0.7c-0.3-0.3-0.7-0.7-1-1
		L1031.7,751.1z M1017.8,739.3v1.3h12.1v-1.3H1017.8z M1029.8,742.7h-12.1v1.4h12.1V742.7z M1017.8,747.6h12.1v-1.4h-12.1V747.6z
		 M1023.4,763.8c1.7-0.6,3.2-1.4,4.4-2.2l-9,0C1020.2,762.5,1021.7,763.2,1023.4,763.8z"/>
	<path fill="#5D5D5D" d="M1043.6,766.7c1.7-2,3.2-5.1,4-7.7l4.5,1.8c-1,2.8-2.3,6.2-4,8.4L1043.6,766.7z M1060.7,736h-15.8v-4h15.8
		v-2.1h5.4v2.1h16.2v4H1066v1.9h13.3v12.9h-4.3c2.9,1.6,5.9,3.8,7.6,5.4l-3.6,2.8c-0.6-0.6-1.3-1.2-2-1.9c-4.1,0.1-8.4,0.2-12.5,0.3
		c2,1.3,4.1,2.9,5.2,4.2l-3.5,3c-1.3-1.6-4.1-3.8-6.5-5.4l2.3-1.8c-6.3,0.1-12.1,0.2-16.7,0.2l-0.2-4.4c4.2,0,9.7,0,15.6,0v-2.4
		h-13.2v-12.9h13.2V736z M1052.4,742.9h8.3v-2h-8.3V742.9z M1060.7,747.7v-2h-8.3v2H1060.7z M1068.8,765.6c1.9,0,2.3-0.5,2.5-3.7
		c1.1,0.7,3.1,1.3,4.5,1.6c-0.6,5-2,6.3-6.6,6.3h-8.5c-6.1,0-7.6-1.3-7.6-5.5v-5h5.1v4.9c0,1.2,0.4,1.3,3,1.3H1068.8z M1066,740.9v2
		h8.1v-2H1066z M1066,747.7h8.1v-2h-8.1V747.7z M1071.5,753.2c-0.7-0.4-1.3-0.7-2-1.1l2-1.3h-5.4v2.4L1071.5,753.2z M1078.8,759.2
		c2,2.6,3.9,6,4.5,8.5l-4.8,1.5c-0.5-2.3-2.3-5.9-4.2-8.6L1078.8,759.2z"/>
	<path fill="#5D5D5D" d="M1100.4,750.2c0,9.3-3.9,16.3-8.6,20.9l-4.1-1.8c4.4-4.7,7.8-10.7,7.8-19.1s-3.4-14.4-7.8-19.1l4.1-1.8
		C1096.6,733.9,1100.4,740.9,1100.4,750.2z"/>
</g>
</svg>
