<?xml version="1.0" encoding="utf-8"?>
<!-- Generator: Adobe Illustrator 17.1.0, SVG Export Plug-In . SVG Version: 6.00 Build 0)  -->
<!DOCTYPE svg PUBLIC "-//W3C//DTD SVG 1.1//EN" "http://www.w3.org/Graphics/SVG/1.1/DTD/svg11.dtd">
<svg version="1.1" id="圖層_1" xmlns="http://www.w3.org/2000/svg" xmlns:xlink="http://www.w3.org/1999/xlink" x="0px" y="0px"
	 viewBox="0 0 470 200" enable-background="new 0 0 470 200" xml:space="preserve">
<rect y="147.3" fill="#E4F9F8" width="470" height="52.7"/>
<g>
	<g id="XMLID_279_">
		<g id="XMLID_353_">
			<path id="XMLID_355_" fill="#8C4817" d="M116.7,54.9l23.6,0.7l1.5,1.7l-0.7,0.8c0,0-16.3,3.9-24.2,4.4l-2.5-4.5L116.7,54.9z"/>
			<polygon id="XMLID_354_" fill="#8C4817" points="31.6,56.6 69.6,53.3 69.3,50.9 33.8,50.9 			"/>
		</g>
		<path id="XMLID_303_" fill="#333333" d="M118.1,55.3c0,0,0.1-0.6-1.9-0.6c-2,0-6.7-1-6.7-1s-27.1-4-35.2,0c0,0-2.1,0.3-4.3,3.2
			c0,0-1.4,1.6-5.6,1c0,0-2.6-1-3.3-2.8c-0.6-1.8-6.6-3.5-6.6-3.5S40.3,47,31.4,50.4l0.3,6.8c0,0,1.3,0.5,1.6,4.4
			c0.4,3.9,2.5,14.1,4.2,16.2c1.4,1.8,6.7,6.1,17.3,4.6c2.8-0.4,5.2-2.4,6-5.2c0.9-2.9,2.1-7.5,3.5-14.3c0,0,4-0.5,4.9,3.8
			S74,79.4,74,79.4s2.3,4.6,7.1,6.1c5.8,1.8,18.5,3.7,25.5-0.5c0,0,2-0.9,2.5-6.1l1.9-12.2c0,0-1.1-4,5.4-3.9c0,0,1.8,0.8,1.8-2.3
			C118.2,57.5,118.1,55.3,118.1,55.3z M58.4,76.6c-2.9,6.4-8.4,4.2-13.8,3.2c-5.4-1-7.4-10.1-7.4-10.1s-3.2-10.6-1-15.5
			c2-4.5,11.5-1.9,13.1-1.4c0.2,0,0.3,0.1,0.5,0.1c10.7,1.3,10.9,9.5,10.9,10.8c0,0.1,0,0.2,0,0.3C60.7,65.1,61,70.8,58.4,76.6z
			 M107.3,66.2c-0.3,7.6,0.3,3.4-0.8,10.6c0,0-1.6,6.7-6.7,7.6c-5,0.8-14,1.5-19.2-1.7c-4.8-2.9-7.7-12.8-8.2-14.4
			c0-0.1-0.1-0.3-0.1-0.4l-0.6-5c0-0.1,0-0.3,0-0.4c0-1.2,0.4-6.7,6.4-7.5c0.2,0,0.4-0.1,0.6-0.1c1.6-0.4,4.9-1.5,13-0.9
			c9.6,0.7,11.4,2.5,11.4,2.5S107.7,58.6,107.3,66.2z"/>
		<path id="XMLID_302_" fill="#333333" d="M69.3,50.9v2.5l12.4-0.3l2.5,0.3c0,0,8.4,5.9,12.2,13.9c0.9,1.9,3,3.1,5.1,2.7
			c0,0,0,0,0,0c1.4-0.2,2-2,0.9-3.1L87.7,53.4C87.7,53.4,84.9,50.1,69.3,50.9z"/>
		<path id="XMLID_280_" fill="#333333" d="M140.1,55.4v3l2.1-0.5c0.1,0,0.1,0,0.1,0.1c-0.4,1.5-3.7,13.8-2.7,15
			c1.3,1.6,3.2,1.7,2.5-1c-0.3-0.9-0.3-1.9,0-2.8c0.7-2.5,1.4-6.9,2.1-10.6C144.2,58.7,145.1,54.5,140.1,55.4z"/>
	</g>
	<g>
		<path fill="#5D5D5D" d="M53.8,113.2H51v1.2h-1.6v-10.9h4.4V113.2z M51,105v2.5h1.3V105H51z M52.3,111.7V109H51v2.7H52.3z
			 M58.9,105.7v1.3h2.8v1.5h-1v1.1h1.4v1.5h-1.4v3.1c0,0.8-0.2,1.2-0.7,1.5c-0.5,0.2-1.3,0.3-2.4,0.3c-0.1-0.5-0.3-1.1-0.5-1.6
			c0.7,0,1.5,0,1.7,0c0.2,0,0.3-0.1,0.3-0.3v-3h-5v-1.5h5v-1.1h-4.5V107h2.7v-1.3h-3.2v-1.5h3.2v-1.5h1.7v1.5h3.2v1.5H58.9z
			 M56.1,111.2c0.6,0.7,1.3,1.6,1.7,2.3l-1.5,0.9c-0.3-0.6-1-1.6-1.6-2.4L56.1,111.2z"/>
		<path fill="#5D5D5D" d="M65.8,106.5c-0.3-0.8-1-2-1.7-2.9l1.5-0.6c0.7,0.8,1.4,2,1.8,2.8L65.8,106.5z M75.3,114
			c0,0.8-0.2,1.3-0.7,1.5c-0.5,0.3-1.3,0.3-2.4,0.3c-0.1-0.5-0.3-1.2-0.5-1.6c0.7,0,1.4,0,1.7,0c0.2,0,0.3-0.1,0.3-0.3v-5.7h-7.7
			v7.6h-1.7v-9.2h4.6v-4h1.7v4h4.7V114z M68.7,113.5v0.9h-1.5v-5.1h5.2v4.3H68.7z M68.7,110.6v1.5h2.1v-1.5H68.7z M75.4,103.5
			c-0.6,1.1-1.4,2.3-2,3l-1.4-0.6c0.6-0.8,1.3-2.1,1.7-3L75.4,103.5z"/>
		<path fill="#5D5D5D" d="M89,114.5c0.1,0,0.2,0,0.2,0s0.1-0.1,0.1-0.3s0-0.6,0-1.1c0.3,0.3,0.9,0.6,1.3,0.7c0,0.5-0.1,1.1-0.2,1.3
			c-0.1,0.3-0.3,0.4-0.6,0.6c-0.2,0.1-0.6,0.1-0.8,0.1h-0.9c-0.3,0-0.8-0.1-1-0.3s-0.4-0.5-0.4-1.4v-1.9h-0.8
			c-0.2,1.9-0.8,3.1-3.4,3.8c-0.1-0.4-0.5-0.9-0.8-1.2c-1.5,0.3-2.9,0.6-4.1,0.8l-0.3-1.5c0.6-0.1,1.3-0.2,2.1-0.3V110h-1.9v-1.4
			h1.9v-1h-1.2v-0.5c-0.2,0.2-0.4,0.4-0.6,0.5c-0.1-0.4-0.4-1.3-0.6-1.7c1.1-0.8,2.2-2,2.8-3.3l1.2,0.6c-0.1,0.2-0.2,0.3-0.3,0.5
			c0.9,0.5,1.8,1.1,2.3,1.7l-0.5,0.8h1.7c-0.1-0.3-0.2-0.7-0.3-1l1.1-0.2H83v-1.3h2.7c-0.1-0.2-0.2-0.5-0.3-0.6l1.5-0.4
			c0.2,0.3,0.4,0.7,0.5,1h2.8v1.3h-2.3l1.3,0.2c-0.2,0.4-0.4,0.7-0.5,1h1.8v1.3h-7.8v-1.2l-0.3,0.4l0,0v1H81v1h1.8v1.4H81v3.4
			l1.9-0.4l0.1,1.2c1-0.4,1.3-1.1,1.5-2.1h-1.1v-4.3h6.5v4.3h-1.5v2c0,0.2,0,0.3,0.1,0.3c0,0,0.1,0.1,0.2,0.1H89z M78.8,110.6
			c0.2,0.8,0.4,1.8,0.5,2.4l-1.1,0.3c0-0.7-0.2-1.7-0.4-2.5L78.8,110.6z M81.9,106.2c-0.5-0.4-1.1-0.9-1.8-1.3
			c-0.3,0.5-0.6,0.9-1,1.3H81.9z M81.2,112.8c0.2-0.6,0.4-1.6,0.5-2.3l1.2,0.3c-0.3,0.8-0.5,1.7-0.7,2.3L81.2,112.8z M84.8,109.6
			h3.6v-0.6h-3.6V109.6z M84.8,111.1h3.6v-0.6h-3.6V111.1z M85.5,104.8c0.2,0.4,0.4,0.9,0.5,1.3h1.3c0.2-0.4,0.4-0.9,0.4-1.3H85.5z"
			/>
		<path fill="#5D5D5D" d="M104.7,113.7v1.5h-8.2v-6l-0.8,1.3c-0.2-0.4-0.5-0.9-0.9-1.4v6.8h-1.5v-5.6c-0.4,1-0.8,1.9-1.3,2.6
			c-0.2-0.5-0.5-1.2-0.8-1.7c0.8-0.9,1.6-2.6,2-4.2h-1.7v-1.6h1.8v-2.8h1.5v2.8h1.3v1.6h-1.3v0.2c0.4,0.4,1.3,1.4,1.6,1.8v-5.5h8
			v1.5h-6.4v8.7H104.7z M100.5,111.5v-1.5h-1.8v-1.4h1.8v-1.4h-1.9v-1.4h5.6v1.4h-2.1v1.4h1.8v1.4h-1.8v1.5h2.2v1.4h-5.8v-1.4H100.5
			z"/>
		<path fill="#9E9E9E" d="M65.7,121.3v8h-1.2v-0.6h-5.9v0.7h-1.2v-8.1H65.7z M64.5,127.6v-1.1c-0.1,0-0.3,0-0.5,0h-0.9
			c-0.9,0-1.1-0.5-1.1-1.5v-2.6h-1c0,2.4-0.3,3.9-1.8,4.7c-0.1-0.3-0.4-0.7-0.7-0.9v1.3H64.5z M58.6,122.4v3.8
			c1.2-0.7,1.3-1.8,1.3-3.8H58.6z M64.5,122.4h-1.4v2.6c0,0.3,0,0.5,0.2,0.5H64c0.1,0,0.4,0,0.5,0V122.4z"/>
		<path fill="#9E9E9E" d="M68.7,126.9c-0.2,0.7-0.5,1.6-0.8,2.1c-0.2-0.1-0.7-0.3-0.9-0.4c0.3-0.5,0.6-1.3,0.7-1.9L68.7,126.9z
			 M70.1,126.5v3.2H69v-3.2h-1.9v-1H72v1H70.1z M69,122.2h-1.8v-1H69v-0.7h1.1v0.7h1.7v1h-1.7v0.5h1.5v1h-4.2v-1H69V122.2z
			 M71.6,124.2c0.5-1,0.8-2.3,1-3.7l1.1,0.2c-0.1,0.5-0.2,1.1-0.3,1.6h2l0.2,0l0.8,0.2c-0.2,1-0.5,2.1-0.7,2.8l-1-0.3
			c0.1-0.4,0.3-1,0.4-1.6h-1.9c-0.2,0.8-0.5,1.4-0.8,2c-0.2-0.1-0.5-0.4-0.7-0.6v0.4h-4v-1L71.6,124.2L71.6,124.2z M71.3,126.7
			c0.2,0.5,0.5,1.1,0.6,1.5l-0.9,0.4c-0.1-0.4-0.4-1.1-0.6-1.6L71.3,126.7z M74.4,124.4c0,0.3,0,0.6,0,0.9c0.3,1.5,1,2.7,2.1,3.3
			c-0.3,0.2-0.6,0.7-0.8,1c-0.8-0.5-1.3-1.3-1.7-2.3c-0.3,0.8-0.8,1.6-1.6,2.3c-0.2-0.3-0.6-0.6-0.9-0.8c1.6-1.4,1.8-3.3,1.8-4.5
			v-0.5h1.1V124.4z"/>
		<path fill="#9E9E9E" d="M80.4,125.7c-0.3,0.1-0.6,0.2-0.9,0.3v2.5c0,0.5-0.1,0.8-0.4,1c-0.3,0.2-0.7,0.2-1.4,0.2
			c0-0.3-0.2-0.8-0.3-1.1c0.4,0,0.7,0,0.8,0c0.1,0,0.2,0,0.2-0.2v-2.2l-0.9,0.3l-0.3-1.1c0.3-0.1,0.7-0.2,1.2-0.3v-1.7h-1v-1.1h1
			v-1.9h1.1v1.9h0.9v1.1h-0.9v1.4c0.3-0.1,0.5-0.1,0.8-0.2L80.4,125.7z M86.5,128.5H84v1.2h-1.1v-1.2h-2.5v-0.9h2.5v-0.4h-2.2v-0.9
			h1.1c-0.1-0.2-0.1-0.4-0.2-0.6l0.7-0.2h-1.8v-0.9h2.4v-0.4h-2v-0.8h2V123h-2.1v-2.2h5.5v2.2H84v0.4h2.1v0.8H84v0.4h2.4v0.9h-1.6
			l0.7,0.2l-0.3,0.6h0.9v0.9H84v0.4h2.5V128.5z M82.3,121.6h-0.6v0.7h0.6V121.6z M82.5,125.5c0.1,0.2,0.2,0.5,0.3,0.7h1.3
			c0.1-0.2,0.2-0.5,0.3-0.7H82.5z M83.1,122.2h0.6v-0.7h-0.6V122.2z M84.6,122.2h0.6v-0.7h-0.6V122.2z"/>
		<path fill="#9E9E9E" d="M96.7,124.3v1.3h-9.1v-1.3H96.7z"/>
	</g>
	<g id="XMLID_273_">
		<line id="XMLID_277_" fill="none" stroke="#9E9E9E" stroke-miterlimit="10" x1="165.8" y1="68.3" x2="175.1" y2="68.3"/>
		<line id="XMLID_276_" fill="none" stroke="#9E9E9E" stroke-miterlimit="10" x1="170.4" y1="73" x2="170.4" y2="63.6"/>
	</g>
	<g>
		<path fill="#5D5D5D" d="M197.7,109.6c-0.5-0.4-1.6-1-2.4-1.4l0.8-1.1c0.8,0.3,1.9,0.8,2.4,1.3L197.7,109.6z M195.8,114.3
			c0.7-1,1.7-2.5,2.4-4l1.1,1c-0.7,1.3-1.5,2.8-2.2,4L195.8,114.3z M198.5,106.2c-0.5-0.4-1.6-1-2.4-1.4l0.8-1.1
			c0.8,0.3,1.9,0.9,2.4,1.3L198.5,106.2z M205.7,115.5c-0.1-0.3-0.2-0.7-0.4-1.1c-4.2,0.5-4.9,0.6-5.3,0.8c-0.1-0.3-0.3-1.1-0.5-1.5
			c0.3-0.1,0.5-0.4,0.8-0.8c0.2-0.3,0.8-1.5,1.4-2.7h-2.4v-1.4h3v-1.8h-2.5v-1.4h2.5v-1.9h1.5v1.9h2.6v1.4h-2.6v1.8h3.1v1.4h-3.5
			c-0.5,1.2-1.1,2.3-1.8,3.3l3-0.3c-0.3-0.5-0.6-0.9-0.9-1.3l1.2-0.6c0.8,1.1,1.8,2.6,2.1,3.6L205.7,115.5z"/>
		<path fill="#5D5D5D" d="M219.6,104.1v11.4h-1.5V115h-7.9v0.5h-1.4v-11.4H219.6z M218.1,113.6v-8.2h-1.6c0.4,0.2,0.8,0.5,1.1,0.7
			l-0.5,0.5h0.6v1.1h-2.3c0.1,0.7,0.1,1.4,0.2,2c0.3-0.5,0.4-1,0.6-1.6l1.2,0.2c-0.3,1.1-0.8,2.1-1.3,2.9c0.2,0.4,0.4,0.6,0.6,0.7
			c0.1,0.1,0.2-0.4,0.3-1.2c0.2,0.2,0.7,0.6,0.9,0.7c-0.2,1.6-0.9,2.1-1.7,1.7c-0.4-0.1-0.7-0.4-1-0.8c-0.4,0.4-0.8,0.8-1.3,1.1
			c-0.2-0.2-0.6-0.7-0.8-0.9c0.1-0.1,0.3-0.2,0.4-0.3c-1,0.2-2,0.3-2.9,0.4l-0.1-1.1c0.9-0.1,2.3-0.3,3.6-0.4l0,0.6
			c0.2-0.2,0.4-0.4,0.6-0.6c-0.3-0.9-0.4-2.1-0.5-3.3h-3.5v-1.1h3.5c0-0.4,0-0.7-0.1-1.1h1.2c0,0.4,0,0.7,0.1,1.1h1.4
			c-0.3-0.2-0.7-0.5-1-0.7l0.6-0.6h-6.2v8.2H218.1z M213.8,110.8h-2.8v-2.4h2.8V110.8z M212.7,109.1h-0.9v0.8h0.9V109.1z"/>
		<path fill="#5D5D5D" d="M224.3,105.7v7.7c0,0.8-0.1,1.2-0.6,1.4c-0.5,0.2-1.1,0.3-2.1,0.3c-0.1-0.4-0.2-1.1-0.4-1.5
			c0.6,0,1.2,0,1.4,0c0.2,0,0.3-0.1,0.3-0.3v-7.7h-1.8v-1.4h4.6v1.4H224.3z M227.7,112.9l1.2,0.8c-0.8,0.7-2.2,1.3-3.3,1.7
			c-0.2-0.3-0.6-0.8-0.9-1c1-0.3,2.3-0.9,2.9-1.4h-1.3v-6.7h2c0.1-0.3,0.1-0.6,0.2-0.9h-2.6V104h7v1.3h-2.7
			c-0.1,0.3-0.2,0.6-0.3,0.9h2.7v6.7H227.7z M227.7,108.1h3.3v-0.8h-3.3V108.1z M227.7,110h3.3v-0.8h-3.3V110z M227.7,111.8h3.3V111
			h-3.3V111.8z M230.7,113c0.8,0.4,1.9,1.1,2.5,1.6l-1.2,0.9c-0.5-0.5-1.6-1.2-2.4-1.7L230.7,113z"/>
		<path fill="#5D5D5D" d="M235.7,112.1c-0.1,1.1-0.3,2.3-0.6,3.1c-0.3-0.1-0.8-0.3-1.1-0.4c0.3-0.8,0.4-1.9,0.5-2.9L235.7,112.1z
			 M234,107.2c0.3-0.1,0.5-0.3,0.7-0.7c0.3-0.3,1.1-1.7,1.5-3.1l1.4,0.6c-0.5,1-1.1,2.1-1.7,3l0.9-0.1c0.3-0.5,0.7-1.1,0.9-1.7
			l1.3,0.8c-0.7,1.3-1.7,2.6-2.7,3.7l1.3-0.2c-0.1-0.3-0.2-0.6-0.4-0.9l1-0.4c0.4,0.8,0.8,1.8,0.9,2.5l-1.1,0.4
			c0-0.2-0.1-0.4-0.1-0.6c-2.7,0.5-3.2,0.6-3.5,0.8c-0.1-0.3-0.3-1-0.5-1.3c0.3-0.1,0.6-0.4,1-0.8c0.2-0.2,0.5-0.5,0.8-1
			c-1,0.1-1.3,0.2-1.5,0.3C234.4,108.3,234.2,107.6,234,107.2z M237,111.8c0.2,0.8,0.3,1.9,0.3,2.5l-1.1,0.3c0-0.7-0.1-1.8-0.3-2.6
			L237,111.8z M245.7,107.9c-0.3,1.9-0.9,3.5-1.7,4.8c0.5,0.6,1.2,1.1,2,1.4c-0.3,0.3-0.8,0.9-1,1.3c-0.7-0.4-1.3-0.9-1.8-1.5
			c-0.5,0.6-1.1,1.1-1.8,1.5c-0.2-0.4-0.6-0.9-1-1.1c0.7-0.4,1.3-0.9,1.9-1.6c-0.4-0.7-0.7-1.4-1-2.2c-0.3,1.9-0.7,3.6-1.6,4.9
			c-0.2-0.2-0.9-0.8-1.3-0.9c0.2-0.3,0.4-0.6,0.5-0.9l-0.9,0.3c-0.1-0.5-0.4-1.4-0.6-2.1l1-0.3c0.2,0.6,0.4,1.3,0.6,1.8
			c0.9-2,1-4.7,1-7.8h-1.1v-1.4h4.3l0.2-0.1l1.1,0.1c-0.1,1.1-0.4,2.4-0.6,3.5h0.5l0.2-0.1L245.7,107.9z M241.5,105.5
			c0,0.7,0,1.5-0.1,2.1h1.2c0.1-0.7,0.3-1.5,0.4-2.1H241.5z M242,109c0.2,0.9,0.6,1.7,1,2.4c0.4-0.7,0.7-1.5,0.9-2.4H242z"/>
		<path fill="#5D5D5D" d="M258.7,109.2c-0.7,0.6-1.6,1.3-2.3,1.8c0.7,1.2,1.5,2.2,2.5,2.9c-0.3,0.3-0.8,0.8-1.1,1.2
			c-1.9-1.4-3.2-3.9-4-6.7c-0.2,0.3-0.5,0.6-0.8,0.9v4.1l2-0.6c0,0.4,0.1,1,0.2,1.3c-2.9,1-3.4,1.2-3.7,1.4
			c-0.1-0.3-0.5-0.8-0.8-1.1c0.3-0.2,0.8-0.7,0.8-1.4v-2.3c-0.4,0.3-0.7,0.6-1.1,0.8c-0.2-0.2-0.5-0.7-0.7-1v4.8h-1.5v-6.4
			c-0.2,0.3-0.5,0.6-0.7,0.9c-0.1-0.4-0.6-1.2-0.8-1.6c1.1-1.2,2.2-3,2.8-4.8l1.4,0.4c-0.3,0.9-0.8,1.9-1.3,2.8v3.4
			c1.2-0.8,2.4-1.9,3.2-3h-2.6v-1.4h3.6c-0.2-0.5-0.4-1.2-0.7-1.8l1.4-0.4c0.3,0.6,0.7,1.4,0.8,1.9l-0.9,0.3h4v1.4h-3.7
			c0.2,0.9,0.5,1.8,0.9,2.7c0.6-0.5,1.3-1.2,1.7-1.7L258.7,109.2z"/>
		<path fill="#5D5D5D" d="M264,111.7c-0.2-0.3-0.6-0.8-0.9-1.2v4.9h-1.5v-4.7c-0.5,0.4-1,0.8-1.5,1.1c-0.1-0.4-0.4-1.3-0.6-1.5
			c1.3-0.7,2.5-2,3.3-3.3h-2.9v-1.4h2.2c-0.2-0.4-0.6-1-0.9-1.4l1.2-0.7c0.4,0.5,0.9,1.1,1.1,1.6l-0.7,0.5h0.9l0.3-0.1l0.8,0.6
			c-0.4,0.9-0.9,1.8-1.5,2.7c0.5,0.4,1.4,1.4,1.7,1.6L264,111.7z M270.3,114.1c0.2,0,0.3-0.2,0.3-1.4c0.3,0.2,0.9,0.5,1.2,0.6
			c-0.1,1.7-0.5,2.2-1.4,2.2h-0.8c-1.1,0-1.4-0.4-1.4-1.7v-2.5h-0.7c-0.2,2.1-0.7,3.5-3.1,4.3c-0.1-0.3-0.5-0.9-0.8-1.1
			c2-0.6,2.4-1.6,2.5-3.2h-0.8V104h5.7v7.1h-1.3v2.5c0,0.3,0,0.4,0.2,0.4H270.3z M266.7,106.1h2.8v-0.8h-2.8V106.1z M266.7,108h2.8
			v-0.8h-2.8V108z M266.7,110h2.8v-0.8h-2.8V110z"/>
		<path fill="#5D5D5D" d="M283.9,105.1c-0.4,1.3-1,2.5-1.8,3.4c0.7,0.6,1.6,1.1,2.6,1.4c-0.3,0.3-0.7,0.9-0.9,1.3l0,0v4.2h-1.5V115
			H280v0.4h-1.4v-4.1l-0.3,0.1c-0.1-0.2-0.3-0.5-0.5-0.7v0.4h-1.4v1.7l1.5-0.3l0.1,1.3c-1.8,0.4-3.7,0.9-5.2,1.2l-0.3-1.5l0.6-0.1
			v-4.3h1.2v4l0.6-0.1v-4.8h-1.8V104h4.4v3.2c0.9-0.9,1.7-2.2,2.1-3.6l1.4,0.4c-0.1,0.3-0.2,0.6-0.3,0.9h1.8l0.3-0.1L283.9,105.1z
			 M274.6,106.9h1.7v-1.6h-1.7L274.6,106.9z M277.8,110.1c0.9-0.4,1.7-0.9,2.4-1.6c-0.3-0.4-0.6-0.8-0.8-1.1
			c-0.2,0.3-0.5,0.6-0.8,0.9c-0.2-0.2-0.7-0.6-1-0.9v0.8h-1.3v1.5h1.4V110.1z M282.8,110.7c-0.6-0.3-1.1-0.7-1.6-1.2
			c-0.5,0.4-1,0.8-1.6,1.2H282.8z M282.3,113.7V112H280v1.7H282.3z M280.3,106l-0.1,0.2c0.3,0.4,0.6,0.9,0.9,1.3
			c0.4-0.5,0.7-1,0.9-1.5H280.3z"/>
		<path fill="#5D5D5D" d="M208.6,123.5c-0.4-0.3-1.4-0.9-2-1.2l0.9-1.1c0.6,0.3,1.6,0.8,2,1.1L208.6,123.5z M209.7,125.4
			c-0.4,1.4-1,2.8-1.5,4.1l-1.4-0.8c0.5-1,1.1-2.6,1.6-4.1L209.7,125.4z M209.1,120.2c-0.4-0.3-1.4-0.9-2-1.3l0.9-1.1
			c0.6,0.3,1.5,0.9,2,1.2L209.1,120.2z M211.7,122.8c0,2-0.2,4.9-1.4,6.8c-0.2-0.2-0.8-0.7-1.1-0.8c1.1-1.7,1.2-4.2,1.2-6v-3.2h3
			v-1.8h1.4v0.5h3.1v0.9h-3.1v0.4h2.6l0.2,0l1,0.2c-0.1,0.7-0.4,1.4-0.6,1.9l-1.1-0.2c0.1-0.2,0.1-0.5,0.2-0.8h-2.5v0.4l1.7-0.1
			l0,0.8l-1.8,0.1c0,0.2,0.1,0.3,0.4,0.3h1.4c0.3,0,0.9,0,1.1-0.1c0,0.4,0.1,0.6,0.1,0.9c-0.2,0.1-0.8,0.1-1.2,0.1h-1.9
			c-0.9,0-1.2-0.4-1.3-1l-1.2,0.1l-0.1-1l1.2-0.1v-0.5h-1.5V122.8z M211.1,128.8c0.5-0.4,0.8-1.1,0.9-1.8l1.1,0.4
			c-0.2,0.8-0.4,1.6-1,2.1L211.1,128.8z M217.6,129.4c-0.1-0.3-0.3-0.7-0.6-1.1c-0.1,1-0.5,1.3-1.2,1.3h-1.2c-1.1,0-1.4-0.3-1.4-1.3
			v-1h1.1c-0.2-0.1-0.4-0.2-0.6-0.3l0.3-0.3h-1.9v-3.1h5.6v3.1h-2.5c0.3,0.2,0.7,0.4,0.9,0.6l-0.7,0.7c-0.2-0.2-0.6-0.4-1-0.7v1
			c0,0.3,0.1,0.3,0.3,0.3h0.9c0.2,0,0.3-0.1,0.3-0.7c0.2,0.2,0.6,0.3,0.9,0.4c-0.2-0.3-0.4-0.5-0.6-0.8l1-0.5c0.6,0.6,1.2,1.4,1.4,2
			L217.6,129.4z M213.3,124.7h1v-0.5h-1V124.7z M213.3,125.8h1v-0.5h-1V125.8z M216.5,124.2h-1v0.5h1V124.2z M216.5,125.3h-1v0.5h1
			V125.3z"/>
		<path fill="#5D5D5D" d="M231.5,128v1.2h-11.9V128h1.5v-2.4h9v2.4H231.5z M222.2,119.5h-2.4v-1.2h2.4v-0.7h1.5v0.7h1.5v1.2h-1.5
			v0.5h-1.5V119.5z M231.1,122.4h-3.6c-0.3,0.7-0.8,1.3-1.3,1.8c-0.1-0.2-0.5-0.7-0.8-1v0.6h-1.3v0.5h1.7v0.9h-5.4v-4.9h5.4v0.9
			h-1.7v0.5h1.3v1.2c0.7-0.7,1.2-1.7,1.5-2.8l1.3,0.3c-0.1,0.2-0.1,0.5-0.2,0.7h3.1L231.1,122.4z M221.6,121.2v0.5h1.2v-0.5H221.6z
			 M224.2,122.5h-2.6v0.5h2.6V122.5z M222.9,123.8h-1.2v0.5h1.2V123.8z M222.5,128h1.2v-1.3h-1.2V128z M224.9,126.7v1.3h1.2v-1.3
			H224.9z M227.4,119.5h-1.7v-1.2h1.7v-0.6h1.5v0.6h2.3v1.2h-2.3v0.5h-1.5V119.5z M226.8,125v-1.3h4v1.3H226.8z M227.4,126.7v1.3
			h1.2v-1.3H227.4z"/>
		<path fill="#5D5D5D" d="M242.4,127.9c0.3,0,0.4-0.2,0.5-1.2c0.3,0.2,1,0.5,1.4,0.6c-0.2,1.6-0.6,2.1-1.7,2.1H241
			c-1.5,0-1.8-0.5-1.8-2v-3.7h-1.7c-0.3,2.6-0.9,4.7-4.1,5.9c-0.2-0.4-0.6-1-0.9-1.3c2.8-0.9,3.3-2.5,3.4-4.6h-3.1v-1.5h4.8v-4.6
			h1.6v4.6h4.8v1.5h-3.3v3.7c0,0.5,0.1,0.5,0.5,0.5H242.4z M235.4,121.8c-0.3-0.7-1.1-1.8-1.8-2.7l1.2-0.7c0.7,0.8,1.5,1.9,1.9,2.6
			L235.4,121.8z M243.6,119.1c-0.7,1-1.5,2-2.1,2.7l-1.3-0.5c0.6-0.7,1.4-1.9,1.8-2.8L243.6,119.1z"/>
		<path fill="#5D5D5D" d="M255.9,128.4c0.1,0,0.1,0,0.2,0c0.1,0,0.1-0.1,0.1-0.3s0-0.5,0-1c0.3,0.2,0.8,0.5,1.2,0.6
			c0,0.5-0.1,1-0.2,1.2c-0.1,0.2-0.3,0.4-0.5,0.5c-0.2,0.1-0.5,0.1-0.7,0.1h-0.8c-0.3,0-0.7-0.1-0.9-0.3s-0.3-0.5-0.3-1.3v-1.7h-0.7
			c-0.2,1.7-0.7,2.8-3,3.4c-0.1-0.3-0.4-0.8-0.7-1.1c-1.3,0.3-2.7,0.5-3.7,0.8l-0.3-1.4c0.5-0.1,1.2-0.2,1.9-0.3v-3.3h-1.7v-1.3h1.7
			v-0.9h-1.1v-0.4c-0.2,0.2-0.3,0.3-0.5,0.5c-0.1-0.3-0.4-1.2-0.6-1.6c1-0.7,2-1.8,2.5-3l1.1,0.5c-0.1,0.2-0.2,0.3-0.2,0.5
			c0.8,0.5,1.6,1,2.1,1.5l-0.4,0.7h1.6c-0.1-0.3-0.2-0.7-0.3-0.9l1-0.2h-2v-1.1h2.5c-0.1-0.2-0.2-0.4-0.3-0.6l1.3-0.3
			c0.2,0.3,0.3,0.6,0.5,0.9h2.5v1.1h-2.1l1.2,0.2c-0.2,0.3-0.3,0.7-0.5,0.9h1.6v1.2h-7v-1l-0.2,0.4l0,0v0.9h-1.2v0.9h1.6v1.3h-1.6
			v3.1l1.7-0.3l0.1,1c0.9-0.4,1.2-1,1.3-1.9h-1v-3.9h5.9v3.9h-1.3v1.8c0,0.2,0,0.3,0.1,0.3c0,0,0.1,0.1,0.2,0.1H255.9z M246.7,124.8
			c0.2,0.7,0.4,1.6,0.5,2.2l-1,0.3c0-0.6-0.2-1.5-0.4-2.2L246.7,124.8z M249.5,120.9c-0.4-0.4-1-0.8-1.6-1.2
			c-0.3,0.4-0.6,0.8-0.9,1.2H249.5z M248.8,126.8c0.2-0.6,0.4-1.5,0.4-2.1l1.1,0.3c-0.2,0.7-0.4,1.5-0.6,2.1L248.8,126.8z
			 M252.1,123.9h3.3v-0.6h-3.3V123.9z M252.1,125.3h3.3v-0.6h-3.3V125.3z M252.7,119.6c0.2,0.3,0.3,0.8,0.4,1.1h1.1
			c0.2-0.4,0.3-0.8,0.4-1.1H252.7z"/>
		<path fill="#5D5D5D" d="M267.9,123.8v5.8h-1.6v-4.3h-4.7c-0.2,1.6-0.8,3.1-2,4.4c-0.2-0.4-0.8-0.9-1.1-1.2
			c1.6-1.7,1.8-4.1,1.8-6.3v-4.3h1.5v2.7h4.1v-2.9h1.6v4.4h-5.7v0.1c0,0.5,0,1,0,1.6H267.9z"/>
	</g>
	<g id="XMLID_346_">
		<line id="XMLID_348_" fill="none" stroke="#9E9E9E" stroke-miterlimit="10" x1="303.8" y1="68.3" x2="313.1" y2="68.3"/>
		<line id="XMLID_347_" fill="none" stroke="#9E9E9E" stroke-miterlimit="10" x1="308.4" y1="73" x2="308.4" y2="63.6"/>
	</g>
	<g>
		<path fill="#5D5D5D" d="M340.1,113.1h-2.8v1.2c0,0.7-0.1,1.1-0.7,1.3c-0.5,0.2-1.2,0.2-2.2,0.2c-0.1-0.4-0.3-0.9-0.4-1.3
			c0.6,0,1.3,0,1.5,0c0.2,0,0.3-0.1,0.3-0.2v-1.2h-3.6c0.5,0.4,1.1,0.8,1.4,1.2l-1.1,1c-0.4-0.5-1.2-1.2-1.9-1.7l0.5-0.4h-2.6v-1.2
			h7.3v-0.5c-2.5,0.1-4.9,0.1-6.7,0.1l0-1.1c1.2,0,2.8,0,4.5,0V110h-3.7v-3.7h3.7v-0.5h-4.7v-1.1h4.7v-0.8h1.5v0.8h4.7v1.1H335v0.5
			h3.9v3.7H338c0.6,0.3,1.2,0.7,1.6,1l-0.9,0.8c-0.2-0.1-0.3-0.3-0.5-0.4l-0.9,0v0.5h2.8V113.1z M331.2,107.7h2.3v-0.5h-2.3V107.7z
			 M333.5,109v-0.5h-2.3v0.5H333.5z M335,107.2v0.5h2.4v-0.5H335z M337.3,109v-0.5H335v0.5H337.3z M335,110.4l1.6,0
			c-0.2-0.1-0.4-0.2-0.5-0.2l0.3-0.2H335V110.4z"/>
		<path fill="#5D5D5D" d="M345.3,107.6h2.3v1.4h-2.3v0.4c0.6,0.5,1.9,1.6,2.2,1.9l-0.9,1.3c-0.3-0.4-0.9-1-1.4-1.6v4.6h-1.5v-4.5
			c-0.6,1.1-1.2,2.2-1.9,2.9c-0.2-0.5-0.5-1.1-0.8-1.5c0.9-0.9,1.8-2.3,2.4-3.6h-2.1v-1.4h2.4v-1.6c-0.7,0.1-1.4,0.3-2.1,0.3
			c-0.1-0.3-0.3-0.9-0.4-1.2c1.8-0.3,3.9-0.8,5.1-1.3l1.1,1.2c-0.6,0.3-1.4,0.5-2.1,0.7V107.6z M349.9,112.5h-1.5v-7.1h1.5V112.5z
			 M352.6,104.1v9.8c0,0.9-0.2,1.3-0.7,1.6c-0.5,0.3-1.4,0.3-2.5,0.3c-0.1-0.4-0.3-1.1-0.5-1.6c0.8,0,1.7,0,1.9,0
			c0.2,0,0.3-0.1,0.3-0.3v-9.8H352.6z"/>
		<path fill="#5D5D5D" d="M358.3,104.9c-0.3,1.1-0.7,2.3-1.1,3.3c0.7,1,0.9,1.9,0.9,2.7c0,0.8-0.2,1.4-0.6,1.7
			c-0.2,0.2-0.4,0.2-0.7,0.3c-0.2,0-0.5,0-0.8,0c0-0.4-0.1-0.9-0.3-1.3c0.2,0,0.4,0,0.5,0c0.1,0,0.2,0,0.3-0.1
			c0.1-0.1,0.2-0.4,0.2-0.8c0-0.6-0.2-1.4-0.9-2.3c0.2-0.8,0.5-1.8,0.7-2.7h-1v10h-1.2v-11.4h2.7l0.2-0.1L358.3,104.9z M357.7,115.1
			c0.4-0.6,0.7-1.4,0.9-2.1l1.1,0.4c-0.2,0.7-0.5,1.6-0.9,2.2L357.7,115.1z M365.4,112.6h-3.1c0.3,0.3,0.7,0.6,0.9,0.8l-0.8,0.8
			c-0.3-0.4-1-1-1.4-1.4l0.3-0.2h-2.5v-0.9h5.3v-0.4h-5.7v-0.8h5.7v-0.4h-5.3v-0.9h6.6v1.3h0.6v0.8h-0.6V112.6z M359.7,105.6
			c-0.3,0-0.7,0-1,0c0-0.3-0.2-0.7-0.3-1c2.3-0.1,5.1-0.3,6.6-0.7l0.9,0.9c-0.5,0.1-1.1,0.2-1.6,0.3l1,0.3c-0.2,0.3-0.4,0.7-0.6,1.1
			h0.8v0.9h-2.6v0.5h3.1v0.9h-7.4v-0.9h2.9v-0.5h-2.5v-0.9h0.6c-0.1-0.2-0.3-0.5-0.4-0.7L359.7,105.6z M364.9,115.6
			c-0.1-0.3-0.4-0.8-0.6-1.2c-0.1,1.1-0.5,1.4-1.4,1.4h-1.5c-1.3,0-1.6-0.3-1.6-1.4V113h1.3v1.3c0,0.3,0.1,0.3,0.5,0.3h1.2
			c0.3,0,0.4-0.1,0.4-0.7c0.3,0.2,0.8,0.3,1.1,0.4c-0.2-0.3-0.3-0.7-0.5-0.9l1.1-0.4c0.4,0.7,0.9,1.5,1.2,2.1L364.9,115.6z
			 M361.9,105.4c-0.5,0.1-1.1,0.1-1.7,0.1c0.2,0.2,0.4,0.5,0.5,0.7l-0.7,0.3h1.6c-0.1-0.3-0.3-0.6-0.4-0.8L361.9,105.4z
			 M363.3,106.5c0.3-0.4,0.6-0.9,0.8-1.3c-0.5,0.1-1.1,0.2-1.7,0.2c0.2,0.3,0.4,0.6,0.5,0.9l-0.7,0.3H363.3z"/>
		<path fill="#5D5D5D" d="M378.4,108.9c-0.3,1.6-0.8,3-1.5,4.3c0.3,0.8,0.5,1.3,0.8,1.3c0.2,0,0.3-0.4,0.4-1.6
			c0.3,0.3,0.7,0.5,1,0.7c-0.2,1.9-0.6,2.3-1.5,2.3c-0.6,0-1.1-0.5-1.5-1.3c-0.4,0.5-0.9,1-1.4,1.4c-0.2-0.2-0.8-0.7-1.1-0.9
			c0.2-0.2,0.4-0.3,0.6-0.5H372v0H371v-5.7h3.7v1h-0.9v0.6h1v2.5h-1v0.7h1v0.4c0.3-0.3,0.5-0.6,0.7-1c-0.3-1.2-0.5-2.8-0.6-4.7h-4.3
			v2.6c0,1.6-0.1,3.7-0.8,5c-0.2-0.2-0.8-0.5-1.1-0.6c0.5-0.8,0.6-1.9,0.7-3h-0.6v0.3c0,0.9-0.1,2.3-0.9,3.2
			c-0.2-0.2-0.6-0.5-0.9-0.6c0.6-0.8,0.7-1.9,0.7-2.6v-0.3H367V111h2.3v-0.2v-0.5h-1.8v-3.2h1.1v1.9h0.7V107h5.5l0-0.7h0.1v-0.4
			h-1.6v-1.2h1.6v-0.8h1.5v0.8h2.3v1.2h-1c0.4,0.2,0.7,0.6,0.9,0.8l-0.4,0.3h0.6v1.3h-2.6c0.1,1,0.1,2,0.3,2.8
			c0.3-0.7,0.5-1.5,0.6-2.3L378.4,108.9z M369.6,105.9h-2.4v-1.2h2.4v-0.8h1.5v0.8h1.6v1.2h-1.6v0.6h-1.5V105.9z M372,109.7v0.6h0.7
			v-0.6H372z M372,111.2v0.7h1.6v-0.7H372z M372,113.5h0.7v-0.7H372V113.5z M376.1,107h1.1c-0.2-0.2-0.4-0.4-0.7-0.5l0.8-0.6h-1v0.5
			h-0.2V107z"/>
		<path fill="#5D5D5D" d="M388.1,107.5c0.3,3.7,1,6.7,2,6.7c0.3,0,0.4-0.7,0.5-2.3c0.3,0.4,0.9,0.7,1.3,0.9c-0.2,2.4-0.7,3-2,3
			c-2.2,0-3.1-3.8-3.4-8.3h-6.3V106h6.3c0-0.7,0-1.4,0-2.1h1.6c0,0.7,0,1.4,0,2.1h2c-0.3-0.4-1-1-1.5-1.3l1-0.8
			c0.6,0.4,1.3,1,1.7,1.4l-0.9,0.8h1.2v1.5H388.1z M384.1,113.2c0.8-0.1,1.6-0.3,2.4-0.4l0.1,1.4c-2.1,0.5-4.3,0.9-6,1.3l-0.4-1.5
			c0.7-0.1,1.5-0.2,2.4-0.4v-3.1h-1.9V109h5.5v1.5h-2V113.2z"/>
		<path fill="#5D5D5D" d="M404.5,114.4v1.2H393v-1.2h5v-0.6h-3.7v-1.1l-0.1,0.1l-1.1-0.7c0.5-0.3,1.1-0.9,1.4-1.5h-1.4v-1h4.9v-0.5
			h-3.9v-1h3.9v-0.4h-3.8v-3.5h9.2v3.5h-3.9v0.4h4.2v1h-4.2v0.5h4.9v1h-1.4c0.6,0.4,1.2,1,1.6,1.4l-1.2,0.6
			c-0.3-0.4-1.1-1.1-1.7-1.6l0.8-0.4h-2.1c0.4,0.4,0.7,0.9,0.9,1.3l-1.2,0.5c-0.2-0.4-0.5-1-0.9-1.4l1-0.4h-5.4l1,0.3
			c-0.3,0.6-0.9,1.3-1.4,1.7h3.6V112l-1.1,0.3c-0.1-0.4-0.2-0.9-0.4-1.4l1.3-0.3c0.2,0.4,0.4,0.9,0.5,1.3L398,112h1.5v0.6h3.7v1.2
			h-3.7v0.6H404.5z M395.6,106.8h0.9c-0.1-0.4-0.3-1-0.5-1.4l0.8-0.3h-1.2V106.8z M398,106.8v-1.7h-1c0.3,0.4,0.5,1,0.5,1.4
			l-0.8,0.3H398z M400.4,106.8l-0.6-0.2c0.2-0.4,0.4-1,0.6-1.5h-1v1.7H400.4z M401.9,105.1h-1.2l0.9,0.3c-0.2,0.5-0.5,1-0.7,1.4h1
			V105.1z"/>
		<path fill="#5D5D5D" d="M416.2,114.6c0.1,0,0.1,0,0.2,0c0.1,0,0.1-0.1,0.1-0.3s0-0.5,0-1c0.3,0.2,0.8,0.5,1.2,0.6
			c0,0.5-0.1,1-0.2,1.2c-0.1,0.2-0.3,0.4-0.5,0.5c-0.2,0.1-0.5,0.1-0.7,0.1h-0.8c-0.3,0-0.7-0.1-0.9-0.3s-0.3-0.5-0.3-1.3v-1.7h-0.7
			c-0.2,1.7-0.7,2.8-3,3.4c-0.1-0.3-0.4-0.8-0.7-1.1c-1.3,0.3-2.7,0.5-3.7,0.8l-0.3-1.4c0.5-0.1,1.2-0.2,1.9-0.3v-3.3H406v-1.3h1.7
			v-0.9h-1.1v-0.4c-0.2,0.2-0.3,0.3-0.5,0.5c-0.1-0.3-0.4-1.2-0.6-1.6c1-0.7,2-1.8,2.5-3l1.1,0.5c-0.1,0.2-0.2,0.3-0.2,0.5
			c0.8,0.5,1.6,1,2.1,1.5l-0.4,0.7h1.6c-0.1-0.3-0.2-0.7-0.3-0.9l1-0.2h-2v-1.1h2.5c-0.1-0.2-0.2-0.4-0.3-0.6l1.3-0.3
			c0.2,0.3,0.3,0.6,0.5,0.9h2.5v1.1h-2.1l1.2,0.2c-0.2,0.3-0.3,0.7-0.5,0.9h1.6v1.2h-7v-1l-0.2,0.4l0,0v0.9H409v0.9h1.6v1.3H409v3.1
			l1.7-0.3l0.1,1c0.9-0.4,1.2-1,1.3-1.9h-1v-3.9h5.9v3.9h-1.3v1.8c0,0.2,0,0.3,0.1,0.3c0,0,0.1,0.1,0.2,0.1H416.2z M407,111
			c0.2,0.7,0.4,1.6,0.5,2.2l-1,0.3c0-0.6-0.2-1.5-0.4-2.2L407,111z M409.8,107c-0.4-0.4-1-0.8-1.6-1.2c-0.3,0.4-0.6,0.8-0.9,1.2
			H409.8z M409.1,112.9c0.2-0.6,0.4-1.5,0.4-2.1l1.1,0.3c-0.2,0.7-0.4,1.5-0.6,2.1L409.1,112.9z M412.4,110.1h3.3v-0.6h-3.3V110.1z
			 M412.4,111.5h3.3v-0.6h-3.3V111.5z M413.1,105.8c0.2,0.3,0.3,0.8,0.4,1.1h1.1c0.2-0.4,0.3-0.8,0.4-1.1H413.1z"/>
		<path fill="#5D5D5D" d="M424.5,114.3c0,0.7-0.1,1-0.6,1.2c-0.4,0.2-1,0.2-1.8,0.2c-0.1-0.4-0.3-0.9-0.5-1.3c0.5,0,1,0,1.1,0
			c0.2,0,0.2-0.1,0.2-0.2v-1.1h-2.2c-0.1,1-0.4,1.9-0.9,2.7c-0.2-0.2-0.8-0.7-1.1-0.9c0.8-1.1,0.9-2.8,0.9-4V108h4.9V114.3z
			 M430.3,105.8v1.4h-11.5v-1.4h2.7c-0.2-0.4-0.6-1-1-1.4l1.4-0.5c0.5,0.5,1,1.2,1.2,1.7l-0.7,0.2h3.5c0.4-0.6,0.8-1.3,1-1.9
			l1.6,0.5c-0.3,0.5-0.7,1-1,1.4H430.3z M423,112v-0.8h-2.1c0,0.3,0,0.5,0,0.8H423z M420.9,109.2v0.9h2.1v-0.9H420.9z M427,113.3
			h-1.4v-5.2h1.4V113.3z M428.1,107.8h1.5v6.3c0,0.8-0.1,1.1-0.7,1.4c-0.5,0.2-1.2,0.3-2.1,0.3c-0.1-0.4-0.3-1-0.5-1.4
			c0.7,0,1.3,0,1.5,0c0.2,0,0.3-0.1,0.3-0.2V107.8z"/>
		<path fill="#5D5D5D" d="M435.4,110.5c-0.4,0.1-0.8,0.2-1.2,0.4v3.3c0,0.7-0.1,1.1-0.5,1.3c-0.4,0.2-0.9,0.3-1.7,0.3
			c0-0.4-0.2-1-0.4-1.4c0.5,0,0.9,0,1.1,0s0.2-0.1,0.2-0.2v-2.9c-0.4,0.1-0.8,0.2-1.2,0.3l-0.3-1.5c0.4-0.1,1-0.2,1.5-0.4v-2.2h-1.3
			v-1.4h1.3v-2.4h1.4v2.4h1v1.4h-1v1.8l1-0.3L435.4,110.5z M439.7,113.3l0,1.2c-1.7,0.2-3.5,0.5-4.9,0.7l-0.2-1.3
			c0.6-0.1,1.3-0.1,2.1-0.2v-1.5h-1.5v-1.2h1.5v-1.5h1.3v1.5h1.5v1.2h-1.5v1.3L439.7,113.3z M436.8,106.6h-1.4v-1.2h1.4v-1.5h1.4
			v1.5h1.3v1.2h-1.3v1.3h1.5v1.2h-4.5v-1.2h1.6V106.6z M442.7,111.2c-0.3-0.4-0.9-1.1-1.4-1.7v6.2h-1.4v-11.9h1.4v4
			c0.6,0.4,1.9,1.7,2.3,2L442.7,111.2z"/>
		<path fill="#9E9E9E" d="M371.1,122.2v0.9h3.5v5.5c0,0.5-0.1,0.8-0.5,1c-0.3,0.2-0.9,0.2-1.6,0.2c-0.1-0.3-0.2-0.7-0.4-1
			c0.4,0,0.9,0,1.1,0c0.1,0,0.2,0,0.2-0.2v-0.7c-0.2,0.1-0.4,0.3-0.5,0.4c-0.3-0.4-0.5-0.8-0.6-1.2c-0.2,0.5-0.4,0.9-0.7,1.2
			c-0.1-0.1-0.4-0.3-0.6-0.4v1.9H370v-1.7c-0.1,0.1-0.3,0.2-0.4,0.3c-0.3-0.4-0.5-0.8-0.6-1.3c-0.2,0.5-0.4,1-0.7,1.3
			c-0.1-0.1-0.3-0.3-0.5-0.4v1.8h-1.1V123h3.4v-0.9h-3.7V121h8.7v1.2H371.1z M369.4,124.6c0,1,0.1,2,0.6,2.9v-3.4h-2.2v3.6
			c0.5-0.6,0.8-1.4,0.9-2.4h-0.5v-0.8H369.4z M371.1,124.1v3.6c0.5-0.6,0.8-1.4,0.9-2.4h-0.5v-0.8h1.3c0,1.1,0.1,2.2,0.7,3v-3.5
			H371.1z"/>
		<path fill="#9E9E9E" d="M377.7,126.9c-0.2,0.7-0.5,1.6-0.8,2.1c-0.2-0.1-0.7-0.3-0.9-0.4c0.3-0.5,0.6-1.3,0.7-1.9L377.7,126.9z
			 M379.2,126.5v3.2H378v-3.2h-1.9v-1h4.9v1H379.2z M378,122.2h-1.8v-1h1.8v-0.7h1.1v0.7h1.7v1h-1.7v0.5h1.5v1h-4.2v-1h1.5V122.2z
			 M380.6,124.2c0.5-1,0.8-2.3,1-3.7l1.1,0.2c-0.1,0.5-0.2,1.1-0.3,1.6h2l0.2,0l0.8,0.2c-0.2,1-0.5,2.1-0.7,2.8l-1-0.3
			c0.1-0.4,0.3-1,0.4-1.6h-1.9c-0.2,0.8-0.5,1.4-0.8,2c-0.2-0.1-0.5-0.4-0.7-0.6v0.4h-4v-1L380.6,124.2L380.6,124.2z M380.3,126.7
			c0.2,0.5,0.5,1.1,0.6,1.5l-0.9,0.4c-0.1-0.4-0.4-1.1-0.6-1.6L380.3,126.7z M383.4,124.4c0,0.3,0,0.6,0,0.9c0.3,1.5,1,2.7,2.1,3.3
			c-0.3,0.2-0.6,0.7-0.8,1c-0.8-0.5-1.3-1.3-1.7-2.3c-0.3,0.8-0.8,1.6-1.6,2.3c-0.2-0.3-0.6-0.6-0.9-0.8c1.6-1.4,1.8-3.3,1.8-4.5
			v-0.5h1.1V124.4z"/>
		<path fill="#9E9E9E" d="M389.4,125.7c-0.3,0.1-0.6,0.2-0.9,0.3v2.5c0,0.5-0.1,0.8-0.4,1c-0.3,0.2-0.7,0.2-1.4,0.2
			c0-0.3-0.2-0.8-0.3-1.1c0.4,0,0.7,0,0.8,0c0.1,0,0.2,0,0.2-0.2v-2.2l-0.9,0.3l-0.3-1.1c0.3-0.1,0.7-0.2,1.2-0.3v-1.7h-1v-1.1h1
			v-1.9h1.1v1.9h0.9v1.1h-0.9v1.4c0.3-0.1,0.5-0.1,0.8-0.2L389.4,125.7z M395.5,128.5H393v1.2h-1.1v-1.2h-2.5v-0.9h2.5v-0.4h-2.2
			v-0.9h1.1c-0.1-0.2-0.1-0.4-0.2-0.6l0.7-0.2h-1.8v-0.9h2.4v-0.4h-2v-0.8h2V123h-2.1v-2.2h5.5v2.2H393v0.4h2.1v0.8H393v0.4h2.4v0.9
			h-1.6l0.7,0.2l-0.3,0.6h0.9v0.9H393v0.4h2.5V128.5z M391.3,121.6h-0.6v0.7h0.6V121.6z M391.6,125.5c0.1,0.2,0.2,0.5,0.3,0.7h1.3
			c0.1-0.2,0.2-0.5,0.3-0.7H391.6z M392.2,122.2h0.6v-0.7h-0.6V122.2z M393.7,122.2h0.6v-0.7h-0.6V122.2z"/>
		<path fill="#9E9E9E" d="M405.7,124.3v1.3h-9.1v-1.3H405.7z"/>
	</g>
	<g>
		<path fill="#9E9E9E" d="M380.3,57.2c0-2.1,1.5-3.3,3-3.3c1.6,0,3,1.2,3,3.3c0,2.1-1.5,3.3-3,3.3C381.8,60.5,380.3,59.3,380.3,57.2
			z M384.7,57.2c0-1.2-0.5-2-1.3-2c-0.9,0-1.3,0.8-1.3,2c0,1.2,0.5,2,1.3,2C384.2,59.1,384.7,58.4,384.7,57.2z"/>
		<path fill="#9E9E9E" d="M387.8,54h1.4l0.1,1.1h0c0.5-0.8,1.1-1.3,1.8-1.3c0.4,0,0.6,0.1,0.7,0.1l-0.3,1.4
			c-0.2-0.1-0.4-0.1-0.7-0.1c-0.5,0-1.1,0.3-1.5,1.2v3.8h-1.7V54z"/>
	</g>
	<g id="XMLID_1_">
		<path id="XMLID_11_" fill="#8572B7" d="M381,38.2c-1,4.9-1.4,6-4.1,9.1s-13,1.9-13,1.9s-4.4-0.4-8-2.5c-3.6-2-3.8-12.1-3.8-12.1
			s-0.4-4.5,3.3-6s11.2-0.9,11.2-0.9c12.9,0.2,14,4.3,14,4.3S381.8,33.9,381,38.2z"/>
		<g>
			<defs>
				<path id="XMLID_10_" d="M380.4,31.8c0,0-1.1-4.2-14.2-4.4c0,0-7.6-0.6-11.3,0.9c-3.8,1.5-3.4,6.1-3.4,6.1s0.3,10.1,3.9,12.2
					c3.6,2.1,8.1,2.5,8.1,2.5s10.5,1.3,13.1-1.9c2.7-3.2,3.2-4.3,4.1-9.2C381.6,33.7,380.4,31.8,380.4,31.8z"/>
			</defs>
			<clipPath id="XMLID_13_">
				<use xlink:href="#XMLID_10_"  overflow="visible"/>
			</clipPath>
			<path clip-path="url(#XMLID_13_)" fill="#B9ACE5" d="M385.6,29.4c0,0-16.1,23.7-39.9,0l-0.3,20.1l18.9,7.1L387,44.1L385.6,29.4z"
				/>
		</g>
		<path id="XMLID_9_" fill="#8572B7" d="M391.5,31.8c0,0,1.1-4.2,14.2-4.4c0,0,7.6-0.6,11.3,0.9c3.8,1.5,3.4,6.1,3.4,6.1
			s-0.3,10.1-3.9,12.2s-8.1,2.5-8.1,2.5s-10.5,1.3-13.1-1.9c-2.7-3.2-3.2-4.3-4.1-9.2C390.3,33.7,391.5,31.8,391.5,31.8z"/>
		<g>
			<defs>
				<path id="XMLID_8_" d="M391.4,31.5c0,0,1.1-4.2,14.2-4.4c0,0,7.6-0.6,11.3,0.9c3.8,1.5,3.4,6.1,3.4,6.1s-0.3,10.1-3.9,12.2
					c-3.6,2.1-8.1,2.5-8.1,2.5s-10.5,1.3-13.1-1.9c-2.7-3.2-3.2-4.3-4.1-9.2C390.2,33.4,391.4,31.5,391.4,31.5z"/>
			</defs>
			<clipPath id="XMLID_14_">
				<use xlink:href="#XMLID_8_"  overflow="visible"/>
			</clipPath>
			<path clip-path="url(#XMLID_14_)" fill="#B9ACE5" d="M386.2,29.1c0,0,16.1,23.7,39.9,0l0.3,20.1l-18.9,7.1l-22.6-12.4L386.2,29.1
				z"/>
		</g>
		<path id="XMLID_4_" fill="#333333" d="M422.8,26.8c-2.2-0.2-9.9-1-12.5-0.9c-2.5,0.1-11.4,0.3-16.5,1.9c0,0-1.9,0.4-3.3,1.9
			c-1.4,1.4-4.7,1.5-4.7,1.5s-3.3-0.1-4.7-1.5c-1.4-1.4-3.3-1.9-3.3-1.9c-5.1-1.6-14-1.9-16.5-1.9c-2.5-0.1-10.3,0.8-12.5,0.9
			c-2.2,0.2-2.2,0.6-2.2,0.6l0.1,4.5c0,0,0.1,0.8,1,0.7s2.2,1.1,2.4,2.7c0.3,1.6,1.3,8.9,2.9,11.2c0,0,1.2,2,3.1,2.5
			c2.6,0.7,7.2,1.7,11.2,1.4c4-0.3,6.9-0.1,8.9-1.1c2.1-1.1,2.8-2.7,2.8-2.7s3.2-6.7,3.4-8.9s1.7-2.9,3.3-2.9c1.6,0,3.1,0.8,3.3,2.9
			s3.4,8.9,3.4,8.9s0.7,1.6,2.8,2.7c2,1,5,0.8,8.9,1.1c4,0.3,8.6-0.9,11.2-1.4c2.6-0.5,3.1-2.5,3.1-2.5c1.8-2.4,2.7-9.6,2.9-11.2
			c0.3-1.6,1.5-2.8,2.4-2.7s1-0.7,1-0.7l0.1-4.5C425,27.3,425,26.9,422.8,26.8z M380.7,38.1c-0.9,4.8-1.4,5.9-4,9
			c-2.6,3.1-12.9,1.9-12.9,1.9s-4.4-0.4-7.9-2.4c-3.5-2-3.8-12-3.8-12s-0.4-4.5,3.3-6s11.1-0.9,11.1-0.9c12.8,0.2,13.9,4.3,13.9,4.3
			S381.5,33.8,380.7,38.1z M420,34.5c0,0-0.3,9.9-3.8,12c-3.5,2-7.9,2.4-7.9,2.4s-10.3,1.3-12.9-1.9c-2.6-3.1-3.1-4.2-4-9
			c-0.8-4.3,0.3-6.1,0.3-6.1s1.1-4.1,13.9-4.3c0,0,7.4-0.6,11.1,0.9C420.5,30,420,34.5,420,34.5z"/>
		<line id="XMLID_3_" fill="none" stroke="#747475" stroke-miterlimit="10" x1="382.1" y1="31.6" x2="383.3" y2="34.6"/>
		<line id="XMLID_2_" fill="none" stroke="#747475" stroke-miterlimit="10" x1="390.1" y1="31.6" x2="388.9" y2="34.6"/>
	</g>
	<g>
		<g>
			<path fill="#B6CCCA" d="M237.2,65c0,9.6-9.6,19.7-19.1,19.7c-9.6,0-15.6-10.1-15.6-19.7s7-19.1,16.6-19.1S237.2,55.4,237.2,65z"
				/>
			<path fill="#E4F9F8" d="M235,65.2c0,9.6-7.3,19.4-16.9,19.4s-17.8-9.8-17.8-19.4s7-19.1,16.6-19.1C226.5,46,235,55.6,235,65.2z"
				/>
			<g opacity="0.47">
				<defs>
					<path id="SVGID_1_" opacity="0.47" d="M235,65.2c0,9.6-7.3,19.4-16.9,19.4s-17.8-9.8-17.8-19.4s7-19.1,16.6-19.1
						C226.5,46,235,55.6,235,65.2z"/>
				</defs>
				<clipPath id="SVGID_2_">
					<use xlink:href="#SVGID_1_"  overflow="visible"/>
				</clipPath>
				<path clip-path="url(#SVGID_2_)" fill="none" stroke="#B0A3EF" stroke-width="10" stroke-miterlimit="10" d="M216.2,43.2
					c0,0-12.5,13.8-11.8,52.6"/>
				<path clip-path="url(#SVGID_2_)" fill="none" stroke="#B0A3EF" stroke-width="10" stroke-miterlimit="10" d="M215.4,36.6
					c0,0-12.5,13.8-11.8,52.6"/>
			</g>
		</g>
		<g>
			<path fill="#B6CCCA" d="M279.7,65c0,9.6-9.6,19.7-19.1,19.7C251,84.7,245,74.6,245,65s7-19.1,16.6-19.1
				C271.2,45.9,279.7,55.4,279.7,65z"/>
			<path fill="#E4F9F8" d="M277.5,65.2c0,9.6-7.3,19.4-16.9,19.4c-9.6,0-17.8-9.8-17.8-19.4s7-19.1,16.6-19.1
				C269,46,277.5,55.6,277.5,65.2z"/>
			<g opacity="0.47">
				<defs>
					<path id="SVGID_3_" opacity="0.47" d="M277.5,65.2c0,9.6-7.3,19.4-16.9,19.4c-9.6,0-17.8-9.8-17.8-19.4s7-19.1,16.6-19.1
						C269,46,277.5,55.6,277.5,65.2z"/>
				</defs>
				<clipPath id="SVGID_4_">
					<use xlink:href="#SVGID_3_"  overflow="visible"/>
				</clipPath>
				<path clip-path="url(#SVGID_4_)" fill="none" stroke="#B0A3EF" stroke-width="10" stroke-miterlimit="10" d="M258.7,43.2
					c0,0-12.5,13.8-11.8,52.6"/>
				<path clip-path="url(#SVGID_4_)" fill="none" stroke="#B0A3EF" stroke-width="10" stroke-miterlimit="10" d="M257.9,36.6
					c0,0-12.5,13.8-11.8,52.6"/>
			</g>
		</g>
	</g>
	<g>
		<path id="XMLID_30_" fill="#352616" d="M380.8,76.2c-1,4.9-1.4,6-4.1,9.1s-13,1.9-13,1.9s-4.4-0.4-8-2.5s-3.8-12.1-3.8-12.1
			s-0.4-4.5,3.3-6c3.7-1.5,11.2-0.9,11.2-0.9c12.9,0.2,14,4.3,14,4.3S381.7,71.9,380.8,76.2z"/>
		<path id="XMLID_29_" fill="#352616" d="M391.7,70.3c0,0,1.1-4.2,14.2-4.4c0,0,7.6-0.6,11.3,0.9c3.8,1.5,3.4,6.1,3.4,6.1
			s-0.3,10.1-3.9,12.2c-3.6,2.1-8.1,2.5-8.1,2.5s-10.5,1.3-13.1-1.9c-2.7-3.2-3.2-4.3-4.1-9.2C390.5,72.2,391.7,70.3,391.7,70.3z"/>
		<g>
			<defs>
				<path id="XMLID_28_" d="M380.5,70.3c0,0-1.1-4.2-14.2-4.4c0,0-7.6-0.6-11.3,0.9c-3.8,1.5-3.4,6.1-3.4,6.1s0.3,10.1,3.9,12.2
					c3.6,2.1,8.1,2.5,8.1,2.5s10.5,1.3,13.1-1.9c2.7-3.2,3.2-4.3,4.1-9.2C381.7,72.2,380.5,70.3,380.5,70.3z"/>
			</defs>
			<clipPath id="XMLID_15_">
				<use xlink:href="#XMLID_28_"  overflow="visible"/>
			</clipPath>
			<path clip-path="url(#XMLID_15_)" fill="#5D5F60" d="M385.6,67.8c0,0-16.1,23.7-39.9,0l-0.3,20.1l18.9,7.1L387,82.5L385.6,67.8z"
				/>
		</g>
		<g>
			<defs>
				<path id="XMLID_27_" d="M391.5,70c0,0,1.1-4.2,14.2-4.4c0,0,7.6-0.6,11.3,0.9c3.8,1.5,3.4,6.1,3.4,6.1s-0.3,10.1-3.9,12.2
					c-3.6,2.1-8.1,2.5-8.1,2.5s-10.5,1.3-13.1-1.9s-3.2-4.3-4.1-9.2C390.3,71.9,391.5,70,391.5,70z"/>
			</defs>
			<clipPath id="XMLID_16_">
				<use xlink:href="#XMLID_27_"  overflow="visible"/>
			</clipPath>
			<path clip-path="url(#XMLID_16_)" fill="#5D5F60" d="M386.3,67.5c0,0,16.1,23.7,39.9,0l0.3,20.1l-18.9,7.1l-22.6-12.4L386.3,67.5
				z"/>
		</g>
		<g id="XMLID_20_">
			<path id="XMLID_23_" fill="#333333" d="M422.8,65.1c-2.2-0.2-9.9-1-12.5-0.9c-2.5,0.1-11.4,0.3-16.5,1.9c0,0-1.9,0.4-3.3,1.9
				s-4.7,1.5-4.7,1.5s-3.3-0.1-4.7-1.5s-3.3-1.9-3.3-1.9c-5.1-1.6-14-1.9-16.5-1.9c-2.5-0.1-10.3,0.8-12.5,0.9
				c-2.2,0.2-2.2,0.6-2.2,0.6l0.1,4.5c0,0,0.1,0.8,1,0.7c0.9-0.1,2.2,1.1,2.4,2.7c0.3,1.6,1.3,8.9,2.9,11.2c0,0,1.2,2,3.1,2.5
				c2.6,0.7,7.2,1.7,11.2,1.4c4-0.3,6.9-0.1,8.9-1.1c2.1-1.1,2.8-2.7,2.8-2.7s3.2-6.7,3.4-8.9s1.7-2.9,3.3-2.9
				c1.6,0,3.1,0.8,3.3,2.9s3.4,8.9,3.4,8.9s0.7,1.6,2.8,2.7c2,1,5,0.8,8.9,1.1c4,0.3,8.6-0.9,11.2-1.4c2.6-0.5,3.1-2.5,3.1-2.5
				c1.8-2.4,2.7-9.6,2.9-11.2c0.3-1.6,1.5-2.8,2.4-2.7c0.9,0.1,1-0.7,1-0.7l0.1-4.5C425,65.7,425,65.3,422.8,65.1z M380.7,76.5
				c-0.9,4.8-1.4,5.9-4,9c-2.6,3.1-12.9,1.9-12.9,1.9s-4.4-0.4-7.9-2.4c-3.5-2-3.8-12-3.8-12s-0.4-4.5,3.3-6
				c3.7-1.5,11.1-0.9,11.1-0.9c12.8,0.2,13.9,4.3,13.9,4.3S381.5,72.2,380.7,76.5z M420,72.9c0,0-0.3,9.9-3.8,12
				c-3.5,2-7.9,2.4-7.9,2.4s-10.3,1.3-12.9-1.9c-2.6-3.1-3.1-4.2-4-9c-0.8-4.3,0.3-6.1,0.3-6.1s1.1-4.1,13.9-4.3
				c0,0,7.4-0.6,11.1,0.9C420.5,68.4,420,72.9,420,72.9z"/>
			<line id="XMLID_22_" fill="none" stroke="#747475" stroke-miterlimit="10" x1="382.1" y1="69.9" x2="383.3" y2="73"/>
			<line id="XMLID_21_" fill="none" stroke="#747475" stroke-miterlimit="10" x1="390.1" y1="69.9" x2="388.9" y2="73"/>
		</g>
	</g>
</g>
<g>
	<path fill="#5D5D5D" d="M26.5,167.1l-1.9-3.6h1.6l0.7,1.5c0.2,0.3,0.3,0.7,0.5,1.2h0c0.2-0.5,0.3-0.8,0.5-1.2l0.7-1.5h1.5l-1.9,3.6
		l2.1,3.7h-1.6l-0.8-1.6c-0.2-0.4-0.4-0.8-0.6-1.2h0c-0.2,0.4-0.4,0.8-0.5,1.2l-0.8,1.6h-1.6L26.5,167.1z"/>
	<path fill="#5D5D5D" d="M31.6,168.8v-3.5h1.5v3.3c0,0.9,0.2,1.2,0.8,1.2c0.5,0,0.8-0.2,1.1-0.7v-3.7h1.5v5.6h-1.2l-0.1-0.8h0
		c-0.5,0.6-1,0.9-1.8,0.9C32.1,171,31.6,170.1,31.6,168.8z"/>
	<path fill="#5D5D5D" d="M38.2,169.3c0-1.2,1-1.8,3.2-2.1c0-0.5-0.3-1-0.9-1c-0.5,0-1,0.2-1.5,0.5l-0.5-1c0.7-0.4,1.4-0.7,2.3-0.7
		c1.4,0,2.1,0.8,2.1,2.5v3.2h-1.2l-0.1-0.6h0c-0.5,0.4-1,0.7-1.7,0.7C38.8,171,38.2,170.3,38.2,169.3z M41.4,169.3v-1.1
		c-1.3,0.2-1.8,0.5-1.8,1c0,0.4,0.3,0.6,0.7,0.6C40.7,169.8,41,169.6,41.4,169.3z"/>
	<path fill="#5D5D5D" d="M44.8,165.3H46l0.1,0.7h0c0.5-0.5,1.1-0.9,1.8-0.9c1.2,0,1.7,0.8,1.7,2.2v3.5h-1.5v-3.3
		c0-0.9-0.2-1.2-0.8-1.2c-0.5,0-0.7,0.2-1.2,0.6v3.8h-1.4V165.3z"/>
	<path fill="#5D5D5D" d="M60.4,171c-0.6-0.1-1.2-0.4-1.8-0.8c-0.6,0.5-1.3,0.8-2.3,0.8c-1.5,0-2.4-0.9-2.4-2.1c0-1,0.6-1.6,1.4-2.1
		c-0.3-0.6-0.5-1.1-0.5-1.6c0-1,0.7-1.9,1.9-1.9c1,0,1.7,0.6,1.7,1.6c0,1-0.8,1.6-1.6,2.1c0.4,0.5,1,1.1,1.6,1.5
		c0.4-0.5,0.7-1.1,0.9-1.9h1.3c-0.3,0.9-0.7,1.8-1.2,2.5c0.5,0.3,0.9,0.5,1.3,0.5L60.4,171z M56.5,169.9c0.4,0,0.7-0.1,1.1-0.4
		c-0.6-0.5-1.2-1.1-1.7-1.7c-0.4,0.3-0.6,0.6-0.6,1C55.3,169.4,55.8,169.9,56.5,169.9z M56.3,166.2c0.6-0.3,1-0.7,1-1.2
		c0-0.4-0.2-0.6-0.6-0.6c-0.4,0-0.7,0.3-0.7,0.9C56.1,165.5,56.2,165.9,56.3,166.2z"/>
	<path fill="#5D5D5D" d="M64.8,167.2c0-2.4,1.6-3.8,3.4-3.8c0.9,0,1.7,0.4,2.2,0.9l-0.8,0.9c-0.4-0.4-0.8-0.6-1.3-0.6
		c-1.1,0-1.9,1-1.9,2.5c0,1.6,0.8,2.6,1.9,2.6c0.6,0,1.1-0.3,1.5-0.7l0.8,0.9c-0.6,0.7-1.4,1.1-2.3,1.1
		C66.3,171,64.8,169.7,64.8,167.2z"/>
	<path fill="#5D5D5D" d="M71.7,169.3c0-1.2,1-1.8,3.2-2.1c0-0.5-0.3-1-0.9-1c-0.5,0-1,0.2-1.5,0.5l-0.5-1c0.7-0.4,1.4-0.7,2.3-0.7
		c1.4,0,2.1,0.8,2.1,2.5v3.2h-1.2l-0.1-0.6h0c-0.5,0.4-1,0.7-1.7,0.7C72.4,171,71.7,170.3,71.7,169.3z M74.9,169.3v-1.1
		c-1.3,0.2-1.8,0.5-1.8,1c0,0.4,0.3,0.6,0.7,0.6C74.3,169.8,74.6,169.6,74.9,169.3z"/>
	<path fill="#5D5D5D" d="M78.4,165.3h1.2l0.1,1h0c0.4-0.7,1-1.1,1.6-1.1c0.3,0,0.5,0,0.7,0.1l-0.3,1.3c-0.2-0.1-0.3-0.1-0.6-0.1
		c-0.4,0-1,0.3-1.3,1.1v3.3h-1.4V165.3z"/>
	<path fill="#5D5D5D" d="M82.8,168.1c0-1.8,1.1-2.9,2.3-2.9c0.6,0,1,0.2,1.4,0.6l-0.1-0.9v-2h1.5v7.9h-1.2l-0.1-0.6h0
		c-0.4,0.4-1,0.7-1.5,0.7C83.7,171,82.8,169.9,82.8,168.1z M86.4,169.2v-2.4c-0.3-0.3-0.7-0.4-1-0.4c-0.6,0-1.2,0.6-1.2,1.7
		c0,1.2,0.4,1.7,1.2,1.7C85.8,169.8,86.1,169.6,86.4,169.2z"/>
	<path fill="#5D5D5D" d="M89.8,163.6c0-0.5,0.4-0.8,0.9-0.8c0.5,0,0.9,0.3,0.9,0.8c0,0.5-0.4,0.8-0.9,0.8
		C90.2,164.4,89.8,164.1,89.8,163.6z M90,165.3h1.4v5.6H90V165.3z"/>
	<path fill="#5D5D5D" d="M93.5,165.3h1.2l0.1,0.7h0c0.5-0.5,1.1-0.9,1.8-0.9c1.2,0,1.7,0.8,1.7,2.2v3.5h-1.5v-3.3
		c0-0.9-0.2-1.2-0.8-1.2c-0.5,0-0.7,0.2-1.2,0.6v3.8h-1.4V165.3z"/>
	<path fill="#5D5D5D" d="M104.2,168.9c-0.2,0.7-0.5,1.6-0.8,2.1c-0.2-0.1-0.7-0.3-0.9-0.4c0.3-0.5,0.6-1.3,0.7-1.9L104.2,168.9z
		 M105.7,168.5v3.2h-1.1v-3.2h-1.9v-1h4.9v1H105.7z M104.5,164.2h-1.8v-1h1.8v-0.7h1.1v0.7h1.7v1h-1.7v0.5h1.5v1H103v-1h1.5V164.2z
		 M107.1,166.2c0.5-1,0.8-2.3,1-3.7l1.1,0.2c-0.1,0.5-0.2,1.1-0.3,1.6h2l0.2,0l0.8,0.2c-0.2,1-0.5,2.1-0.7,2.8l-1-0.3
		c0.1-0.4,0.3-1,0.4-1.6h-1.9c-0.2,0.8-0.5,1.4-0.8,2c-0.2-0.1-0.5-0.4-0.7-0.6v0.4h-4v-1L107.1,166.2L107.1,166.2z M106.8,168.7
		c0.2,0.5,0.5,1.1,0.6,1.5l-0.9,0.4c-0.1-0.4-0.4-1.1-0.6-1.6L106.8,168.7z M109.9,166.4c0,0.3,0,0.6,0,0.9c0.3,1.5,1,2.7,2.1,3.3
		c-0.3,0.2-0.6,0.7-0.8,1c-0.8-0.5-1.3-1.3-1.7-2.3c-0.3,0.8-0.8,1.6-1.6,2.3c-0.2-0.3-0.6-0.6-0.9-0.8c1.6-1.4,1.8-3.3,1.8-4.5
		v-0.5h1.1V166.4z"/>
	<path fill="#5D5D5D" d="M121.6,167.4c0,0,0,0.3,0,0.5c-0.1,2-0.3,2.9-0.6,3.2c-0.3,0.3-0.5,0.4-0.9,0.4c-0.3,0-0.9,0-1.5,0
		c0-0.4-0.2-0.8-0.4-1.2c0.6,0.1,1.1,0.1,1.4,0.1c0.2,0,0.3,0,0.4-0.1c0.2-0.2,0.3-0.7,0.4-1.9h-2.6c-0.4,1.4-1.4,2.6-4,3.2
		c-0.1-0.3-0.4-0.8-0.7-1.1c2-0.4,2.9-1.2,3.3-2.1h-2.9v-1.1h3.2c0-0.3,0.1-0.6,0.1-0.9h1.3c0,0.3-0.1,0.6-0.1,0.9H121.6z
		 M121.2,166.3h-7.1v-3.4h7.1V166.3z M120,164h-4.6v1.2h4.6V164z"/>
	<path fill="#5D5D5D" d="M127.7,168.9c-1.3,0.6-2.8,1.2-3.9,1.7l-0.4-1.3c0.4-0.1,0.8-0.3,1.3-0.5l-0.2-5.8l1.2,0l0.2,5.4
		c0.5-0.2,1-0.4,1.5-0.6L127.7,168.9z M131.8,171.7c-0.4-0.6-1.1-1.6-1.9-2.4c-0.7,1-1.7,1.8-3,2.4c-0.2-0.3-0.7-0.8-0.9-1
		c3.1-1.2,4.2-3.6,4.5-7.7l1.3,0.1c-0.2,2-0.6,3.7-1.2,5c0.8,0.9,1.7,1.9,2.2,2.5L131.8,171.7z M128.1,166.6
		c-0.2-0.7-0.9-1.7-1.5-2.5l1.1-0.5c0.6,0.7,1.3,1.7,1.6,2.4L128.1,166.6z"/>
	<path fill="#5D5D5D" d="M136.8,169c0-0.9,0.6-1.5,1.3-1.9v0c-0.6-0.4-1-1-1-1.7c0-1.2,0.9-1.9,2.2-1.9c1.3,0,2.1,0.8,2.1,2
		c0,0.7-0.5,1.3-0.9,1.7v0c0.7,0.4,1.2,1,1.2,2c0,1.1-1,2-2.5,2C137.8,171,136.8,170.2,136.8,169z M140.3,169c0-0.8-0.7-1.1-1.6-1.5
		c-0.4,0.3-0.7,0.8-0.7,1.4c0,0.7,0.5,1.1,1.2,1.1C139.9,169.9,140.3,169.6,140.3,169z M140.2,165.4c0-0.6-0.4-1-1-1
		c-0.5,0-0.9,0.3-0.9,0.9c0,0.7,0.6,1,1.3,1.3C140,166.3,140.2,165.9,140.2,165.4z"/>
	<path fill="#5D5D5D" d="M142.9,170l0.7-0.9c0.4,0.4,0.9,0.7,1.6,0.7c0.8,0,1.3-0.5,1.3-1.3c0-0.9-0.5-1.3-1.2-1.3
		c-0.4,0-0.7,0.1-1.1,0.4l-0.7-0.4l0.2-3.6h3.9v1.2h-2.7l-0.1,1.6c0.3-0.1,0.5-0.2,0.9-0.2c1.2,0,2.3,0.7,2.3,2.3
		c0,1.6-1.2,2.6-2.6,2.6C144.2,171,143.4,170.5,142.9,170z"/>
	<path fill="#5D5D5D" d="M155.8,167.7c-0.4,0.1-0.9,0.2-1.3,0.4v2.4c0,0.6-0.1,0.9-0.4,1c-0.3,0.2-0.8,0.2-1.5,0.2
		c0-0.3-0.2-0.8-0.3-1.1c0.4,0,0.8,0,0.9,0c0.1,0,0.2,0,0.2-0.2v-2.1c-0.4,0.1-0.8,0.2-1.1,0.3l-0.3-1.1c0.4-0.1,0.9-0.2,1.4-0.3
		v-1.8h-1.2v-1.1h1.2v-1.9h1.2v1.9h1.2v1.1h-1.2v1.5c0.4-0.1,0.8-0.2,1.1-0.3L155.8,167.7z M161.3,166.9h-1.4v4.8h-1.2v-4.8h-1.4
		c0,1.7-0.3,3.4-1.2,4.9c-0.2-0.3-0.6-0.6-1-0.8c0.9-1.5,1-3.2,1-4.6v-3c1.4-0.2,3.1-0.5,4.1-0.9l0.7,1c-1,0.3-2.4,0.6-3.6,0.7v1.5
		h4V166.9z"/>
	<path fill="#5D5D5D" d="M165.3,162.8c-0.2,0.6-0.4,1.2-0.7,1.8v7.1h-1.1v-5c-0.2,0.3-0.4,0.6-0.6,0.8c-0.1-0.3-0.4-1-0.6-1.3
		c0.8-0.9,1.5-2.4,1.9-3.8L165.3,162.8z M171.7,167.9h-0.9c0.2,0.2,0.3,0.4,0.4,0.5l-0.6,0.4c-0.1-0.2-0.3-0.5-0.5-0.7
		c-0.1,0.4-0.3,0.5-0.9,0.5h-0.9c-0.1,0.1-0.2,0.2-0.3,0.3h2l0.2,0l0.7,0.4c-0.3,0.5-0.8,0.9-1.4,1.2c0.7,0.1,1.4,0.2,2.1,0.3
		c-0.2,0.2-0.4,0.6-0.6,0.9c-1-0.1-2-0.3-2.8-0.6c-0.8,0.3-1.8,0.5-2.9,0.6c-0.1-0.3-0.4-0.6-0.6-0.9c0.8-0.1,1.6-0.2,2.2-0.3
		c-0.2-0.1-0.4-0.2-0.6-0.4c-0.3,0.1-0.5,0.3-0.8,0.4c-0.1-0.2-0.4-0.5-0.6-0.7c0.3-0.1,0.6-0.2,0.8-0.4c-0.1-0.1-0.2-0.3-0.3-0.4
		l0.9-0.3c0.1,0.1,0.1,0.2,0.2,0.3c0.3-0.2,0.5-0.4,0.7-0.6c-0.2-0.1-0.3-0.3-0.3-0.5c-0.2,0.3-0.5,0.6-0.8,0.8l-0.6-0.5
		c0.2-0.1,0.3-0.2,0.5-0.4h-0.9v-1.4h0.9V164h1.6c0-0.1,0-0.2,0.1-0.3h-2.3v-0.8h6.1v0.8h-2.6l-0.1,0.3h2.1v2.5h0.8V167.9z
		 M170.2,167.3c0.1,0.1,0.3,0.3,0.5,0.4v-0.6h-1.9c0.2,0.2,0.4,0.3,0.5,0.5l-0.7,0.4c-0.2-0.2-0.5-0.5-0.8-0.7l0.3-0.2h-2.1v0.7
		c0.2-0.2,0.3-0.3,0.4-0.5l0.5,0.2v-0.2h0.9v0.4c0,0.2,0.1,0.2,0.3,0.2h0.9c0.2,0,0.2,0,0.3-0.3c0.1,0.1,0.3,0.1,0.5,0.2
		c-0.1-0.1-0.1-0.1-0.2-0.2L170.2,167.3z M167,164.6v0.3h2.7v-0.3H167z M169.8,165.4H167v0.3h2.7V165.4z M167,166.5h2.7v-0.3H167
		V166.5z M168.3,170.2c0.4-0.1,0.7-0.3,1-0.5l-2,0C167.6,169.9,167.9,170,168.3,170.2z"/>
	<path fill="#5D5D5D" d="M172.9,170.8c0.4-0.5,0.7-1.2,0.9-1.8l1,0.4c-0.2,0.6-0.5,1.4-0.9,1.9L172.9,170.8z M176.8,163.8h-3.6v-0.9
		h3.6v-0.5h1.2v0.5h3.7v0.9H178v0.4h3v2.9h-1c0.7,0.4,1.3,0.9,1.7,1.2l-0.8,0.6c-0.1-0.1-0.3-0.3-0.5-0.4c-0.9,0-1.9,0-2.8,0.1
		c0.5,0.3,0.9,0.7,1.2,1l-0.8,0.7c-0.3-0.4-0.9-0.9-1.5-1.2l0.5-0.4c-1.4,0-2.8,0-3.8,0l0-1c1,0,2.2,0,3.6,0v-0.6h-3v-2.9h3V163.8z
		 M174.9,165.4h1.9V165h-1.9V165.4z M176.8,166.5v-0.5h-1.9v0.5H176.8z M178.7,170.6c0.4,0,0.5-0.1,0.6-0.9c0.2,0.1,0.7,0.3,1,0.4
		c-0.1,1.2-0.5,1.4-1.5,1.4h-1.9c-1.4,0-1.7-0.3-1.7-1.2v-1.1h1.2v1.1c0,0.3,0.1,0.3,0.7,0.3H178.7z M178,165v0.5h1.9V165H178z
		 M178,166.5h1.9v-0.5H178V166.5z M179.3,167.8c-0.2-0.1-0.3-0.2-0.5-0.2l0.4-0.3H178v0.6L179.3,167.8z M180.9,169.1
		c0.5,0.6,0.9,1.4,1,1.9l-1.1,0.3c-0.1-0.5-0.5-1.3-1-2L180.9,169.1z"/>
	<path fill="#5D5D5D" d="M185.5,168v2.3c0,0.5-0.1,0.8-0.4,1c-0.3,0.2-0.7,0.2-1.4,0.2c0-0.3-0.2-0.8-0.3-1.1c0.4,0,0.7,0,0.8,0
		c0.1,0,0.2,0,0.2-0.2v-2c-0.3,0.1-0.6,0.2-0.9,0.3l-0.3-1.1c0.3-0.1,0.7-0.2,1.2-0.3v-1.8h-1.1v-1.1h1.1v-1.9h1.1v1.9h1v1.1h-1v1.5
		l0.9-0.2l0.2,1.1L185.5,168z M190,170.5c0.2,0,0.4,0,0.7,0c0.3,0,1.6,0,2,0c-0.1,0.2-0.3,0.7-0.3,1h-1.7c-1.3,0-2.3-0.2-3-1.4
		c-0.3,0.6-0.6,1.2-1,1.6c-0.2-0.2-0.6-0.6-0.9-0.7c0.8-0.7,1.2-1.8,1.4-3.1l1.1,0.1c0,0.4-0.1,0.7-0.2,1c0.2,0.6,0.5,0.9,0.9,1.2
		v-2.6h-2.3v-1h5.9v1H190v0.9h1.9v0.9H190V170.5z M191.9,166.2H187v-3.4h4.9V166.2z M190.8,163.6h-2.7v0.5h2.7V163.6z M190.8,164.8
		h-2.7v0.5h2.7V164.8z"/>
	<path fill="#5D5D5D" d="M196.9,162.8c-0.3,0.7-0.6,1.4-0.9,2.1v6.8h-1.2v-5c-0.2,0.3-0.4,0.5-0.6,0.7c-0.1-0.3-0.4-0.9-0.6-1.2
		c0.9-0.9,1.8-2.3,2.3-3.7L196.9,162.8z M199.2,169.4c-0.5,0.9-1.3,1.7-2,2.3c-0.2-0.2-0.7-0.6-0.9-0.7c0.7-0.5,1.4-1.2,1.8-1.9
		L199.2,169.4z M203,167.5v1.2h-6.4v-1.2h1.3v-2h-1.1v-1.1h1.1v-1.9h1.2v1.9h1.4v-1.9h1.2v1.9h1.3v1.1h-1.3v2H203z M199,167.5h1.4
		v-2H199V167.5z M201.2,169c0.6,0.6,1.3,1.5,1.7,2l-1,0.6c-0.3-0.6-1-1.5-1.6-2.1L201.2,169z"/>
	<path fill="#5D5D5D" d="M205.9,164.5c-0.4,0.4-0.8,0.8-1.2,1.1c-0.1-0.2-0.5-0.7-0.7-1c0.8-0.6,1.6-1.4,2.1-2.4l1,0.3
		c-0.1,0.3-0.3,0.5-0.5,0.8h6.2v1H205.9z M204.3,171.3c0.4-0.5,0.8-1.3,1.1-1.9l1.1,0.3c-0.3,0.7-0.7,1.6-1.1,2.1L204.3,171.3z
		 M212,166.8v1.3h1.2v1.1h-8.8v-1.1h1.4v-1.3h-1.1v-1.1h1.1v-0.9h1.1v0.9h0.7v-0.9h1v0.9h0.8v-0.9h1v0.9h0.7v-0.9h1.1v0.9h1v1.1H212
		z M206.8,168.1h0.7v-1.3h-0.7V168.1z M208.2,169.6c0.1,0.6,0.2,1.4,0.2,1.9l-1.2,0.2c0-0.5-0.1-1.3-0.2-1.9L208.2,169.6z
		 M208.4,166.8v1.3h0.8v-1.3H208.4z M210.2,169.5c0.2,0.6,0.5,1.3,0.6,1.8l-1.2,0.2c-0.1-0.5-0.3-1.3-0.5-1.9L210.2,169.5z
		 M210.9,166.8h-0.7v1.3h0.7V166.8z M212.2,169.3c0.4,0.6,0.9,1.4,1.2,2l-1.2,0.5c-0.2-0.5-0.7-1.4-1.1-2L212.2,169.3z"/>
	<path fill="#5D5D5D" d="M223.8,170.4v1h-9.3v-1h1.2v-1.9h7v1.9H223.8z M216.6,163.9h-1.9v-0.9h1.9v-0.5h1.2v0.5h1.2v0.9h-1.2v0.4
		h-1.2V163.9z M223.6,166.1h-2.8c-0.3,0.5-0.6,1-1,1.4c-0.1-0.2-0.4-0.6-0.6-0.8v0.5h-1v0.4h1.3v0.7h-4.2v-3.8h4.2v0.7h-1.3v0.4h1v1
		c0.5-0.6,0.9-1.4,1.2-2.2l1,0.3c0,0.2-0.1,0.4-0.2,0.5h2.4L223.6,166.1z M216.2,165.2v0.4h1v-0.4H216.2z M218.2,166.1h-2v0.4h2
		V166.1z M217.1,167.2h-1v0.4h1V167.2z M216.8,170.4h0.9v-1h-0.9V170.4z M218.7,169.4v1h1v-1H218.7z M220.7,163.9h-1.3v-0.9h1.3
		v-0.5h1.1v0.5h1.8v0.9h-1.8v0.4h-1.1V163.9z M220.2,168.1v-1h3.1v1H220.2z M220.7,169.4v1h0.9v-1H220.7z"/>
	<path fill="#5D5D5D" d="M232.8,170.4c0.3,0,0.3-0.1,0.4-0.9c0.2,0.2,0.8,0.4,1.1,0.5c-0.1,1.2-0.5,1.6-1.3,1.6h-1.2
		c-1.1,0-1.4-0.4-1.4-1.5v-2.9h-1.3c-0.2,2.1-0.7,3.7-3.2,4.6c-0.1-0.3-0.5-0.8-0.7-1c2.2-0.7,2.5-2,2.7-3.6h-2.4V166h3.7v-3.6h1.2
		v3.6h3.8v1.2h-2.6v2.8c0,0.4,0,0.4,0.4,0.4H232.8z M227.3,165.6c-0.3-0.6-0.9-1.4-1.4-2.1l0.9-0.5c0.5,0.6,1.2,1.5,1.5,2
		L227.3,165.6z M233.6,163.5c-0.5,0.8-1.1,1.6-1.6,2.1l-1-0.4c0.5-0.6,1.1-1.5,1.4-2.1L233.6,163.5z"/>
	<path fill="#5D5D5D" d="M243.6,170.8c0.1,0,0.1,0,0.1,0c0,0,0.1-0.1,0.1-0.2c0-0.1,0-0.4,0-0.8c0.2,0.2,0.6,0.4,0.9,0.5
		c0,0.4-0.1,0.8-0.1,0.9c-0.1,0.2-0.2,0.3-0.4,0.4c-0.1,0.1-0.4,0.1-0.6,0.1h-0.6c-0.2,0-0.5-0.1-0.7-0.2s-0.3-0.4-0.3-1v-1.3h-0.6
		c-0.1,1.3-0.6,2.2-2.4,2.6c-0.1-0.2-0.3-0.6-0.5-0.8c-1,0.2-2.1,0.4-2.9,0.6l-0.2-1.1c0.4-0.1,0.9-0.1,1.5-0.2v-2.6h-1.3v-1h1.3
		v-0.7h-0.9v-0.3c-0.1,0.1-0.3,0.2-0.4,0.4c-0.1-0.3-0.3-0.9-0.4-1.2c0.8-0.5,1.5-1.4,2-2.3l0.9,0.4c-0.1,0.1-0.1,0.2-0.2,0.4
		c0.6,0.4,1.3,0.8,1.6,1.2l-0.3,0.5h1.2c-0.1-0.2-0.1-0.5-0.2-0.7l0.8-0.2h-1.6v-0.9h1.9c-0.1-0.2-0.1-0.3-0.2-0.4l1-0.2
		c0.1,0.2,0.3,0.5,0.4,0.7h1.9v0.9h-1.6l0.9,0.2c-0.1,0.3-0.3,0.5-0.4,0.7h1.2v0.9h-5.5v-0.8l-0.2,0.3l0,0v0.7h-1v0.7h1.2v1H238v2.4
		l1.3-0.2l0.1,0.8c0.7-0.3,0.9-0.8,1-1.5h-0.8v-3h4.6v3h-1v1.4c0,0.1,0,0.2,0,0.2c0,0,0.1,0,0.1,0H243.6z M236.5,168
		c0.2,0.5,0.3,1.2,0.4,1.7l-0.8,0.2c0-0.5-0.2-1.2-0.3-1.7L236.5,168z M238.6,164.9c-0.3-0.3-0.8-0.6-1.2-0.9
		c-0.2,0.3-0.4,0.6-0.7,0.9H238.6z M238.1,169.5c0.1-0.4,0.3-1.1,0.3-1.6l0.9,0.2c-0.2,0.6-0.3,1.2-0.5,1.6L238.1,169.5z
		 M240.6,167.3h2.5v-0.4h-2.5V167.3z M240.6,168.4h2.5v-0.4h-2.5V168.4z M241.1,163.9c0.1,0.3,0.3,0.6,0.3,0.9h0.9
		c0.1-0.3,0.2-0.6,0.3-0.9H241.1z"/>
	<path fill="#5D5D5D" d="M253.3,167.2v4.5h-1.2v-3.4h-3.7c-0.2,1.2-0.6,2.4-1.5,3.4c-0.2-0.3-0.6-0.7-0.9-0.9
		c1.2-1.3,1.4-3.2,1.4-4.9v-3.4h1.2v2.1h3.2v-2.2h1.2v3.4h-4.4v0.1c0,0.4,0,0.8,0,1.2H253.3z"/>
	<path fill="#5D5D5D" d="M257.9,166.4c0,0.2,0,0.5,0,0.8h2v4.5h-1.1v-3.4h-0.9c-0.1,1.3-0.3,2.6-0.8,3.5c-0.2-0.2-0.6-0.6-0.8-0.7
		c0.6-1.2,0.6-3.2,0.6-4.6v-3.9h1v2.8h1v-2.6h1.1v3.7L257.9,166.4L257.9,166.4z M265.3,165.6c-0.2,1.5-0.6,2.8-1.2,3.8
		c0.4,0.5,1,0.9,1.6,1.2c-0.3,0.2-0.6,0.7-0.8,1c-0.6-0.3-1-0.7-1.4-1.2c-0.4,0.5-0.9,1-1.5,1.3c-0.1-0.3-0.4-0.6-0.6-0.9
		c-0.1,0.3-0.2,0.6-0.4,0.9c-0.2-0.2-0.6-0.5-0.9-0.6c0.7-1.3,0.8-3.3,0.8-4.6V163h4.5v1.1h-3.4v1.3h2.6l0.2,0L265.3,165.6z
		 M262.6,169.4c-0.4-0.7-0.7-1.4-0.9-2.2c0,1.1-0.1,2.4-0.5,3.4C261.8,170.4,262.2,169.9,262.6,169.4z M262.5,166.5
		c0.2,0.7,0.4,1.3,0.8,1.9c0.3-0.6,0.5-1.2,0.7-1.9H262.5z"/>
	<path fill="#5D5D5D" d="M273.1,165.6c0.6,1.4,1.6,2.8,2.8,3.6c-0.3,0.2-0.7,0.7-0.9,1c-0.4-0.3-0.7-0.6-1.1-1v0.9h-2v1.7h-1.2V170
		h-2.1v-0.9c-0.3,0.4-0.7,0.8-1.1,1.1c-0.2-0.3-0.6-0.7-0.9-1c1.2-0.8,2.2-2.2,2.8-3.7h-2.4v-1.2h3.7v-1.9h1.2v1.9h3.7v1.2H273.1z
		 M270.7,168.8v-3.3h-0.1c-0.4,1.2-1,2.3-1.8,3.3H270.7z M273.7,168.8c-0.7-0.9-1.3-2.1-1.7-3.3h0v3.3H273.7z"/>
</g>
<g>
	<path fill="#5D5D5D" d="M32.4,187.2c0.3,0,0.4-0.2,0.4-1.2c0.2,0.2,0.7,0.4,1.1,0.4c-0.1,1.4-0.4,1.8-1.4,1.8h-1.2
		c-1.2,0-1.4-0.4-1.4-1.4V185h-1.3c-0.1,1.9-0.6,3-3.2,3.5c-0.1-0.3-0.4-0.8-0.6-1c2.2-0.4,2.5-1,2.6-2.5h-2.5v-1.1h8.8v1.1H31v1.9
		c0,0.3,0.1,0.4,0.4,0.4H32.4z M26.2,182.7H25v-2.5h3.6c-0.1-0.3-0.2-0.5-0.3-0.8l1.2-0.4c0.2,0.3,0.4,0.8,0.5,1.1h3.4v2.5h-1.2
		v-1.3h-6V182.7z M26.6,183.1v-1.1h5.1v1.1H26.6z"/>
	<path fill="#5D5D5D" d="M43.5,181.1c-0.2,0.6-0.5,1.2-0.8,1.6c0.4,0.3,1,0.6,1.7,0.8c-0.2,0.2-0.5,0.6-0.6,0.9
		c-0.7-0.2-1.2-0.6-1.7-1c-0.5,0.4-1.1,0.7-1.8,0.9c-0.1-0.2-0.4-0.6-0.7-0.8c0.7-0.2,1.2-0.4,1.7-0.8c-0.2-0.3-0.4-0.6-0.6-0.9
		c-0.1,0.2-0.3,0.3-0.4,0.5c-0.1-0.2-0.4-0.5-0.6-0.7v1h-0.9c0.3,0.2,0.7,0.4,0.9,0.6l-0.5,0.7c-0.2-0.2-0.7-0.5-1.1-0.8v1h-1v-0.8
		c-0.4,0.4-0.9,0.8-1.3,1c-0.1-0.2-0.4-0.6-0.7-0.7c0.6-0.2,1.2-0.6,1.6-1h-1.2v-1.9H37v-0.3h-1.8v-0.8H37v-0.5h1v0.5h1.7v0.8h-1.7
		v0.3h1.6v0.6c0.6-0.5,1-1.3,1.2-2.2l1.1,0.2c-0.1,0.3-0.2,0.5-0.3,0.8h2.5v0.9H43.5z M40.2,187.2h4v1h-9v-1h1.5v-1.5h1.1v1.5H39
		v-1.9h-3.3v-1h7.8v1h-3.4v0.5h2.6v0.9h-2.6V187.2z M36.4,182H37v-0.5h-0.7V182z M38.1,181.5v0.5h0.6v-0.5H38.1z M38.3,182.7h-0.3
		v0.3L38.3,182.7z M41.3,181.1c0.2,0.3,0.4,0.6,0.6,0.9c0.2-0.3,0.3-0.6,0.5-0.9H41.3z"/>
	<path fill="#5D5D5D" d="M54.1,182.1c-0.3,1.5-0.6,2.7-1.2,3.7c0.5,0.7,1.2,1.2,1.9,1.6c-0.3,0.2-0.6,0.7-0.8,1
		c-0.7-0.4-1.3-0.9-1.8-1.6c-0.5,0.7-1.2,1.2-2,1.6c-0.1-0.2-0.5-0.7-0.8-1c0.9-0.4,1.5-1,2.1-1.7c-0.4-0.6-0.7-1.4-0.9-2.2
		c-0.2,0.3-0.3,0.5-0.5,0.7c-0.1-0.2-0.5-0.7-0.7-0.9v5h-1.2v-2.6c-1.6,0.6-1.9,0.7-2.1,0.9c-0.1-0.3-0.3-0.8-0.5-1.1
		c0.2-0.1,0.4-0.3,0.4-0.7v-4.8h1.2v4.8l1.1-0.3v-5.4h1.2v3.9c0.8-1,1.2-2.5,1.5-4.1l1.2,0.2c-0.1,0.6-0.2,1.1-0.3,1.6h3v1.1H54.1z
		 M51.3,182.1c0,0.1-0.1,0.2-0.1,0.3c0.2,0.9,0.5,1.7,0.9,2.4c0.4-0.8,0.6-1.6,0.8-2.6H51.3z"/>
	<path fill="#5D5D5D" d="M64.7,183.1c-0.3,1.3-0.7,2.4-1.2,3.3c0.2,0.7,0.4,1,0.6,1c0.2,0,0.3-0.3,0.3-1.2c0.2,0.2,0.5,0.4,0.8,0.5
		c-0.1,1.5-0.4,1.8-1.2,1.8c-0.5,0-0.9-0.4-1.2-1c-0.3,0.4-0.7,0.8-1.1,1.1c-0.2-0.2-0.6-0.6-0.9-0.7c0.2-0.1,0.3-0.2,0.5-0.4h-1.7
		v0h-0.8V183h2.9v0.7h-0.7v0.5h0.8v2h-0.8v0.5h0.8v0.3c0.2-0.2,0.4-0.5,0.6-0.7c-0.2-1-0.4-2.2-0.5-3.6h-3.3v2
		c0,1.2-0.1,2.9-0.6,3.9c-0.2-0.1-0.6-0.4-0.9-0.5c0.4-0.7,0.5-1.5,0.5-2.3h-0.5v0.3c0,0.7-0.1,1.8-0.7,2.5
		c-0.1-0.1-0.5-0.4-0.7-0.5c0.5-0.6,0.6-1.5,0.6-2.1v-0.2h-0.5v-1h1.8v-0.2v-0.4h-1.4v-2.5h0.9v1.5h0.5v-1.6h4.3l0-0.6h0v-0.3h-1.3
		v-1h1.3v-0.6h1.2v0.6h1.8v1h-0.8c0.3,0.2,0.6,0.4,0.7,0.6l-0.3,0.2H65v1h-2c0,0.8,0.1,1.5,0.2,2.2c0.2-0.6,0.4-1.2,0.5-1.8
		L64.7,183.1z M57.9,180.7h-1.8v-1h1.8v-0.6h1.2v0.6h1.2v1h-1.2v0.5h-1.2V180.7z M59.8,183.7v0.5h0.5v-0.5H59.8z M59.8,184.9v0.6H61
		v-0.6H59.8z M59.8,186.7h0.5v-0.5h-0.5V186.7z M62.9,181.6h0.9c-0.2-0.1-0.3-0.3-0.5-0.4l0.6-0.4h-0.8v0.4h-0.2V181.6z"/>
	<path fill="#5D5D5D" d="M71.4,180.9v0.9h3.5v5.5c0,0.5-0.1,0.8-0.5,1c-0.3,0.2-0.9,0.2-1.6,0.2c-0.1-0.3-0.2-0.7-0.4-1
		c0.4,0,0.9,0,1.1,0c0.1,0,0.2,0,0.2-0.2v-0.7c-0.2,0.1-0.4,0.3-0.5,0.4c-0.3-0.4-0.5-0.8-0.6-1.2c-0.2,0.5-0.4,0.9-0.7,1.2
		c-0.1-0.1-0.4-0.3-0.6-0.4v1.9h-1.1v-1.7c-0.1,0.1-0.3,0.2-0.4,0.3c-0.3-0.4-0.5-0.8-0.6-1.3c-0.2,0.5-0.4,1-0.7,1.3
		c-0.1-0.1-0.3-0.3-0.5-0.4v1.8h-1.1v-6.7h3.4v-0.9h-3.7v-1.2h8.7v1.2H71.4z M69.7,183.3c0,1,0.1,2,0.6,2.9v-3.4H68v3.6
		c0.5-0.6,0.8-1.4,0.9-2.4h-0.5v-0.8H69.7z M71.4,182.9v3.6c0.5-0.6,0.8-1.4,0.9-2.4h-0.5v-0.8h1.3c0,1.1,0.1,2.2,0.7,3v-3.5H71.4z"
		/>
	<path fill="#5D5D5D" d="M78.3,185.7c-0.2,0.7-0.5,1.6-0.8,2.1c-0.2-0.1-0.7-0.3-0.9-0.4c0.3-0.5,0.6-1.3,0.7-1.9L78.3,185.7z
		 M79.7,185.3v3.2h-1.1v-3.2h-1.9v-1h4.9v1H79.7z M78.6,180.9h-1.8v-1h1.8v-0.7h1.1v0.7h1.7v1h-1.7v0.5h1.5v1h-4.2v-1h1.5V180.9z
		 M81.2,182.9c0.5-1,0.8-2.3,1-3.7l1.1,0.2c-0.1,0.5-0.2,1.1-0.3,1.6h2l0.2,0l0.8,0.2c-0.2,1-0.5,2.1-0.7,2.8l-1-0.3
		c0.1-0.4,0.3-1,0.4-1.6h-1.9c-0.2,0.8-0.5,1.4-0.8,2c-0.2-0.1-0.5-0.4-0.7-0.6v0.4h-4v-1L81.2,182.9L81.2,182.9z M80.9,185.4
		c0.2,0.5,0.5,1.1,0.6,1.5l-0.9,0.4c-0.1-0.4-0.4-1.1-0.6-1.6L80.9,185.4z M84,183.2c0,0.3,0,0.6,0,0.9c0.3,1.5,1,2.7,2.1,3.3
		c-0.3,0.2-0.6,0.7-0.8,1c-0.8-0.5-1.3-1.3-1.7-2.3c-0.3,0.8-0.8,1.6-1.6,2.3c-0.2-0.3-0.6-0.6-0.9-0.8c1.6-1.4,1.8-3.3,1.8-4.5
		v-0.5H84V183.2z"/>
	<path fill="#5D5D5D" d="M91.7,187.3c0,0.5-0.1,0.8-0.4,1c-0.3,0.2-0.8,0.2-1.4,0.2c-0.1-0.3-0.2-0.7-0.4-1c0.4,0,0.8,0,0.9,0
		c0.1,0,0.2,0,0.2-0.2v-0.9h-1.7c-0.1,0.8-0.3,1.5-0.7,2.1c-0.2-0.2-0.6-0.5-0.9-0.7c0.6-0.9,0.7-2.1,0.7-3.1v-2.3h3.8V187.3z
		 M96.2,180.7v1.1h-9v-1.1h2.1c-0.2-0.3-0.5-0.8-0.7-1.1l1.1-0.4c0.4,0.4,0.8,0.9,0.9,1.3l-0.5,0.2h2.8c0.3-0.5,0.6-1,0.8-1.5
		l1.3,0.4c-0.2,0.4-0.5,0.8-0.8,1.1H96.2z M90.6,185.5v-0.6h-1.6c0,0.2,0,0.4,0,0.6H90.6z M88.9,183.3v0.7h1.6v-0.7H88.9z
		 M93.6,186.5h-1.1v-4h1.1V186.5z M94.5,182.2h1.2v4.9c0,0.6-0.1,0.9-0.5,1.1c-0.4,0.2-0.9,0.2-1.6,0.2c-0.1-0.3-0.2-0.8-0.4-1.1
		c0.5,0,1,0,1.2,0c0.2,0,0.2,0,0.2-0.2V182.2z"/>
	<path fill="#5D5D5D" d="M100.6,184.4c-0.3,0.1-0.6,0.2-0.9,0.3v2.6c0,0.5-0.1,0.8-0.4,1c-0.3,0.2-0.7,0.2-1.3,0.2
		c0-0.3-0.2-0.8-0.3-1.1c0.4,0,0.7,0,0.8,0c0.1,0,0.2,0,0.2-0.2V185c-0.3,0.1-0.6,0.2-0.9,0.3l-0.3-1.1c0.3-0.1,0.7-0.2,1.2-0.3
		v-1.7h-1v-1.1h1v-1.9h1.1v1.9h0.8v1.1h-0.8v1.4l0.8-0.2L100.6,184.4z M103.9,186.5l0,0.9c-1.3,0.2-2.7,0.4-3.8,0.5l-0.2-1
		c0.5,0,1-0.1,1.6-0.2v-1.1h-1.2v-0.9h1.2v-1.2h1v1.2h1.1v0.9h-1.1v1L103.9,186.5z M101.6,181.3h-1.1v-0.9h1.1v-1.2h1.1v1.2h1v0.9
		h-1v1h1.2v0.9h-3.5v-0.9h1.3V181.3z M106.3,184.9c-0.3-0.3-0.7-0.9-1.1-1.3v4.8h-1.1v-9.3h1.1v3.1c0.4,0.3,1.5,1.3,1.8,1.5
		L106.3,184.9z"/>
	<path fill="#5D5D5D" d="M112.1,185.8c-0.8,1-1.9,2-3,2.6c-0.2-0.2-0.7-0.6-1-0.8c1-0.6,2.2-1.5,2.7-2.3L112.1,185.8z M116.1,179.9
		v4.7h-7v-4.7H116.1z M110.3,183.5h4.5V181h-4.5V183.5z M114.3,185.3c0.9,0.7,2.1,1.7,2.7,2.4l-1.1,0.7c-0.5-0.7-1.7-1.8-2.6-2.5
		L114.3,185.3z"/>
	<path fill="#5D5D5D" d="M123.5,184.9c-0.1,0.2-0.1,0.3-0.2,0.5h3.5v2c0,0.5-0.1,0.7-0.4,0.9c-0.3,0.2-0.7,0.2-1.2,0.2
		c0-0.3-0.2-0.7-0.3-1c0.3,0,0.6,0,0.7,0c0.1,0,0.1,0,0.1-0.1v-1.1h-1.1v2.1h-1.1v-2.1h-1v2.1h-1.1v-2.1h-1v2.2h-1.1v-3.1h2.9
		c0-0.2,0.1-0.3,0.1-0.5h-3.7V184h1.4l-0.3-0.8c0.6-0.1,1.5-0.2,2.4-0.3l0,0.7c-0.7,0.2-1.4,0.3-2,0.5h7.3v0.9H123.5z M119.8,183.1
		h-1.1v-2.2h3.7v-0.5h-3.3v-0.8h7.8v0.8h-3.3v0.5h3.8v2.2h-1.2v-1.3h-0.6l0.4,0.5c-0.5,0.2-1.3,0.4-1.8,0.5l-0.4-0.6
		c0.4-0.1,1-0.3,1.4-0.4h-1.7v1.9h-1.2v-1.9h-2c0.5,0.1,1.2,0.3,1.6,0.4l-0.3,0.6c-0.4-0.2-1.2-0.4-1.7-0.5l0.3-0.6h-0.6V183.1z
		 M123.9,182.7c0.7,0.1,1.7,0.3,2.3,0.5L126,184c-0.5-0.2-1.5-0.4-2.3-0.6L123.9,182.7z"/>
	<path fill="#5D5D5D" d="M133.5,180.9c0,0,0,0.4,0,0.5c-0.1,4.2-0.3,5.7-0.6,6.2c-0.2,0.3-0.4,0.5-0.8,0.5c-0.3,0.1-0.7,0.1-1.1,0
		c0-0.4-0.1-0.9-0.3-1.2c0.3,0,0.7,0,0.8,0c0.1,0,0.2,0,0.3-0.2c0.2-0.3,0.4-1.5,0.5-4.8h-1c-0.1,2.5-0.5,4.8-1.7,6.4
		c-0.2-0.3-0.6-0.7-0.9-0.8c1.1-1.3,1.3-3.3,1.4-5.5H129v-1.2h1.2c0-0.6,0-1.2,0-1.7h1.2c0,0.6,0,1.2,0,1.7L133.5,180.9z
		 M137.7,180.3v7.9h-1.2v-0.6h-1.3v0.7h-1.2v-7.9H137.7z M136.4,186.4v-5h-1.3v5H136.4z"/>
	<path fill="#5D5D5D" d="M142.1,179.5c-0.2,0.6-0.5,1.3-0.8,1.9v7h-1.1v-5c-0.2,0.3-0.4,0.6-0.6,0.8c-0.1-0.3-0.4-1-0.6-1.3
		c0.8-0.9,1.5-2.4,2-3.8L142.1,179.5z M146.5,187c0.8,0.3,1.6,0.6,2.1,0.8l-1,0.7c-0.5-0.3-1.3-0.7-2.1-1l0.6-0.5h-1.9l0.7,0.5
		c-0.6,0.5-1.6,0.8-2.5,1c-0.1-0.2-0.4-0.6-0.6-0.8c0.7-0.1,1.5-0.4,2.1-0.7h-1.4v-3.7h5.6v3.7H146.5z M146.4,180.5v0.4h1.7v2h-5.9
		v-2h1.6v-0.4H142v-0.9h6.3v0.9H146.4z M143.2,182.3h0.6v-0.7h-0.6V182.3z M143.4,184.3h3.4V184h-3.4V184.3z M143.4,185.3h3.4V185
		h-3.4V185.3z M143.4,186.3h3.4v-0.4h-3.4V186.3z M145.4,180.5h-0.6v0.4h0.6V180.5z M144.8,182.3h0.6v-0.7h-0.6V182.3z M146.4,181.6
		v0.7h0.6v-0.7H146.4z"/>
	<path fill="#5D5D5D" d="M153.3,186c0.3,0.3,0.7,0.5,1.2,0.5c0.8,0,1.5-0.6,1.6-2.5c-0.4,0.5-1,0.8-1.5,0.8c-1.2,0-2.1-0.8-2.1-2.3
		c0-1.5,1.1-2.5,2.3-2.5c1.4,0,2.6,1.1,2.6,3.6c0,2.8-1.4,4-2.8,4c-0.9,0-1.6-0.4-2-0.8L153.3,186z M156,183
		c-0.1-1.3-0.6-1.8-1.3-1.8c-0.5,0-1,0.4-1,1.3c0,0.9,0.4,1.3,1,1.3C155.2,183.8,155.7,183.6,156,183z"/>
	<path fill="#5D5D5D" d="M158.8,183.9c0-2.5,1-3.8,2.5-3.8c1.5,0,2.5,1.2,2.5,3.8s-1,3.8-2.5,3.8
		C159.8,187.7,158.8,186.4,158.8,183.9z M162.4,183.9c0-2.1-0.5-2.6-1.1-2.6c-0.6,0-1.1,0.6-1.1,2.6c0,2.1,0.5,2.7,1.1,2.7
		C161.9,186.6,162.4,186,162.4,183.9z"/>
	<path fill="#5D5D5D" d="M165.1,183.9c0-2.5,1-3.8,2.5-3.8c1.5,0,2.5,1.2,2.5,3.8s-1,3.8-2.5,3.8
		C166.1,187.7,165.1,186.4,165.1,183.9z M168.7,183.9c0-2.1-0.5-2.6-1.1-2.6c-0.6,0-1.1,0.6-1.1,2.6c0,2.1,0.5,2.7,1.1,2.7
		C168.3,186.6,168.7,186,168.7,183.9z"/>
	<path fill="#5D5D5D" d="M172,180.3h1.5l2.1,3.9l0.7,1.6h0c-0.1-0.8-0.2-1.7-0.2-2.6v-2.9h1.4v7.3h-1.5l-2.1-3.9l-0.7-1.6h0
		c0.1,0.8,0.2,1.7,0.2,2.6v2.9H172V180.3z"/>
	<path fill="#5D5D5D" d="M181.3,181.5h-2.1v-1.2h5.6v1.2h-2.1v6.1h-1.5V181.5z"/>
	<path fill="#5D5D5D" d="M186.6,180.3h2c2.2,0,3.6,1.2,3.6,3.6c0,2.5-1.4,3.7-3.6,3.7h-2.1V180.3z M188.5,186.4
		c1.4,0,2.2-0.7,2.2-2.5c0-1.8-0.9-2.5-2.2-2.5H188v5H188.5z"/>
</g>
<g>
	
		<rect x="15.9" y="160.4" transform="matrix(0.866 0.5 -0.5 0.866 85.5349 13.8168)" opacity="0.73" fill="#0098FF" width="2.2" height="12.2"/>
	
		<rect x="14.1" y="162.9" transform="matrix(0.866 0.5 -0.5 0.866 85.7105 14.8124)" opacity="0.73" fill="#9DEDE6" width="2.2" height="9"/>
</g>
<g>
	
		<rect x="15.9" y="177.4" transform="matrix(0.866 0.5 -0.5 0.866 94.0349 16.0943)" opacity="0.73" fill="#0098FF" width="2.2" height="12.2"/>
	
		<rect x="14.1" y="179.9" transform="matrix(0.866 0.5 -0.5 0.866 94.2105 17.0899)" opacity="0.73" fill="#9DEDE6" width="2.2" height="9"/>
</g>
</svg>
