<?xml version="1.0" encoding="utf-8"?>
<!-- Generator: Adobe Illustrator 17.1.0, SVG Export Plug-In . SVG Version: 6.00 Build 0)  -->
<!DOCTYPE svg PUBLIC "-//W3C//DTD SVG 1.1//EN" "http://www.w3.org/Graphics/SVG/1.1/DTD/svg11.dtd">
<svg version="1.1" id="圖層_1" xmlns="http://www.w3.org/2000/svg" xmlns:xlink="http://www.w3.org/1999/xlink" x="0px" y="0px"
	 viewBox="0 0 280.5 200" enable-background="new 0 0 280.5 200" xml:space="preserve">
<rect y="147.3" fill="#E4F9F8" width="281" height="52.7"/>
<g id="XMLID_63_">
	<g id="XMLID_70_">
		<path id="XMLID_72_" fill="#8C4817" d="M61.8,18.2l11.6,0.3l0.7,0.8l-0.3,0.4c0,0-8,1.9-11.9,2.2l-1.2-2.2L61.8,18.2z"/>
		<polygon id="XMLID_71_" fill="#8C4817" points="19.9,19 38.6,17.3 38.5,16.2 21,16.2 		"/>
	</g>
	<path id="XMLID_66_" fill="#333333" d="M62.5,18.3c0,0,0.1-0.3-0.9-0.3s-3.3-0.5-3.3-0.5s-13.3-2-17.3,0c0,0-1.1,0.1-2.1,1.6
		c0,0-0.7,0.8-2.7,0.5c0,0-1.3-0.5-1.6-1.4s-3.2-1.7-3.2-1.7s-7-2.2-11.4-0.6l0.1,3.4c0,0,0.6,0.2,0.8,2.2c0.2,1.9,1.2,7,2,7.9
		c0.7,0.9,3.3,3,8.5,2.3c1.4-0.2,2.6-1.2,3-2.5c0.4-1.4,1.1-3.7,1.7-7.1c0,0,2-0.2,2.4,1.9s2.4,6.3,2.4,6.3s1.1,2.2,3.5,3
		c2.8,0.9,9.1,1.8,12.5-0.2c0,0,1-0.4,1.2-3l0.9-6c0,0-0.6-2,2.7-1.9c0,0,0.9,0.4,0.9-1.1S62.5,18.3,62.5,18.3z M33.1,28.8
		c-1.4,3.1-4.1,2.1-6.8,1.6c-2.6-0.5-3.6-5-3.6-5s-1.6-5.2-0.5-7.6c1-2.2,5.7-0.9,6.4-0.7c0.1,0,0.2,0,0.2,0
		c5.2,0.7,5.4,4.7,5.3,5.3c0,0.1,0,0.1,0,0.2C34.2,23.1,34.4,26,33.1,28.8z M57.2,23.7c-0.2,3.7,0.2,1.7-0.4,5.2
		c0,0-0.8,3.3-3.3,3.7c-2.5,0.4-6.9,0.7-9.4-0.8c-2.4-1.4-3.8-6.3-4-7.1c0-0.1,0-0.1,0-0.2l-0.3-2.5c0-0.1,0-0.1,0-0.2
		c0-0.6,0.2-3.3,3.1-3.7c0.1,0,0.2,0,0.3-0.1c0.8-0.2,2.4-0.7,6.4-0.4c4.7,0.3,5.6,1.2,5.6,1.2S57.4,20,57.2,23.7z"/>
	<path id="XMLID_65_" fill="#333333" d="M38.5,16.2v1.2l6.1-0.1l1.2,0.1c0,0,4.1,2.9,6,6.8c0.5,0.9,1.5,1.5,2.5,1.3c0,0,0,0,0,0
		c0.7-0.1,1-1,0.5-1.5l-7.3-6.7C47.5,17.4,46.2,15.8,38.5,16.2z"/>
	<path id="XMLID_64_" fill="#333333" d="M73.3,18.4v1.5l1-0.2c0,0,0.1,0,0.1,0.1c-0.2,0.7-1.8,6.8-1.3,7.4c0.6,0.8,1.6,0.9,1.2-0.5
		c-0.1-0.5-0.1-0.9,0-1.4c0.3-1.2,0.7-3.4,1-5.2C75.3,20,75.8,18,73.3,18.4z"/>
</g>
<g>
	<path fill="#5D5D5D" d="M94,29h-2.9v1.2h-1.6V19.4H94V29z M91.1,20.9v2.5h1.3v-2.5H91.1z M92.4,27.5v-2.7h-1.3v2.7H92.4z
		 M99.1,21.5v1.3h2.8v1.5h-1v1.1h1.4v1.5h-1.4V30c0,0.8-0.2,1.2-0.7,1.5c-0.5,0.2-1.3,0.3-2.4,0.3c-0.1-0.5-0.3-1.1-0.5-1.6
		c0.7,0,1.5,0,1.7,0c0.2,0,0.3-0.1,0.3-0.3v-3h-5v-1.5h5v-1.1h-4.5v-1.5h2.7v-1.3h-3.2V20h3.2v-1.5h1.7V20h3.2v1.5H99.1z M96.2,27.1
		c0.6,0.7,1.3,1.6,1.7,2.3l-1.5,0.9c-0.3-0.6-1-1.6-1.6-2.4L96.2,27.1z"/>
	<path fill="#5D5D5D" d="M106,22.4c-0.3-0.8-1-2-1.7-2.9l1.5-0.6c0.7,0.8,1.4,2,1.8,2.8L106,22.4z M115.5,29.9
		c0,0.8-0.2,1.3-0.7,1.5c-0.5,0.3-1.3,0.3-2.4,0.3c-0.1-0.5-0.3-1.2-0.5-1.6c0.7,0,1.4,0,1.7,0c0.2,0,0.3-0.1,0.3-0.3v-5.7h-7.7v7.6
		h-1.7v-9.2h4.6v-4h1.7v4h4.7V29.9z M108.8,29.4v0.9h-1.5v-5.1h5.2v4.3H108.8z M108.8,26.5V28h2.1v-1.5H108.8z M115.6,19.3
		c-0.6,1.1-1.4,2.3-2,3l-1.4-0.6c0.6-0.8,1.3-2.1,1.7-3L115.6,19.3z"/>
	<path fill="#5D5D5D" d="M129.1,30.4c0.1,0,0.2,0,0.2,0s0.1-0.1,0.1-0.3s0-0.6,0-1.1c0.3,0.3,0.9,0.6,1.3,0.7c0,0.5-0.1,1.1-0.2,1.3
		c-0.1,0.3-0.3,0.4-0.6,0.6c-0.2,0.1-0.6,0.1-0.8,0.1h-0.9c-0.3,0-0.8-0.1-1-0.3S127,30.8,127,30v-1.9h-0.8
		c-0.2,1.9-0.8,3.1-3.4,3.8c-0.1-0.4-0.5-0.9-0.8-1.2c-1.5,0.3-2.9,0.6-4.1,0.8l-0.3-1.5c0.6-0.1,1.3-0.2,2.1-0.3v-3.7h-1.9v-1.4
		h1.9v-1h-1.2V23c-0.2,0.2-0.4,0.4-0.6,0.5c-0.1-0.4-0.4-1.3-0.6-1.7c1.1-0.8,2.2-2,2.8-3.3l1.2,0.6c-0.1,0.2-0.2,0.3-0.3,0.5
		c0.9,0.5,1.8,1.1,2.3,1.7l-0.5,0.8h1.7c-0.1-0.3-0.2-0.7-0.3-1l1.1-0.2h-2.3v-1.3h2.7c-0.1-0.2-0.2-0.5-0.3-0.6l1.5-0.4
		c0.2,0.3,0.4,0.7,0.5,1h2.8v1.3h-2.3l1.3,0.2c-0.2,0.4-0.4,0.7-0.5,1h1.8v1.3h-7.8v-1.2l-0.3,0.4l0,0v1h-1.4v1h1.8v1.4h-1.8v3.4
		l1.9-0.4l0.1,1.2c1-0.4,1.3-1.1,1.5-2.1h-1.1v-4.3h6.5v4.3h-1.5v2c0,0.2,0,0.3,0.1,0.3c0,0,0.1,0.1,0.2,0.1H129.1z M119,26.5
		c0.2,0.8,0.4,1.8,0.5,2.4l-1.1,0.3c0-0.7-0.2-1.7-0.4-2.5L119,26.5z M122.1,22.1c-0.5-0.4-1.1-0.9-1.8-1.3c-0.3,0.5-0.6,0.9-1,1.3
		H122.1z M121.3,28.6c0.2-0.6,0.4-1.6,0.5-2.3l1.2,0.3c-0.3,0.8-0.5,1.7-0.7,2.3L121.3,28.6z M125,25.4h3.6v-0.6H125V25.4z M125,27
		h3.6v-0.6H125V27z M125.7,20.7c0.2,0.4,0.4,0.9,0.5,1.3h1.3c0.2-0.4,0.4-0.9,0.4-1.3H125.7z"/>
	<path fill="#5D5D5D" d="M144.9,29.6v1.5h-8.2v-6l-0.8,1.3c-0.2-0.4-0.5-0.9-0.9-1.4v6.8h-1.5v-5.6c-0.4,1-0.8,1.9-1.3,2.6
		c-0.2-0.5-0.5-1.2-0.8-1.7c0.8-0.9,1.6-2.6,2-4.2h-1.7v-1.6h1.8v-2.8h1.5v2.8h1.3v1.6H135V23c0.4,0.4,1.3,1.4,1.6,1.8v-5.5h8v1.5
		h-6.4v8.7H144.9z M140.7,27.3v-1.5h-1.8v-1.4h1.8v-1.4h-1.9v-1.4h5.6v1.4h-2.1v1.4h1.8v1.4h-1.8v1.5h2.2v1.4h-5.8v-1.4H140.7z"/>
	<g>
		<path fill="#9E9E9E" d="M161.8,21.3v8h-1.2v-0.6h-5.9v0.7h-1.2v-8.1H161.8z M160.5,27.6v-1.1c-0.1,0-0.3,0-0.5,0h-0.9
			c-0.9,0-1.1-0.5-1.1-1.5v-2.6h-1c0,2.4-0.3,3.9-1.8,4.7c-0.1-0.3-0.4-0.7-0.7-0.9v1.3H160.5z M154.6,22.4v3.8
			c1.2-0.7,1.3-1.8,1.3-3.8H154.6z M160.5,22.4h-1.4v2.6c0,0.3,0,0.5,0.2,0.5h0.6c0.1,0,0.4,0,0.5,0V22.4z"/>
		<path fill="#9E9E9E" d="M164.7,27c-0.2,0.7-0.5,1.6-0.8,2.1c-0.2-0.1-0.7-0.3-0.9-0.4c0.3-0.5,0.6-1.3,0.7-1.9L164.7,27z
			 M166.2,26.5v3.2h-1.1v-3.2h-1.9v-1h4.9v1H166.2z M165.1,22.2h-1.8v-1h1.8v-0.7h1.1v0.7h1.7v1h-1.7v0.5h1.5v1h-4.2v-1h1.5V22.2z
			 M167.6,24.2c0.5-1,0.8-2.3,1-3.7l1.1,0.2c-0.1,0.5-0.2,1.1-0.3,1.6h2l0.2,0l0.8,0.2c-0.2,1-0.5,2.1-0.7,2.8l-1-0.3
			c0.1-0.4,0.3-1,0.4-1.6h-1.9c-0.2,0.8-0.5,1.4-0.8,2c-0.2-0.1-0.5-0.4-0.7-0.6v0.4h-4v-1L167.6,24.2L167.6,24.2z M167.3,26.7
			c0.2,0.5,0.5,1.1,0.6,1.5l-0.9,0.4c-0.1-0.4-0.4-1.1-0.6-1.6L167.3,26.7z M170.4,24.5c0,0.3,0,0.6,0,0.9c0.3,1.5,1,2.7,2.1,3.3
			c-0.3,0.2-0.6,0.7-0.8,1c-0.8-0.5-1.3-1.3-1.7-2.3c-0.3,0.8-0.8,1.6-1.6,2.3c-0.2-0.3-0.6-0.6-0.9-0.8c1.6-1.4,1.8-3.3,1.8-4.5V24
			h1.1V24.5z"/>
		<path fill="#9E9E9E" d="M176.4,25.7c-0.3,0.1-0.6,0.2-0.9,0.3v2.5c0,0.5-0.1,0.8-0.4,1c-0.3,0.2-0.7,0.2-1.4,0.2
			c0-0.3-0.2-0.8-0.3-1.1c0.4,0,0.7,0,0.8,0c0.1,0,0.2,0,0.2-0.2v-2.2l-0.9,0.3l-0.3-1.1c0.3-0.1,0.7-0.2,1.2-0.3v-1.7h-1v-1.1h1
			v-1.9h1.1v1.9h0.9v1.1h-0.9v1.4c0.3-0.1,0.5-0.1,0.8-0.2L176.4,25.7z M182.5,28.5H180v1.2h-1.1v-1.2h-2.5v-0.9h2.5v-0.4h-2.2v-0.9
			h1.1c-0.1-0.2-0.1-0.4-0.2-0.6l0.7-0.2h-1.8v-0.9h2.4v-0.4h-2v-0.8h2V23h-2.1v-2.2h5.5V23H180v0.4h2.1v0.8H180v0.4h2.4v0.9h-1.6
			l0.7,0.2l-0.3,0.6h0.9v0.9H180v0.4h2.5V28.5z M178.3,21.6h-0.6v0.7h0.6V21.6z M178.6,25.6c0.1,0.2,0.2,0.5,0.3,0.7h1.3
			c0.1-0.2,0.2-0.5,0.3-0.7H178.6z M179.2,22.2h0.6v-0.7h-0.6V22.2z M180.7,22.2h0.6v-0.7h-0.6V22.2z"/>
		<path fill="#9E9E9E" d="M192.7,24.4v1.3h-9.1v-1.3H192.7z"/>
	</g>
</g>
<g>
	<path fill="#5D5D5D" d="M92,71.6c-0.5-0.4-1.6-1-2.4-1.4l0.8-1.1c0.8,0.3,1.9,0.8,2.4,1.3L92,71.6z M90,76.3c0.7-1,1.7-2.5,2.4-4
		l1.1,1c-0.7,1.3-1.5,2.8-2.2,4L90,76.3z M92.7,68.2c-0.5-0.4-1.6-1-2.4-1.4l0.8-1.1C92,66,93,66.6,93.6,67L92.7,68.2z M100,77.5
		c-0.1-0.3-0.2-0.7-0.4-1.1c-4.2,0.5-4.9,0.6-5.3,0.8c-0.1-0.3-0.3-1.1-0.5-1.5c0.3-0.1,0.5-0.4,0.8-0.8c0.2-0.3,0.8-1.5,1.4-2.7
		h-2.4v-1.4h3v-1.8H94v-1.4h2.5v-1.9H98v1.9h2.6v1.4H98v1.8h3.1v1.4h-3.5c-0.5,1.2-1.1,2.3-1.8,3.3l3-0.3c-0.3-0.5-0.6-0.9-0.9-1.3
		l1.2-0.6c0.8,1.1,1.8,2.6,2.1,3.6L100,77.5z"/>
	<path fill="#5D5D5D" d="M113.8,65.8v11.4h-1.5v-0.5h-7.9v0.5h-1.4V65.8H113.8z M112.3,75.3v-8.2h-1.6c0.4,0.2,0.8,0.5,1.1,0.7
		l-0.5,0.5h0.6v1.1h-2.3c0.1,0.7,0.1,1.4,0.2,2c0.3-0.5,0.4-1,0.6-1.6l1.2,0.2c-0.3,1.1-0.8,2.1-1.3,2.9c0.2,0.4,0.4,0.6,0.6,0.7
		c0.1,0.1,0.2-0.4,0.3-1.2c0.2,0.2,0.7,0.6,0.9,0.7c-0.2,1.6-0.9,2.1-1.7,1.7c-0.4-0.1-0.7-0.4-1-0.8c-0.4,0.4-0.8,0.8-1.3,1.1
		c-0.2-0.2-0.6-0.7-0.8-0.9c0.1-0.1,0.3-0.2,0.4-0.3c-1,0.2-2,0.3-2.9,0.4l-0.1-1.1c0.9-0.1,2.3-0.3,3.6-0.4l0,0.6
		c0.2-0.2,0.4-0.4,0.6-0.6c-0.3-0.9-0.4-2.1-0.5-3.3h-3.5v-1.1h3.5c0-0.4,0-0.7-0.1-1.1h1.2c0,0.4,0,0.7,0.1,1.1h1.4
		c-0.3-0.2-0.7-0.5-1-0.7l0.6-0.6h-6.2v8.2H112.3z M108,72.5h-2.8V70h2.8V72.5z M107,70.9h-0.9v0.8h0.9V70.9z"/>
	<path fill="#5D5D5D" d="M118.6,67.4v7.7c0,0.8-0.1,1.2-0.6,1.4c-0.5,0.2-1.1,0.3-2.1,0.3c-0.1-0.4-0.2-1.1-0.4-1.5
		c0.6,0,1.2,0,1.4,0c0.2,0,0.3-0.1,0.3-0.3v-7.7h-1.8V66h4.6v1.4H118.6z M122,74.7l1.2,0.8c-0.8,0.7-2.2,1.3-3.3,1.7
		c-0.2-0.3-0.6-0.8-0.9-1c1-0.3,2.3-0.9,2.9-1.4h-1.3V68h2c0.1-0.3,0.1-0.6,0.2-0.9h-2.6v-1.3h7v1.3h-2.7c-0.1,0.3-0.2,0.6-0.3,0.9
		h2.7v6.7H122z M121.9,69.9h3.3v-0.8h-3.3V69.9z M121.9,71.7h3.3v-0.8h-3.3V71.7z M121.9,73.6h3.3v-0.8h-3.3V73.6z M124.9,74.7
		c0.8,0.4,1.9,1.1,2.5,1.6l-1.2,0.9c-0.5-0.5-1.6-1.2-2.4-1.7L124.9,74.7z"/>
	<path fill="#5D5D5D" d="M130,74.1c-0.1,1.1-0.3,2.3-0.6,3.1c-0.3-0.1-0.8-0.3-1.1-0.4c0.3-0.8,0.4-1.9,0.5-2.9L130,74.1z
		 M128.3,69.3c0.3-0.1,0.5-0.3,0.7-0.7c0.3-0.3,1.1-1.7,1.5-3.1l1.4,0.6c-0.5,1-1.1,2.1-1.7,3l0.9-0.1c0.3-0.5,0.7-1.1,0.9-1.7
		l1.3,0.8c-0.7,1.3-1.7,2.6-2.7,3.7l1.3-0.2c-0.1-0.3-0.2-0.6-0.4-0.9l1-0.4c0.4,0.8,0.8,1.8,0.9,2.5l-1.1,0.4
		c0-0.2-0.1-0.4-0.1-0.6c-2.7,0.5-3.2,0.6-3.5,0.8c-0.1-0.3-0.3-1-0.5-1.3c0.3-0.1,0.6-0.4,1-0.8c0.2-0.2,0.5-0.5,0.8-1
		c-1,0.1-1.3,0.2-1.5,0.3C128.7,70.3,128.4,69.6,128.3,69.3z M131.3,73.9c0.2,0.8,0.3,1.9,0.3,2.5l-1.1,0.3c0-0.7-0.1-1.8-0.3-2.6
		L131.3,73.9z M139.9,70c-0.3,1.9-0.9,3.5-1.7,4.8c0.5,0.6,1.2,1.1,2,1.4c-0.3,0.3-0.8,0.9-1,1.3c-0.7-0.4-1.3-0.9-1.8-1.5
		c-0.5,0.6-1.1,1.1-1.8,1.5c-0.2-0.4-0.6-0.9-1-1.1c0.7-0.4,1.3-0.9,1.9-1.6c-0.4-0.7-0.7-1.4-1-2.2c-0.3,1.9-0.7,3.6-1.6,4.9
		c-0.2-0.2-0.9-0.8-1.3-0.9c0.2-0.3,0.4-0.6,0.5-0.9l-0.9,0.3c-0.1-0.5-0.4-1.4-0.6-2.1l1-0.3c0.2,0.6,0.4,1.3,0.6,1.8
		c0.9-2,1-4.7,1-7.8h-1.1v-1.4h4.3l0.2-0.1l1.1,0.1c-0.1,1.1-0.4,2.4-0.6,3.5h0.5l0.2-0.1L139.9,70z M135.7,67.5
		c0,0.7,0,1.5-0.1,2.1h1.2c0.1-0.7,0.3-1.5,0.4-2.1H135.7z M136.3,71c0.2,0.9,0.6,1.7,1,2.4c0.4-0.7,0.7-1.5,0.9-2.4H136.3z"/>
	<path fill="#5D5D5D" d="M152.9,71.2c-0.7,0.6-1.6,1.3-2.3,1.8c0.7,1.2,1.5,2.2,2.5,2.9c-0.3,0.3-0.8,0.8-1.1,1.2
		c-1.9-1.4-3.2-3.9-4-6.7c-0.2,0.3-0.5,0.6-0.8,0.9v4.1l2-0.6c0,0.4,0.1,1,0.2,1.3c-2.9,1-3.4,1.2-3.7,1.4c-0.1-0.3-0.5-0.8-0.8-1.1
		c0.3-0.2,0.8-0.7,0.8-1.4v-2.3c-0.4,0.3-0.7,0.6-1.1,0.8c-0.2-0.2-0.5-0.7-0.7-1v4.8h-1.5v-6.4c-0.2,0.3-0.5,0.6-0.7,0.9
		c-0.1-0.4-0.6-1.2-0.8-1.6c1.1-1.2,2.2-3,2.8-4.8l1.4,0.4c-0.3,0.9-0.8,1.9-1.3,2.8v3.4c1.2-0.8,2.4-1.9,3.2-3h-2.6v-1.4h3.6
		c-0.2-0.5-0.4-1.2-0.7-1.8l1.4-0.4c0.3,0.6,0.7,1.4,0.8,1.9l-0.9,0.3h4v1.4h-3.7c0.2,0.9,0.5,1.8,0.9,2.7c0.6-0.5,1.3-1.2,1.7-1.7
		L152.9,71.2z"/>
	<path fill="#5D5D5D" d="M158.3,73.7c-0.2-0.3-0.6-0.8-0.9-1.2v4.9h-1.5v-4.7c-0.5,0.4-1,0.8-1.5,1.1c-0.1-0.4-0.4-1.3-0.6-1.5
		c1.3-0.7,2.5-2,3.3-3.3h-2.9v-1.4h2.2c-0.2-0.4-0.6-1-0.9-1.4l1.2-0.7c0.4,0.5,0.9,1.1,1.1,1.6l-0.7,0.5h0.9l0.3-0.1l0.8,0.6
		c-0.4,0.9-0.9,1.8-1.5,2.7c0.5,0.4,1.4,1.4,1.7,1.6L158.3,73.7z M164.5,76.1c0.2,0,0.3-0.2,0.3-1.4c0.3,0.2,0.9,0.5,1.2,0.6
		c-0.1,1.7-0.5,2.2-1.4,2.2h-0.8c-1.1,0-1.4-0.4-1.4-1.7v-2.5h-0.7c-0.2,2.1-0.7,3.5-3.1,4.3c-0.1-0.3-0.5-0.9-0.8-1.1
		c2-0.6,2.4-1.6,2.5-3.2h-0.8V66h5.7v7.1h-1.3v2.5c0,0.3,0,0.4,0.2,0.4H164.5z M161,68.1h2.8v-0.8H161V68.1z M161,70h2.8v-0.8H161
		V70z M161,72h2.8v-0.8H161V72z"/>
	<path fill="#5D5D5D" d="M178.2,67.1c-0.4,1.3-1,2.5-1.8,3.4c0.7,0.6,1.6,1.1,2.6,1.4c-0.3,0.3-0.7,0.9-0.9,1.3l0,0v4.2h-1.5V77
		h-2.4v0.4h-1.4v-4.1l-0.3,0.1c-0.1-0.2-0.3-0.5-0.5-0.7v0.4h-1.4v1.7l1.5-0.3l0.1,1.3c-1.8,0.4-3.7,0.9-5.2,1.2l-0.3-1.5l0.6-0.1
		v-4.3h1.2v4l0.6-0.1v-4.8h-1.8V66h4.4v3.2c0.9-0.9,1.7-2.2,2.1-3.6l1.4,0.4c-0.1,0.3-0.2,0.6-0.3,0.9h1.8l0.3-0.1L178.2,67.1z
		 M168.8,68.9h1.7v-1.6h-1.7L168.8,68.9z M172,72.1c0.9-0.4,1.7-0.9,2.4-1.6c-0.3-0.4-0.6-0.8-0.8-1.1c-0.2,0.3-0.5,0.6-0.8,0.9
		c-0.2-0.2-0.7-0.6-1-0.9v0.8h-1.3v1.5h1.4V72.1z M177,72.7c-0.6-0.3-1.1-0.7-1.6-1.2c-0.5,0.4-1,0.8-1.6,1.2H177z M176.6,75.7V74
		h-2.4v1.7H176.6z M174.5,68.1l-0.1,0.2c0.3,0.4,0.6,0.9,0.9,1.3c0.4-0.5,0.7-1,0.9-1.5H174.5z"/>
	<path fill="#5D5D5D" d="M187.7,71.4c-0.4-0.3-1.4-0.9-2-1.2l0.9-1.1c0.6,0.3,1.6,0.8,2,1.1L187.7,71.4z M188.8,73.3
		c-0.4,1.4-1,2.8-1.5,4.1l-1.4-0.8c0.5-1,1.1-2.6,1.6-4.1L188.8,73.3z M188.2,68.1c-0.4-0.3-1.4-0.9-2-1.3l0.9-1.1
		c0.6,0.3,1.5,0.9,2,1.2L188.2,68.1z M190.8,70.6c0,2-0.2,4.9-1.4,6.8c-0.2-0.2-0.8-0.7-1.1-0.8c1.1-1.7,1.2-4.2,1.2-6v-3.2h3v-1.8
		h1.4v0.5h3.1V67h-3.1v0.4h2.6l0.2,0l1,0.2c-0.1,0.7-0.4,1.4-0.6,1.9l-1.1-0.2c0.1-0.2,0.1-0.5,0.2-0.8h-2.5v0.4l1.7-0.1l0,0.8
		l-1.8,0.1c0,0.2,0.1,0.3,0.4,0.3h1.4c0.3,0,0.9,0,1.1-0.1c0,0.4,0.1,0.6,0.1,0.9c-0.2,0.1-0.8,0.1-1.2,0.1h-1.9
		c-0.9,0-1.2-0.4-1.3-1l-1.2,0.1l-0.1-1l1.2-0.1v-0.5h-1.5V70.6z M190.2,76.6c0.5-0.4,0.8-1.1,0.9-1.8l1.1,0.4
		c-0.2,0.8-0.4,1.6-1,2.1L190.2,76.6z M196.7,77.2c-0.1-0.3-0.3-0.7-0.6-1.1c-0.1,1-0.5,1.3-1.2,1.3h-1.2c-1.1,0-1.4-0.3-1.4-1.3v-1
		h1.1c-0.2-0.1-0.4-0.2-0.6-0.3l0.3-0.3h-1.9v-3.1h5.6v3.1h-2.5c0.3,0.2,0.7,0.4,0.9,0.6l-0.7,0.7c-0.2-0.2-0.6-0.4-1-0.7v1
		c0,0.3,0.1,0.3,0.3,0.3h0.9c0.2,0,0.3-0.1,0.3-0.7c0.2,0.2,0.6,0.3,0.9,0.4c-0.2-0.3-0.4-0.5-0.6-0.8l1-0.5c0.6,0.6,1.2,1.4,1.4,2
		L196.7,77.2z M192.5,72.5h1V72h-1V72.5z M192.5,73.7h1v-0.5h-1V73.7z M195.6,72h-1v0.5h1V72z M195.6,73.2h-1v0.5h1V73.2z"/>
	<path fill="#5D5D5D" d="M210.6,76v1.2h-11.9V76h1.5v-2.4h9V76H210.6z M201.3,67.6h-2.4v-1.2h2.4v-0.7h1.5v0.7h1.5v1.2h-1.5v0.5
		h-1.5V67.6z M210.2,70.4h-3.6c-0.3,0.7-0.8,1.3-1.3,1.8c-0.1-0.2-0.5-0.7-0.8-1v0.6h-1.3v0.5h1.7v0.9h-5.4v-4.9h5.4v0.9h-1.7v0.5
		h1.3V71c0.7-0.7,1.2-1.7,1.5-2.8l1.3,0.3c-0.1,0.2-0.1,0.5-0.2,0.7h3.1L210.2,70.4z M200.7,69.2v0.5h1.2v-0.5H200.7z M203.4,70.5
		h-2.6V71h2.6V70.5z M202,71.8h-1.2v0.5h1.2V71.8z M201.6,76h1.2v-1.3h-1.2V76z M204,74.7V76h1.2v-1.3H204z M206.5,67.6h-1.7v-1.2
		h1.7v-0.6h1.5v0.6h2.3v1.2H208v0.5h-1.5V67.6z M205.9,73v-1.3h4V73H205.9z M206.5,74.7V76h1.2v-1.3H206.5z"/>
	<path fill="#5D5D5D" d="M221.6,75.8c0.3,0,0.4-0.2,0.5-1.2c0.3,0.2,1,0.5,1.4,0.6c-0.2,1.6-0.6,2.1-1.7,2.1h-1.6
		c-1.5,0-1.8-0.5-1.8-2v-3.7h-1.7c-0.3,2.6-0.9,4.7-4.1,5.9c-0.2-0.4-0.6-1-0.9-1.3c2.8-0.9,3.3-2.5,3.4-4.6h-3.1v-1.5h4.8v-4.6h1.6
		v4.6h4.8v1.5h-3.3v3.7c0,0.5,0.1,0.5,0.5,0.5H221.6z M214.5,69.6c-0.3-0.7-1.1-1.8-1.8-2.7l1.2-0.7c0.7,0.8,1.5,1.9,1.9,2.6
		L214.5,69.6z M222.7,66.9c-0.7,1-1.5,2-2.1,2.7l-1.3-0.5c0.6-0.7,1.4-1.9,1.8-2.8L222.7,66.9z"/>
	<path fill="#5D5D5D" d="M235,76.3c0.1,0,0.1,0,0.2,0c0.1,0,0.1-0.1,0.1-0.3s0-0.5,0-1c0.3,0.2,0.8,0.5,1.2,0.6c0,0.5-0.1,1-0.2,1.2
		c-0.1,0.2-0.3,0.4-0.5,0.5c-0.2,0.1-0.5,0.1-0.7,0.1h-0.8c-0.3,0-0.7-0.1-0.9-0.3s-0.3-0.5-0.3-1.3v-1.7h-0.7
		c-0.2,1.7-0.7,2.8-3,3.4c-0.1-0.3-0.4-0.8-0.7-1.1c-1.3,0.3-2.7,0.5-3.7,0.8l-0.3-1.4c0.5-0.1,1.2-0.2,1.9-0.3v-3.3h-1.7v-1.3h1.7
		V70h-1.1v-0.4c-0.2,0.2-0.3,0.3-0.5,0.5c-0.1-0.3-0.4-1.2-0.6-1.6c1-0.7,2-1.8,2.5-3l1.1,0.5c-0.1,0.2-0.2,0.3-0.2,0.5
		c0.8,0.5,1.6,1,2.1,1.5l-0.4,0.7h1.6c-0.1-0.3-0.2-0.7-0.3-0.9l1-0.2h-2v-1.1h2.5c-0.1-0.2-0.2-0.4-0.3-0.6l1.3-0.3
		c0.2,0.3,0.3,0.6,0.5,0.9h2.5v1.1H234l1.2,0.2c-0.2,0.3-0.3,0.7-0.5,0.9h1.6v1.2h-7v-1l-0.2,0.4l0,0V70h-1.2v0.9h1.6v1.3h-1.6v3.1
		l1.7-0.3l0.1,1c0.9-0.4,1.2-1,1.3-1.9h-1v-3.9h5.9v3.9h-1.3v1.8c0,0.2,0,0.3,0.1,0.3c0,0,0.1,0.1,0.2,0.1H235z M225.8,72.7
		c0.2,0.7,0.4,1.6,0.5,2.2l-1,0.3c0-0.6-0.2-1.5-0.4-2.2L225.8,72.7z M228.6,68.7c-0.4-0.4-1-0.8-1.6-1.2c-0.3,0.4-0.6,0.8-0.9,1.2
		H228.6z M227.9,74.7c0.2-0.6,0.4-1.5,0.4-2.1l1.1,0.3c-0.2,0.7-0.4,1.5-0.6,2.1L227.9,74.7z M231.2,71.8h3.3v-0.6h-3.3V71.8z
		 M231.2,73.2h3.3v-0.6h-3.3V73.2z M231.8,67.5c0.2,0.3,0.3,0.8,0.4,1.1h1.1c0.2-0.4,0.3-0.8,0.4-1.1H231.8z"/>
	<path fill="#5D5D5D" d="M247,71.6v5.8h-1.6v-4.3h-4.7c-0.2,1.6-0.8,3.1-2,4.4c-0.2-0.4-0.8-0.9-1.1-1.2c1.6-1.7,1.8-4.1,1.8-6.3
		v-4.3h1.5v2.7h4.1v-2.9h1.6v4.4h-5.7V70c0,0.5,0,1,0,1.6H247z"/>
</g>
<g>
	<path fill="#5D5D5D" d="M101.2,121.1h-2.8v1.2c0,0.7-0.1,1.1-0.7,1.3c-0.5,0.2-1.2,0.2-2.2,0.2c-0.1-0.4-0.3-0.9-0.4-1.3
		c0.6,0,1.3,0,1.5,0c0.2,0,0.3-0.1,0.3-0.2v-1.2h-3.6c0.5,0.4,1.1,0.8,1.4,1.2l-1.1,1c-0.4-0.5-1.2-1.2-1.9-1.7l0.5-0.4h-2.6v-1.2
		h7.3v-0.5c-2.5,0.1-4.9,0.1-6.7,0.1l0-1.1c1.2,0,2.8,0,4.5,0V118h-3.7v-3.7h3.7v-0.5h-4.7v-1.1h4.7v-0.8h1.5v0.8h4.7v1.1h-4.7v0.5
		h3.9v3.7h-0.9c0.6,0.3,1.2,0.7,1.6,1l-0.9,0.8c-0.2-0.1-0.3-0.3-0.5-0.4l-0.9,0v0.5h2.8V121.1z M92.3,115.7h2.3v-0.5h-2.3V115.7z
		 M94.6,117.1v-0.5h-2.3v0.5H94.6z M96.1,115.2v0.5h2.4v-0.5H96.1z M98.5,117.1v-0.5h-2.4v0.5H98.5z M96.1,118.4l1.6,0
		c-0.2-0.1-0.4-0.2-0.5-0.2l0.3-0.2h-1.3V118.4z"/>
	<path fill="#5D5D5D" d="M106.4,115.7h2.3v1.4h-2.3v0.4c0.6,0.5,1.9,1.6,2.2,1.9l-0.9,1.3c-0.3-0.4-0.9-1-1.4-1.6v4.6h-1.5v-4.5
		c-0.6,1.1-1.2,2.2-1.9,2.9c-0.2-0.5-0.5-1.1-0.8-1.5c0.9-0.9,1.8-2.3,2.4-3.6h-2.1v-1.4h2.4v-1.6c-0.7,0.1-1.4,0.3-2.1,0.3
		c-0.1-0.3-0.3-0.9-0.4-1.2c1.8-0.3,3.9-0.8,5.1-1.3l1.1,1.2c-0.6,0.3-1.4,0.5-2.1,0.7V115.7z M111,120.6h-1.5v-7.1h1.5V120.6z
		 M113.7,112.1v9.8c0,0.9-0.2,1.3-0.7,1.6c-0.5,0.3-1.4,0.3-2.5,0.3c-0.1-0.4-0.3-1.1-0.5-1.6c0.8,0,1.7,0,1.9,0
		c0.2,0,0.3-0.1,0.3-0.3v-9.8H113.7z"/>
	<path fill="#5D5D5D" d="M119.4,112.9c-0.3,1.1-0.7,2.3-1.1,3.3c0.7,1,0.9,1.9,0.9,2.7c0,0.8-0.2,1.4-0.6,1.7
		c-0.2,0.2-0.4,0.2-0.7,0.3c-0.2,0-0.5,0-0.8,0c0-0.4-0.1-0.9-0.3-1.3c0.2,0,0.4,0,0.5,0c0.1,0,0.2,0,0.3-0.1
		c0.1-0.1,0.2-0.4,0.2-0.8c0-0.6-0.2-1.4-0.9-2.3c0.2-0.8,0.5-1.8,0.7-2.7h-1v10h-1.2v-11.4h2.7l0.2-0.1L119.4,112.9z M118.8,123.1
		c0.4-0.6,0.7-1.4,0.9-2.1l1.1,0.4c-0.2,0.7-0.5,1.6-0.9,2.2L118.8,123.1z M126.5,120.6h-3.1c0.3,0.3,0.7,0.6,0.9,0.8l-0.8,0.8
		c-0.3-0.4-1-1-1.4-1.4l0.3-0.2h-2.5v-0.9h5.3v-0.4h-5.7v-0.8h5.7v-0.4h-5.3v-0.9h6.6v1.3h0.6v0.8h-0.6V120.6z M120.8,113.6
		c-0.3,0-0.7,0-1,0c0-0.3-0.2-0.7-0.3-1c2.3-0.1,5.1-0.3,6.6-0.7l0.9,0.9c-0.5,0.1-1.1,0.2-1.6,0.3l1,0.3c-0.2,0.3-0.4,0.7-0.6,1.1
		h0.8v0.9h-2.6v0.5h3.1v0.9h-7.4V116h2.9v-0.5H120v-0.9h0.6c-0.1-0.2-0.3-0.5-0.4-0.7L120.8,113.6z M126,123.6
		c-0.1-0.3-0.4-0.8-0.6-1.2c-0.1,1.1-0.5,1.4-1.4,1.4h-1.5c-1.3,0-1.6-0.3-1.6-1.4V121h1.3v1.3c0,0.3,0.1,0.3,0.5,0.3h1.2
		c0.3,0,0.4-0.1,0.4-0.7c0.3,0.2,0.8,0.3,1.1,0.4c-0.2-0.3-0.3-0.7-0.5-0.9l1.1-0.4c0.4,0.7,0.9,1.5,1.2,2.1L126,123.6z M123,113.5
		c-0.5,0.1-1.1,0.1-1.7,0.1c0.2,0.2,0.4,0.5,0.5,0.7l-0.7,0.3h1.6c-0.1-0.3-0.3-0.6-0.4-0.8L123,113.5z M124.4,114.6
		c0.3-0.4,0.6-0.9,0.8-1.3c-0.5,0.1-1.1,0.2-1.7,0.2c0.2,0.3,0.4,0.6,0.5,0.9l-0.7,0.3H124.4z"/>
	<path fill="#5D5D5D" d="M139.5,116.9c-0.3,1.6-0.8,3-1.5,4.3c0.3,0.8,0.5,1.3,0.8,1.3c0.2,0,0.3-0.4,0.4-1.6c0.3,0.3,0.7,0.5,1,0.7
		c-0.2,1.9-0.6,2.3-1.5,2.3c-0.6,0-1.1-0.5-1.5-1.3c-0.4,0.5-0.9,1-1.4,1.4c-0.2-0.2-0.8-0.7-1.1-0.9c0.2-0.2,0.4-0.3,0.6-0.5h-2.2
		v0h-1.1v-5.7h3.7v1h-0.9v0.6h1v2.5h-1v0.7h1v0.4c0.3-0.3,0.5-0.6,0.7-1c-0.3-1.2-0.5-2.8-0.6-4.7h-4.3v2.6c0,1.6-0.1,3.7-0.8,5
		c-0.2-0.2-0.8-0.5-1.1-0.6c0.5-0.8,0.6-1.9,0.7-3h-0.6v0.3c0,0.9-0.1,2.3-0.9,3.2c-0.2-0.2-0.6-0.5-0.9-0.6
		c0.6-0.8,0.7-1.9,0.7-2.6v-0.3h-0.6V119h2.3v-0.2v-0.5h-1.8v-3.2h1.1v1.9h0.7V115h5.5l0-0.7h0.1v-0.4h-1.6v-1.2h1.6v-0.8h1.5v0.8
		h2.3v1.2h-1c0.4,0.2,0.7,0.6,0.9,0.8l-0.4,0.3h0.6v1.3h-2.6c0.1,1,0.1,2,0.3,2.8c0.3-0.7,0.5-1.5,0.6-2.3L139.5,116.9z
		 M130.8,113.9h-2.4v-1.2h2.4v-0.8h1.5v0.8h1.6v1.2h-1.6v0.6h-1.5V113.9z M133.1,117.7v0.6h0.7v-0.6H133.1z M133.1,119.2v0.7h1.6
		v-0.7H133.1z M133.1,121.5h0.7v-0.7h-0.7V121.5z M137.2,115h1.1c-0.2-0.2-0.4-0.4-0.7-0.5l0.8-0.6h-1v0.5h-0.2V115z"/>
	<path fill="#5D5D5D" d="M149.2,115.6c0.3,3.7,1,6.7,2,6.7c0.3,0,0.4-0.7,0.5-2.3c0.3,0.4,0.9,0.7,1.3,0.9c-0.2,2.4-0.7,3-2,3
		c-2.2,0-3.1-3.8-3.4-8.3h-6.3v-1.5h6.3c0-0.7,0-1.4,0-2.1h1.6c0,0.7,0,1.4,0,2.1h2c-0.3-0.4-1-1-1.5-1.3l1-0.8
		c0.6,0.4,1.3,1,1.7,1.4l-0.9,0.8h1.2v1.5H149.2z M145.2,121.3c0.8-0.1,1.6-0.3,2.4-0.4l0.1,1.4c-2.1,0.5-4.3,0.9-6,1.3l-0.4-1.5
		c0.7-0.1,1.5-0.2,2.4-0.4v-3.1h-1.9V117h5.5v1.5h-2V121.3z"/>
	<path fill="#5D5D5D" d="M165.6,122.4v1.2h-11.6v-1.2h5v-0.6h-3.7v-1.1l-0.1,0.1l-1.1-0.7c0.5-0.3,1.1-0.9,1.4-1.5h-1.4v-1h4.9v-0.5
		h-3.9v-1h3.9v-0.4h-3.8v-3.5h9.2v3.5h-3.9v0.4h4.2v1h-4.2v0.5h4.9v1H164c0.6,0.4,1.2,1,1.6,1.4l-1.2,0.6c-0.3-0.4-1.1-1.1-1.7-1.6
		l0.8-0.4h-2.1c0.4,0.4,0.7,0.9,0.9,1.3l-1.2,0.5c-0.2-0.4-0.5-1-0.9-1.4l1-0.4h-5.4l1,0.3c-0.3,0.6-0.9,1.3-1.4,1.7h3.6V120
		l-1.1,0.3c-0.1-0.4-0.2-0.9-0.4-1.4l1.3-0.3c0.2,0.4,0.4,0.9,0.5,1.3l-0.2,0.1h1.5v0.6h3.7v1.2h-3.7v0.6H165.6z M156.7,114.8h0.9
		c-0.1-0.4-0.3-1-0.5-1.4l0.8-0.3h-1.2V114.8z M159.1,114.8v-1.7h-1c0.3,0.4,0.5,1,0.5,1.4l-0.8,0.3H159.1z M161.5,114.8l-0.6-0.2
		c0.2-0.4,0.4-1,0.6-1.5h-1v1.7H161.5z M163,113.1h-1.2l0.9,0.3c-0.2,0.5-0.5,1-0.7,1.4h1V113.1z"/>
	<path fill="#5D5D5D" d="M177.3,122.6c0.1,0,0.1,0,0.2,0c0.1,0,0.1-0.1,0.1-0.3s0-0.5,0-1c0.3,0.2,0.8,0.5,1.2,0.6
		c0,0.5-0.1,1-0.2,1.2c-0.1,0.2-0.3,0.4-0.5,0.5c-0.2,0.1-0.5,0.1-0.7,0.1h-0.8c-0.3,0-0.7-0.1-0.9-0.3s-0.3-0.5-0.3-1.3v-1.7h-0.7
		c-0.2,1.7-0.7,2.8-3,3.4c-0.1-0.3-0.4-0.8-0.7-1.1c-1.3,0.3-2.7,0.5-3.7,0.8l-0.3-1.4c0.5-0.1,1.2-0.2,1.9-0.3v-3.3h-1.7v-1.3h1.7
		v-0.9h-1.1v-0.4c-0.2,0.2-0.3,0.3-0.5,0.5c-0.1-0.3-0.4-1.2-0.6-1.6c1-0.7,2-1.8,2.5-3l1.1,0.5c-0.1,0.2-0.2,0.3-0.2,0.5
		c0.8,0.5,1.6,1,2.1,1.5l-0.4,0.7h1.6c-0.1-0.3-0.2-0.7-0.3-0.9l1-0.2h-2v-1.1h2.5c-0.1-0.2-0.2-0.4-0.3-0.6l1.3-0.3
		c0.2,0.3,0.3,0.6,0.5,0.9h2.5v1.1h-2.1l1.2,0.2c-0.2,0.3-0.3,0.7-0.5,0.9h1.6v1.2h-7v-1l-0.2,0.4l0,0v0.9h-1.2v0.9h1.6v1.3h-1.6
		v3.1l1.7-0.3l0.1,1c0.9-0.4,1.2-1,1.3-1.9h-1v-3.9h5.9v3.9h-1.3v1.8c0,0.2,0,0.3,0.1,0.3c0,0,0.1,0.1,0.2,0.1H177.3z M168.2,119.1
		c0.2,0.7,0.4,1.6,0.5,2.2l-1,0.3c0-0.6-0.2-1.5-0.4-2.2L168.2,119.1z M170.9,115.1c-0.4-0.4-1-0.8-1.6-1.2
		c-0.3,0.4-0.6,0.8-0.9,1.2H170.9z M170.3,121c0.2-0.6,0.4-1.5,0.4-2.1l1.1,0.3c-0.2,0.7-0.4,1.5-0.6,2.1L170.3,121z M173.5,118.1
		h3.3v-0.6h-3.3V118.1z M173.5,119.6h3.3V119h-3.3V119.6z M174.2,113.9c0.2,0.3,0.3,0.8,0.4,1.1h1.1c0.2-0.4,0.3-0.8,0.4-1.1H174.2z
		"/>
	<path fill="#5D5D5D" d="M185.6,122.3c0,0.7-0.1,1-0.6,1.2c-0.4,0.2-1,0.2-1.8,0.2c-0.1-0.4-0.3-0.9-0.5-1.3c0.5,0,1,0,1.1,0
		c0.2,0,0.2-0.1,0.2-0.2v-1.1h-2.2c-0.1,1-0.4,1.9-0.9,2.7c-0.2-0.2-0.8-0.7-1.1-0.9c0.8-1.1,0.9-2.8,0.9-4v-2.9h4.9V122.3z
		 M191.4,113.8v1.4h-11.5v-1.4h2.7c-0.2-0.4-0.6-1-1-1.4l1.4-0.5c0.5,0.5,1,1.2,1.2,1.7l-0.7,0.2h3.5c0.4-0.6,0.8-1.3,1-1.9l1.6,0.5
		c-0.3,0.5-0.7,1-1,1.4H191.4z M184.1,120.1v-0.8H182c0,0.3,0,0.5,0,0.8H184.1z M182,117.2v0.9h2.1v-0.9H182z M188.1,121.4h-1.4
		v-5.2h1.4V121.4z M189.2,115.8h1.5v6.3c0,0.8-0.1,1.1-0.7,1.4c-0.5,0.2-1.2,0.3-2.1,0.3c-0.1-0.4-0.3-1-0.5-1.4c0.7,0,1.3,0,1.5,0
		c0.2,0,0.3-0.1,0.3-0.2V115.8z"/>
	<path fill="#5D5D5D" d="M196.5,118.6c-0.4,0.1-0.8,0.2-1.2,0.4v3.3c0,0.7-0.1,1.1-0.5,1.3c-0.4,0.2-0.9,0.3-1.7,0.3
		c0-0.4-0.2-1-0.4-1.4c0.5,0,0.9,0,1.1,0s0.2-0.1,0.2-0.2v-2.9c-0.4,0.1-0.8,0.2-1.2,0.3l-0.3-1.5c0.4-0.1,1-0.2,1.5-0.4v-2.2h-1.3
		v-1.4h1.3v-2.4h1.4v2.4h1v1.4h-1v1.8l1-0.3L196.5,118.6z M200.8,121.3l0,1.2c-1.7,0.2-3.5,0.5-4.9,0.7l-0.2-1.3
		c0.6-0.1,1.3-0.1,2.1-0.2v-1.5h-1.5V119h1.5v-1.5h1.3v1.5h1.5v1.2h-1.5v1.3L200.8,121.3z M197.9,114.6h-1.4v-1.2h1.4v-1.5h1.4v1.5
		h1.3v1.2h-1.3v1.3h1.5v1.2h-4.5v-1.2h1.6V114.6z M203.9,119.2c-0.3-0.4-0.9-1.1-1.4-1.7v6.2H201v-11.9h1.4v4c0.6,0.4,1.9,1.7,2.3,2
		L203.9,119.2z"/>
	<path fill="#9E9E9E" d="M217.8,114.7v0.9h3.5v5.5c0,0.5-0.1,0.8-0.5,1c-0.3,0.2-0.9,0.2-1.6,0.2c-0.1-0.3-0.2-0.7-0.4-1
		c0.4,0,0.9,0,1.1,0c0.1,0,0.2,0,0.2-0.2v-0.7c-0.2,0.1-0.4,0.3-0.5,0.4c-0.3-0.4-0.5-0.8-0.6-1.2c-0.2,0.5-0.4,0.9-0.7,1.2
		c-0.1-0.1-0.4-0.3-0.6-0.4v1.9h-1.1v-1.7c-0.1,0.1-0.3,0.2-0.4,0.3c-0.3-0.4-0.5-0.8-0.6-1.3c-0.2,0.5-0.4,1-0.7,1.3
		c-0.1-0.1-0.3-0.3-0.5-0.4v1.8h-1.1v-6.7h3.4v-0.9H213v-1.2h8.7v1.2H217.8z M216.1,117.1c0,1,0.1,2,0.6,2.9v-3.4h-2.2v3.6
		c0.5-0.6,0.8-1.4,0.9-2.4h-0.5v-0.8H216.1z M217.8,116.6v3.6c0.5-0.6,0.8-1.4,0.9-2.4h-0.5v-0.8h1.3c0,1.1,0.1,2.2,0.7,3v-3.5
		H217.8z"/>
	<path fill="#9E9E9E" d="M224.4,119.7c-0.2,0.7-0.5,1.6-0.8,2.1c-0.2-0.1-0.7-0.3-0.9-0.4c0.3-0.5,0.6-1.3,0.7-1.9L224.4,119.7z
		 M225.9,119.3v3.2h-1.1v-3.2h-1.9v-1h4.9v1H225.9z M224.7,115H223v-1h1.8v-0.7h1.1v0.7h1.7v1h-1.7v0.5h1.5v1h-4.2v-1h1.5V115z
		 M227.3,116.9c0.5-1,0.8-2.3,1-3.7l1.1,0.2c-0.1,0.5-0.2,1.1-0.3,1.6h2l0.2,0l0.8,0.2c-0.2,1-0.5,2.1-0.7,2.8l-1-0.3
		c0.1-0.4,0.3-1,0.4-1.6h-1.9c-0.2,0.8-0.5,1.4-0.8,2c-0.2-0.1-0.5-0.4-0.7-0.6v0.4h-4v-1L227.3,116.9L227.3,116.9z M227,119.4
		c0.2,0.5,0.5,1.1,0.6,1.5l-0.9,0.4c-0.1-0.4-0.4-1.1-0.6-1.6L227,119.4z M230.1,117.2c0,0.3,0,0.6,0,0.9c0.3,1.5,1,2.7,2.1,3.3
		c-0.3,0.2-0.6,0.7-0.8,1c-0.8-0.5-1.3-1.3-1.7-2.3c-0.3,0.8-0.8,1.6-1.6,2.3c-0.2-0.3-0.6-0.6-0.9-0.8c1.6-1.4,1.8-3.3,1.8-4.5
		v-0.5h1.1V117.2z"/>
	<path fill="#9E9E9E" d="M236.1,118.4c-0.3,0.1-0.6,0.2-0.9,0.3v2.5c0,0.5-0.1,0.8-0.4,1c-0.3,0.2-0.7,0.2-1.4,0.2
		c0-0.3-0.2-0.8-0.3-1.1c0.4,0,0.7,0,0.8,0c0.1,0,0.2,0,0.2-0.2V119l-0.9,0.3l-0.3-1.1c0.3-0.1,0.7-0.2,1.2-0.3v-1.7h-1v-1.1h1v-1.9
		h1.1v1.9h0.9v1.1h-0.9v1.4c0.3-0.1,0.5-0.1,0.8-0.2L236.1,118.4z M242.2,121.3h-2.5v1.2h-1.1v-1.2H236v-0.9h2.5V120h-2.2v-0.9h1.1
		c-0.1-0.2-0.1-0.4-0.2-0.6l0.7-0.2h-1.8v-0.9h2.4V117h-2v-0.8h2v-0.4h-2.1v-2.2h5.5v2.2h-2.3v0.4h2.1v0.8h-2.1v0.4h2.4v0.9h-1.6
		l0.7,0.2l-0.3,0.6h0.9v0.9h-2.2v0.4h2.5V121.3z M238,114.3h-0.6v0.7h0.6V114.3z M238.3,118.3c0.1,0.2,0.2,0.5,0.3,0.7h1.3
		c0.1-0.2,0.2-0.5,0.3-0.7H238.3z M238.9,115h0.6v-0.7h-0.6V115z M240.4,115h0.6v-0.7h-0.6V115z"/>
	<path fill="#9E9E9E" d="M252.4,117.2v1.3h-9.1v-1.3H252.4z"/>
</g>
<g>
	<path fill="#9E9E9E" d="M43.8,118.5c0-1.1,0.8-1.7,1.6-1.7c0.8,0,1.6,0.7,1.6,1.8c0,1.1-0.8,1.7-1.6,1.7
		C44.5,120.3,43.7,119.6,43.8,118.5z M46,118.5c0-0.6-0.2-1-0.7-1c-0.4,0-0.7,0.4-0.7,1c0,0.6,0.2,1,0.7,1
		C45.8,119.6,46,119.2,46,118.5z"/>
	<path fill="#9E9E9E" d="M47.7,116.9l0.7,0l0.1,0.6l0,0c0.2-0.4,0.6-0.7,0.9-0.7c0.2,0,0.3,0,0.4,0.1l-0.2,0.7
		c-0.1,0-0.2-0.1-0.3-0.1c-0.3,0-0.6,0.2-0.8,0.6l0,2l-0.9,0L47.7,116.9z"/>
</g>
<g id="XMLID_46_">
	<path id="XMLID_56_" fill="#8572B7" d="M44.2,108.7c-0.5,2.5-0.8,3.1-2.2,4.7s-6.8,0.9-6.8,0.9s-2.3-0.2-4.1-1.3
		c-1.8-1.1-1.9-6.3-1.9-6.3s-0.2-2.3,1.8-3.1s5.8-0.4,5.8-0.4c6.7,0.2,7.3,2.3,7.3,2.3S44.7,106.4,44.2,108.7z"/>
	<g>
		<defs>
			<path id="XMLID_55_" d="M43.9,105.3c0,0-0.6-2.2-7.3-2.3c0,0-3.9-0.4-5.9,0.4c-2,0.8-1.8,3.2-1.8,3.2s0.1,5.3,1.9,6.4
				c1.9,1.1,4.2,1.3,4.2,1.3s5.4,0.7,6.8-0.9c1.4-1.6,1.7-2.2,2.2-4.8C44.5,106.3,43.9,105.3,43.9,105.3z"/>
		</defs>
		<clipPath id="XMLID_58_">
			<use xlink:href="#XMLID_55_"  overflow="visible"/>
		</clipPath>
		<path clip-path="url(#XMLID_58_)" fill="#B9ACE5" d="M46.6,104.1c0,0-8.5,12.3-20.7-0.2l-0.2,10.4l9.8,3.8l11.8-6.4L46.6,104.1z"
			/>
	</g>
	<path id="XMLID_54_" fill="#8572B7" d="M49.7,105.4c0,0,0.6-2.2,7.4-2.2c0,0,3.9-0.3,5.9,0.5c2,0.8,1.7,3.2,1.7,3.2
		s-0.2,5.3-2.1,6.3c-1.9,1.1-4.2,1.3-4.2,1.3s-5.5,0.6-6.8-1c-1.4-1.7-1.6-2.2-2.1-4.8C49,106.4,49.7,105.4,49.7,105.4z"/>
	<g>
		<defs>
			<path id="XMLID_53_" d="M49.7,105.2c0,0,0.6-2.2,7.4-2.2c0,0,3.9-0.3,5.9,0.5c2,0.8,1.7,3.2,1.7,3.2s-0.2,5.3-2.1,6.3
				c-1.9,1.1-4.2,1.3-4.2,1.3s-5.5,0.6-6.8-1c-1.4-1.7-1.6-2.2-2.1-4.8C49,106.2,49.7,105.2,49.7,105.2z"/>
		</defs>
		<clipPath id="XMLID_59_">
			<use xlink:href="#XMLID_53_"  overflow="visible"/>
		</clipPath>
		<path clip-path="url(#XMLID_59_)" fill="#B9ACE5" d="M47,103.9c0,0,8.3,12.4,20.7,0.2l0,10.4l-9.9,3.6l-11.7-6.6L47,103.9z"/>
	</g>
	<path id="XMLID_49_" fill="#333333" d="M66,102.9c-1.1-0.1-5.2-0.6-6.5-0.5c-1.3,0-5.9,0.1-8.6,0.9c0,0-1,0.2-1.7,0.9
		s-2.5,0.8-2.5,0.8s-1.7-0.1-2.4-0.8c-0.7-0.8-1.7-1-1.7-1c-2.7-0.9-7.3-1-8.6-1.1c-1.3-0.1-5.3,0.3-6.5,0.4s-1.1,0.3-1.1,0.3l0,2.3
		c0,0,0,0.4,0.5,0.4c0.5,0,1.1,0.6,1.3,1.4c0.1,0.8,0.6,4.6,1.5,5.8c0,0,0.6,1.1,1.6,1.3c1.3,0.4,3.8,0.9,5.8,0.8
		c2.1-0.1,3.6,0,4.6-0.5c1.1-0.6,1.5-1.4,1.5-1.4s1.7-3.5,1.8-4.6c0.1-1.1,0.9-1.5,1.7-1.5c0.8,0,1.6,0.4,1.7,1.5
		c0.1,1.1,1.7,4.7,1.7,4.7s0.3,0.8,1.4,1.4c1,0.5,2.6,0.5,4.6,0.6s4.5-0.4,5.8-0.7c1.4-0.2,1.6-1.3,1.6-1.3c0.9-1.3,1.4-5,1.6-5.8
		c0.1-0.8,0.8-1.4,1.3-1.4s0.5-0.3,0.5-0.3l0.1-2.3C67.1,103.2,67.2,103,66,102.9z M44.1,108.6c-0.5,2.5-0.8,3.1-2.1,4.7
		c-1.4,1.6-6.7,0.9-6.7,0.9s-2.3-0.2-4.1-1.3c-1.8-1.1-1.9-6.2-1.9-6.2s-0.2-2.3,1.7-3.1s5.8-0.4,5.8-0.4c6.7,0.2,7.2,2.3,7.2,2.3
		S44.5,106.4,44.1,108.6z M64.5,106.9c0,0-0.2,5.2-2,6.2s-4.1,1.2-4.1,1.2s-5.3,0.6-6.7-1c-1.3-1.6-1.6-2.2-2.1-4.7
		c-0.4-2.2,0.2-3.2,0.2-3.2s0.6-2.1,7.2-2.2c0,0,3.9-0.3,5.8,0.5C64.8,104.6,64.5,106.9,64.5,106.9z"/>
	<line id="XMLID_48_" fill="none" stroke="#747475" stroke-miterlimit="10" x1="44.8" y1="105.2" x2="45.4" y2="106.8"/>
	<line id="XMLID_47_" fill="none" stroke="#747475" stroke-miterlimit="10" x1="49" y1="105.2" x2="48.3" y2="106.8"/>
</g>
<g>
	<g>
		<path fill="#B6CCCA" d="M44.5,70.3c0,6.2-6.2,12.7-12.4,12.7S22,76.5,22,70.3s4.5-12.4,10.7-12.4S44.5,64.1,44.5,70.3z"/>
		<path fill="#E4F9F8" d="M43.1,70.4c0,6.2-4.8,12.5-11,12.5s-11.5-6.3-11.5-12.5S25.2,58,31.4,58S43.1,64.2,43.1,70.4z"/>
		<g opacity="0.47">
			<defs>
				<path id="SVGID_5_" opacity="0.47" d="M43.1,70.4c0,6.2-4.8,12.5-11,12.5s-11.5-6.3-11.5-12.5S25.2,58,31.4,58
					S43.1,64.2,43.1,70.4z"/>
			</defs>
			<clipPath id="SVGID_2_">
				<use xlink:href="#SVGID_5_"  overflow="visible"/>
			</clipPath>
			<path clip-path="url(#SVGID_2_)" fill="none" stroke="#B0A3EF" stroke-width="10" stroke-miterlimit="10" d="M30.9,56.2
				c0,0-8.1,9-7.6,34"/>
			<path clip-path="url(#SVGID_2_)" fill="none" stroke="#B0A3EF" stroke-width="10" stroke-miterlimit="10" d="M30.4,51.9
				c0,0-8.1,9-7.6,34"/>
		</g>
	</g>
	<g>
		<path fill="#B6CCCA" d="M72,70.3C72,76.5,65.8,83,59.6,83s-10.1-6.5-10.1-12.7s4.5-12.4,10.7-12.4S72,64.1,72,70.3z"/>
		<path fill="#E4F9F8" d="M70.6,70.4c0,6.2-4.8,12.5-11,12.5s-11.5-6.3-11.5-12.5S52.7,58,58.9,58S70.6,64.2,70.6,70.4z"/>
		<g opacity="0.47">
			<defs>
				<path id="SVGID_7_" opacity="0.47" d="M70.6,70.4c0,6.2-4.8,12.5-11,12.5s-11.5-6.3-11.5-12.5S52.7,58,58.9,58
					S70.6,64.2,70.6,70.4z"/>
			</defs>
			<clipPath id="SVGID_4_">
				<use xlink:href="#SVGID_7_"  overflow="visible"/>
			</clipPath>
			<path clip-path="url(#SVGID_4_)" fill="none" stroke="#B0A3EF" stroke-width="10" stroke-miterlimit="10" d="M58.4,56.2
				c0,0-8.1,9-7.6,34"/>
			<path clip-path="url(#SVGID_4_)" fill="none" stroke="#B0A3EF" stroke-width="10" stroke-miterlimit="10" d="M57.9,51.9
				c0,0-8.1,9-7.6,34"/>
		</g>
	</g>
</g>
<g>
	<path id="XMLID_45_" fill="#352616" d="M43.9,128.4c-0.5,2.5-0.8,3.1-2.2,4.7S35,134,35,134s-2.3-0.2-4.1-1.3s-1.9-6.3-1.9-6.3
		s-0.2-2.3,1.8-3.1c2-0.8,5.8-0.4,5.8-0.4c6.7,0.2,7.3,2.3,7.3,2.3S44.4,126.2,43.9,128.4z"/>
	<path id="XMLID_44_" fill="#352616" d="M49.6,125.4c0,0,0.6-2.2,7.4-2.2c0,0,3.9-0.3,5.9,0.5c2,0.8,1.7,3.2,1.7,3.2
		s-0.2,5.3-2.1,6.3c-1.9,1.1-4.2,1.3-4.2,1.3s-5.5,0.6-6.8-1c-1.4-1.7-1.6-2.2-2.1-4.8C49,126.4,49.6,125.4,49.6,125.4z"/>
	<g>
		<defs>
			<path id="XMLID_43_" d="M43.8,125.3c0,0-0.6-2.2-7.3-2.3c0,0-3.9-0.4-5.9,0.4c-2,0.8-1.8,3.2-1.8,3.2s0.1,5.3,1.9,6.4
				s4.2,1.3,4.2,1.3s5.4,0.7,6.8-0.9c1.4-1.6,1.7-2.2,2.2-4.8C44.4,126.3,43.8,125.3,43.8,125.3z"/>
		</defs>
		<clipPath id="XMLID_60_">
			<use xlink:href="#XMLID_43_"  overflow="visible"/>
		</clipPath>
		<path clip-path="url(#XMLID_60_)" fill="#5D5F60" d="M46.5,124.1c0,0-8.5,12.3-20.7-0.2l-0.2,10.4l9.8,3.8l11.8-6.4L46.5,124.1z"
			/>
	</g>
	<g>
		<defs>
			<path id="XMLID_42_" d="M49.5,125.2c0,0,0.6-2.2,7.4-2.2c0,0,3.9-0.3,5.9,0.5c2,0.8,1.7,3.2,1.7,3.2s-0.2,5.3-2.1,6.3
				c-1.9,1.1-4.2,1.3-4.2,1.3s-5.5,0.6-6.8-1c-1.4-1.7-1.6-2.2-2.1-4.8C48.9,126.2,49.5,125.2,49.5,125.2z"/>
		</defs>
		<clipPath id="XMLID_61_">
			<use xlink:href="#XMLID_42_"  overflow="visible"/>
		</clipPath>
		<path clip-path="url(#XMLID_61_)" fill="#5D5F60" d="M46.8,123.9c0,0,8.3,12.4,20.7,0.2l0,10.4l-9.9,3.6L46,131.6L46.8,123.9z"/>
	</g>
	<g id="XMLID_12_">
		<path id="XMLID_16_" fill="#333333" d="M65.8,122.9c-1.1-0.1-5.2-0.6-6.5-0.5c-1.3,0-5.9,0.1-8.6,0.9c0,0-1,0.2-1.7,0.9
			c-0.8,0.7-2.5,0.8-2.5,0.8s-1.7-0.1-2.4-0.8s-1.7-1-1.7-1c-2.7-0.9-7.3-1-8.6-1.1c-1.3-0.1-5.3,0.3-6.5,0.4
			c-1.1,0.1-1.1,0.3-1.1,0.3l0,2.3c0,0,0,0.4,0.5,0.4c0.5,0,1.1,0.6,1.3,1.4c0.1,0.8,0.6,4.6,1.5,5.8c0,0,0.6,1.1,1.6,1.3
			c1.3,0.4,3.8,0.9,5.8,0.8c2.1-0.1,3.6,0,4.6-0.5c1.1-0.6,1.5-1.4,1.5-1.4s1.7-3.5,1.8-4.6c0.1-1.1,0.9-1.5,1.7-1.5
			c0.8,0,1.6,0.4,1.7,1.5c0.1,1.1,1.7,4.7,1.7,4.7s0.3,0.8,1.4,1.4c1,0.5,2.6,0.5,4.6,0.6c2.1,0.2,4.5-0.4,5.8-0.7
			c1.4-0.2,1.6-1.3,1.6-1.3c0.9-1.3,1.4-5,1.6-5.8c0.1-0.8,0.8-1.4,1.3-1.4c0.5,0,0.5-0.3,0.5-0.3l0.1-2.3
			C67,123.2,67,123,65.8,122.9z M43.9,128.6c-0.5,2.5-0.8,3.1-2.1,4.7c-1.4,1.6-6.7,0.9-6.7,0.9s-2.3-0.2-4.1-1.3s-1.9-6.2-1.9-6.2
			s-0.2-2.3,1.7-3.1c1.9-0.8,5.8-0.4,5.8-0.4c6.7,0.2,7.2,2.3,7.2,2.3S44.3,126.3,43.9,128.6z M64.3,126.9c0,0-0.2,5.2-2,6.2
			c-1.8,1-4.1,1.2-4.1,1.2s-5.3,0.6-6.7-1s-1.6-2.2-2.1-4.7c-0.4-2.2,0.2-3.2,0.2-3.2s0.6-2.1,7.2-2.2c0,0,3.9-0.3,5.8,0.5
			C64.6,124.6,64.3,126.9,64.3,126.9z"/>
		<line id="XMLID_15_" fill="none" stroke="#747475" stroke-miterlimit="10" x1="44.6" y1="125.2" x2="45.2" y2="126.7"/>
		<line id="XMLID_13_" fill="none" stroke="#747475" stroke-miterlimit="10" x1="48.8" y1="125.2" x2="48.1" y2="126.8"/>
	</g>
</g>
<g>
	<path fill="#5D5D5D" d="M23.5,167.1l-1.9-3.6h1.6l0.7,1.5c0.2,0.3,0.3,0.7,0.5,1.2h0c0.2-0.5,0.3-0.8,0.5-1.2l0.7-1.5h1.5l-1.9,3.6
		l2.1,3.7h-1.6l-0.8-1.6c-0.2-0.4-0.4-0.8-0.6-1.2h0c-0.2,0.4-0.4,0.8-0.5,1.2l-0.8,1.6h-1.6L23.5,167.1z"/>
	<path fill="#5D5D5D" d="M28.6,168.8v-3.5h1.5v3.3c0,0.9,0.2,1.2,0.8,1.2c0.5,0,0.8-0.2,1.1-0.7v-3.7h1.5v5.6h-1.2l-0.1-0.8h0
		c-0.5,0.6-1,0.9-1.8,0.9C29.1,171,28.6,170.1,28.6,168.8z"/>
	<path fill="#5D5D5D" d="M35.2,169.3c0-1.2,1-1.8,3.2-2.1c0-0.5-0.3-1-0.9-1c-0.5,0-1,0.2-1.5,0.5l-0.5-1c0.7-0.4,1.4-0.7,2.3-0.7
		c1.4,0,2.1,0.8,2.1,2.5v3.2h-1.2l-0.1-0.6h0c-0.5,0.4-1,0.7-1.7,0.7C35.8,171,35.2,170.3,35.2,169.3z M38.4,169.3v-1.1
		c-1.3,0.2-1.8,0.5-1.8,1c0,0.4,0.3,0.6,0.7,0.6C37.7,169.8,38,169.6,38.4,169.3z"/>
	<path fill="#5D5D5D" d="M41.8,165.3H43l0.1,0.7h0c0.5-0.5,1.1-0.9,1.8-0.9c1.2,0,1.7,0.8,1.7,2.2v3.5h-1.5v-3.3
		c0-0.9-0.2-1.2-0.8-1.2c-0.5,0-0.7,0.2-1.2,0.6v3.8h-1.4V165.3z"/>
	<path fill="#5D5D5D" d="M57.4,171c-0.6-0.1-1.2-0.4-1.8-0.8c-0.6,0.5-1.3,0.8-2.3,0.8c-1.5,0-2.4-0.9-2.4-2.1c0-1,0.6-1.6,1.4-2.1
		c-0.3-0.6-0.5-1.1-0.5-1.6c0-1,0.7-1.9,1.9-1.9c1,0,1.7,0.6,1.7,1.6c0,1-0.8,1.6-1.6,2.1c0.4,0.5,1,1.1,1.6,1.5
		c0.4-0.5,0.7-1.1,0.9-1.9h1.3c-0.3,0.9-0.7,1.8-1.2,2.5c0.5,0.3,0.9,0.5,1.3,0.5L57.4,171z M53.5,169.9c0.4,0,0.7-0.1,1.1-0.4
		c-0.6-0.5-1.2-1.1-1.7-1.7c-0.4,0.3-0.6,0.6-0.6,1C52.3,169.4,52.8,169.9,53.5,169.9z M53.3,166.2c0.6-0.3,1-0.7,1-1.2
		c0-0.4-0.2-0.6-0.6-0.6c-0.4,0-0.7,0.3-0.7,0.9C53.1,165.5,53.2,165.9,53.3,166.2z"/>
	<path fill="#5D5D5D" d="M61.8,167.2c0-2.4,1.6-3.8,3.4-3.8c0.9,0,1.7,0.4,2.2,0.9l-0.8,0.9c-0.4-0.4-0.8-0.6-1.3-0.6
		c-1.1,0-1.9,1-1.9,2.5c0,1.6,0.8,2.6,1.9,2.6c0.6,0,1.1-0.3,1.5-0.7l0.8,0.9c-0.6,0.7-1.4,1.1-2.3,1.1
		C63.3,171,61.8,169.7,61.8,167.2z"/>
	<path fill="#5D5D5D" d="M68.7,169.3c0-1.2,1-1.8,3.2-2.1c0-0.5-0.3-1-0.9-1c-0.5,0-1,0.2-1.5,0.5l-0.5-1c0.7-0.4,1.4-0.7,2.3-0.7
		c1.4,0,2.1,0.8,2.1,2.5v3.2h-1.2l-0.1-0.6h0c-0.5,0.4-1,0.7-1.7,0.7C69.4,171,68.7,170.3,68.7,169.3z M71.9,169.3v-1.1
		c-1.3,0.2-1.8,0.5-1.8,1c0,0.4,0.3,0.6,0.7,0.6C71.3,169.8,71.6,169.6,71.9,169.3z"/>
	<path fill="#5D5D5D" d="M75.4,165.3h1.2l0.1,1h0c0.4-0.7,1-1.1,1.6-1.1c0.3,0,0.5,0,0.7,0.1l-0.3,1.3c-0.2-0.1-0.3-0.1-0.6-0.1
		c-0.4,0-1,0.3-1.3,1.1v3.3h-1.4V165.3z"/>
	<path fill="#5D5D5D" d="M79.8,168.1c0-1.8,1.1-2.9,2.3-2.9c0.6,0,1,0.2,1.4,0.6l-0.1-0.9v-2h1.5v7.9h-1.2l-0.1-0.6h0
		c-0.4,0.4-1,0.7-1.5,0.7C80.7,171,79.8,169.9,79.8,168.1z M83.4,169.2v-2.4c-0.3-0.3-0.7-0.4-1-0.4c-0.6,0-1.2,0.6-1.2,1.7
		c0,1.2,0.4,1.7,1.2,1.7C82.8,169.8,83.1,169.6,83.4,169.2z"/>
	<path fill="#5D5D5D" d="M86.8,163.6c0-0.5,0.4-0.8,0.9-0.8c0.5,0,0.9,0.3,0.9,0.8c0,0.5-0.4,0.8-0.9,0.8
		C87.2,164.4,86.8,164.1,86.8,163.6z M87,165.3h1.4v5.6H87V165.3z"/>
	<path fill="#5D5D5D" d="M90.5,165.3h1.2l0.1,0.7h0c0.5-0.5,1.1-0.9,1.8-0.9c1.2,0,1.7,0.8,1.7,2.2v3.5h-1.5v-3.3
		c0-0.9-0.2-1.2-0.8-1.2c-0.5,0-0.7,0.2-1.2,0.6v3.8h-1.4V165.3z"/>
	<path fill="#5D5D5D" d="M101.2,168.9c-0.2,0.7-0.5,1.6-0.8,2.1c-0.2-0.1-0.7-0.3-0.9-0.4c0.3-0.5,0.6-1.3,0.7-1.9L101.2,168.9z
		 M102.7,168.5v3.2h-1.1v-3.2h-1.9v-1h4.9v1H102.7z M101.5,164.2h-1.8v-1h1.8v-0.7h1.1v0.7h1.7v1h-1.7v0.5h1.5v1H100v-1h1.5V164.2z
		 M104.1,166.2c0.5-1,0.8-2.3,1-3.7l1.1,0.2c-0.1,0.5-0.2,1.1-0.3,1.6h2l0.2,0l0.8,0.2c-0.2,1-0.5,2.1-0.7,2.8l-1-0.3
		c0.1-0.4,0.3-1,0.4-1.6h-1.9c-0.2,0.8-0.5,1.4-0.8,2c-0.2-0.1-0.5-0.4-0.7-0.6v0.4h-4v-1L104.1,166.2L104.1,166.2z M103.8,168.7
		c0.2,0.5,0.5,1.1,0.6,1.5l-0.9,0.4c-0.1-0.4-0.4-1.1-0.6-1.6L103.8,168.7z M106.9,166.4c0,0.3,0,0.6,0,0.9c0.3,1.5,1,2.7,2.1,3.3
		c-0.3,0.2-0.6,0.7-0.8,1c-0.8-0.5-1.3-1.3-1.7-2.3c-0.3,0.8-0.8,1.6-1.6,2.3c-0.2-0.3-0.6-0.6-0.9-0.8c1.6-1.4,1.8-3.3,1.8-4.5
		v-0.5h1.1V166.4z"/>
	<path fill="#5D5D5D" d="M118.6,167.4c0,0,0,0.3,0,0.5c-0.1,2-0.3,2.9-0.6,3.2c-0.3,0.3-0.5,0.4-0.9,0.4c-0.3,0-0.9,0-1.5,0
		c0-0.4-0.2-0.8-0.4-1.2c0.6,0.1,1.1,0.1,1.4,0.1c0.2,0,0.3,0,0.4-0.1c0.2-0.2,0.3-0.7,0.4-1.9h-2.6c-0.4,1.4-1.4,2.6-4,3.2
		c-0.1-0.3-0.4-0.8-0.7-1.1c2-0.4,2.9-1.2,3.3-2.1h-2.9v-1.1h3.2c0-0.3,0.1-0.6,0.1-0.9h1.3c0,0.3-0.1,0.6-0.1,0.9H118.6z
		 M118.2,166.3h-7.1v-3.4h7.1V166.3z M117,164h-4.6v1.2h4.6V164z"/>
	<path fill="#5D5D5D" d="M124.7,168.9c-1.3,0.6-2.8,1.2-3.9,1.7l-0.4-1.3c0.4-0.1,0.8-0.3,1.3-0.5l-0.2-5.8l1.2,0l0.2,5.4
		c0.5-0.2,1-0.4,1.5-0.6L124.7,168.9z M128.8,171.7c-0.4-0.6-1.1-1.6-1.9-2.4c-0.7,1-1.7,1.8-3,2.4c-0.2-0.3-0.7-0.8-0.9-1
		c3.1-1.2,4.2-3.6,4.5-7.7l1.3,0.1c-0.2,2-0.6,3.7-1.2,5c0.8,0.9,1.7,1.9,2.2,2.5L128.8,171.7z M125.1,166.6
		c-0.2-0.7-0.9-1.7-1.5-2.5l1.1-0.5c0.6,0.7,1.3,1.7,1.6,2.4L125.1,166.6z"/>
	<path fill="#5D5D5D" d="M133.8,169c0-0.9,0.6-1.5,1.3-1.9v0c-0.6-0.4-1-1-1-1.7c0-1.2,0.9-1.9,2.2-1.9c1.3,0,2.1,0.8,2.1,2
		c0,0.7-0.5,1.3-0.9,1.7v0c0.7,0.4,1.2,1,1.2,2c0,1.1-1,2-2.5,2C134.8,171,133.8,170.2,133.8,169z M137.3,169c0-0.8-0.7-1.1-1.6-1.5
		c-0.4,0.3-0.7,0.8-0.7,1.4c0,0.7,0.5,1.1,1.2,1.1C136.9,169.9,137.3,169.6,137.3,169z M137.2,165.4c0-0.6-0.4-1-1-1
		c-0.5,0-0.9,0.3-0.9,0.9c0,0.7,0.6,1,1.3,1.3C137,166.3,137.2,165.9,137.2,165.4z"/>
	<path fill="#5D5D5D" d="M139.9,170l0.7-0.9c0.4,0.4,0.9,0.7,1.6,0.7c0.8,0,1.3-0.5,1.3-1.3c0-0.9-0.5-1.3-1.2-1.3
		c-0.4,0-0.7,0.1-1.1,0.4l-0.7-0.4l0.2-3.6h3.9v1.2h-2.7l-0.1,1.6c0.3-0.1,0.5-0.2,0.9-0.2c1.2,0,2.3,0.7,2.3,2.3
		c0,1.6-1.2,2.6-2.6,2.6C141.2,171,140.4,170.5,139.9,170z"/>
	<path fill="#5D5D5D" d="M152.8,167.7c-0.4,0.1-0.9,0.2-1.3,0.4v2.4c0,0.6-0.1,0.9-0.4,1c-0.3,0.2-0.8,0.2-1.5,0.2
		c0-0.3-0.2-0.8-0.3-1.1c0.4,0,0.8,0,0.9,0c0.1,0,0.2,0,0.2-0.2v-2.1c-0.4,0.1-0.8,0.2-1.1,0.3l-0.3-1.1c0.4-0.1,0.9-0.2,1.4-0.3
		v-1.8h-1.2v-1.1h1.2v-1.9h1.2v1.9h1.2v1.1h-1.2v1.5c0.4-0.1,0.8-0.2,1.1-0.3L152.8,167.7z M158.3,166.9h-1.4v4.8h-1.2v-4.8h-1.4
		c0,1.7-0.3,3.4-1.2,4.9c-0.2-0.3-0.6-0.6-1-0.8c0.9-1.5,1-3.2,1-4.6v-3c1.4-0.2,3.1-0.5,4.1-0.9l0.7,1c-1,0.3-2.4,0.6-3.6,0.7v1.5
		h4V166.9z"/>
	<path fill="#5D5D5D" d="M162.3,162.8c-0.2,0.6-0.4,1.2-0.7,1.8v7.1h-1.1v-5c-0.2,0.3-0.4,0.6-0.6,0.8c-0.1-0.3-0.4-1-0.6-1.3
		c0.8-0.9,1.5-2.4,1.9-3.8L162.3,162.8z M168.7,167.9h-0.9c0.2,0.2,0.3,0.4,0.4,0.5l-0.6,0.4c-0.1-0.2-0.3-0.5-0.5-0.7
		c-0.1,0.4-0.3,0.5-0.9,0.5h-0.9c-0.1,0.1-0.2,0.2-0.3,0.3h2l0.2,0l0.7,0.4c-0.3,0.5-0.8,0.9-1.4,1.2c0.7,0.1,1.4,0.2,2.1,0.3
		c-0.2,0.2-0.4,0.6-0.6,0.9c-1-0.1-2-0.3-2.8-0.6c-0.8,0.3-1.8,0.5-2.9,0.6c-0.1-0.3-0.4-0.6-0.6-0.9c0.8-0.1,1.6-0.2,2.2-0.3
		c-0.2-0.1-0.4-0.2-0.6-0.4c-0.3,0.1-0.5,0.3-0.8,0.4c-0.1-0.2-0.4-0.5-0.6-0.7c0.3-0.1,0.6-0.2,0.8-0.4c-0.1-0.1-0.2-0.3-0.3-0.4
		l0.9-0.3c0.1,0.1,0.1,0.2,0.2,0.3c0.3-0.2,0.5-0.4,0.7-0.6c-0.2-0.1-0.3-0.3-0.3-0.5c-0.2,0.3-0.5,0.6-0.8,0.8l-0.6-0.5
		c0.2-0.1,0.3-0.2,0.5-0.4h-0.9v-1.4h0.9V164h1.6c0-0.1,0-0.2,0.1-0.3h-2.3v-0.8h6.1v0.8h-2.6l-0.1,0.3h2.1v2.5h0.8V167.9z
		 M167.2,167.3c0.1,0.1,0.3,0.3,0.5,0.4v-0.6h-1.9c0.2,0.2,0.4,0.3,0.5,0.5l-0.7,0.4c-0.2-0.2-0.5-0.5-0.8-0.7l0.3-0.2h-2.1v0.7
		c0.2-0.2,0.3-0.3,0.4-0.5l0.5,0.2v-0.2h0.9v0.4c0,0.2,0.1,0.2,0.3,0.2h0.9c0.2,0,0.2,0,0.3-0.3c0.1,0.1,0.3,0.1,0.5,0.2
		c-0.1-0.1-0.1-0.1-0.2-0.2L167.2,167.3z M164,164.6v0.3h2.7v-0.3H164z M166.8,165.4H164v0.3h2.7V165.4z M164,166.5h2.7v-0.3H164
		V166.5z M165.3,170.2c0.4-0.1,0.7-0.3,1-0.5l-2,0C164.6,169.9,164.9,170,165.3,170.2z"/>
	<path fill="#5D5D5D" d="M169.9,170.8c0.4-0.5,0.7-1.2,0.9-1.8l1,0.4c-0.2,0.6-0.5,1.4-0.9,1.9L169.9,170.8z M173.8,163.8h-3.6v-0.9
		h3.6v-0.5h1.2v0.5h3.7v0.9H175v0.4h3v2.9h-1c0.7,0.4,1.3,0.9,1.7,1.2l-0.8,0.6c-0.1-0.1-0.3-0.3-0.5-0.4c-0.9,0-1.9,0-2.8,0.1
		c0.5,0.3,0.9,0.7,1.2,1l-0.8,0.7c-0.3-0.4-0.9-0.9-1.5-1.2l0.5-0.4c-1.4,0-2.8,0-3.8,0l0-1c1,0,2.2,0,3.6,0v-0.6h-3v-2.9h3V163.8z
		 M171.9,165.4h1.9V165h-1.9V165.4z M173.8,166.5v-0.5h-1.9v0.5H173.8z M175.7,170.6c0.4,0,0.5-0.1,0.6-0.9c0.2,0.1,0.7,0.3,1,0.4
		c-0.1,1.2-0.5,1.4-1.5,1.4h-1.9c-1.4,0-1.7-0.3-1.7-1.2v-1.1h1.2v1.1c0,0.3,0.1,0.3,0.7,0.3H175.7z M175,165v0.5h1.9V165H175z
		 M175,166.5h1.9v-0.5H175V166.5z M176.3,167.8c-0.2-0.1-0.3-0.2-0.5-0.2l0.4-0.3H175v0.6L176.3,167.8z M177.9,169.1
		c0.5,0.6,0.9,1.4,1,1.9l-1.1,0.3c-0.1-0.5-0.5-1.3-1-2L177.9,169.1z"/>
	<path fill="#5D5D5D" d="M182.5,168v2.3c0,0.5-0.1,0.8-0.4,1c-0.3,0.2-0.7,0.2-1.4,0.2c0-0.3-0.2-0.8-0.3-1.1c0.4,0,0.7,0,0.8,0
		c0.1,0,0.2,0,0.2-0.2v-2c-0.3,0.1-0.6,0.2-0.9,0.3l-0.3-1.1c0.3-0.1,0.7-0.2,1.2-0.3v-1.8h-1.1v-1.1h1.1v-1.9h1.1v1.9h1v1.1h-1v1.5
		l0.9-0.2l0.2,1.1L182.5,168z M187,170.5c0.2,0,0.4,0,0.7,0c0.3,0,1.6,0,2,0c-0.1,0.2-0.3,0.7-0.3,1h-1.7c-1.3,0-2.3-0.2-3-1.4
		c-0.3,0.6-0.6,1.2-1,1.6c-0.2-0.2-0.6-0.6-0.9-0.7c0.8-0.7,1.2-1.8,1.4-3.1l1.1,0.1c0,0.4-0.1,0.7-0.2,1c0.2,0.6,0.5,0.9,0.9,1.2
		v-2.6h-2.3v-1h5.9v1H187v0.9h1.9v0.9H187V170.5z M188.9,166.2H184v-3.4h4.9V166.2z M187.8,163.6h-2.7v0.5h2.7V163.6z M187.8,164.8
		h-2.7v0.5h2.7V164.8z"/>
	<path fill="#5D5D5D" d="M193.9,162.8c-0.3,0.7-0.6,1.4-0.9,2.1v6.8h-1.2v-5c-0.2,0.3-0.4,0.5-0.6,0.7c-0.1-0.3-0.4-0.9-0.6-1.2
		c0.9-0.9,1.8-2.3,2.3-3.7L193.9,162.8z M196.2,169.4c-0.5,0.9-1.3,1.7-2,2.3c-0.2-0.2-0.7-0.6-0.9-0.7c0.7-0.5,1.4-1.2,1.8-1.9
		L196.2,169.4z M200,167.5v1.2h-6.4v-1.2h1.3v-2h-1.1v-1.1h1.1v-1.9h1.2v1.9h1.4v-1.9h1.2v1.9h1.3v1.1h-1.3v2H200z M196,167.5h1.4
		v-2H196V167.5z M198.2,169c0.6,0.6,1.3,1.5,1.7,2l-1,0.6c-0.3-0.6-1-1.5-1.6-2.1L198.2,169z"/>
	<path fill="#5D5D5D" d="M202.9,164.5c-0.4,0.4-0.8,0.8-1.2,1.1c-0.1-0.2-0.5-0.7-0.7-1c0.8-0.6,1.6-1.4,2.1-2.4l1,0.3
		c-0.1,0.3-0.3,0.5-0.5,0.8h6.2v1H202.9z M201.3,171.3c0.4-0.5,0.8-1.3,1.1-1.9l1.1,0.3c-0.3,0.7-0.7,1.6-1.1,2.1L201.3,171.3z
		 M209,166.8v1.3h1.2v1.1h-8.8v-1.1h1.4v-1.3h-1.1v-1.1h1.1v-0.9h1.1v0.9h0.7v-0.9h1v0.9h0.8v-0.9h1v0.9h0.7v-0.9h1.1v0.9h1v1.1H209
		z M203.8,168.1h0.7v-1.3h-0.7V168.1z M205.2,169.6c0.1,0.6,0.2,1.4,0.2,1.9l-1.2,0.2c0-0.5-0.1-1.3-0.2-1.9L205.2,169.6z
		 M205.4,166.8v1.3h0.8v-1.3H205.4z M207.2,169.5c0.2,0.6,0.5,1.3,0.6,1.8l-1.2,0.2c-0.1-0.5-0.3-1.3-0.5-1.9L207.2,169.5z
		 M207.9,166.8h-0.7v1.3h0.7V166.8z M209.2,169.3c0.4,0.6,0.9,1.4,1.2,2l-1.2,0.5c-0.2-0.5-0.7-1.4-1.1-2L209.2,169.3z"/>
	<path fill="#5D5D5D" d="M220.8,170.4v1h-9.3v-1h1.2v-1.9h7v1.9H220.8z M213.6,163.9h-1.9v-0.9h1.9v-0.5h1.2v0.5h1.2v0.9h-1.2v0.4
		h-1.2V163.9z M220.6,166.1h-2.8c-0.3,0.5-0.6,1-1,1.4c-0.1-0.2-0.4-0.6-0.6-0.8v0.5h-1v0.4h1.3v0.7h-4.2v-3.8h4.2v0.7h-1.3v0.4h1v1
		c0.5-0.6,0.9-1.4,1.2-2.2l1,0.3c0,0.2-0.1,0.4-0.2,0.5h2.4L220.6,166.1z M213.2,165.2v0.4h1v-0.4H213.2z M215.2,166.1h-2v0.4h2
		V166.1z M214.1,167.2h-1v0.4h1V167.2z M213.8,170.4h0.9v-1h-0.9V170.4z M215.7,169.4v1h1v-1H215.7z M217.7,163.9h-1.3v-0.9h1.3
		v-0.5h1.1v0.5h1.8v0.9h-1.8v0.4h-1.1V163.9z M217.2,168.1v-1h3.1v1H217.2z M217.7,169.4v1h0.9v-1H217.7z"/>
	<path fill="#5D5D5D" d="M229.8,170.4c0.3,0,0.3-0.1,0.4-0.9c0.2,0.2,0.8,0.4,1.1,0.5c-0.1,1.2-0.5,1.6-1.3,1.6h-1.2
		c-1.1,0-1.4-0.4-1.4-1.5v-2.9h-1.3c-0.2,2.1-0.7,3.7-3.2,4.6c-0.1-0.3-0.5-0.8-0.7-1c2.2-0.7,2.5-2,2.7-3.6h-2.4V166h3.7v-3.6h1.2
		v3.6h3.8v1.2h-2.6v2.8c0,0.4,0,0.4,0.4,0.4H229.8z M224.3,165.6c-0.3-0.6-0.9-1.4-1.4-2.1l0.9-0.5c0.5,0.6,1.2,1.5,1.5,2
		L224.3,165.6z M230.6,163.5c-0.5,0.8-1.1,1.6-1.6,2.1l-1-0.4c0.5-0.6,1.1-1.5,1.4-2.1L230.6,163.5z"/>
	<path fill="#5D5D5D" d="M240.6,170.8c0.1,0,0.1,0,0.1,0c0,0,0.1-0.1,0.1-0.2c0-0.1,0-0.4,0-0.8c0.2,0.2,0.6,0.4,0.9,0.5
		c0,0.4-0.1,0.8-0.1,0.9c-0.1,0.2-0.2,0.3-0.4,0.4c-0.1,0.1-0.4,0.1-0.6,0.1h-0.6c-0.2,0-0.5-0.1-0.7-0.2s-0.3-0.4-0.3-1v-1.3h-0.6
		c-0.1,1.3-0.6,2.2-2.4,2.6c-0.1-0.2-0.3-0.6-0.5-0.8c-1,0.2-2.1,0.4-2.9,0.6l-0.2-1.1c0.4-0.1,0.9-0.1,1.5-0.2v-2.6h-1.3v-1h1.3
		v-0.7h-0.9v-0.3c-0.1,0.1-0.3,0.2-0.4,0.4c-0.1-0.3-0.3-0.9-0.4-1.2c0.8-0.5,1.5-1.4,2-2.3l0.9,0.4c-0.1,0.1-0.1,0.2-0.2,0.4
		c0.6,0.4,1.3,0.8,1.6,1.2l-0.3,0.5h1.2c-0.1-0.2-0.1-0.5-0.2-0.7l0.8-0.2h-1.6v-0.9h1.9c-0.1-0.2-0.1-0.3-0.2-0.4l1-0.2
		c0.1,0.2,0.3,0.5,0.4,0.7h1.9v0.9h-1.6l0.9,0.2c-0.1,0.3-0.3,0.5-0.4,0.7h1.2v0.9h-5.5v-0.8l-0.2,0.3l0,0v0.7h-1v0.7h1.2v1H235v2.4
		l1.3-0.2l0.1,0.8c0.7-0.3,0.9-0.8,1-1.5h-0.8v-3h4.6v3h-1v1.4c0,0.1,0,0.2,0,0.2c0,0,0.1,0,0.1,0H240.6z M233.5,168
		c0.2,0.5,0.3,1.2,0.4,1.7l-0.8,0.2c0-0.5-0.2-1.2-0.3-1.7L233.5,168z M235.6,164.9c-0.3-0.3-0.8-0.6-1.2-0.9
		c-0.2,0.3-0.4,0.6-0.7,0.9H235.6z M235.1,169.5c0.1-0.4,0.3-1.1,0.3-1.6l0.9,0.2c-0.2,0.6-0.3,1.2-0.5,1.6L235.1,169.5z
		 M237.6,167.3h2.5v-0.4h-2.5V167.3z M237.6,168.4h2.5v-0.4h-2.5V168.4z M238.1,163.9c0.1,0.3,0.3,0.6,0.3,0.9h0.9
		c0.1-0.3,0.2-0.6,0.3-0.9H238.1z"/>
	<path fill="#5D5D5D" d="M250.3,167.2v4.5h-1.2v-3.4h-3.7c-0.2,1.2-0.6,2.4-1.5,3.4c-0.2-0.3-0.6-0.7-0.9-0.9
		c1.2-1.3,1.4-3.2,1.4-4.9v-3.4h1.2v2.1h3.2v-2.2h1.2v3.4h-4.4v0.1c0,0.4,0,0.8,0,1.2H250.3z"/>
	<path fill="#5D5D5D" d="M254.9,166.4c0,0.2,0,0.5,0,0.8h2v4.5h-1.1v-3.4h-0.9c-0.1,1.3-0.3,2.6-0.8,3.5c-0.2-0.2-0.6-0.6-0.8-0.7
		c0.6-1.2,0.6-3.2,0.6-4.6v-3.9h1v2.8h1v-2.6h1.1v3.7L254.9,166.4L254.9,166.4z M262.3,165.6c-0.2,1.5-0.6,2.8-1.2,3.8
		c0.4,0.5,1,0.9,1.6,1.2c-0.3,0.2-0.6,0.7-0.8,1c-0.6-0.3-1-0.7-1.4-1.2c-0.4,0.5-0.9,1-1.5,1.3c-0.1-0.3-0.4-0.6-0.6-0.9
		c-0.1,0.3-0.2,0.6-0.4,0.9c-0.2-0.2-0.6-0.5-0.9-0.6c0.7-1.3,0.8-3.3,0.8-4.6V163h4.5v1.1h-3.4v1.3h2.6l0.2,0L262.3,165.6z
		 M259.6,169.4c-0.4-0.7-0.7-1.4-0.9-2.2c0,1.1-0.1,2.4-0.5,3.4C258.8,170.4,259.2,169.9,259.6,169.4z M259.5,166.5
		c0.2,0.7,0.4,1.3,0.8,1.9c0.3-0.6,0.5-1.2,0.7-1.9H259.5z"/>
	<path fill="#5D5D5D" d="M270.1,165.6c0.6,1.4,1.6,2.8,2.8,3.6c-0.3,0.2-0.7,0.7-0.9,1c-0.4-0.3-0.7-0.6-1.1-1v0.9h-2v1.7h-1.2V170
		h-2.1v-0.9c-0.3,0.4-0.7,0.8-1.1,1.1c-0.2-0.3-0.6-0.7-0.9-1c1.2-0.8,2.2-2.2,2.8-3.7h-2.4v-1.2h3.7v-1.9h1.2v1.9h3.7v1.2H270.1z
		 M267.7,168.8v-3.3h-0.1c-0.4,1.2-1,2.3-1.8,3.3H267.7z M270.7,168.8c-0.7-0.9-1.3-2.1-1.7-3.3h0v3.3H270.7z"/>
</g>
<g>
	<path fill="#5D5D5D" d="M29.4,187.2c0.3,0,0.4-0.2,0.4-1.2c0.2,0.2,0.7,0.4,1.1,0.4c-0.1,1.4-0.4,1.8-1.4,1.8h-1.2
		c-1.2,0-1.4-0.4-1.4-1.4V185h-1.3c-0.1,1.9-0.6,3-3.2,3.5c-0.1-0.3-0.4-0.8-0.6-1c2.2-0.4,2.5-1,2.6-2.5h-2.5v-1.1h8.8v1.1H28v1.9
		c0,0.3,0.1,0.4,0.4,0.4H29.4z M23.2,182.7H22v-2.5h3.6c-0.1-0.3-0.2-0.5-0.3-0.8l1.2-0.4c0.2,0.3,0.4,0.8,0.5,1.1h3.4v2.5h-1.2
		v-1.3h-6V182.7z M23.6,183.1v-1.1h5.1v1.1H23.6z"/>
	<path fill="#5D5D5D" d="M40.5,181.1c-0.2,0.6-0.5,1.2-0.8,1.6c0.4,0.3,1,0.6,1.7,0.8c-0.2,0.2-0.5,0.6-0.6,0.9
		c-0.7-0.2-1.2-0.6-1.7-1c-0.5,0.4-1.1,0.7-1.8,0.9c-0.1-0.2-0.4-0.6-0.7-0.8c0.7-0.2,1.2-0.4,1.7-0.8c-0.2-0.3-0.4-0.6-0.6-0.9
		c-0.1,0.2-0.3,0.3-0.4,0.5c-0.1-0.2-0.4-0.5-0.6-0.7v1h-0.9c0.3,0.2,0.7,0.4,0.9,0.6l-0.5,0.7c-0.2-0.2-0.7-0.5-1.1-0.8v1h-1v-0.8
		c-0.4,0.4-0.9,0.8-1.3,1c-0.1-0.2-0.4-0.6-0.7-0.7c0.6-0.2,1.2-0.6,1.6-1h-1.2v-1.9H34v-0.3h-1.8v-0.8H34v-0.5h1v0.5h1.7v0.8h-1.7
		v0.3h1.6v0.6c0.6-0.5,1-1.3,1.2-2.2l1.1,0.2c-0.1,0.3-0.2,0.5-0.3,0.8h2.5v0.9H40.5z M37.2,187.2h4v1h-9v-1h1.5v-1.5h1.1v1.5H36
		v-1.9h-3.3v-1h7.8v1h-3.4v0.5h2.6v0.9h-2.6V187.2z M33.4,182H34v-0.5h-0.7V182z M35.1,181.5v0.5h0.6v-0.5H35.1z M35.3,182.7h-0.3
		v0.3L35.3,182.7z M38.3,181.1c0.2,0.3,0.4,0.6,0.6,0.9c0.2-0.3,0.3-0.6,0.5-0.9H38.3z"/>
	<path fill="#5D5D5D" d="M51.1,182.1c-0.3,1.5-0.6,2.7-1.2,3.7c0.5,0.7,1.2,1.2,1.9,1.6c-0.3,0.2-0.6,0.7-0.8,1
		c-0.7-0.4-1.3-0.9-1.8-1.6c-0.5,0.7-1.2,1.2-2,1.6c-0.1-0.2-0.5-0.7-0.8-1c0.9-0.4,1.5-1,2.1-1.7c-0.4-0.6-0.7-1.4-0.9-2.2
		c-0.2,0.3-0.3,0.5-0.5,0.7c-0.1-0.2-0.5-0.7-0.7-0.9v5h-1.2v-2.6c-1.6,0.6-1.9,0.7-2.1,0.9c-0.1-0.3-0.3-0.8-0.5-1.1
		c0.2-0.1,0.4-0.3,0.4-0.7v-4.8h1.2v4.8l1.1-0.3v-5.4h1.2v3.9c0.8-1,1.2-2.5,1.5-4.1l1.2,0.2c-0.1,0.6-0.2,1.1-0.3,1.6h3v1.1H51.1z
		 M48.3,182.1c0,0.1-0.1,0.2-0.1,0.3c0.2,0.9,0.5,1.7,0.9,2.4c0.4-0.8,0.6-1.6,0.8-2.6H48.3z"/>
	<path fill="#5D5D5D" d="M61.7,183.1c-0.3,1.3-0.7,2.4-1.2,3.3c0.2,0.7,0.4,1,0.6,1c0.2,0,0.3-0.3,0.3-1.2c0.2,0.2,0.5,0.4,0.8,0.5
		c-0.1,1.5-0.4,1.8-1.2,1.8c-0.5,0-0.9-0.4-1.2-1c-0.3,0.4-0.7,0.8-1.1,1.1c-0.2-0.2-0.6-0.6-0.9-0.7c0.2-0.1,0.3-0.2,0.5-0.4h-1.7
		v0h-0.8V183h2.9v0.7h-0.7v0.5h0.8v2h-0.8v0.5h0.8v0.3c0.2-0.2,0.4-0.5,0.6-0.7c-0.2-1-0.4-2.2-0.5-3.6h-3.3v2
		c0,1.2-0.1,2.9-0.6,3.9c-0.2-0.1-0.6-0.4-0.9-0.5c0.4-0.7,0.5-1.5,0.5-2.3h-0.5v0.3c0,0.7-0.1,1.8-0.7,2.5
		c-0.1-0.1-0.5-0.4-0.7-0.5c0.5-0.6,0.6-1.5,0.6-2.1v-0.2h-0.5v-1h1.8v-0.2v-0.4h-1.4v-2.5h0.9v1.5h0.5v-1.6h4.3l0-0.6h0v-0.3h-1.3
		v-1h1.3v-0.6h1.2v0.6h1.8v1h-0.8c0.3,0.2,0.6,0.4,0.7,0.6l-0.3,0.2H62v1h-2c0,0.8,0.1,1.5,0.2,2.2c0.2-0.6,0.4-1.2,0.5-1.8
		L61.7,183.1z M54.9,180.7h-1.8v-1h1.8v-0.6h1.2v0.6h1.2v1h-1.2v0.5h-1.2V180.7z M56.8,183.7v0.5h0.5v-0.5H56.8z M56.8,184.9v0.6H58
		v-0.6H56.8z M56.8,186.7h0.5v-0.5h-0.5V186.7z M59.9,181.6h0.9c-0.2-0.1-0.3-0.3-0.5-0.4l0.6-0.4h-0.8v0.4h-0.2V181.6z"/>
	<path fill="#5D5D5D" d="M68.4,180.9v0.9h3.5v5.5c0,0.5-0.1,0.8-0.5,1c-0.3,0.2-0.9,0.2-1.6,0.2c-0.1-0.3-0.2-0.7-0.4-1
		c0.4,0,0.9,0,1.1,0c0.1,0,0.2,0,0.2-0.2v-0.7c-0.2,0.1-0.4,0.3-0.5,0.4c-0.3-0.4-0.5-0.8-0.6-1.2c-0.2,0.5-0.4,0.9-0.7,1.2
		c-0.1-0.1-0.4-0.3-0.6-0.4v1.9h-1.1v-1.7c-0.1,0.1-0.3,0.2-0.4,0.3c-0.3-0.4-0.5-0.8-0.6-1.3c-0.2,0.5-0.4,1-0.7,1.3
		c-0.1-0.1-0.3-0.3-0.5-0.4v1.8h-1.1v-6.7h3.4v-0.9h-3.7v-1.2h8.7v1.2H68.4z M66.7,183.3c0,1,0.1,2,0.6,2.9v-3.4H65v3.6
		c0.5-0.6,0.8-1.4,0.9-2.4h-0.5v-0.8H66.7z M68.4,182.9v3.6c0.5-0.6,0.8-1.4,0.9-2.4h-0.5v-0.8h1.3c0,1.1,0.1,2.2,0.7,3v-3.5H68.4z"
		/>
	<path fill="#5D5D5D" d="M75.3,185.7c-0.2,0.7-0.5,1.6-0.8,2.1c-0.2-0.1-0.7-0.3-0.9-0.4c0.3-0.5,0.6-1.3,0.7-1.9L75.3,185.7z
		 M76.7,185.3v3.2h-1.1v-3.2h-1.9v-1h4.9v1H76.7z M75.6,180.9h-1.8v-1h1.8v-0.7h1.1v0.7h1.7v1h-1.7v0.5h1.5v1h-4.2v-1h1.5V180.9z
		 M78.2,182.9c0.5-1,0.8-2.3,1-3.7l1.1,0.2c-0.1,0.5-0.2,1.1-0.3,1.6h2l0.2,0l0.8,0.2c-0.2,1-0.5,2.1-0.7,2.8l-1-0.3
		c0.1-0.4,0.3-1,0.4-1.6h-1.9c-0.2,0.8-0.5,1.4-0.8,2c-0.2-0.1-0.5-0.4-0.7-0.6v0.4h-4v-1L78.2,182.9L78.2,182.9z M77.9,185.4
		c0.2,0.5,0.5,1.1,0.6,1.5l-0.9,0.4c-0.1-0.4-0.4-1.1-0.6-1.6L77.9,185.4z M81,183.2c0,0.3,0,0.6,0,0.9c0.3,1.5,1,2.7,2.1,3.3
		c-0.3,0.2-0.6,0.7-0.8,1c-0.8-0.5-1.3-1.3-1.7-2.3c-0.3,0.8-0.8,1.6-1.6,2.3c-0.2-0.3-0.6-0.6-0.9-0.8c1.6-1.4,1.8-3.3,1.8-4.5
		v-0.5H81V183.2z"/>
	<path fill="#5D5D5D" d="M88.7,187.3c0,0.5-0.1,0.8-0.4,1c-0.3,0.2-0.8,0.2-1.4,0.2c-0.1-0.3-0.2-0.7-0.4-1c0.4,0,0.8,0,0.9,0
		c0.1,0,0.2,0,0.2-0.2v-0.9h-1.7c-0.1,0.8-0.3,1.5-0.7,2.1c-0.2-0.2-0.6-0.5-0.9-0.7c0.6-0.9,0.7-2.1,0.7-3.1v-2.3h3.8V187.3z
		 M93.2,180.7v1.1h-9v-1.1h2.1c-0.2-0.3-0.5-0.8-0.7-1.1l1.1-0.4c0.4,0.4,0.8,0.9,0.9,1.3l-0.5,0.2h2.8c0.3-0.5,0.6-1,0.8-1.5
		l1.3,0.4c-0.2,0.4-0.5,0.8-0.8,1.1H93.2z M87.6,185.5v-0.6h-1.6c0,0.2,0,0.4,0,0.6H87.6z M85.9,183.3v0.7h1.6v-0.7H85.9z
		 M90.6,186.5h-1.1v-4h1.1V186.5z M91.5,182.2h1.2v4.9c0,0.6-0.1,0.9-0.5,1.1c-0.4,0.2-0.9,0.2-1.6,0.2c-0.1-0.3-0.2-0.8-0.4-1.1
		c0.5,0,1,0,1.2,0c0.2,0,0.2,0,0.2-0.2V182.2z"/>
	<path fill="#5D5D5D" d="M97.6,184.4c-0.3,0.1-0.6,0.2-0.9,0.3v2.6c0,0.5-0.1,0.8-0.4,1c-0.3,0.2-0.7,0.2-1.3,0.2
		c0-0.3-0.2-0.8-0.3-1.1c0.4,0,0.7,0,0.8,0c0.1,0,0.2,0,0.2-0.2V185c-0.3,0.1-0.6,0.2-0.9,0.3l-0.3-1.1c0.3-0.1,0.7-0.2,1.2-0.3
		v-1.7h-1v-1.1h1v-1.9h1.1v1.9h0.8v1.1h-0.8v1.4l0.8-0.2L97.6,184.4z M100.9,186.5l0,0.9c-1.3,0.2-2.7,0.4-3.8,0.5l-0.2-1
		c0.5,0,1-0.1,1.6-0.2v-1.1h-1.2v-0.9h1.2v-1.2h1v1.2h1.1v0.9h-1.1v1L100.9,186.5z M98.6,181.3h-1.1v-0.9h1.1v-1.2h1.1v1.2h1v0.9h-1
		v1h1.2v0.9h-3.5v-0.9h1.3V181.3z M103.3,184.9c-0.3-0.3-0.7-0.9-1.1-1.3v4.8h-1.1v-9.3h1.1v3.1c0.4,0.3,1.5,1.3,1.8,1.5
		L103.3,184.9z"/>
	<path fill="#5D5D5D" d="M109.1,185.8c-0.8,1-1.9,2-3,2.6c-0.2-0.2-0.7-0.6-1-0.8c1-0.6,2.2-1.5,2.7-2.3L109.1,185.8z M113.1,179.9
		v4.7h-7v-4.7H113.1z M107.3,183.5h4.5V181h-4.5V183.5z M111.3,185.3c0.9,0.7,2.1,1.7,2.7,2.4l-1.1,0.7c-0.5-0.7-1.7-1.8-2.6-2.5
		L111.3,185.3z"/>
	<path fill="#5D5D5D" d="M120.5,184.9c-0.1,0.2-0.1,0.3-0.2,0.5h3.5v2c0,0.5-0.1,0.7-0.4,0.9c-0.3,0.2-0.7,0.2-1.2,0.2
		c0-0.3-0.2-0.7-0.3-1c0.3,0,0.6,0,0.7,0c0.1,0,0.1,0,0.1-0.1v-1.1h-1.1v2.1h-1.1v-2.1h-1v2.1h-1.1v-2.1h-1v2.2h-1.1v-3.1h2.9
		c0-0.2,0.1-0.3,0.1-0.5h-3.7V184h1.4l-0.3-0.8c0.6-0.1,1.5-0.2,2.4-0.3l0,0.7c-0.7,0.2-1.4,0.3-2,0.5h7.3v0.9H120.5z M116.8,183.1
		h-1.1v-2.2h3.7v-0.5h-3.3v-0.8h7.8v0.8h-3.3v0.5h3.8v2.2h-1.2v-1.3h-0.6l0.4,0.5c-0.5,0.2-1.3,0.4-1.8,0.5l-0.4-0.6
		c0.4-0.1,1-0.3,1.4-0.4h-1.7v1.9h-1.2v-1.9h-2c0.5,0.1,1.2,0.3,1.6,0.4l-0.3,0.6c-0.4-0.2-1.2-0.4-1.7-0.5l0.3-0.6h-0.6V183.1z
		 M120.9,182.7c0.7,0.1,1.7,0.3,2.3,0.5L123,184c-0.5-0.2-1.5-0.4-2.3-0.6L120.9,182.7z"/>
	<path fill="#5D5D5D" d="M130.5,180.9c0,0,0,0.4,0,0.5c-0.1,4.2-0.3,5.7-0.6,6.2c-0.2,0.3-0.4,0.5-0.8,0.5c-0.3,0.1-0.7,0.1-1.1,0
		c0-0.4-0.1-0.9-0.3-1.2c0.3,0,0.7,0,0.8,0c0.1,0,0.2,0,0.3-0.2c0.2-0.3,0.4-1.5,0.5-4.8h-1c-0.1,2.5-0.5,4.8-1.7,6.4
		c-0.2-0.3-0.6-0.7-0.9-0.8c1.1-1.3,1.3-3.3,1.4-5.5H126v-1.2h1.2c0-0.6,0-1.2,0-1.7h1.2c0,0.6,0,1.2,0,1.7L130.5,180.9z
		 M134.7,180.3v7.9h-1.2v-0.6h-1.3v0.7h-1.2v-7.9H134.7z M133.4,186.4v-5h-1.3v5H133.4z"/>
	<path fill="#5D5D5D" d="M139.1,179.5c-0.2,0.6-0.5,1.3-0.8,1.9v7h-1.1v-5c-0.2,0.3-0.4,0.6-0.6,0.8c-0.1-0.3-0.4-1-0.6-1.3
		c0.8-0.9,1.5-2.4,2-3.8L139.1,179.5z M143.5,187c0.8,0.3,1.6,0.6,2.1,0.8l-1,0.7c-0.5-0.3-1.3-0.7-2.1-1l0.6-0.5h-1.9l0.7,0.5
		c-0.6,0.5-1.6,0.8-2.5,1c-0.1-0.2-0.4-0.6-0.6-0.8c0.7-0.1,1.5-0.4,2.1-0.7h-1.4v-3.7h5.6v3.7H143.5z M143.4,180.5v0.4h1.7v2h-5.9
		v-2h1.6v-0.4H139v-0.9h6.3v0.9H143.4z M140.2,182.3h0.6v-0.7h-0.6V182.3z M140.4,184.3h3.4V184h-3.4V184.3z M140.4,185.3h3.4V185
		h-3.4V185.3z M140.4,186.3h3.4v-0.4h-3.4V186.3z M142.4,180.5h-0.6v0.4h0.6V180.5z M141.8,182.3h0.6v-0.7h-0.6V182.3z M143.4,181.6
		v0.7h0.6v-0.7H143.4z"/>
	<path fill="#5D5D5D" d="M150.3,186c0.3,0.3,0.7,0.5,1.2,0.5c0.8,0,1.5-0.6,1.6-2.5c-0.4,0.5-1,0.8-1.5,0.8c-1.2,0-2.1-0.8-2.1-2.3
		c0-1.5,1.1-2.5,2.3-2.5c1.4,0,2.6,1.1,2.6,3.6c0,2.8-1.4,4-2.8,4c-0.9,0-1.6-0.4-2-0.8L150.3,186z M153,183
		c-0.1-1.3-0.6-1.8-1.3-1.8c-0.5,0-1,0.4-1,1.3c0,0.9,0.4,1.3,1,1.3C152.2,183.8,152.7,183.6,153,183z"/>
	<path fill="#5D5D5D" d="M155.8,183.9c0-2.5,1-3.8,2.5-3.8c1.5,0,2.5,1.2,2.5,3.8s-1,3.8-2.5,3.8
		C156.8,187.7,155.8,186.4,155.8,183.9z M159.4,183.9c0-2.1-0.5-2.6-1.1-2.6c-0.6,0-1.1,0.6-1.1,2.6c0,2.1,0.5,2.7,1.1,2.7
		C158.9,186.6,159.4,186,159.4,183.9z"/>
	<path fill="#5D5D5D" d="M162.1,183.9c0-2.5,1-3.8,2.5-3.8c1.5,0,2.5,1.2,2.5,3.8s-1,3.8-2.5,3.8
		C163.1,187.7,162.1,186.4,162.1,183.9z M165.7,183.9c0-2.1-0.5-2.6-1.1-2.6c-0.6,0-1.1,0.6-1.1,2.6c0,2.1,0.5,2.7,1.1,2.7
		C165.3,186.6,165.7,186,165.7,183.9z"/>
	<path fill="#5D5D5D" d="M169,180.3h1.5l2.1,3.9l0.7,1.6h0c-0.1-0.8-0.2-1.7-0.2-2.6v-2.9h1.4v7.3h-1.5l-2.1-3.9l-0.7-1.6h0
		c0.1,0.8,0.2,1.7,0.2,2.6v2.9H169V180.3z"/>
	<path fill="#5D5D5D" d="M178.3,181.5h-2.1v-1.2h5.6v1.2h-2.1v6.1h-1.5V181.5z"/>
	<path fill="#5D5D5D" d="M183.6,180.3h2c2.2,0,3.6,1.2,3.6,3.6c0,2.5-1.4,3.7-3.6,3.7h-2.1V180.3z M185.5,186.4
		c1.4,0,2.2-0.7,2.2-2.5c0-1.8-0.9-2.5-2.2-2.5H185v5H185.5z"/>
</g>
<g>
	
		<rect x="12.9" y="160.4" transform="matrix(0.866 0.5 -0.5 0.866 85.1329 15.3168)" opacity="0.73" fill="#0098FF" width="2.2" height="12.2"/>
	
		<rect x="11.1" y="162.9" transform="matrix(0.866 0.5 -0.5 0.866 85.3086 16.3124)" opacity="0.73" fill="#9DEDE6" width="2.2" height="9"/>
</g>
<g>
	
		<rect x="12.9" y="177.4" transform="matrix(0.866 0.5 -0.5 0.866 93.6329 17.5943)" opacity="0.73" fill="#0098FF" width="2.2" height="12.2"/>
	
		<rect x="11.1" y="179.9" transform="matrix(0.866 0.5 -0.5 0.866 93.8086 18.5899)" opacity="0.73" fill="#9DEDE6" width="2.2" height="9"/>
</g>
</svg>
