<?xml version="1.0" encoding="utf-8"?>
<!-- Generator: Adobe Illustrator 17.1.0, SVG Export Plug-In . SVG Version: 6.00 Build 0)  -->
<!DOCTYPE svg PUBLIC "-//W3C//DTD SVG 1.1//EN" "http://www.w3.org/Graphics/SVG/1.1/DTD/svg11.dtd">
<svg version="1.1" id="圖層_1" xmlns="http://www.w3.org/2000/svg" xmlns:xlink="http://www.w3.org/1999/xlink" x="0px" y="0px"
	 viewBox="0 0 1212 633" enable-background="new 0 0 1212 633" xml:space="preserve">
<circle fill="none" stroke="#777777" stroke-width="4" stroke-miterlimit="10" cx="130" cy="311" r="19.5"/>
<line fill="none" stroke="#777777" stroke-width="4" stroke-miterlimit="10" x1="149.5" y1="311" x2="1063.5" y2="311"/>
<circle fill="#FFFFFF" stroke="#777777" stroke-width="4" stroke-miterlimit="10" cx="566" cy="311" r="19.5"/>
<circle fill="#FFFFFF" stroke="#777777" stroke-width="4" stroke-miterlimit="10" cx="781.8" cy="311" r="19.5"/>
<circle fill="#FFFFFF" stroke="#777777" stroke-width="4" stroke-miterlimit="10" cx="995.9" cy="311" r="19.5"/>
<text transform="matrix(1 0 0 1 130.0107 345.1711)" font-family="'NotoSansCJKtc-Regular-B5pc-H'" font-size="20.5512" glyph-orientation-vertical="0" writing-mode="tb" letter-spacing="2">集資開跑</text>
<text transform="matrix(1 0 0 1 563 345.1711)" fill="#134791" font-family="'NotoSansCJKtc-Regular-B5pc-H'" font-size="20.5512" glyph-orientation-vertical="0" writing-mode="tb" letter-spacing="2">第二次結算訂單</text>
<g>
	
		<text transform="matrix(1 0 0 1 845.6519 345.1711)" fill="#0098FF" font-family="'NotoSansCJKtc-Regular-B5pc-H'" font-size="20.5512" glyph-orientation-vertical="0" writing-mode="tb" letter-spacing="2">陸續出貨</text>
	
		<text transform="matrix(1 0 0 1 845.6519 345.1711)" fill="#157FFF" font-family="'NotoSansCJKtc-Regular-B5pc-H'" font-size="20.5512" glyph-orientation-vertical="0" writing-mode="tb" letter-spacing="2">陸續出貨</text>
</g>
<text transform="matrix(1 0 0 1 1061.8342 345.1711)" fill="#134791" font-family="'NotoSansCJKtc-Regular-B5pc-H'" font-size="20.5512" glyph-orientation-vertical="0" writing-mode="tb" letter-spacing="2">陸續出貨</text>
<g>
	
		<text transform="matrix(1 0 0 1 781.8367 345.1711)" fill="#0098FF" font-family="'NotoSansCJKtc-Regular-B5pc-H'" font-size="20.5512" glyph-orientation-vertical="0" writing-mode="tb" letter-spacing="2">第一批抵達台灣</text>
	
		<text transform="matrix(1 0 0 1 781.8367 345.1711)" fill="#157FFF" font-family="'NotoSansCJKtc-Regular-B5pc-H'" font-size="20.5512" glyph-orientation-vertical="0" writing-mode="tb" letter-spacing="2">第一批抵達台灣</text>
</g>
<text transform="matrix(1 0 0 1 992.8844 345.1711)" fill="#134791" font-family="'NotoSansCJKtc-Regular-B5pc-H'" font-size="20.5512" glyph-orientation-vertical="0" writing-mode="tb" letter-spacing="2">第二批抵達台灣</text>
<g>
	
		<text transform="matrix(1 0 0 1 101.2321 277.6744)" fill="#777777" font-family="'Avenir-Medium'" font-size="24.8032" letter-spacing="1">Jul.7</text>
	
		<text transform="matrix(1 0 0 1 101.2321 277.6744)" fill="#777777" font-family="'Avenir-Medium'" font-size="24.8032" letter-spacing="1">Jul.7</text>
</g>
<circle fill="#FFFFFF" stroke="#777777" stroke-width="4" stroke-miterlimit="10" cx="348" cy="311" r="19.5"/>
<g>
	
		<text transform="matrix(1 0 0 1 348.0056 345.1711)" fill="#0098FF" font-family="'NotoSansCJKtc-Regular-B5pc-H'" font-size="20.5512" glyph-orientation-vertical="0" writing-mode="tb" letter-spacing="2">第一次結算訂單</text>
	
		<text transform="matrix(1 0 0 1 348.0056 345.1711)" fill="#157FFF" font-family="'NotoSansCJKtc-Regular-B5pc-H'" font-size="20.5512" glyph-orientation-vertical="0" writing-mode="tb" letter-spacing="2">第一次結算訂單</text>
</g>
<g>
	
		<text transform="matrix(1 0 0 1 311.9132 277.6744)" fill="#777777" font-family="'Avenir-Medium'" font-size="24.8032" letter-spacing="1">Aug.7</text>
	
		<text transform="matrix(1 0 0 1 311.9132 277.6744)" fill="#777777" font-family="'Avenir-Medium'" font-size="24.8032" letter-spacing="1">Aug.7</text>
</g>
<g>
	
		<text transform="matrix(1 0 0 1 531.845 277.6744)" fill="#777777" font-family="'Avenir-Medium'" font-size="24.8032" letter-spacing="1">Sep.7</text>
	
		<text transform="matrix(1 0 0 1 531.845 277.6744)" fill="#777777" font-family="'Avenir-Medium'" font-size="24.8032" letter-spacing="1">Sep.7</text>
</g>
<g>
	
		<text transform="matrix(1 0 0 1 747.5209 277.6744)" fill="#777777" font-family="'Avenir-Medium'" font-size="24.8032" letter-spacing="1">Oct.7</text>
	
		<text transform="matrix(1 0 0 1 747.5209 277.6744)" fill="#777777" font-family="'Avenir-Medium'" font-size="24.8032" letter-spacing="1">Oct.7</text>
</g>
<g>
	
		<text transform="matrix(1 0 0 1 805.558 150.1809)" fill="#777777" font-family="'Avenir-Medium'" font-size="24.8032" letter-spacing="1">Oct.14</text>
	
		<text transform="matrix(1 0 0 1 805.558 150.1809)" fill="#777777" font-family="'Avenir-Medium'" font-size="24.8032" letter-spacing="1">Oct.14</text>
</g>
<g>
	
		<text transform="matrix(1 0 0 1 960.3987 277.6744)" fill="#777777" font-family="'Avenir-Medium'" font-size="24.8032" letter-spacing="1">Nov.7</text>
	
		<text transform="matrix(1 0 0 1 960.3987 277.6744)" fill="#777777" font-family="'Avenir-Medium'" font-size="24.8032" letter-spacing="1">Nov.7</text>
</g>
<line fill="none" stroke="#777777" stroke-miterlimit="10" x1="845.7" y1="302.4" x2="845.7" y2="159.8"/>
<g>
	
		<text transform="matrix(1 0 0 1 1023.3757 150.1809)" fill="#777777" font-family="'Avenir-Medium'" font-size="24.8032" letter-spacing="1">Nov.14</text>
	
		<text transform="matrix(1 0 0 1 1023.3757 150.1809)" fill="#777777" font-family="'Avenir-Medium'" font-size="24.8032" letter-spacing="1">Nov.14</text>
</g>
<line fill="none" stroke="#777777" stroke-miterlimit="10" x1="1063.5" y1="302.4" x2="1063.5" y2="159.8"/>
<circle fill="#0098FF" cx="845.7" cy="311" r="9.6"/>
<circle fill="#134791" cx="1060.5" cy="311" r="9.6"/>
</svg>
