<?xml version="1.0" encoding="utf-8"?>
<!-- Generator: Adobe Illustrator 17.1.0, SVG Export Plug-In . SVG Version: 6.00 Build 0)  -->
<!DOCTYPE svg PUBLIC "-//W3C//DTD SVG 1.1//EN" "http://www.w3.org/Graphics/SVG/1.1/DTD/svg11.dtd">
<svg version="1.1" id="圖層_1" xmlns="http://www.w3.org/2000/svg" xmlns:xlink="http://www.w3.org/1999/xlink" x="0px" y="0px"
	 viewBox="0 0 618 1396" enable-background="new 0 0 618 1396" xml:space="preserve">
<g>
	
		<text transform="matrix(1 0 0 1 135.3698 960.8588)" fill="#777777" font-family="'Avenir-Medium'" font-size="24.8032" letter-spacing="1">Oct.14</text>
	
		<text transform="matrix(1 0 0 1 135.3698 960.8588)" fill="#777777" font-family="'Avenir-Medium'" font-size="24.8032" letter-spacing="1">Oct.14</text>
</g>
<g>
	
		<text transform="matrix(1 0 0 1 133.0287 1177.3478)" fill="#777777" font-family="'Avenir-Medium'" font-size="24.8032" letter-spacing="1">Nov.14</text>
	
		<text transform="matrix(1 0 0 1 133.0287 1177.3478)" fill="#777777" font-family="'Avenir-Medium'" font-size="24.8032" letter-spacing="1">Nov.14</text>
</g>
<circle fill="none" stroke="#777777" stroke-width="4" stroke-miterlimit="10" cx="246" cy="238.2" r="19.5"/>
<line fill="none" stroke="#777777" stroke-width="4" stroke-miterlimit="10" x1="246" y1="257.7" x2="246" y2="1171.6"/>
<circle fill="#FFFFFF" stroke="#777777" stroke-width="4" stroke-miterlimit="10" cx="246" cy="674.2" r="19.5"/>
<circle fill="#FFFFFF" stroke="#777777" stroke-width="4" stroke-miterlimit="10" cx="246" cy="890" r="19.5"/>
<circle fill="#FFFFFF" stroke="#777777" stroke-width="4" stroke-miterlimit="10" cx="246" cy="1104" r="19.5"/>
<text transform="matrix(1 0 0 1 273.14 247.359)" font-family="'NotoSansCJKtc-Regular-B5pc-H'" font-size="20.5512" letter-spacing="2"> 集資開跑</text>
<text transform="matrix(1 0 0 1 275.6509 682.3371)" fill="#134791" font-family="'NotoSansCJKtc-Regular-B5pc-H'" font-size="20.5512" letter-spacing="2">第二次結算</text>
<g>
	
		<text transform="matrix(1 0 0 1 405.3108 962.8231)" fill="#0098FF" font-family="'NotoSansCJKtc-Regular-B5pc-H'" font-size="20.5512" letter-spacing="2">陸續出貨</text>
	
		<text transform="matrix(1 0 0 1 405.3108 962.8231)" fill="#157FFF" font-family="'NotoSansCJKtc-Regular-B5pc-H'" font-size="20.5512" letter-spacing="2">陸續出貨</text>
</g>
<text transform="matrix(1 0 0 1 402.5045 1177.3124)" fill="#134791" font-family="'NotoSansCJKtc-Regular-B5pc-H'" font-size="20.5512" letter-spacing="2">陸續出貨</text>
<g>
	
		<text transform="matrix(1 0 0 1 278.4985 893.8267)" fill="#0098FF" font-family="'NotoSansCJKtc-Regular-B5pc-H'" font-size="20.5512" letter-spacing="2">第一批抵達台灣</text>
	
		<text transform="matrix(1 0 0 1 278.4985 893.8267)" fill="#157FFF" font-family="'NotoSansCJKtc-Regular-B5pc-H'" font-size="20.5512" letter-spacing="2">第一批抵達台灣</text>
</g>
<text transform="matrix(1 0 0 1 278.0571 1112.8156)" fill="#134791" font-family="'NotoSansCJKtc-Regular-B5pc-H'" font-size="20.5512" letter-spacing="2">第二批抵達台灣</text>
<g>
	
		<text transform="matrix(1 0 0 1 158.0004 249.8941)" fill="#777777" font-family="'Avenir-Medium'" font-size="24.8032" letter-spacing="1">Jul.7</text>
	
		<text transform="matrix(1 0 0 1 158.0004 249.8941)" fill="#777777" font-family="'Avenir-Medium'" font-size="24.8032" letter-spacing="1">Jul.7</text>
</g>
<circle fill="#FFFFFF" stroke="#777777" stroke-width="4" stroke-miterlimit="10" cx="246" cy="456.2" r="19.5"/>
<g>
	
		<text transform="matrix(1 0 0 1 272.1461 464.848)" fill="#0098FF" font-family="'NotoSansCJKtc-Regular-B5pc-H'" font-size="20.5512" letter-spacing="2">第一次結算</text>
	
		<text transform="matrix(1 0 0 1 272.1461 464.848)" fill="#157FFF" font-family="'NotoSansCJKtc-Regular-B5pc-H'" font-size="20.5512" letter-spacing="2">第一次結算</text>
</g>
<g>
	
		<text transform="matrix(1 0 0 1 143.374 460.5746)" fill="#777777" font-family="'Avenir-Medium'" font-size="24.8032" letter-spacing="1">Aug.7</text>
	
		<text transform="matrix(1 0 0 1 143.374 460.5746)" fill="#777777" font-family="'Avenir-Medium'" font-size="24.8032" letter-spacing="1">Aug.7</text>
</g>
<g>
	
		<text transform="matrix(1 0 0 1 147.248 680.5063)" fill="#777777" font-family="'Avenir-Medium'" font-size="24.8032" letter-spacing="1">Sep.7</text>
	
		<text transform="matrix(1 0 0 1 147.248 680.5063)" fill="#777777" font-family="'Avenir-Medium'" font-size="24.8032" letter-spacing="1">Sep.7</text>
</g>
<g>
	
		<text transform="matrix(1 0 0 1 146.9282 896.1822)" fill="#777777" font-family="'Avenir-Medium'" font-size="24.8032" letter-spacing="1">Oct.7</text>
	
		<text transform="matrix(1 0 0 1 146.9282 896.1822)" fill="#777777" font-family="'Avenir-Medium'" font-size="24.8032" letter-spacing="1">Oct.7</text>
</g>
<g>
	
		<text transform="matrix(1 0 0 1 144.5869 1109.0602)" fill="#777777" font-family="'Avenir-Medium'" font-size="24.8032" letter-spacing="1">Nov.7</text>
	
		<text transform="matrix(1 0 0 1 144.5869 1109.0602)" fill="#777777" font-family="'Avenir-Medium'" font-size="24.8032" letter-spacing="1">Nov.7</text>
</g>
<line fill="none" stroke="#000000" stroke-miterlimit="10" x1="254.6" y1="953.8" x2="397.2" y2="953.8"/>
<line fill="none" stroke="#000000" stroke-miterlimit="10" x1="254.6" y1="1171.6" x2="397.2" y2="1171.6"/>
<circle fill="#0098FF" cx="246" cy="953.8" r="9.6"/>
<circle fill="#134791" cx="246" cy="1171.6" r="9.6"/>
</svg>
