<?xml version="1.0" encoding="utf-8"?>
<!-- Generator: Adobe Illustrator 17.1.0, SVG Export Plug-In . SVG Version: 6.00 Build 0)  -->
<!DOCTYPE svg PUBLIC "-//W3C//DTD SVG 1.1//EN" "http://www.w3.org/Graphics/SVG/1.1/DTD/svg11.dtd">
<svg version="1.1" id="圖層_1" xmlns="http://www.w3.org/2000/svg" xmlns:xlink="http://www.w3.org/1999/xlink" x="0px" y="0px"
	 viewBox="0 0 1600 900" enable-background="new 0 0 1600 900" xml:space="preserve">
<circle fill="none" stroke="#777777" stroke-width="4" stroke-miterlimit="10" cx="171.6" cy="442.7" r="25.7"/>
<line fill="none" stroke="#777777" stroke-width="4" stroke-miterlimit="10" x1="197.4" y1="442.7" x2="1404" y2="442.7"/>
<circle fill="#FFFFFF" stroke="#777777" stroke-width="4" stroke-miterlimit="10" cx="747.2" cy="442.7" r="25.7"/>
<circle fill="#FFFFFF" stroke="#777777" stroke-width="4" stroke-miterlimit="10" cx="1032.1" cy="442.7" r="25.7"/>
<circle fill="#FFFFFF" stroke="#777777" stroke-width="4" stroke-miterlimit="10" cx="1314.7" cy="442.7" r="25.7"/>
<g enable-background="new    ">
	<path d="M162.8,495.7c-0.7,0.8-1.5,1.5-2.4,2.2c-0.3-0.4-1-1-1.4-1.3c3-2.3,5.1-5.3,6.3-7.7l2.1,0.4c-0.5,0.8-0.9,1.7-1.5,2.6h6
		c-0.3-0.8-0.8-1.7-1.2-2.4l1.8-0.6c0.6,0.9,1.2,2.1,1.6,3h8v1.6h-8.7v1.8h7.6v1.4h-7.6v1.8h7.7v1.4h-7.7v1.9h9.6v1.6h-18.1v0.8h-2
		V495.7z M168.7,509.4c-1.9,1.5-5.4,2.9-8.2,3.6c-0.3-0.5-0.8-1.2-1.2-1.5c2.8-0.5,6.1-1.6,7.9-2.8L168.7,509.4z M183.7,505.6v1.7
		h-11.1v6.5h-2v-6.5h-11v-1.7h11v-1.8h2v1.8H183.7z M171.4,493.5h-6.6v1.8h6.6V493.5z M171.4,496.8h-6.6v1.8h6.6V496.8z M171.4,500
		h-6.6v1.9h6.6V500z M175.3,508.4c2.6,0.8,6.2,2,8.1,2.8l-1.1,1.5c-1.8-0.8-5.5-2.1-8.1-3L175.3,508.4z"/>
	<path d="M167.2,526.2h-7.8v-1.6h7.8V526.2z M169.4,540.2c-2.2,1.3-5.6,2.6-8.3,3.3c-0.4-0.4-1-1.2-1.5-1.5c2.8-0.6,6-1.5,7.9-2.6
		L169.4,540.2z M166.6,522h-6.5v-1.6h6.5V522z M163,528.4h17.6v10.9H163V528.4z M165,531.6h13.6v-1.8H165V531.6z M165,534.7h13.6
		v-1.8H165V534.7z M165,537.9h13.6V536H165V537.9z M171.5,522.2c-0.6,1-1.3,2-2,2.7c-0.3-0.3-1.1-0.8-1.5-1c1.4-1.3,2.5-3.2,3.1-5.2
		l1.8,0.4c-0.2,0.5-0.4,1-0.6,1.5h9.1l0.3-0.1l1.4,0.5c-0.7,1.4-1.5,3-2.3,3.9l-1.6-0.6c0.4-0.6,0.9-1.4,1.3-2.1h-4.3v0.4
		c0,0.3,0,0.6-0.1,0.9c1.4,1.6,4.4,2.7,7.9,3c-0.4,0.4-0.9,1.1-1.1,1.6c-3.1-0.4-5.7-1.5-7.4-3.2c-0.9,1.3-3,2.6-7.8,3.3
		c-0.2-0.4-0.7-1.2-1.1-1.5c7-0.9,7.7-2.8,7.7-4.2v-0.3H171.5z M175.6,539.4c2.9,0.9,6.1,2.1,8,2.9l-1.8,1.2c-1.7-0.9-4.7-2-7.6-3
		L175.6,539.4z"/>
	<path d="M162.5,558.8v14.6h-2v-23.6h9.8v9.1H162.5z M162.5,551.3v2.2h5.9v-2.2H162.5z M168.5,557.2v-2.3h-5.9v2.3H168.5z
		 M175.2,566.8v6h-1.8v-6h-3.9c-0.2,1.8-1,4.6-3.6,6.4c-0.3-0.4-0.9-0.9-1.3-1.2c2.3-1.4,3-3.6,3.2-5.2h-3.4v-1.7h3.4v-2.9h-2.9
		v-1.7h13.4v1.7h-3.1v2.9h3.7v1.7H175.2z M173.4,565.1v-2.9h-3.8v2.9H173.4z M182.8,570.7c0,1.2-0.3,1.8-1.1,2.2
		c-0.8,0.3-2.2,0.4-4.2,0.4c-0.1-0.5-0.4-1.5-0.7-2c1.5,0.1,3,0.1,3.4,0c0.4,0,0.6-0.2,0.6-0.6v-11.9h-8.1v-9.1h10.1V570.7z
		 M174.7,551.3v2.2h6.2v-2.2H174.7z M180.9,557.2v-2.4h-6.2v2.4H180.9z"/>
	<path d="M168.7,579.5v8.2h-2.9v3.7h2.9v1.8h-2.9v5l3.3-0.9l0.2,1.7c-3.4,1-7.1,2-9.7,2.8l-0.5-1.9l1.4-0.4v-9.3h1.7v8.9l1.8-0.5
		v-11h-3.5v-8.2H168.7z M166.8,581.2h-4.6v4.7h4.6V581.2z M180.6,601c1.4,0,1.6-0.5,1.8-3.3c0.4,0.3,1.2,0.6,1.7,0.7
		c-0.3,3.3-0.9,4.2-3.4,4.2h-6.3c-2.9,0-3.7-0.6-3.7-3.1v-12.9c-0.2,0.3-0.4,0.5-0.6,0.8c-0.2-0.4-0.9-1.1-1.4-1.4
		c1.7-1.9,3.1-4.8,4-7.7l1.8,0.5c-0.3,0.9-0.5,1.8-0.9,2.6h9v0.9c-0.1,9.3-0.1,12.3-0.7,13.2c-0.4,0.6-0.9,0.8-1.7,0.9
		c-0.7,0.1-1.8,0.1-2.9,0c0-0.5-0.2-1.3-0.5-1.8c1.1,0.1,2.1,0.1,2.6,0.1c0.4,0,0.6-0.1,0.8-0.4c0.4-0.6,0.5-3.4,0.5-11.2h-7.8
		c-0.5,1.1-1.1,2.1-1.7,3h7.1v8.2h-5.6v5.3c0,1.1,0.3,1.4,2,1.4H180.6z M172.5,587.8v4.8h3.9v-4.8H172.5z"/>
</g>
<g enable-background="new    ">
	<path fill="#134791" d="M735.2,492.6c-0.8,1.4-1.8,2.6-2.8,3.5c-0.3-0.4-1-1-1.4-1.3c1.7-1.5,3.2-3.7,4.1-5.9l1.8,0.5
		c-0.2,0.5-0.5,1.1-0.7,1.6h6.9v1.6h-5.1c0.9,0.8,1.9,1.8,2.4,2.4l-1.3,1.1c-0.5-0.8-1.7-1.9-2.6-2.8l1-0.8H735.2z M754.1,505.1
		c0,0,0,0.5-0.1,0.8c-0.4,3.7-0.7,5.4-1.4,6c-0.4,0.5-0.9,0.7-1.7,0.7c-0.7,0.1-2,0.1-3.4,0c0-0.6-0.2-1.4-0.5-1.9
		c1.3,0.1,2.6,0.1,3.1,0.1c0.5,0,0.7,0,1-0.2c0.4-0.4,0.7-1.4,0.9-3.9h-7.8v7h-2v-6.2c-2.4,2.7-5.9,5-9.1,6.3
		c-0.3-0.5-0.8-1.2-1.3-1.6c3.1-1,6.6-3.1,8.8-5.4h-7.2c0.4-1.6,0.7-4,0.9-6h7.8v-2.5h-8.8v-1.7h19.8v5.9h-9.1v2.5H754.1z
		 M736,502.6c-0.1,0.8-0.3,1.7-0.4,2.5h6.5v-2.5H736z M755.5,491v1.6h-5.8c0.9,0.8,2.1,1.7,2.7,2.4l-1.3,1.1
		c-0.6-0.7-1.8-1.8-2.8-2.6l1.2-1h-3c-0.6,1-1.3,1.8-2.1,2.5c-0.3-0.3-1.1-0.9-1.5-1.2c1.5-1.2,2.7-3.1,3.4-5l1.9,0.4
		c-0.2,0.6-0.5,1.1-0.7,1.7H755.5z M744.1,500.8h7.1v-2.5h-7.1V500.8z"/>
	<path fill="#134791" d="M755.2,538.7v2.2h-23.9v-2.2H755.2z M752.9,522.7v2.1h-19.3v-2.1H752.9z"/>
	<path fill="#134791" d="M739.6,565.9h-8.5v-2h8.5V565.9z M738.8,554.8h-7.1v-2h7.1V554.8z M746.8,558.4c0,0.4,0,0.8,0,1.2
		c1.2,5.7,3.9,10.1,8.9,11.8c-0.4,0.4-1,1.2-1.3,1.8c-4.1-1.7-6.6-4.9-8.1-9.3c-0.9,3.3-3.2,6.8-8.4,9.5c-0.3-0.5-1.1-1.2-1.5-1.6
		c7.8-3.9,8.4-9.6,8.4-13.5v-2.1h2.1V558.4z M742.5,555.2c-0.8,2.2-1.8,4.2-2.8,5.7c-0.4-0.4-1.4-0.9-2-1.1
		c2.1-2.6,3.6-6.9,4.4-11.2l2.2,0.4c-0.3,1.4-0.7,2.8-1.1,4.2h9.8l0.4-0.1l1.5,0.8c-0.7,2.6-1.9,5.5-2.8,7.4
		c-0.4-0.2-1.2-0.7-1.7-0.9c0.7-1.3,1.5-3.3,2-5.2H742.5z"/>
	<path fill="#134791" d="M739.2,588.5c0.8,1.8,1.5,4.2,1.8,5.6l-1.6,0.6c-0.1-0.5-0.2-1-0.4-1.6c-6.1,0.9-7,1.1-7.5,1.4
		c-0.1-0.4-0.4-1.4-0.6-1.9c0.6-0.1,1.2-0.8,2-1.8c0.4-0.5,1.3-1.6,2.4-3.1c-2.9,0.3-3.6,0.5-3.9,0.6c-0.1-0.4-0.4-1.3-0.6-1.8
		c0.5-0.1,0.9-0.7,1.5-1.5c0.6-0.8,2.6-3.9,3.7-6.9l1.8,0.8c-1.2,2.6-2.8,5.2-4.3,7.2l3-0.3c0.7-1.1,1.4-2.3,2-3.5l1.7,1
		c-1.8,3.1-3.9,6.2-6.2,8.6l4.6-0.6c-0.3-0.9-0.6-1.8-0.9-2.6L739.2,588.5z M733.7,595.9c-0.3,2.4-0.8,5.1-1.4,6.7
		c-0.4-0.2-1.2-0.4-1.6-0.6c0.7-1.7,1.1-4.2,1.3-6.5L733.7,595.9z M736.6,595.6c0.4,2,0.7,4.4,0.8,6.1l-1.6,0.3
		c-0.1-1.7-0.4-4.2-0.7-6.2L736.6,595.6z M739.2,594.9c0.7,1.7,1.3,3.8,1.6,5.2l-1.5,0.5c-0.3-1.4-0.9-3.7-1.5-5.3L739.2,594.9z
		 M749,583.8v4.3h5.6v1.9h-12.8v-1.9h5.1v-4.3H741v-1.9h5.9v-3.6h2v3.6h6.3v1.9H749z M742.4,592.7h11.4V603h-2v-1h-7.6v1.1h-1.9
		V592.7z M744.3,594.6v5.5h7.6v-5.5H744.3z"/>
	<path fill="#134791" d="M735.3,611.6c-0.9,1.5-2.1,2.8-3.1,3.8c-0.2-0.4-0.9-1.2-1.2-1.6c1.7-1.4,3.3-3.6,4.2-5.8l1.8,0.6
		c-0.2,0.5-0.5,1-0.7,1.5h7.3v1.6H735.3z M755.5,611.5h-4.6c0.6,0.6,1.3,1.4,1.6,2l-1.4,0.7h1.4v10.1h-3.3v2.3h6.2v1.7h-6.2v4.5h-2
		v-4.5h-7.3c-0.6,1.7-2.3,3.4-6.2,4.7c-0.3-0.4-0.8-1.1-1.3-1.5c3.1-0.9,4.6-2.1,5.2-3.2h-6.3v-1.7h6.9c0-0.2,0-0.4,0-0.6v-1.8h-3.6
		v-10.1h4c-0.2-0.6-0.7-1.4-1.2-2l1.7-0.5c0.5,0.6,1,1.4,1.2,2l-1.6,0.6h5.6c-0.5-0.3-1.2-0.7-1.7-0.9c1.6-1.3,3-3.3,3.8-5.3
		l1.9,0.4c-0.2,0.5-0.5,1.1-0.7,1.6h7.9V611.5z M750.4,615.6h-13.8v1.6h13.8V615.6z M750.4,618.4h-13.8v1.5h13.8V618.4z
		 M750.4,621.3h-13.8v1.6h13.8V621.3z M747.1,624.3h-6.9v1.8c0,0.2,0,0.4,0,0.5h6.9V624.3z M750.9,614.2c-0.3-0.6-1-1.5-1.6-2.1
		l1.3-0.6h-3.9c-0.7,1-1.5,2-2.2,2.7H750.9z"/>
	<path fill="#134791" d="M731.1,642.4h10.3v1.7h-10.3V642.4z M732.2,646h8.3v1.6h-8.3V646z M732.2,649.5h8.2v1.6h-8.2V649.5z
		 M740.4,661H734v1.3h-1.7v-9.1h8.1V661z M734,654.8v4.5h4.6v-4.5H734z M736.1,642.1c-0.4-1-1.2-2.5-2-3.6l1.6-0.8
		c0.8,1.1,1.7,2.5,2.1,3.5L736.1,642.1z M755.7,642.1h-4.2v17.5c0,1.4-0.3,2.1-1.3,2.4c-1,0.4-2.7,0.4-5.3,0.4
		c-0.1-0.5-0.5-1.5-0.8-2.1c2.1,0.1,4.1,0.1,4.7,0c0.5,0,0.8-0.2,0.8-0.7v-17.5h-7.6v-2h13.8V642.1z"/>
	<path fill="#134791" d="M755.2,688.5h-11v3.8h-2.1v-3.8h-10.8v-1.8h10.8v-2.1H734v-9.4h18.7v9.4h-8.5v2.1h11V688.5z M742.2,673.9
		h-8.9v-5.3h8.9V673.9z M740.3,670h-5.2v2.5h5.2V670z M736,679.2h6.1v-2.3H736V679.2z M742.1,683.1v-2.3H736v2.3H742.1z
		 M750.6,676.9h-6.5v2.3h6.5V676.9z M750.6,680.7h-6.5v2.3h6.5V680.7z M753.3,673.9h-9v-5.3h9V673.9z M751.5,670h-5.2v2.5h5.2V670z"
		/>
</g>
<g>
	<g enable-background="new    ">
		<path fill="#0098FF" d="M1113,490.9c-0.8,2.2-1.8,4.9-2.7,7.1c2,2.2,2.4,4.2,2.4,5.8c0,1.5-0.3,2.6-1.1,3.1
			c-0.4,0.3-0.9,0.4-1.4,0.5c-0.5,0.1-1.2,0.1-1.8,0.1c0-0.5-0.2-1.3-0.5-1.8c0.6,0.1,1.1,0.1,1.5,0.1c0.4,0,0.7-0.1,0.9-0.2
			c0.4-0.3,0.6-1,0.6-1.8c0-1.4-0.5-3.3-2.4-5.3c0.8-2,1.6-4.4,2.2-6.2h-3.6v21.8h-1.9v-23.6h6.2l0.3-0.1L1113,490.9z M1128.7,511.3
			v1.8h-17.1v-1.8h7.8v-3.7h-5.6v-1.8h5.6v-2.9h2v2.9h5.9v1.8h-5.9v3.7H1128.7z M1119.4,493.7h-5.3v-1.7h5.3v-2.9h2v2.9h5.5v1.7
			h-5.5v3h7.1v1.8h-4.9v2.3c0,0.7,0.1,0.8,0.6,0.8h2.7c0.4,0,1.1,0,1.5-0.1c0.1,0.5,0.1,1.1,0.2,1.5c-0.3,0.1-1,0.1-1.6,0.1h-2.9
			c-1.7,0-2.1-0.7-2.1-2.4v-2.2h-3.1c-0.3,3.1-1.4,4.8-4.9,5.8c-0.2-0.5-0.7-1.1-1-1.5c2.9-0.8,3.8-2,4.1-4.4h-4.2v-1.8h6.7V493.7z"
			/>
		<path fill="#0098FF" d="M1106.8,536.4c-0.3,2.5-0.8,5.2-1.4,7c-0.4-0.2-1.1-0.4-1.6-0.5c0.7-1.8,1.1-4.4,1.4-6.7L1106.8,536.4z
			 M1111.5,535.3c-0.1-0.4-0.1-1-0.3-1.6c-5.3,0.8-6.1,1-6.6,1.2c-0.1-0.4-0.4-1.3-0.6-1.8c0.5-0.1,1.1-0.8,1.9-1.8
			c0.4-0.5,1.2-1.6,2.2-3.1c-2.7,0.3-3.3,0.4-3.6,0.6c-0.1-0.4-0.4-1.2-0.6-1.7c0.4-0.1,0.9-0.7,1.4-1.5c0.5-0.8,2.3-3.9,3.3-6.9
			l1.7,0.7c-1.1,2.6-2.4,5.2-3.9,7.2l2.7-0.2c0.7-1.2,1.3-2.4,1.9-3.7l1.6,1c-1.6,3.1-3.6,6.3-5.7,8.8l3.9-0.5
			c-0.2-0.9-0.5-1.9-0.8-2.7l1.4-0.4c0.7,1.9,1.3,4.3,1.5,5.7L1111.5,535.3z M1109.2,536c0.3,2,0.7,4.5,0.7,6.2l-1.5,0.3
			c0-1.7-0.3-4.3-0.7-6.3L1109.2,536z M1111.5,535.4c0.6,1.6,1.2,3.7,1.5,5l-1.4,0.5c-0.2-1.4-0.9-3.5-1.4-5.1L1111.5,535.4z
			 M1123.1,539.7c2,0.7,4.1,1.7,5.5,2.3l-0.8,1.4c-1.4-0.7-3.7-1.8-5.7-2.6l0.7-1.2h-4.6l1.4,1.2c-2.1,1-4.6,2-6.5,2.7
			c-0.2-0.4-0.5-1-0.8-1.4c1.8-0.7,4.3-1.7,5.8-2.5h-4.2v-7.9h13.4v7.9H1123.1z M1119.7,521.7h-6.9v-1.4h6.9v-1.5h2v1.5h6.6v1.4
			h-6.6v1.5h5.5v1.4h-13.3v-1.4h5.8V521.7z M1113,525.6h15.1v5H1113V525.6z M1114.7,529.2h3.1V527h-3.1V529.2z M1115.7,534.1h9.7
			V533h-9.7V534.1z M1115.7,536.3h9.7v-1.2h-9.7V536.3z M1115.7,538.5h9.7v-1.2h-9.7V538.5z M1122.2,529.2V527h-2.8v2.2H1122.2z
			 M1126.3,527h-2.6v2.2h2.6V527z"/>
		<path fill="#0098FF" d="M1127,562v11.3h-2.2v-1.5h-19.1V562h2.2v7.7h7.3v-9.4h-8.3V551h2.1v7.3h6.2v-9.8h2.2v9.8h6.4V551h2.2v9.3
			h-8.5v9.4h7.4V562H1127z"/>
		<path fill="#0098FF" d="M1109,583.1c-1.1,0.8-2.3,1.5-3.4,2c-0.3-0.4-1.1-1.1-1.5-1.4c3-1.3,6.1-3.3,7.9-5.6l1.8,0.7
			c-0.8,1-1.8,1.9-2.9,2.8v5.5h-2V583.1z M1114.2,599.9c-2.2,1.3-5.6,2.6-8.3,3.3c-0.3-0.4-1.1-1.1-1.5-1.5c2.8-0.6,6-1.5,8-2.6
			L1114.2,599.9z M1107.8,587.9h17.6v10.9h-17.6V587.9z M1109.7,591.1h13.6v-1.8h-13.6V591.1z M1109.7,594.2h13.6v-1.8h-13.6V594.2z
			 M1109.7,597.4h13.6v-1.9h-13.6V597.4z M1119.2,586.7c-2.4,0-3.1-0.8-3.1-2.9v-5.5h2v2.2h8.7v1.7h-8.7v1.6c0,0.9,0.2,1.2,1.2,1.2
			h6c0.8,0,2.1-0.1,2.7-0.2c0.1,0.6,0.1,1.2,0.2,1.7c-0.5,0.1-1.7,0.2-2.8,0.2H1119.2z M1120.3,598.9c2.9,0.9,6,2,8,3l-1.8,1.2
			c-1.7-0.9-4.6-2.1-7.5-3L1120.3,598.9z"/>
	</g>
	<g enable-background="new    ">
		<path fill="#157FFF" d="M1113,490.9c-0.8,2.2-1.8,4.9-2.7,7.1c2,2.2,2.4,4.2,2.4,5.8c0,1.5-0.3,2.6-1.1,3.1
			c-0.4,0.3-0.9,0.4-1.4,0.5c-0.5,0.1-1.2,0.1-1.8,0.1c0-0.5-0.2-1.3-0.5-1.8c0.6,0.1,1.1,0.1,1.5,0.1c0.4,0,0.7-0.1,0.9-0.2
			c0.4-0.3,0.6-1,0.6-1.8c0-1.4-0.5-3.3-2.4-5.3c0.8-2,1.6-4.4,2.2-6.2h-3.6v21.8h-1.9v-23.6h6.2l0.3-0.1L1113,490.9z M1128.7,511.3
			v1.8h-17.1v-1.8h7.8v-3.7h-5.6v-1.8h5.6v-2.9h2v2.9h5.9v1.8h-5.9v3.7H1128.7z M1119.4,493.7h-5.3v-1.7h5.3v-2.9h2v2.9h5.5v1.7
			h-5.5v3h7.1v1.8h-4.9v2.3c0,0.7,0.1,0.8,0.6,0.8h2.7c0.4,0,1.1,0,1.5-0.1c0.1,0.5,0.1,1.1,0.2,1.5c-0.3,0.1-1,0.1-1.6,0.1h-2.9
			c-1.7,0-2.1-0.7-2.1-2.4v-2.2h-3.1c-0.3,3.1-1.4,4.8-4.9,5.8c-0.2-0.5-0.7-1.1-1-1.5c2.9-0.8,3.8-2,4.1-4.4h-4.2v-1.8h6.7V493.7z"
			/>
		<path fill="#157FFF" d="M1106.8,536.4c-0.3,2.5-0.8,5.2-1.4,7c-0.4-0.2-1.1-0.4-1.6-0.5c0.7-1.8,1.1-4.4,1.4-6.7L1106.8,536.4z
			 M1111.5,535.3c-0.1-0.4-0.1-1-0.3-1.6c-5.3,0.8-6.1,1-6.6,1.2c-0.1-0.4-0.4-1.3-0.6-1.8c0.5-0.1,1.1-0.8,1.9-1.8
			c0.4-0.5,1.2-1.6,2.2-3.1c-2.7,0.3-3.3,0.4-3.6,0.6c-0.1-0.4-0.4-1.2-0.6-1.7c0.4-0.1,0.9-0.7,1.4-1.5c0.5-0.8,2.3-3.9,3.3-6.9
			l1.7,0.7c-1.1,2.6-2.4,5.2-3.9,7.2l2.7-0.2c0.7-1.2,1.3-2.4,1.9-3.7l1.6,1c-1.6,3.1-3.6,6.3-5.7,8.8l3.9-0.5
			c-0.2-0.9-0.5-1.9-0.8-2.7l1.4-0.4c0.7,1.9,1.3,4.3,1.5,5.7L1111.5,535.3z M1109.2,536c0.3,2,0.7,4.5,0.7,6.2l-1.5,0.3
			c0-1.7-0.3-4.3-0.7-6.3L1109.2,536z M1111.5,535.4c0.6,1.6,1.2,3.7,1.5,5l-1.4,0.5c-0.2-1.4-0.9-3.5-1.4-5.1L1111.5,535.4z
			 M1123.1,539.7c2,0.7,4.1,1.7,5.5,2.3l-0.8,1.4c-1.4-0.7-3.7-1.8-5.7-2.6l0.7-1.2h-4.6l1.4,1.2c-2.1,1-4.6,2-6.5,2.7
			c-0.2-0.4-0.5-1-0.8-1.4c1.8-0.7,4.3-1.7,5.8-2.5h-4.2v-7.9h13.4v7.9H1123.1z M1119.7,521.7h-6.9v-1.4h6.9v-1.5h2v1.5h6.6v1.4
			h-6.6v1.5h5.5v1.4h-13.3v-1.4h5.8V521.7z M1113,525.6h15.1v5H1113V525.6z M1114.7,529.2h3.1V527h-3.1V529.2z M1115.7,534.1h9.7
			V533h-9.7V534.1z M1115.7,536.3h9.7v-1.2h-9.7V536.3z M1115.7,538.5h9.7v-1.2h-9.7V538.5z M1122.2,529.2V527h-2.8v2.2H1122.2z
			 M1126.3,527h-2.6v2.2h2.6V527z"/>
		<path fill="#157FFF" d="M1127,562v11.3h-2.2v-1.5h-19.1V562h2.2v7.7h7.3v-9.4h-8.3V551h2.1v7.3h6.2v-9.8h2.2v9.8h6.4V551h2.2v9.3
			h-8.5v9.4h7.4V562H1127z"/>
		<path fill="#157FFF" d="M1109,583.1c-1.1,0.8-2.3,1.5-3.4,2c-0.3-0.4-1.1-1.1-1.5-1.4c3-1.3,6.1-3.3,7.9-5.6l1.8,0.7
			c-0.8,1-1.8,1.9-2.9,2.8v5.5h-2V583.1z M1114.2,599.9c-2.2,1.3-5.6,2.6-8.3,3.3c-0.3-0.4-1.1-1.1-1.5-1.5c2.8-0.6,6-1.5,8-2.6
			L1114.2,599.9z M1107.8,587.9h17.6v10.9h-17.6V587.9z M1109.7,591.1h13.6v-1.8h-13.6V591.1z M1109.7,594.2h13.6v-1.8h-13.6V594.2z
			 M1109.7,597.4h13.6v-1.9h-13.6V597.4z M1119.2,586.7c-2.4,0-3.1-0.8-3.1-2.9v-5.5h2v2.2h8.7v1.7h-8.7v1.6c0,0.9,0.2,1.2,1.2,1.2
			h6c0.8,0,2.1-0.1,2.7-0.2c0.1,0.6,0.1,1.2,0.2,1.7c-0.5,0.1-1.7,0.2-2.8,0.2H1119.2z M1120.3,598.9c2.9,0.9,6,2,8,3l-1.8,1.2
			c-1.7-0.9-4.6-2.1-7.5-3L1120.3,598.9z"/>
	</g>
</g>
<g enable-background="new    ">
	<path fill="#134791" d="M1398.4,490.9c-0.8,2.2-1.8,4.9-2.7,7.1c2,2.2,2.4,4.2,2.4,5.8c0,1.5-0.3,2.6-1.1,3.1
		c-0.4,0.3-0.9,0.4-1.4,0.5c-0.5,0.1-1.2,0.1-1.8,0.1c0-0.5-0.2-1.3-0.5-1.8c0.6,0.1,1.1,0.1,1.5,0.1c0.4,0,0.7-0.1,0.9-0.2
		c0.4-0.3,0.6-1,0.6-1.8c0-1.4-0.5-3.3-2.4-5.3c0.8-2,1.6-4.4,2.2-6.2h-3.6v21.8h-1.9v-23.6h6.2l0.3-0.1L1398.4,490.9z
		 M1414.1,511.3v1.8H1397v-1.8h7.8v-3.7h-5.6v-1.8h5.6v-2.9h2v2.9h5.9v1.8h-5.9v3.7H1414.1z M1404.8,493.7h-5.3v-1.7h5.3v-2.9h2v2.9
		h5.5v1.7h-5.5v3h7.1v1.8h-4.9v2.3c0,0.7,0.1,0.8,0.6,0.8h2.7c0.4,0,1.1,0,1.5-0.1c0.1,0.5,0.1,1.1,0.2,1.5c-0.3,0.1-1,0.1-1.6,0.1
		h-2.9c-1.7,0-2.1-0.7-2.1-2.4v-2.2h-3.1c-0.3,3.1-1.4,4.8-4.9,5.8c-0.2-0.5-0.7-1.1-1-1.5c2.9-0.8,3.8-2,4.1-4.4h-4.2v-1.8h6.7
		V493.7z"/>
	<path fill="#134791" d="M1392.2,536.4c-0.3,2.5-0.8,5.2-1.4,7c-0.4-0.2-1.1-0.4-1.6-0.5c0.7-1.8,1.1-4.4,1.4-6.7L1392.2,536.4z
		 M1396.9,535.3c-0.1-0.4-0.1-1-0.3-1.6c-5.3,0.8-6.1,1-6.6,1.2c-0.1-0.4-0.4-1.3-0.6-1.8c0.5-0.1,1.1-0.8,1.9-1.8
		c0.4-0.5,1.2-1.6,2.2-3.1c-2.7,0.3-3.3,0.4-3.6,0.6c-0.1-0.4-0.4-1.2-0.6-1.7c0.4-0.1,0.9-0.7,1.4-1.5c0.5-0.8,2.3-3.9,3.3-6.9
		l1.7,0.7c-1.1,2.6-2.4,5.2-3.9,7.2l2.7-0.2c0.7-1.2,1.3-2.4,1.9-3.7l1.6,1c-1.6,3.1-3.6,6.3-5.7,8.8l3.9-0.5
		c-0.2-0.9-0.5-1.9-0.8-2.7l1.4-0.4c0.7,1.9,1.3,4.3,1.5,5.7L1396.9,535.3z M1394.6,536c0.3,2,0.7,4.5,0.7,6.2l-1.5,0.3
		c0-1.7-0.3-4.3-0.7-6.3L1394.6,536z M1396.9,535.4c0.6,1.6,1.2,3.7,1.5,5l-1.4,0.5c-0.2-1.4-0.9-3.5-1.4-5.1L1396.9,535.4z
		 M1408.5,539.7c2,0.7,4.1,1.7,5.5,2.3l-0.8,1.4c-1.4-0.7-3.7-1.8-5.7-2.6l0.7-1.2h-4.6l1.4,1.2c-2.1,1-4.6,2-6.5,2.7
		c-0.2-0.4-0.5-1-0.8-1.4c1.8-0.7,4.3-1.7,5.8-2.5h-4.2v-7.9h13.4v7.9H1408.5z M1405.1,521.7h-6.9v-1.4h6.9v-1.5h2v1.5h6.6v1.4h-6.6
		v1.5h5.5v1.4h-13.3v-1.4h5.8V521.7z M1398.4,525.6h15.1v5h-15.1V525.6z M1400.1,529.2h3.1V527h-3.1V529.2z M1401.1,534.1h9.7V533
		h-9.7V534.1z M1401.1,536.3h9.7v-1.2h-9.7V536.3z M1401.1,538.5h9.7v-1.2h-9.7V538.5z M1407.5,529.2V527h-2.8v2.2H1407.5z
		 M1411.7,527h-2.6v2.2h2.6V527z"/>
	<path fill="#134791" d="M1412.4,562v11.3h-2.2v-1.5h-19.1V562h2.2v7.7h7.3v-9.4h-8.3V551h2.1v7.3h6.2v-9.8h2.2v9.8h6.4V551h2.2v9.3
		h-8.5v9.4h7.4V562H1412.4z"/>
	<path fill="#134791" d="M1394.4,583.1c-1.1,0.8-2.3,1.5-3.4,2c-0.3-0.4-1.1-1.1-1.5-1.4c3-1.3,6.1-3.3,7.9-5.6l1.8,0.7
		c-0.8,1-1.8,1.9-2.9,2.8v5.5h-2V583.1z M1399.6,599.9c-2.2,1.3-5.6,2.6-8.3,3.3c-0.3-0.4-1.1-1.1-1.5-1.5c2.8-0.6,6-1.5,8-2.6
		L1399.6,599.9z M1393.2,587.9h17.6v10.9h-17.6V587.9z M1395.1,591.1h13.6v-1.8h-13.6V591.1z M1395.1,594.2h13.6v-1.8h-13.6V594.2z
		 M1395.1,597.4h13.6v-1.9h-13.6V597.4z M1404.6,586.7c-2.4,0-3.1-0.8-3.1-2.9v-5.5h2v2.2h8.7v1.7h-8.7v1.6c0,0.9,0.2,1.2,1.2,1.2h6
		c0.8,0,2.1-0.1,2.7-0.2c0.1,0.6,0.1,1.2,0.2,1.7c-0.5,0.1-1.7,0.2-2.8,0.2H1404.6z M1405.7,598.9c2.9,0.9,6,2,8,3l-1.8,1.2
		c-1.7-0.9-4.6-2.1-7.5-3L1405.7,598.9z"/>
</g>
<g>
	<g enable-background="new    ">
		<path fill="#0098FF" d="M1024.1,492.6c-0.8,1.4-1.8,2.6-2.8,3.5c-0.3-0.4-1-1-1.4-1.3c1.7-1.5,3.2-3.7,4.1-5.9l1.8,0.5
			c-0.2,0.5-0.5,1.1-0.7,1.6h6.9v1.6h-5.1c0.9,0.8,1.9,1.8,2.4,2.4l-1.3,1.1c-0.5-0.8-1.7-1.9-2.6-2.8l1-0.8H1024.1z M1043,505.1
			c0,0,0,0.5-0.1,0.8c-0.4,3.7-0.7,5.4-1.4,6c-0.4,0.5-0.9,0.7-1.7,0.7c-0.7,0.1-2,0.1-3.4,0c0-0.6-0.2-1.4-0.5-1.9
			c1.3,0.1,2.6,0.1,3.1,0.1c0.5,0,0.7,0,1-0.2c0.4-0.4,0.7-1.4,0.9-3.9h-7.8v7h-2v-6.2c-2.4,2.7-5.9,5-9.1,6.3
			c-0.3-0.5-0.8-1.2-1.3-1.6c3.1-1,6.6-3.1,8.8-5.4h-7.2c0.4-1.6,0.7-4,1-6h7.8v-2.5h-8.8v-1.7h19.8v5.9h-9.1v2.5H1043z
			 M1024.9,502.6c-0.1,0.8-0.3,1.7-0.4,2.5h6.5v-2.5H1024.9z M1044.4,491v1.6h-5.8c0.9,0.8,2.1,1.7,2.7,2.4l-1.3,1.1
			c-0.6-0.7-1.8-1.8-2.8-2.6l1.2-1h-3c-0.6,1-1.3,1.8-2.1,2.5c-0.3-0.3-1.1-0.9-1.5-1.2c1.5-1.2,2.7-3.1,3.4-5l1.9,0.4
			c-0.2,0.6-0.5,1.1-0.7,1.7H1044.4z M1033,500.8h7.1v-2.5h-7.1V500.8z"/>
		<path fill="#0098FF" d="M1044.5,529.8v2.2h-24.6v-2.2H1044.5z"/>
		<path fill="#0098FF" d="M1029,562.2l-3.4,1v7.6c0,1.1-0.3,1.7-1,2c-0.7,0.3-1.8,0.4-3.7,0.4c-0.1-0.5-0.4-1.3-0.6-1.9
			c1.3,0.1,2.5,0,2.8,0c0.4,0,0.5-0.1,0.5-0.5v-7l-3.4,1l-0.6-2c1.1-0.3,2.5-0.7,4-1v-5.9h-3.7V554h3.7v-5.4h2v5.4h3.1v1.9h-3.1v5.3
			l3.2-0.9L1029,562.2z M1036.2,567.8c0,0.6,0.2,1.4,0.3,1.8c-5,2.3-5.8,2.7-6.2,3.1c-0.1-0.5-0.5-1.4-0.8-1.9
			c0.3-0.2,0.6-0.6,0.6-1.6V549h1.9v8.3h3.9v1.9h-3.9v10.4L1036.2,567.8z M1042.1,570.7c0.6,0,0.7-0.7,0.8-3.2
			c0.5,0.4,1.1,0.7,1.7,0.8c-0.2,3.1-0.7,4.3-2.4,4.3h-2.9c-1.9,0-2.4-0.7-2.4-3.1V549h1.8v8.3h4.4v1.9h-4.4v10.3
			c0,1,0.1,1.2,0.8,1.2H1042.1z"/>
		<path fill="#0098FF" d="M1028.2,591.9l-3,1v7.6c0,1.1-0.2,1.6-0.9,2c-0.7,0.3-1.7,0.4-3.4,0.4c-0.1-0.5-0.3-1.3-0.6-1.9
			c1.2,0,2.2,0,2.5,0c0.4,0,0.5-0.1,0.5-0.5v-7c-1.2,0.4-2.3,0.7-3.3,1l-0.5-1.9c1-0.3,2.3-0.7,3.8-1.1v-5.9h-3.4v-1.9h3.4v-5.4h1.9
			v5.4h2.9v1.9h-2.9v5.3l2.7-0.8L1028.2,591.9z M1038.8,589.9c0.6,6.2,1.8,10.6,3.3,10.7c0.5,0,0.8-1.4,1-3.9
			c0.3,0.4,1.1,0.8,1.4,0.9c-0.5,4-1.4,5.2-2.4,5.2c-2.9-0.1-4.4-5.3-5.2-12.9h-5.3v7.8l4.1-1.4c0,0.5,0.1,1.2,0.2,1.6
			c-5.3,2.1-6.1,2.4-6.6,2.8c-0.1-0.5-0.5-1.2-0.8-1.7c0.5-0.2,1.2-0.7,1.2-1.7v-15.9h0l0,0c4.2-0.7,8.9-1.7,11.6-2.8l1.6,1.5
			c-1.4,0.5-3,1-4.7,1.4c0.1,2.3,0.2,4.5,0.4,6.6h5.5v1.9H1038.8z M1031.6,600.7h6.9v1.7h-6.9V600.7z M1036.8,588
			c-0.2-1.9-0.3-4-0.4-6.2c-1.6,0.3-3.1,0.7-4.7,0.9v5.3H1036.8z"/>
		<path fill="#0098FF" d="M1026.4,621c-0.5,2.4-1.3,5-2.2,7c0.5,0.3,1.2,0.8,2.2,1.4c1.9,1.2,4.4,1.4,7.6,1.4
			c3.5,0,7.9-0.3,10.9-0.6c-0.3,0.5-0.6,1.5-0.6,2.1c-2,0.1-7.2,0.3-10.4,0.3c-3.6,0-5.9-0.3-7.9-1.5c-1.1-0.7-2.1-1.6-2.7-1.6
			c-0.6,0-1.5,1.7-2.3,3.4l-1.4-1.8c1-1.4,1.9-2.5,2.7-3c0.8-1.6,1.5-3.7,2-5.6h-3.6c0.8-1.6,1.6-3.9,2.4-6h-3v-1.8h5.6
			c-0.7,2-1.5,4.3-2.3,6.1h1.9l0.4-0.1L1026.4,621z M1022.7,613.2c-0.3-1.1-0.9-3-1.4-4.4l1.8-0.5c0.5,1.4,1.1,3.2,1.4,4.4
			L1022.7,613.2z M1031.3,615.2h-4.6v-1.5h7.6v-2h-6v-1.5h6v-2.1h2v2.1h6v1.5h-6v2h7.8v1.5h-4.7l1.2,0.4c-0.5,0.9-1,1.9-1.5,2.6h4.7
			v1.5h-7.5v1.8h6.4v1.5h-6.4v2h7.6v1.6h-7.6v2.7h-2v-2.7h-7.3V625h7.3v-2h-6.1v-1.5h6.1v-1.8h-7.1v-1.5h3.9
			c-0.2-0.8-0.7-1.8-1.2-2.6L1031.3,615.2z M1037.4,617.9c0.4-0.7,0.9-1.9,1.2-2.7h-6.7c0.6,0.8,1.1,1.9,1.2,2.7l-1,0.3h6.2
			L1037.4,617.9z"/>
		<path fill="#0098FF" d="M1036.4,640.9c2.6,2.3,5.8,5.6,7.2,7.9l-1.7,1.2c-0.4-0.7-1-1.5-1.7-2.3c-15.5,0.9-17.1,0.9-18.1,1.3
			c-0.1-0.4-0.4-1.4-0.7-2c0.6-0.1,1.3-0.7,2.2-1.6c1-0.9,4.1-4.3,6.2-7.7l2,0.9c-2.1,2.9-4.6,5.7-6.9,8l13.8-0.7
			c-1.2-1.4-2.6-2.8-3.9-4L1036.4,640.9z M1023.5,651.3h17.3v11.3h-2.1v-1.4h-13.1v1.5h-2V651.3z M1025.5,653.2v6h13.1v-6H1025.5z"
			/>
		<path fill="#0098FF" d="M1023.5,679.3c-0.8-0.9-2.5-2.1-3.9-2.8l1.1-1.4c1.4,0.7,3.1,1.8,4,2.7L1023.5,679.3z M1020.2,691
			c1-2.1,2.4-5.6,3.4-8.6l1.6,1.1c-0.9,2.8-2.1,6.1-3.1,8.6L1020.2,691z M1024,672.3c-0.7-0.9-2.4-2.2-3.7-3l1.2-1.3
			c1.4,0.8,3,2,3.8,2.9L1024,672.3z M1027,677.6c-0.3,1.3-0.7,2.8-1.2,3.7c-0.2-0.2-0.7-0.5-1-0.7c0.5-1,0.8-2.2,1-3.4L1027,677.6z
			 M1030.6,676.5c-0.1-0.2-0.2-0.5-0.3-0.8c-3.7,0.5-4.3,0.7-4.7,0.8c-0.1-0.2-0.3-0.8-0.5-1.1c0.4-0.1,0.8-0.4,1.2-1
			c0.3-0.3,1-1.1,1.7-2c-1.8,0.2-2.2,0.3-2.5,0.4c-0.1-0.2-0.3-0.8-0.5-1c0.3-0.1,0.5-0.3,0.8-0.7c0.2-0.4,1.2-1.9,1.7-3.4l1.3,0.5
			c-0.5,1.1-1.2,2.3-1.8,3.2l1.8-0.1c0.3-0.4,0.5-0.8,0.7-1.2l1.2,0.5c-0.9,1.5-2.1,3.1-3.3,4.3l2.4-0.3c-0.2-0.3-0.4-0.6-0.5-0.9
			l1-0.4c0.5,0.8,1.1,2,1.3,2.7L1030.6,676.5z M1043.2,687c0,0,0,0.6-0.1,0.8c-0.5,2.3-1.1,3.5-1.8,4.1c-0.6,0.4-1.1,0.5-2,0.5
			c-0.8,0-2.4,0-4.2-0.1c-0.1-0.5-0.3-1.1-0.6-1.5c1.7,0.2,3.5,0.2,4.2,0.2c0.6,0,0.9,0,1.1-0.2c0.5-0.3,0.8-1,1.2-2.3h-14.3
			c0.4-1.1,0.8-2.7,1.2-4h12.2v-1.4H1027v-1.3h15.1v4h-12.6c-0.1,0.5-0.2,0.9-0.4,1.4H1043.2z M1028.2,680.9c0-0.9-0.3-2.3-0.6-3.3
			l1.1-0.3c0.4,1.1,0.6,2.4,0.7,3.2L1028.2,680.9z M1030.6,676.8c0.4,1,0.8,2.2,1,2.9l-1,0.5c-0.1-0.8-0.5-2-1-3L1030.6,676.8z
			 M1037.8,671.5h-6.5v-1.2h2.9c-0.2-0.7-0.7-1.5-1.1-2.1l1.4-0.4c0.4,0.6,0.9,1.6,1.2,2.1l-1.2,0.4h3.3V671.5z M1032,676.6h5.1v4
			h-5.1V676.6z M1037.1,673.6h-5v-1.1h5V673.6z M1032.1,674.5h5v1.1h-5V674.5z M1033.3,679.5h2.4v-1.8h-2.4V679.5z M1039.6,677.5
			c-0.2,1.3-0.7,2.7-1.2,3.7c-0.2-0.2-0.8-0.5-1.1-0.7c0.5-1,0.8-2.1,1.1-3.3L1039.6,677.5z M1043.3,676.6c-0.1-0.3-0.2-0.6-0.4-1
			c-3.7,0.5-4.4,0.7-4.7,0.8c-0.1-0.2-0.3-0.8-0.5-1.1c0.4-0.1,0.8-0.4,1.3-0.9c0.3-0.3,1-1.1,1.7-2.1c-1.8,0.2-2.3,0.3-2.5,0.4
			c-0.1-0.2-0.3-0.8-0.5-1.1c0.3,0,0.5-0.3,0.8-0.7c0.3-0.4,1.2-1.9,1.7-3.3l1.3,0.5c-0.5,1.1-1.1,2.3-1.8,3.1l1.8-0.1
			c0.3-0.4,0.5-0.8,0.7-1.2l1.2,0.5c-1,1.5-2.1,3-3.3,4.3l2.4-0.3c-0.2-0.3-0.3-0.6-0.5-0.9l1-0.4c0.6,0.9,1.2,2.1,1.4,2.8
			L1043.3,676.6z M1040.8,681.1c0-0.9-0.3-2.4-0.7-3.6l1.1-0.3c0.4,1.2,0.7,2.6,0.7,3.5L1040.8,681.1z M1043.1,676.8
			c0.6,1.1,1,2.6,1.2,3.4l-1,0.5c-0.1-1-0.6-2.4-1.1-3.6L1043.1,676.8z"/>
	</g>
	<g enable-background="new    ">
		<path fill="#157FFF" d="M1024.1,492.6c-0.8,1.4-1.8,2.6-2.8,3.5c-0.3-0.4-1-1-1.4-1.3c1.7-1.5,3.2-3.7,4.1-5.9l1.8,0.5
			c-0.2,0.5-0.5,1.1-0.7,1.6h6.9v1.6h-5.1c0.9,0.8,1.9,1.8,2.4,2.4l-1.3,1.1c-0.5-0.8-1.7-1.9-2.6-2.8l1-0.8H1024.1z M1043,505.1
			c0,0,0,0.5-0.1,0.8c-0.4,3.7-0.7,5.4-1.4,6c-0.4,0.5-0.9,0.7-1.7,0.7c-0.7,0.1-2,0.1-3.4,0c0-0.6-0.2-1.4-0.5-1.9
			c1.3,0.1,2.6,0.1,3.1,0.1c0.5,0,0.7,0,1-0.2c0.4-0.4,0.7-1.4,0.9-3.9h-7.8v7h-2v-6.2c-2.4,2.7-5.9,5-9.1,6.3
			c-0.3-0.5-0.8-1.2-1.3-1.6c3.1-1,6.6-3.1,8.8-5.4h-7.2c0.4-1.6,0.7-4,1-6h7.8v-2.5h-8.8v-1.7h19.8v5.9h-9.1v2.5H1043z
			 M1024.9,502.6c-0.1,0.8-0.3,1.7-0.4,2.5h6.5v-2.5H1024.9z M1044.4,491v1.6h-5.8c0.9,0.8,2.1,1.7,2.7,2.4l-1.3,1.1
			c-0.6-0.7-1.8-1.8-2.8-2.6l1.2-1h-3c-0.6,1-1.3,1.8-2.1,2.5c-0.3-0.3-1.1-0.9-1.5-1.2c1.5-1.2,2.7-3.1,3.4-5l1.9,0.4
			c-0.2,0.6-0.5,1.1-0.7,1.7H1044.4z M1033,500.8h7.1v-2.5h-7.1V500.8z"/>
		<path fill="#157FFF" d="M1044.5,529.8v2.2h-24.6v-2.2H1044.5z"/>
		<path fill="#157FFF" d="M1029,562.2l-3.4,1v7.6c0,1.1-0.3,1.7-1,2c-0.7,0.3-1.8,0.4-3.7,0.4c-0.1-0.5-0.4-1.3-0.6-1.9
			c1.3,0.1,2.5,0,2.8,0c0.4,0,0.5-0.1,0.5-0.5v-7l-3.4,1l-0.6-2c1.1-0.3,2.5-0.7,4-1v-5.9h-3.7V554h3.7v-5.4h2v5.4h3.1v1.9h-3.1v5.3
			l3.2-0.9L1029,562.2z M1036.2,567.8c0,0.6,0.2,1.4,0.3,1.8c-5,2.3-5.8,2.7-6.2,3.1c-0.1-0.5-0.5-1.4-0.8-1.9
			c0.3-0.2,0.6-0.6,0.6-1.6V549h1.9v8.3h3.9v1.9h-3.9v10.4L1036.2,567.8z M1042.1,570.7c0.6,0,0.7-0.7,0.8-3.2
			c0.5,0.4,1.1,0.7,1.7,0.8c-0.2,3.1-0.7,4.3-2.4,4.3h-2.9c-1.9,0-2.4-0.7-2.4-3.1V549h1.8v8.3h4.4v1.9h-4.4v10.3
			c0,1,0.1,1.2,0.8,1.2H1042.1z"/>
		<path fill="#157FFF" d="M1028.2,591.9l-3,1v7.6c0,1.1-0.2,1.6-0.9,2c-0.7,0.3-1.7,0.4-3.4,0.4c-0.1-0.5-0.3-1.3-0.6-1.9
			c1.2,0,2.2,0,2.5,0c0.4,0,0.5-0.1,0.5-0.5v-7c-1.2,0.4-2.3,0.7-3.3,1l-0.5-1.9c1-0.3,2.3-0.7,3.8-1.1v-5.9h-3.4v-1.9h3.4v-5.4h1.9
			v5.4h2.9v1.9h-2.9v5.3l2.7-0.8L1028.2,591.9z M1038.8,589.9c0.6,6.2,1.8,10.6,3.3,10.7c0.5,0,0.8-1.4,1-3.9
			c0.3,0.4,1.1,0.8,1.4,0.9c-0.5,4-1.4,5.2-2.4,5.2c-2.9-0.1-4.4-5.3-5.2-12.9h-5.3v7.8l4.1-1.4c0,0.5,0.1,1.2,0.2,1.6
			c-5.3,2.1-6.1,2.4-6.6,2.8c-0.1-0.5-0.5-1.2-0.8-1.7c0.5-0.2,1.2-0.7,1.2-1.7v-15.9h0l0,0c4.2-0.7,8.9-1.7,11.6-2.8l1.6,1.5
			c-1.4,0.5-3,1-4.7,1.4c0.1,2.3,0.2,4.5,0.4,6.6h5.5v1.9H1038.8z M1031.6,600.7h6.9v1.7h-6.9V600.7z M1036.8,588
			c-0.2-1.9-0.3-4-0.4-6.2c-1.6,0.3-3.1,0.7-4.7,0.9v5.3H1036.8z"/>
		<path fill="#157FFF" d="M1026.4,621c-0.5,2.4-1.3,5-2.2,7c0.5,0.3,1.2,0.8,2.2,1.4c1.9,1.2,4.4,1.4,7.6,1.4
			c3.5,0,7.9-0.3,10.9-0.6c-0.3,0.5-0.6,1.5-0.6,2.1c-2,0.1-7.2,0.3-10.4,0.3c-3.6,0-5.9-0.3-7.9-1.5c-1.1-0.7-2.1-1.6-2.7-1.6
			c-0.6,0-1.5,1.7-2.3,3.4l-1.4-1.8c1-1.4,1.9-2.5,2.7-3c0.8-1.6,1.5-3.7,2-5.6h-3.6c0.8-1.6,1.6-3.9,2.4-6h-3v-1.8h5.6
			c-0.7,2-1.5,4.3-2.3,6.1h1.9l0.4-0.1L1026.4,621z M1022.7,613.2c-0.3-1.1-0.9-3-1.4-4.4l1.8-0.5c0.5,1.4,1.1,3.2,1.4,4.4
			L1022.7,613.2z M1031.3,615.2h-4.6v-1.5h7.6v-2h-6v-1.5h6v-2.1h2v2.1h6v1.5h-6v2h7.8v1.5h-4.7l1.2,0.4c-0.5,0.9-1,1.9-1.5,2.6h4.7
			v1.5h-7.5v1.8h6.4v1.5h-6.4v2h7.6v1.6h-7.6v2.7h-2v-2.7h-7.3V625h7.3v-2h-6.1v-1.5h6.1v-1.8h-7.1v-1.5h3.9
			c-0.2-0.8-0.7-1.8-1.2-2.6L1031.3,615.2z M1037.4,617.9c0.4-0.7,0.9-1.9,1.2-2.7h-6.7c0.6,0.8,1.1,1.9,1.2,2.7l-1,0.3h6.2
			L1037.4,617.9z"/>
		<path fill="#157FFF" d="M1036.4,640.9c2.6,2.3,5.8,5.6,7.2,7.9l-1.7,1.2c-0.4-0.7-1-1.5-1.7-2.3c-15.5,0.9-17.1,0.9-18.1,1.3
			c-0.1-0.4-0.4-1.4-0.7-2c0.6-0.1,1.3-0.7,2.2-1.6c1-0.9,4.1-4.3,6.2-7.7l2,0.9c-2.1,2.9-4.6,5.7-6.9,8l13.8-0.7
			c-1.2-1.4-2.6-2.8-3.9-4L1036.4,640.9z M1023.5,651.3h17.3v11.3h-2.1v-1.4h-13.1v1.5h-2V651.3z M1025.5,653.2v6h13.1v-6H1025.5z"
			/>
		<path fill="#157FFF" d="M1023.5,679.3c-0.8-0.9-2.5-2.1-3.9-2.8l1.1-1.4c1.4,0.7,3.1,1.8,4,2.7L1023.5,679.3z M1020.2,691
			c1-2.1,2.4-5.6,3.4-8.6l1.6,1.1c-0.9,2.8-2.1,6.1-3.1,8.6L1020.2,691z M1024,672.3c-0.7-0.9-2.4-2.2-3.7-3l1.2-1.3
			c1.4,0.8,3,2,3.8,2.9L1024,672.3z M1027,677.6c-0.3,1.3-0.7,2.8-1.2,3.7c-0.2-0.2-0.7-0.5-1-0.7c0.5-1,0.8-2.2,1-3.4L1027,677.6z
			 M1030.6,676.5c-0.1-0.2-0.2-0.5-0.3-0.8c-3.7,0.5-4.3,0.7-4.7,0.8c-0.1-0.2-0.3-0.8-0.5-1.1c0.4-0.1,0.8-0.4,1.2-1
			c0.3-0.3,1-1.1,1.7-2c-1.8,0.2-2.2,0.3-2.5,0.4c-0.1-0.2-0.3-0.8-0.5-1c0.3-0.1,0.5-0.3,0.8-0.7c0.2-0.4,1.2-1.9,1.7-3.4l1.3,0.5
			c-0.5,1.1-1.2,2.3-1.8,3.2l1.8-0.1c0.3-0.4,0.5-0.8,0.7-1.2l1.2,0.5c-0.9,1.5-2.1,3.1-3.3,4.3l2.4-0.3c-0.2-0.3-0.4-0.6-0.5-0.9
			l1-0.4c0.5,0.8,1.1,2,1.3,2.7L1030.6,676.5z M1043.2,687c0,0,0,0.6-0.1,0.8c-0.5,2.3-1.1,3.5-1.8,4.1c-0.6,0.4-1.1,0.5-2,0.5
			c-0.8,0-2.4,0-4.2-0.1c-0.1-0.5-0.3-1.1-0.6-1.5c1.7,0.2,3.5,0.2,4.2,0.2c0.6,0,0.9,0,1.1-0.2c0.5-0.3,0.8-1,1.2-2.3h-14.3
			c0.4-1.1,0.8-2.7,1.2-4h12.2v-1.4H1027v-1.3h15.1v4h-12.6c-0.1,0.5-0.2,0.9-0.4,1.4H1043.2z M1028.2,680.9c0-0.9-0.3-2.3-0.6-3.3
			l1.1-0.3c0.4,1.1,0.6,2.4,0.7,3.2L1028.2,680.9z M1030.6,676.8c0.4,1,0.8,2.2,1,2.9l-1,0.5c-0.1-0.8-0.5-2-1-3L1030.6,676.8z
			 M1037.8,671.5h-6.5v-1.2h2.9c-0.2-0.7-0.7-1.5-1.1-2.1l1.4-0.4c0.4,0.6,0.9,1.6,1.2,2.1l-1.2,0.4h3.3V671.5z M1032,676.6h5.1v4
			h-5.1V676.6z M1037.1,673.6h-5v-1.1h5V673.6z M1032.1,674.5h5v1.1h-5V674.5z M1033.3,679.5h2.4v-1.8h-2.4V679.5z M1039.6,677.5
			c-0.2,1.3-0.7,2.7-1.2,3.7c-0.2-0.2-0.8-0.5-1.1-0.7c0.5-1,0.8-2.1,1.1-3.3L1039.6,677.5z M1043.3,676.6c-0.1-0.3-0.2-0.6-0.4-1
			c-3.7,0.5-4.4,0.7-4.7,0.8c-0.1-0.2-0.3-0.8-0.5-1.1c0.4-0.1,0.8-0.4,1.3-0.9c0.3-0.3,1-1.1,1.7-2.1c-1.8,0.2-2.3,0.3-2.5,0.4
			c-0.1-0.2-0.3-0.8-0.5-1.1c0.3,0,0.5-0.3,0.8-0.7c0.3-0.4,1.2-1.9,1.7-3.3l1.3,0.5c-0.5,1.1-1.1,2.3-1.8,3.1l1.8-0.1
			c0.3-0.4,0.5-0.8,0.7-1.2l1.2,0.5c-1,1.5-2.1,3-3.3,4.3l2.4-0.3c-0.2-0.3-0.3-0.6-0.5-0.9l1-0.4c0.6,0.9,1.2,2.1,1.4,2.8
			L1043.3,676.6z M1040.8,681.1c0-0.9-0.3-2.4-0.7-3.6l1.1-0.3c0.4,1.2,0.7,2.6,0.7,3.5L1040.8,681.1z M1043.1,676.8
			c0.6,1.1,1,2.6,1.2,3.4l-1,0.5c-0.1-1-0.6-2.4-1.1-3.6L1043.1,676.8z"/>
	</g>
</g>
<g enable-background="new    ">
	<path fill="#134791" d="M1302.7,492.6c-0.8,1.4-1.8,2.6-2.8,3.5c-0.3-0.4-1-1-1.4-1.3c1.7-1.5,3.2-3.7,4.1-5.9l1.8,0.5
		c-0.2,0.5-0.5,1.1-0.7,1.6h6.9v1.6h-5.1c0.9,0.8,1.9,1.8,2.4,2.4l-1.3,1.1c-0.5-0.8-1.7-1.9-2.6-2.8l1-0.8H1302.7z M1321.6,505.1
		c0,0,0,0.5-0.1,0.8c-0.4,3.7-0.7,5.4-1.4,6c-0.4,0.5-0.9,0.7-1.7,0.7c-0.7,0.1-2,0.1-3.4,0c0-0.6-0.2-1.4-0.5-1.9
		c1.3,0.1,2.6,0.1,3.1,0.1c0.5,0,0.7,0,1-0.2c0.4-0.4,0.7-1.4,0.9-3.9h-7.8v7h-2v-6.2c-2.4,2.7-5.9,5-9.1,6.3
		c-0.3-0.5-0.8-1.2-1.3-1.6c3.1-1,6.6-3.1,8.8-5.4h-7.2c0.4-1.6,0.7-4,1-6h7.8v-2.5h-8.8v-1.7h19.8v5.9h-9.1v2.5H1321.6z
		 M1303.5,502.6c-0.1,0.8-0.3,1.7-0.4,2.5h6.5v-2.5H1303.5z M1323,491v1.6h-5.8c0.9,0.8,2.1,1.7,2.7,2.4l-1.3,1.1
		c-0.6-0.7-1.8-1.8-2.8-2.6l1.2-1h-3c-0.6,1-1.3,1.8-2.1,2.5c-0.3-0.3-1.1-0.9-1.5-1.2c1.5-1.2,2.7-3.1,3.4-5l1.9,0.4
		c-0.2,0.6-0.5,1.1-0.7,1.7H1323z M1311.6,500.8h7.1v-2.5h-7.1V500.8z"/>
	<path fill="#134791" d="M1322.7,538.7v2.2h-23.9v-2.2H1322.7z M1320.4,522.7v2.1h-19.3v-2.1H1320.4z"/>
	<path fill="#134791" d="M1307.6,562.2l-3.4,1v7.6c0,1.1-0.3,1.7-1,2c-0.7,0.3-1.8,0.4-3.7,0.4c-0.1-0.5-0.4-1.3-0.6-1.9
		c1.3,0.1,2.5,0,2.8,0c0.4,0,0.5-0.1,0.5-0.5v-7l-3.4,1l-0.6-2c1.1-0.3,2.5-0.7,4-1v-5.9h-3.7V554h3.7v-5.4h2v5.4h3.1v1.9h-3.1v5.3
		l3.2-0.9L1307.6,562.2z M1314.8,567.8c0,0.6,0.2,1.4,0.3,1.8c-5,2.3-5.8,2.7-6.2,3.1c-0.1-0.5-0.5-1.4-0.8-1.9
		c0.3-0.2,0.6-0.6,0.6-1.6V549h1.9v8.3h3.9v1.9h-3.9v10.4L1314.8,567.8z M1320.7,570.7c0.6,0,0.7-0.7,0.8-3.2
		c0.5,0.4,1.1,0.7,1.7,0.8c-0.2,3.1-0.7,4.3-2.4,4.3h-2.9c-1.9,0-2.4-0.7-2.4-3.1V549h1.8v8.3h4.4v1.9h-4.4v10.3
		c0,1,0.1,1.2,0.8,1.2H1320.7z"/>
	<path fill="#134791" d="M1306.8,591.9l-3,1v7.6c0,1.1-0.2,1.6-0.9,2c-0.7,0.3-1.7,0.4-3.4,0.4c-0.1-0.5-0.3-1.3-0.6-1.9
		c1.2,0,2.2,0,2.5,0c0.4,0,0.5-0.1,0.5-0.5v-7c-1.2,0.4-2.3,0.7-3.3,1l-0.5-1.9c1-0.3,2.3-0.7,3.8-1.1v-5.9h-3.4v-1.9h3.4v-5.4h1.9
		v5.4h2.9v1.9h-2.9v5.3l2.7-0.8L1306.8,591.9z M1317.4,589.9c0.6,6.2,1.8,10.6,3.3,10.7c0.5,0,0.8-1.4,1-3.9
		c0.3,0.4,1.1,0.8,1.4,0.9c-0.5,4-1.4,5.2-2.4,5.2c-2.9-0.1-4.4-5.3-5.2-12.9h-5.3v7.8l4.1-1.4c0,0.5,0.1,1.2,0.2,1.6
		c-5.3,2.1-6.1,2.4-6.6,2.8c-0.1-0.5-0.5-1.2-0.8-1.7c0.5-0.2,1.2-0.7,1.2-1.7v-15.9h0l0,0c4.2-0.7,8.9-1.7,11.6-2.8l1.6,1.5
		c-1.4,0.5-3,1-4.7,1.4c0.1,2.3,0.2,4.5,0.4,6.6h5.5v1.9H1317.4z M1310.2,600.7h6.9v1.7h-6.9V600.7z M1315.4,588
		c-0.2-1.9-0.3-4-0.4-6.2c-1.6,0.3-3.1,0.7-4.7,0.9v5.3H1315.4z"/>
	<path fill="#134791" d="M1305,621c-0.5,2.4-1.3,5-2.2,7c0.5,0.3,1.2,0.8,2.2,1.4c1.9,1.2,4.4,1.4,7.6,1.4c3.5,0,7.9-0.3,10.9-0.6
		c-0.3,0.5-0.6,1.5-0.6,2.1c-2,0.1-7.2,0.3-10.4,0.3c-3.6,0-5.9-0.3-7.9-1.5c-1.1-0.7-2.1-1.6-2.7-1.6c-0.6,0-1.5,1.7-2.3,3.4
		l-1.4-1.8c1-1.4,1.9-2.5,2.7-3c0.8-1.6,1.5-3.7,2-5.6h-3.6c0.8-1.6,1.6-3.9,2.4-6h-3v-1.8h5.6c-0.7,2-1.5,4.3-2.3,6.1h1.9l0.4-0.1
		L1305,621z M1301.4,613.2c-0.3-1.1-0.9-3-1.4-4.4l1.8-0.5c0.5,1.4,1.1,3.2,1.4,4.4L1301.4,613.2z M1310,615.2h-4.6v-1.5h7.6v-2h-6
		v-1.5h6v-2.1h2v2.1h6v1.5h-6v2h7.8v1.5h-4.7l1.2,0.4c-0.5,0.9-1,1.9-1.5,2.6h4.7v1.5h-7.5v1.8h6.4v1.5h-6.4v2h7.6v1.6h-7.6v2.7h-2
		v-2.7h-7.3V625h7.3v-2h-6.1v-1.5h6.1v-1.8h-7.1v-1.5h3.9c-0.2-0.8-0.7-1.8-1.2-2.6L1310,615.2z M1316,617.9
		c0.4-0.7,0.9-1.9,1.2-2.7h-6.7c0.6,0.8,1.1,1.9,1.2,2.7l-1,0.3h6.2L1316,617.9z"/>
	<path fill="#134791" d="M1315,640.9c2.6,2.3,5.8,5.6,7.2,7.9l-1.7,1.2c-0.4-0.7-1-1.5-1.7-2.3c-15.5,0.9-17.1,0.9-18.1,1.3
		c-0.1-0.4-0.4-1.4-0.7-2c0.6-0.1,1.3-0.7,2.2-1.6c1-0.9,4.1-4.3,6.2-7.7l2,0.9c-2.1,2.9-4.6,5.7-6.9,8l13.8-0.7
		c-1.2-1.4-2.6-2.8-3.9-4L1315,640.9z M1302.1,651.3h17.3v11.3h-2.1v-1.4h-13.1v1.5h-2V651.3z M1304.1,653.2v6h13.1v-6H1304.1z"/>
	<path fill="#134791" d="M1302.1,679.3c-0.8-0.9-2.5-2.1-3.9-2.8l1.1-1.4c1.4,0.7,3.1,1.8,4,2.7L1302.1,679.3z M1298.8,691
		c1-2.1,2.4-5.6,3.4-8.6l1.6,1.1c-0.9,2.8-2.1,6.1-3.1,8.6L1298.8,691z M1302.6,672.3c-0.7-0.9-2.4-2.2-3.7-3l1.2-1.3
		c1.4,0.8,3,2,3.8,2.9L1302.6,672.3z M1305.6,677.6c-0.3,1.3-0.7,2.8-1.2,3.7c-0.2-0.2-0.7-0.5-1-0.7c0.5-1,0.8-2.2,1-3.4
		L1305.6,677.6z M1309.2,676.5c-0.1-0.2-0.2-0.5-0.3-0.8c-3.7,0.5-4.3,0.7-4.7,0.8c-0.1-0.2-0.3-0.8-0.5-1.1c0.4-0.1,0.8-0.4,1.2-1
		c0.3-0.3,1-1.1,1.7-2c-1.8,0.2-2.2,0.3-2.5,0.4c-0.1-0.2-0.3-0.8-0.5-1c0.3-0.1,0.5-0.3,0.8-0.7c0.2-0.4,1.2-1.9,1.7-3.4l1.3,0.5
		c-0.5,1.1-1.2,2.3-1.8,3.2l1.8-0.1c0.3-0.4,0.5-0.8,0.7-1.2l1.2,0.5c-0.9,1.5-2.1,3.1-3.3,4.3l2.4-0.3c-0.2-0.3-0.4-0.6-0.5-0.9
		l1-0.4c0.5,0.8,1.1,2,1.3,2.7L1309.2,676.5z M1321.8,687c0,0,0,0.6-0.1,0.8c-0.5,2.3-1.1,3.5-1.8,4.1c-0.6,0.4-1.1,0.5-2,0.5
		c-0.8,0-2.4,0-4.2-0.1c-0.1-0.5-0.3-1.1-0.6-1.5c1.7,0.2,3.5,0.2,4.2,0.2c0.6,0,0.9,0,1.1-0.2c0.5-0.3,0.8-1,1.2-2.3h-14.3
		c0.4-1.1,0.8-2.7,1.2-4h12.2v-1.4h-13.2v-1.3h15.1v4h-12.6c-0.1,0.5-0.2,0.9-0.4,1.4H1321.8z M1306.8,680.9c0-0.9-0.3-2.3-0.6-3.3
		l1.1-0.3c0.4,1.1,0.6,2.4,0.7,3.2L1306.8,680.9z M1309.2,676.8c0.4,1,0.8,2.2,1,2.9l-1,0.5c-0.1-0.8-0.5-2-1-3L1309.2,676.8z
		 M1316.4,671.5h-6.5v-1.2h2.9c-0.2-0.7-0.7-1.5-1.1-2.1l1.4-0.4c0.4,0.6,0.9,1.6,1.2,2.1l-1.2,0.4h3.3V671.5z M1310.6,676.6h5.1v4
		h-5.1V676.6z M1315.7,673.6h-5v-1.1h5V673.6z M1310.7,674.5h5v1.1h-5V674.5z M1312,679.5h2.4v-1.8h-2.4V679.5z M1318.2,677.5
		c-0.2,1.3-0.7,2.7-1.2,3.7c-0.2-0.2-0.8-0.5-1.1-0.7c0.5-1,0.8-2.1,1.1-3.3L1318.2,677.5z M1321.9,676.6c-0.1-0.3-0.2-0.6-0.4-1
		c-3.7,0.5-4.4,0.7-4.7,0.8c-0.1-0.2-0.3-0.8-0.5-1.1c0.4-0.1,0.8-0.4,1.3-0.9c0.3-0.3,1-1.1,1.7-2.1c-1.8,0.2-2.3,0.3-2.5,0.4
		c-0.1-0.2-0.3-0.8-0.5-1.1c0.3,0,0.5-0.3,0.8-0.7c0.3-0.4,1.2-1.9,1.7-3.3l1.3,0.5c-0.5,1.1-1.1,2.3-1.8,3.1l1.8-0.1
		c0.3-0.4,0.5-0.8,0.7-1.2l1.2,0.5c-1,1.5-2.1,3-3.3,4.3l2.4-0.3c-0.2-0.3-0.3-0.6-0.5-0.9l1-0.4c0.6,0.9,1.2,2.1,1.4,2.8
		L1321.9,676.6z M1319.4,681.1c0-0.9-0.3-2.4-0.7-3.6l1.1-0.3c0.4,1.2,0.7,2.6,0.7,3.5L1319.4,681.1z M1321.7,676.8
		c0.6,1.1,1,2.6,1.2,3.4l-1,0.5c-0.1-1-0.6-2.4-1.1-3.6L1321.7,676.8z"/>
</g>
<g>
	<g enable-background="new    ">
		<path fill="#777777" d="M143.9,375.6h3.1v16.6c0,1.5-0.2,2.7-0.7,3.6c-0.5,0.9-1,1.7-1.7,2.2c-0.7,0.5-1.4,0.9-2.2,1.1
			c-0.8,0.2-1.5,0.3-2.2,0.3c-1.6,0-3-0.4-4.1-1.3c-1.1-0.8-1.8-2.1-2.1-3.8l3.1-0.7c0.2,0.9,0.5,1.6,1.1,2.1
			c0.5,0.5,1.3,0.8,2.1,0.8c0.8,0,1.4-0.2,1.9-0.5c0.5-0.3,0.8-0.7,1.1-1.2c0.3-0.5,0.4-1.1,0.5-1.7c0.1-0.6,0.1-1.3,0.1-1.9V375.6z
			"/>
		<path fill="#777777" d="M166.7,398.7h-2.9v-2.4h-0.1c-0.4,0.8-1,1.5-1.9,2c-0.9,0.5-2,0.8-3.2,0.8c-0.8,0-1.5-0.1-2.2-0.3
			c-0.7-0.2-1.3-0.6-1.8-1.1c-0.5-0.5-0.9-1.1-1.2-1.9c-0.3-0.8-0.5-1.6-0.5-2.7v-10h2.9v9.2c0,0.7,0.1,1.3,0.3,1.8
			c0.2,0.5,0.5,0.9,0.8,1.2c0.3,0.3,0.7,0.5,1.1,0.7c0.4,0.1,0.9,0.2,1.3,0.2c0.6,0,1.2-0.1,1.7-0.3c0.5-0.2,1-0.5,1.4-0.9
			s0.7-1,0.9-1.6c0.2-0.7,0.3-1.4,0.3-2.3v-8h2.9V398.7z"/>
		<path fill="#777777" d="M172.7,374h2.9v24.8h-2.9V374z"/>
		<path fill="#777777" d="M184,398.9c-0.6,0-1.1-0.2-1.5-0.6c-0.4-0.4-0.6-0.9-0.6-1.5c0-0.6,0.2-1.1,0.6-1.5s0.9-0.6,1.5-0.6
			s1.1,0.2,1.5,0.6c0.4,0.4,0.6,0.9,0.6,1.5c0,0.6-0.2,1.1-0.6,1.5C185.1,398.7,184.6,398.9,184,398.9z"/>
		<path fill="#777777" d="M202.4,378.3h-11.2v-2.8h14.6v2.7l-9.2,20.5H193L202.4,378.3z"/>
	</g>
	<g enable-background="new    ">
		<path fill="#777777" d="M143.9,375.6h3.1v16.6c0,1.5-0.2,2.7-0.7,3.6c-0.5,0.9-1,1.7-1.7,2.2c-0.7,0.5-1.4,0.9-2.2,1.1
			c-0.8,0.2-1.5,0.3-2.2,0.3c-1.6,0-3-0.4-4.1-1.3c-1.1-0.8-1.8-2.1-2.1-3.8l3.1-0.7c0.2,0.9,0.5,1.6,1.1,2.1
			c0.5,0.5,1.3,0.8,2.1,0.8c0.8,0,1.4-0.2,1.9-0.5c0.5-0.3,0.8-0.7,1.1-1.2c0.3-0.5,0.4-1.1,0.5-1.7c0.1-0.6,0.1-1.3,0.1-1.9V375.6z
			"/>
		<path fill="#777777" d="M166.7,398.7h-2.9v-2.4h-0.1c-0.4,0.8-1,1.5-1.9,2c-0.9,0.5-2,0.8-3.2,0.8c-0.8,0-1.5-0.1-2.2-0.3
			c-0.7-0.2-1.3-0.6-1.8-1.1c-0.5-0.5-0.9-1.1-1.2-1.9c-0.3-0.8-0.5-1.6-0.5-2.7v-10h2.9v9.2c0,0.7,0.1,1.3,0.3,1.8
			c0.2,0.5,0.5,0.9,0.8,1.2c0.3,0.3,0.7,0.5,1.1,0.7c0.4,0.1,0.9,0.2,1.3,0.2c0.6,0,1.2-0.1,1.7-0.3c0.5-0.2,1-0.5,1.4-0.9
			s0.7-1,0.9-1.6c0.2-0.7,0.3-1.4,0.3-2.3v-8h2.9V398.7z"/>
		<path fill="#777777" d="M172.7,374h2.9v24.8h-2.9V374z"/>
		<path fill="#777777" d="M184,398.9c-0.6,0-1.1-0.2-1.5-0.6c-0.4-0.4-0.6-0.9-0.6-1.5c0-0.6,0.2-1.1,0.6-1.5s0.9-0.6,1.5-0.6
			s1.1,0.2,1.5,0.6c0.4,0.4,0.6,0.9,0.6,1.5c0,0.6-0.2,1.1-0.6,1.5C185.1,398.7,184.6,398.9,184,398.9z"/>
		<path fill="#777777" d="M202.4,378.3h-11.2v-2.8h14.6v2.7l-9.2,20.5H193L202.4,378.3z"/>
	</g>
</g>
<circle fill="#FFFFFF" stroke="#777777" stroke-width="4" stroke-miterlimit="10" cx="459.4" cy="442.7" r="25.7"/>
<g>
	<g enable-background="new    ">
		<path fill="#0098FF" d="M451.4,492.6c-0.8,1.4-1.8,2.6-2.8,3.5c-0.3-0.4-1-1-1.4-1.3c1.7-1.5,3.2-3.7,4.1-5.9l1.8,0.5
			c-0.2,0.5-0.5,1.1-0.7,1.6h6.9v1.6h-5.1c0.9,0.8,1.9,1.8,2.4,2.4l-1.3,1.1c-0.5-0.8-1.7-1.9-2.6-2.8l1-0.8H451.4z M470.2,505.1
			c0,0,0,0.5-0.1,0.8c-0.4,3.7-0.7,5.4-1.4,6c-0.4,0.5-0.9,0.7-1.7,0.7c-0.7,0.1-2,0.1-3.4,0c0-0.6-0.2-1.4-0.5-1.9
			c1.3,0.1,2.6,0.1,3.1,0.1c0.5,0,0.7,0,1-0.2c0.4-0.4,0.7-1.4,0.9-3.9h-7.8v7h-2v-6.2c-2.4,2.7-5.9,5-9.1,6.3
			c-0.3-0.5-0.8-1.2-1.3-1.6c3.1-1,6.6-3.1,8.8-5.4h-7.2c0.4-1.6,0.7-4,0.9-6h7.8v-2.5h-8.8v-1.7h19.8v5.9h-9.1v2.5H470.2z
			 M452.2,502.6c-0.1,0.8-0.3,1.7-0.4,2.5h6.5v-2.5H452.2z M471.7,491v1.6h-5.8c0.9,0.8,2.1,1.7,2.7,2.4l-1.3,1.1
			c-0.6-0.7-1.8-1.8-2.8-2.6l1.2-1h-3c-0.6,1-1.3,1.8-2.1,2.5c-0.3-0.3-1.1-0.9-1.5-1.2c1.5-1.2,2.7-3.1,3.4-5l1.9,0.4
			c-0.2,0.6-0.5,1.1-0.7,1.7H471.7z M460.3,500.8h7.1v-2.5h-7.1V500.8z"/>
		<path fill="#0098FF" d="M471.8,529.8v2.2h-24.6v-2.2H471.8z"/>
		<path fill="#0098FF" d="M455.8,565.9h-8.5v-2h8.5V565.9z M455,554.8h-7.1v-2h7.1V554.8z M463,558.4c0,0.4,0,0.8,0,1.2
			c1.2,5.7,3.9,10.1,8.9,11.8c-0.4,0.4-1,1.2-1.3,1.8c-4.1-1.7-6.6-4.9-8.1-9.3c-0.9,3.3-3.2,6.8-8.4,9.5c-0.3-0.5-1.1-1.2-1.5-1.6
			c7.8-3.9,8.4-9.6,8.4-13.5v-2.1h2.1V558.4z M458.7,555.2c-0.8,2.2-1.8,4.2-2.8,5.7c-0.4-0.4-1.4-0.9-2-1.1
			c2.1-2.6,3.6-6.9,4.4-11.2l2.2,0.4c-0.3,1.4-0.7,2.8-1.1,4.2h9.8l0.4-0.1l1.5,0.8c-0.7,2.6-1.9,5.5-2.8,7.4
			c-0.4-0.2-1.2-0.7-1.7-0.9c0.7-1.3,1.5-3.3,2-5.2H458.7z"/>
		<path fill="#0098FF" d="M455.4,588.5c0.8,1.8,1.5,4.2,1.8,5.6l-1.6,0.6c-0.1-0.5-0.2-1-0.4-1.6c-6.1,0.9-7,1.1-7.5,1.4
			c-0.1-0.4-0.4-1.4-0.6-1.9c0.6-0.1,1.2-0.8,2-1.8c0.4-0.5,1.3-1.6,2.4-3.1c-2.9,0.3-3.6,0.5-3.9,0.6c-0.1-0.4-0.4-1.3-0.6-1.8
			c0.5-0.1,0.9-0.7,1.5-1.5c0.6-0.8,2.6-3.9,3.7-6.9l1.8,0.8c-1.2,2.6-2.8,5.2-4.3,7.2l3-0.3c0.7-1.1,1.4-2.3,2-3.5l1.7,1
			c-1.8,3.1-3.9,6.2-6.2,8.6l4.6-0.6c-0.3-0.9-0.6-1.8-0.9-2.6L455.4,588.5z M449.9,595.9c-0.3,2.4-0.8,5.1-1.4,6.7
			c-0.4-0.2-1.2-0.4-1.6-0.6c0.7-1.7,1.1-4.2,1.3-6.5L449.9,595.9z M452.8,595.6c0.4,2,0.7,4.4,0.8,6.1L452,602
			c-0.1-1.7-0.4-4.2-0.7-6.2L452.8,595.6z M455.4,594.9c0.7,1.7,1.3,3.8,1.6,5.2l-1.5,0.5c-0.3-1.4-0.9-3.7-1.5-5.3L455.4,594.9z
			 M465.2,583.8v4.3h5.6v1.9H458v-1.9h5.1v-4.3h-5.9v-1.9h5.9v-3.6h2v3.6h6.3v1.9H465.2z M458.6,592.7H470V603h-2v-1h-7.6v1.1h-1.9
			V592.7z M460.5,594.6v5.5h7.6v-5.5H460.5z"/>
		<path fill="#0098FF" d="M451.4,611.6c-0.9,1.5-2.1,2.8-3.1,3.8c-0.2-0.4-0.9-1.2-1.2-1.6c1.7-1.4,3.3-3.6,4.2-5.8l1.8,0.6
			c-0.2,0.5-0.5,1-0.7,1.5h7.3v1.6H451.4z M471.7,611.5h-4.6c0.6,0.6,1.3,1.4,1.6,2l-1.4,0.7h1.4v10.1h-3.3v2.3h6.2v1.7h-6.2v4.5h-2
			v-4.5H456c-0.6,1.7-2.3,3.4-6.2,4.7c-0.3-0.4-0.8-1.1-1.3-1.5c3.1-0.9,4.6-2.1,5.2-3.2h-6.3v-1.7h6.9c0-0.2,0-0.4,0-0.6v-1.8h-3.6
			v-10.1h4c-0.2-0.6-0.7-1.4-1.2-2l1.7-0.5c0.5,0.6,1,1.4,1.2,2l-1.6,0.6h5.6c-0.5-0.3-1.2-0.7-1.7-0.9c1.6-1.3,3-3.3,3.8-5.3
			l1.9,0.4c-0.2,0.5-0.5,1.1-0.7,1.6h7.9V611.5z M466.5,615.6h-13.8v1.6h13.8V615.6z M466.5,618.4h-13.8v1.5h13.8V618.4z
			 M466.5,621.3h-13.8v1.6h13.8V621.3z M463.2,624.3h-6.9v1.8c0,0.2,0,0.4,0,0.5h6.9V624.3z M467.1,614.2c-0.3-0.6-1-1.5-1.6-2.1
			l1.3-0.6h-3.9c-0.7,1-1.5,2-2.2,2.7H467.1z"/>
		<path fill="#0098FF" d="M447.3,642.4h10.3v1.7h-10.3V642.4z M448.4,646h8.3v1.6h-8.3V646z M448.4,649.5h8.2v1.6h-8.2V649.5z
			 M456.6,661h-6.4v1.3h-1.7v-9.1h8.1V661z M450.2,654.8v4.5h4.6v-4.5H450.2z M452.3,642.1c-0.4-1-1.2-2.5-2-3.6l1.6-0.8
			c0.8,1.1,1.7,2.5,2.1,3.5L452.3,642.1z M471.8,642.1h-4.2v17.5c0,1.4-0.3,2.1-1.3,2.4c-1,0.4-2.7,0.4-5.3,0.4
			c-0.1-0.5-0.5-1.5-0.8-2.1c2.1,0.1,4.1,0.1,4.7,0c0.5,0,0.8-0.2,0.8-0.7v-17.5h-7.6v-2h13.8V642.1z"/>
		<path fill="#0098FF" d="M471.4,688.5h-11v3.8h-2.1v-3.8h-10.8v-1.8h10.8v-2.1h-8.1v-9.4h18.7v9.4h-8.5v2.1h11V688.5z M458.4,673.9
			h-8.9v-5.3h8.9V673.9z M456.5,670h-5.2v2.5h5.2V670z M452.2,679.2h6.1v-2.3h-6.1V679.2z M458.3,683.1v-2.3h-6.1v2.3H458.3z
			 M466.8,676.9h-6.5v2.3h6.5V676.9z M466.8,680.7h-6.5v2.3h6.5V680.7z M469.5,673.9h-9v-5.3h9V673.9z M467.6,670h-5.2v2.5h5.2V670z
			"/>
	</g>
	<g enable-background="new    ">
		<path fill="#157FFF" d="M451.4,492.6c-0.8,1.4-1.8,2.6-2.8,3.5c-0.3-0.4-1-1-1.4-1.3c1.7-1.5,3.2-3.7,4.1-5.9l1.8,0.5
			c-0.2,0.5-0.5,1.1-0.7,1.6h6.9v1.6h-5.1c0.9,0.8,1.9,1.8,2.4,2.4l-1.3,1.1c-0.5-0.8-1.7-1.9-2.6-2.8l1-0.8H451.4z M470.2,505.1
			c0,0,0,0.5-0.1,0.8c-0.4,3.7-0.7,5.4-1.4,6c-0.4,0.5-0.9,0.7-1.7,0.7c-0.7,0.1-2,0.1-3.4,0c0-0.6-0.2-1.4-0.5-1.9
			c1.3,0.1,2.6,0.1,3.1,0.1c0.5,0,0.7,0,1-0.2c0.4-0.4,0.7-1.4,0.9-3.9h-7.8v7h-2v-6.2c-2.4,2.7-5.9,5-9.1,6.3
			c-0.3-0.5-0.8-1.2-1.3-1.6c3.1-1,6.6-3.1,8.8-5.4h-7.2c0.4-1.6,0.7-4,0.9-6h7.8v-2.5h-8.8v-1.7h19.8v5.9h-9.1v2.5H470.2z
			 M452.2,502.6c-0.1,0.8-0.3,1.7-0.4,2.5h6.5v-2.5H452.2z M471.7,491v1.6h-5.8c0.9,0.8,2.1,1.7,2.7,2.4l-1.3,1.1
			c-0.6-0.7-1.8-1.8-2.8-2.6l1.2-1h-3c-0.6,1-1.3,1.8-2.1,2.5c-0.3-0.3-1.1-0.9-1.5-1.2c1.5-1.2,2.7-3.1,3.4-5l1.9,0.4
			c-0.2,0.6-0.5,1.1-0.7,1.7H471.7z M460.3,500.8h7.1v-2.5h-7.1V500.8z"/>
		<path fill="#157FFF" d="M471.8,529.8v2.2h-24.6v-2.2H471.8z"/>
		<path fill="#157FFF" d="M455.8,565.9h-8.5v-2h8.5V565.9z M455,554.8h-7.1v-2h7.1V554.8z M463,558.4c0,0.4,0,0.8,0,1.2
			c1.2,5.7,3.9,10.1,8.9,11.8c-0.4,0.4-1,1.2-1.3,1.8c-4.1-1.7-6.6-4.9-8.1-9.3c-0.9,3.3-3.2,6.8-8.4,9.5c-0.3-0.5-1.1-1.2-1.5-1.6
			c7.8-3.9,8.4-9.6,8.4-13.5v-2.1h2.1V558.4z M458.7,555.2c-0.8,2.2-1.8,4.2-2.8,5.7c-0.4-0.4-1.4-0.9-2-1.1
			c2.1-2.6,3.6-6.9,4.4-11.2l2.2,0.4c-0.3,1.4-0.7,2.8-1.1,4.2h9.8l0.4-0.1l1.5,0.8c-0.7,2.6-1.9,5.5-2.8,7.4
			c-0.4-0.2-1.2-0.7-1.7-0.9c0.7-1.3,1.5-3.3,2-5.2H458.7z"/>
		<path fill="#157FFF" d="M455.4,588.5c0.8,1.8,1.5,4.2,1.8,5.6l-1.6,0.6c-0.1-0.5-0.2-1-0.4-1.6c-6.1,0.9-7,1.1-7.5,1.4
			c-0.1-0.4-0.4-1.4-0.6-1.9c0.6-0.1,1.2-0.8,2-1.8c0.4-0.5,1.3-1.6,2.4-3.1c-2.9,0.3-3.6,0.5-3.9,0.6c-0.1-0.4-0.4-1.3-0.6-1.8
			c0.5-0.1,0.9-0.7,1.5-1.5c0.6-0.8,2.6-3.9,3.7-6.9l1.8,0.8c-1.2,2.6-2.8,5.2-4.3,7.2l3-0.3c0.7-1.1,1.4-2.3,2-3.5l1.7,1
			c-1.8,3.1-3.9,6.2-6.2,8.6l4.6-0.6c-0.3-0.9-0.6-1.8-0.9-2.6L455.4,588.5z M449.9,595.9c-0.3,2.4-0.8,5.1-1.4,6.7
			c-0.4-0.2-1.2-0.4-1.6-0.6c0.7-1.7,1.1-4.2,1.3-6.5L449.9,595.9z M452.8,595.6c0.4,2,0.7,4.4,0.8,6.1L452,602
			c-0.1-1.7-0.4-4.2-0.7-6.2L452.8,595.6z M455.4,594.9c0.7,1.7,1.3,3.8,1.6,5.2l-1.5,0.5c-0.3-1.4-0.9-3.7-1.5-5.3L455.4,594.9z
			 M465.2,583.8v4.3h5.6v1.9H458v-1.9h5.1v-4.3h-5.9v-1.9h5.9v-3.6h2v3.6h6.3v1.9H465.2z M458.6,592.7H470V603h-2v-1h-7.6v1.1h-1.9
			V592.7z M460.5,594.6v5.5h7.6v-5.5H460.5z"/>
		<path fill="#157FFF" d="M451.4,611.6c-0.9,1.5-2.1,2.8-3.1,3.8c-0.2-0.4-0.9-1.2-1.2-1.6c1.7-1.4,3.3-3.6,4.2-5.8l1.8,0.6
			c-0.2,0.5-0.5,1-0.7,1.5h7.3v1.6H451.4z M471.7,611.5h-4.6c0.6,0.6,1.3,1.4,1.6,2l-1.4,0.7h1.4v10.1h-3.3v2.3h6.2v1.7h-6.2v4.5h-2
			v-4.5H456c-0.6,1.7-2.3,3.4-6.2,4.7c-0.3-0.4-0.8-1.1-1.3-1.5c3.1-0.9,4.6-2.1,5.2-3.2h-6.3v-1.7h6.9c0-0.2,0-0.4,0-0.6v-1.8h-3.6
			v-10.1h4c-0.2-0.6-0.7-1.4-1.2-2l1.7-0.5c0.5,0.6,1,1.4,1.2,2l-1.6,0.6h5.6c-0.5-0.3-1.2-0.7-1.7-0.9c1.6-1.3,3-3.3,3.8-5.3
			l1.9,0.4c-0.2,0.5-0.5,1.1-0.7,1.6h7.9V611.5z M466.5,615.6h-13.8v1.6h13.8V615.6z M466.5,618.4h-13.8v1.5h13.8V618.4z
			 M466.5,621.3h-13.8v1.6h13.8V621.3z M463.2,624.3h-6.9v1.8c0,0.2,0,0.4,0,0.5h6.9V624.3z M467.1,614.2c-0.3-0.6-1-1.5-1.6-2.1
			l1.3-0.6h-3.9c-0.7,1-1.5,2-2.2,2.7H467.1z"/>
		<path fill="#157FFF" d="M447.3,642.4h10.3v1.7h-10.3V642.4z M448.4,646h8.3v1.6h-8.3V646z M448.4,649.5h8.2v1.6h-8.2V649.5z
			 M456.6,661h-6.4v1.3h-1.7v-9.1h8.1V661z M450.2,654.8v4.5h4.6v-4.5H450.2z M452.3,642.1c-0.4-1-1.2-2.5-2-3.6l1.6-0.8
			c0.8,1.1,1.7,2.5,2.1,3.5L452.3,642.1z M471.8,642.1h-4.2v17.5c0,1.4-0.3,2.1-1.3,2.4c-1,0.4-2.7,0.4-5.3,0.4
			c-0.1-0.5-0.5-1.5-0.8-2.1c2.1,0.1,4.1,0.1,4.7,0c0.5,0,0.8-0.2,0.8-0.7v-17.5h-7.6v-2h13.8V642.1z"/>
		<path fill="#157FFF" d="M471.4,688.5h-11v3.8h-2.1v-3.8h-10.8v-1.8h10.8v-2.1h-8.1v-9.4h18.7v9.4h-8.5v2.1h11V688.5z M458.4,673.9
			h-8.9v-5.3h8.9V673.9z M456.5,670h-5.2v2.5h5.2V670z M452.2,679.2h6.1v-2.3h-6.1V679.2z M458.3,683.1v-2.3h-6.1v2.3H458.3z
			 M466.8,676.9h-6.5v2.3h6.5V676.9z M466.8,680.7h-6.5v2.3h6.5V680.7z M469.5,673.9h-9v-5.3h9V673.9z M467.6,670h-5.2v2.5h5.2V670z
			"/>
	</g>
</g>
<g>
	<g enable-background="new    ">
		<path fill="#777777" d="M422,375.6h2.8l9.9,23.2h-3.7l-2.3-5.7h-11l-2.3,5.7h-3.7L422,375.6z M427.6,390.3l-4.3-10.6h-0.1
			l-4.4,10.6H427.6z"/>
		<path fill="#777777" d="M452.1,398.7h-2.9v-2.4h-0.1c-0.4,0.8-1,1.5-1.9,2c-0.9,0.5-2,0.8-3.2,0.8c-0.8,0-1.5-0.1-2.2-0.3
			c-0.7-0.2-1.3-0.6-1.8-1.1c-0.5-0.5-0.9-1.1-1.2-1.9c-0.3-0.8-0.5-1.6-0.5-2.7v-10h2.9v9.2c0,0.7,0.1,1.3,0.3,1.8
			c0.2,0.5,0.5,0.9,0.8,1.2c0.3,0.3,0.7,0.5,1.1,0.7c0.4,0.1,0.9,0.2,1.3,0.2c0.6,0,1.2-0.1,1.7-0.3c0.5-0.2,1-0.5,1.4-0.9
			s0.7-1,0.9-1.6c0.2-0.7,0.3-1.4,0.3-2.3v-8h2.9V398.7z"/>
		<path fill="#777777" d="M473.4,398.6c0,1.2-0.2,2.3-0.6,3.2c-0.4,1-1,1.8-1.7,2.5c-0.7,0.7-1.6,1.3-2.7,1.7s-2.2,0.6-3.5,0.6
			c-1.5,0-2.8-0.2-4.1-0.6c-1.2-0.4-2.4-1.1-3.5-2.2l2-2.5c0.8,0.8,1.6,1.5,2.5,1.9c0.9,0.4,1.9,0.6,3,0.6c1.1,0,2-0.2,2.7-0.5
			c0.7-0.3,1.3-0.7,1.7-1.2c0.4-0.5,0.7-1.1,0.9-1.7c0.2-0.6,0.3-1.3,0.3-1.9v-2.3h-0.1c-0.6,0.9-1.3,1.6-2.3,2.1
			c-1,0.4-2,0.7-3.1,0.7c-1.1,0-2.2-0.2-3.2-0.6c-1-0.4-1.8-1-2.5-1.7c-0.7-0.7-1.2-1.5-1.6-2.5c-0.4-1-0.6-2-0.6-3.2
			c0-1.1,0.2-2.2,0.6-3.2c0.4-1,0.9-1.9,1.6-2.6s1.5-1.3,2.5-1.7s2.1-0.6,3.3-0.6c1,0,2.1,0.2,3.1,0.7c1,0.5,1.8,1.1,2.3,1.9h0.1
			v-2.2h2.9V398.6z M465.4,385.6c-0.8,0-1.5,0.1-2.1,0.4c-0.6,0.3-1.2,0.6-1.6,1.1c-0.4,0.5-0.8,1-1,1.7c-0.2,0.7-0.4,1.4-0.4,2.2
			c0,1.6,0.5,2.8,1.4,3.8c0.9,0.9,2.2,1.4,3.7,1.4c1.6,0,2.8-0.5,3.7-1.4c0.9-0.9,1.4-2.2,1.4-3.8c0-0.8-0.1-1.5-0.4-2.2
			c-0.2-0.7-0.6-1.2-1-1.7c-0.4-0.5-1-0.8-1.6-1.1C466.9,385.7,466.2,385.6,465.4,385.6z"/>
		<path fill="#777777" d="M481.5,398.9c-0.6,0-1.1-0.2-1.5-0.6c-0.4-0.4-0.6-0.9-0.6-1.5c0-0.6,0.2-1.1,0.6-1.5s0.9-0.6,1.5-0.6
			s1.1,0.2,1.5,0.6c0.4,0.4,0.6,0.9,0.6,1.5c0,0.6-0.2,1.1-0.6,1.5C482.6,398.7,482.1,398.9,481.5,398.9z"/>
		<path fill="#777777" d="M500,378.3h-11.2v-2.8h14.6v2.7l-9.2,20.5h-3.5L500,378.3z"/>
	</g>
	<g enable-background="new    ">
		<path fill="#777777" d="M422,375.6h2.8l9.9,23.2h-3.7l-2.3-5.7h-11l-2.3,5.7h-3.7L422,375.6z M427.6,390.3l-4.3-10.6h-0.1
			l-4.4,10.6H427.6z"/>
		<path fill="#777777" d="M452.1,398.7h-2.9v-2.4h-0.1c-0.4,0.8-1,1.5-1.9,2c-0.9,0.5-2,0.8-3.2,0.8c-0.8,0-1.5-0.1-2.2-0.3
			c-0.7-0.2-1.3-0.6-1.8-1.1c-0.5-0.5-0.9-1.1-1.2-1.9c-0.3-0.8-0.5-1.6-0.5-2.7v-10h2.9v9.2c0,0.7,0.1,1.3,0.3,1.8
			c0.2,0.5,0.5,0.9,0.8,1.2c0.3,0.3,0.7,0.5,1.1,0.7c0.4,0.1,0.9,0.2,1.3,0.2c0.6,0,1.2-0.1,1.7-0.3c0.5-0.2,1-0.5,1.4-0.9
			s0.7-1,0.9-1.6c0.2-0.7,0.3-1.4,0.3-2.3v-8h2.9V398.7z"/>
		<path fill="#777777" d="M473.4,398.6c0,1.2-0.2,2.3-0.6,3.2c-0.4,1-1,1.8-1.7,2.5c-0.7,0.7-1.6,1.3-2.7,1.7s-2.2,0.6-3.5,0.6
			c-1.5,0-2.8-0.2-4.1-0.6c-1.2-0.4-2.4-1.1-3.5-2.2l2-2.5c0.8,0.8,1.6,1.5,2.5,1.9c0.9,0.4,1.9,0.6,3,0.6c1.1,0,2-0.2,2.7-0.5
			c0.7-0.3,1.3-0.7,1.7-1.2c0.4-0.5,0.7-1.1,0.9-1.7c0.2-0.6,0.3-1.3,0.3-1.9v-2.3h-0.1c-0.6,0.9-1.3,1.6-2.3,2.1
			c-1,0.4-2,0.7-3.1,0.7c-1.1,0-2.2-0.2-3.2-0.6c-1-0.4-1.8-1-2.5-1.7c-0.7-0.7-1.2-1.5-1.6-2.5c-0.4-1-0.6-2-0.6-3.2
			c0-1.1,0.2-2.2,0.6-3.2c0.4-1,0.9-1.9,1.6-2.6s1.5-1.3,2.5-1.7s2.1-0.6,3.3-0.6c1,0,2.1,0.2,3.1,0.7c1,0.5,1.8,1.1,2.3,1.9h0.1
			v-2.2h2.9V398.6z M465.4,385.6c-0.8,0-1.5,0.1-2.1,0.4c-0.6,0.3-1.2,0.6-1.6,1.1c-0.4,0.5-0.8,1-1,1.7c-0.2,0.7-0.4,1.4-0.4,2.2
			c0,1.6,0.5,2.8,1.4,3.8c0.9,0.9,2.2,1.4,3.7,1.4c1.6,0,2.8-0.5,3.7-1.4c0.9-0.9,1.4-2.2,1.4-3.8c0-0.8-0.1-1.5-0.4-2.2
			c-0.2-0.7-0.6-1.2-1-1.7c-0.4-0.5-1-0.8-1.6-1.1C466.9,385.7,466.2,385.6,465.4,385.6z"/>
		<path fill="#777777" d="M481.5,398.9c-0.6,0-1.1-0.2-1.5-0.6c-0.4-0.4-0.6-0.9-0.6-1.5c0-0.6,0.2-1.1,0.6-1.5s0.9-0.6,1.5-0.6
			s1.1,0.2,1.5,0.6c0.4,0.4,0.6,0.9,0.6,1.5c0,0.6-0.2,1.1-0.6,1.5C482.6,398.7,482.1,398.9,481.5,398.9z"/>
		<path fill="#777777" d="M500,378.3h-11.2v-2.8h14.6v2.7l-9.2,20.5h-3.5L500,378.3z"/>
	</g>
</g>
<g>
	<g enable-background="new    ">
		<path fill="#777777" d="M705.8,393.9c0.6,0.9,1.3,1.5,2.2,1.9c0.9,0.4,1.8,0.6,2.7,0.6c0.5,0,1.1-0.1,1.6-0.2
			c0.5-0.2,1-0.4,1.5-0.7s0.8-0.7,1.1-1.2c0.3-0.5,0.4-1,0.4-1.7c0-0.9-0.3-1.6-0.9-2c-0.6-0.5-1.3-0.9-2.1-1.2
			c-0.8-0.3-1.8-0.6-2.8-0.9c-1-0.3-1.9-0.7-2.8-1.2c-0.8-0.5-1.5-1.2-2.1-2.1c-0.6-0.9-0.9-2.1-0.9-3.6c0-0.7,0.1-1.4,0.4-2.2
			c0.3-0.8,0.8-1.5,1.4-2.1c0.6-0.6,1.4-1.2,2.4-1.6s2.2-0.6,3.6-0.6c1.3,0,2.5,0.2,3.6,0.5c1.2,0.3,2.2,1.1,3,2.1l-2.6,2.3
			c-0.4-0.6-0.9-1.1-1.7-1.5c-0.7-0.4-1.5-0.6-2.5-0.6c-0.9,0-1.6,0.1-2.2,0.3c-0.6,0.2-1,0.5-1.4,0.9c-0.3,0.4-0.6,0.7-0.7,1.2
			c-0.1,0.4-0.2,0.8-0.2,1.1c0,1,0.3,1.7,0.9,2.3c0.6,0.5,1.3,0.9,2.1,1.3c0.8,0.3,1.8,0.6,2.8,0.9c1,0.3,1.9,0.6,2.8,1.1
			c0.8,0.5,1.5,1.1,2.1,1.9c0.6,0.8,0.9,1.9,0.9,3.3c0,1.1-0.2,2.1-0.6,3s-1,1.6-1.7,2.3c-0.7,0.6-1.6,1.1-2.6,1.4
			c-1,0.3-2,0.5-3.1,0.5c-1.5,0-2.9-0.3-4.2-0.8c-1.3-0.5-2.4-1.3-3.2-2.4L705.8,393.9z"/>
		<path fill="#777777" d="M726.1,392.1c0,0.7,0.1,1.3,0.4,1.9c0.3,0.6,0.7,1,1.2,1.4c0.5,0.4,1,0.7,1.7,0.9c0.6,0.2,1.3,0.3,2,0.3
			c0.9,0,1.7-0.2,2.4-0.6c0.7-0.4,1.3-1,1.9-1.7l2.2,1.7c-1.6,2.1-3.9,3.2-6.9,3.2c-1.2,0-2.3-0.2-3.3-0.6c-1-0.4-1.8-1-2.5-1.7
			c-0.7-0.7-1.2-1.6-1.6-2.6c-0.4-1-0.6-2.1-0.6-3.2c0-1.2,0.2-2.2,0.6-3.2c0.4-1,1-1.9,1.7-2.6c0.7-0.7,1.6-1.3,2.5-1.7
			s2.1-0.6,3.2-0.6c1.4,0,2.5,0.2,3.5,0.7c0.9,0.5,1.7,1.1,2.3,1.9c0.6,0.8,1.1,1.6,1.3,2.6c0.3,1,0.4,2,0.4,3v1H726.1z
			 M735.4,389.7c0-0.7-0.1-1.3-0.3-1.8c-0.2-0.5-0.5-1-0.8-1.4c-0.4-0.4-0.8-0.7-1.4-0.9c-0.6-0.2-1.2-0.3-1.9-0.3
			c-0.7,0-1.4,0.1-2,0.4c-0.6,0.3-1.1,0.6-1.5,1.1c-0.4,0.4-0.7,0.9-1,1.5c-0.2,0.5-0.3,1.1-0.3,1.6H735.4z"/>
		<path fill="#777777" d="M743.4,383.2h2.9v2.2h0.1c0.6-0.8,1.3-1.5,2.3-1.9c1-0.5,2-0.7,3.1-0.7c1.2,0,2.3,0.2,3.3,0.6
			s1.8,1,2.5,1.7s1.2,1.6,1.6,2.6c0.4,1,0.6,2.1,0.6,3.2c0,1.2-0.2,2.2-0.6,3.2c-0.4,1-0.9,1.9-1.6,2.6c-0.7,0.7-1.5,1.3-2.5,1.7
			c-1,0.4-2.1,0.6-3.3,0.6c-1.1,0-2.2-0.2-3.1-0.7c-1-0.5-1.7-1.1-2.3-1.9h-0.1V408h-2.9V383.2z M751.4,385.6
			c-0.8,0-1.5,0.1-2.1,0.4c-0.6,0.3-1.2,0.6-1.6,1.1c-0.4,0.5-0.8,1-1,1.7c-0.2,0.7-0.4,1.4-0.4,2.2s0.1,1.5,0.4,2.2
			c0.2,0.7,0.6,1.2,1,1.7c0.4,0.5,1,0.8,1.6,1.1c0.6,0.3,1.3,0.4,2.1,0.4c0.8,0,1.5-0.1,2.1-0.4c0.6-0.3,1.2-0.6,1.6-1.1
			c0.4-0.5,0.8-1,1-1.7c0.2-0.7,0.4-1.4,0.4-2.2s-0.1-1.5-0.4-2.2c-0.2-0.7-0.6-1.2-1-1.7c-0.4-0.5-1-0.8-1.6-1.1
			C752.9,385.7,752.2,385.6,751.4,385.6z"/>
		<path fill="#777777" d="M767,398.9c-0.6,0-1.1-0.2-1.5-0.6c-0.4-0.4-0.6-0.9-0.6-1.5c0-0.6,0.2-1.1,0.6-1.5s0.9-0.6,1.5-0.6
			s1.1,0.2,1.5,0.6c0.4,0.4,0.6,0.9,0.6,1.5c0,0.6-0.2,1.1-0.6,1.5C768.1,398.7,767.6,398.9,767,398.9z"/>
		<path fill="#777777" d="M785.5,378.3h-11.2v-2.8h14.6v2.7l-9.2,20.5H776L785.5,378.3z"/>
	</g>
	<g enable-background="new    ">
		<path fill="#777777" d="M705.8,393.9c0.6,0.9,1.3,1.5,2.2,1.9c0.9,0.4,1.8,0.6,2.7,0.6c0.5,0,1.1-0.1,1.6-0.2
			c0.5-0.2,1-0.4,1.5-0.7s0.8-0.7,1.1-1.2c0.3-0.5,0.4-1,0.4-1.7c0-0.9-0.3-1.6-0.9-2c-0.6-0.5-1.3-0.9-2.1-1.2
			c-0.8-0.3-1.8-0.6-2.8-0.9c-1-0.3-1.9-0.7-2.8-1.2c-0.8-0.5-1.5-1.2-2.1-2.1c-0.6-0.9-0.9-2.1-0.9-3.6c0-0.7,0.1-1.4,0.4-2.2
			c0.3-0.8,0.8-1.5,1.4-2.1c0.6-0.6,1.4-1.2,2.4-1.6s2.2-0.6,3.6-0.6c1.3,0,2.5,0.2,3.6,0.5c1.2,0.3,2.2,1.1,3,2.1l-2.6,2.3
			c-0.4-0.6-0.9-1.1-1.7-1.5c-0.7-0.4-1.5-0.6-2.5-0.6c-0.9,0-1.6,0.1-2.2,0.3c-0.6,0.2-1,0.5-1.4,0.9c-0.3,0.4-0.6,0.7-0.7,1.2
			c-0.1,0.4-0.2,0.8-0.2,1.1c0,1,0.3,1.7,0.9,2.3c0.6,0.5,1.3,0.9,2.1,1.3c0.8,0.3,1.8,0.6,2.8,0.9c1,0.3,1.9,0.6,2.8,1.1
			c0.8,0.5,1.5,1.1,2.1,1.9c0.6,0.8,0.9,1.9,0.9,3.3c0,1.1-0.2,2.1-0.6,3s-1,1.6-1.7,2.3c-0.7,0.6-1.6,1.1-2.6,1.4
			c-1,0.3-2,0.5-3.1,0.5c-1.5,0-2.9-0.3-4.2-0.8c-1.3-0.5-2.4-1.3-3.2-2.4L705.8,393.9z"/>
		<path fill="#777777" d="M726.1,392.1c0,0.7,0.1,1.3,0.4,1.9c0.3,0.6,0.7,1,1.2,1.4c0.5,0.4,1,0.7,1.7,0.9c0.6,0.2,1.3,0.3,2,0.3
			c0.9,0,1.7-0.2,2.4-0.6c0.7-0.4,1.3-1,1.9-1.7l2.2,1.7c-1.6,2.1-3.9,3.2-6.9,3.2c-1.2,0-2.3-0.2-3.3-0.6c-1-0.4-1.8-1-2.5-1.7
			c-0.7-0.7-1.2-1.6-1.6-2.6c-0.4-1-0.6-2.1-0.6-3.2c0-1.2,0.2-2.2,0.6-3.2c0.4-1,1-1.9,1.7-2.6c0.7-0.7,1.6-1.3,2.5-1.7
			s2.1-0.6,3.2-0.6c1.4,0,2.5,0.2,3.5,0.7c0.9,0.5,1.7,1.1,2.3,1.9c0.6,0.8,1.1,1.6,1.3,2.6c0.3,1,0.4,2,0.4,3v1H726.1z
			 M735.4,389.7c0-0.7-0.1-1.3-0.3-1.8c-0.2-0.5-0.5-1-0.8-1.4c-0.4-0.4-0.8-0.7-1.4-0.9c-0.6-0.2-1.2-0.3-1.9-0.3
			c-0.7,0-1.4,0.1-2,0.4c-0.6,0.3-1.1,0.6-1.5,1.1c-0.4,0.4-0.7,0.9-1,1.5c-0.2,0.5-0.3,1.1-0.3,1.6H735.4z"/>
		<path fill="#777777" d="M743.4,383.2h2.9v2.2h0.1c0.6-0.8,1.3-1.5,2.3-1.9c1-0.5,2-0.7,3.1-0.7c1.2,0,2.3,0.2,3.3,0.6
			s1.8,1,2.5,1.7s1.2,1.6,1.6,2.6c0.4,1,0.6,2.1,0.6,3.2c0,1.2-0.2,2.2-0.6,3.2c-0.4,1-0.9,1.9-1.6,2.6c-0.7,0.7-1.5,1.3-2.5,1.7
			c-1,0.4-2.1,0.6-3.3,0.6c-1.1,0-2.2-0.2-3.1-0.7c-1-0.5-1.7-1.1-2.3-1.9h-0.1V408h-2.9V383.2z M751.4,385.6
			c-0.8,0-1.5,0.1-2.1,0.4c-0.6,0.3-1.2,0.6-1.6,1.1c-0.4,0.5-0.8,1-1,1.7c-0.2,0.7-0.4,1.4-0.4,2.2s0.1,1.5,0.4,2.2
			c0.2,0.7,0.6,1.2,1,1.7c0.4,0.5,1,0.8,1.6,1.1c0.6,0.3,1.3,0.4,2.1,0.4c0.8,0,1.5-0.1,2.1-0.4c0.6-0.3,1.2-0.6,1.6-1.1
			c0.4-0.5,0.8-1,1-1.7c0.2-0.7,0.4-1.4,0.4-2.2s-0.1-1.5-0.4-2.2c-0.2-0.7-0.6-1.2-1-1.7c-0.4-0.5-1-0.8-1.6-1.1
			C752.9,385.7,752.2,385.6,751.4,385.6z"/>
		<path fill="#777777" d="M767,398.9c-0.6,0-1.1-0.2-1.5-0.6c-0.4-0.4-0.6-0.9-0.6-1.5c0-0.6,0.2-1.1,0.6-1.5s0.9-0.6,1.5-0.6
			s1.1,0.2,1.5,0.6c0.4,0.4,0.6,0.9,0.6,1.5c0,0.6-0.2,1.1-0.6,1.5C768.1,398.7,767.6,398.9,767,398.9z"/>
		<path fill="#777777" d="M785.5,378.3h-11.2v-2.8h14.6v2.7l-9.2,20.5H776L785.5,378.3z"/>
	</g>
</g>
<g>
	<g enable-background="new    ">
		<path fill="#777777" d="M1000.4,399.3c-1.8,0-3.4-0.3-4.9-0.9s-2.8-1.5-3.8-2.6c-1.1-1.1-1.9-2.4-2.5-3.9
			c-0.6-1.5-0.9-3.1-0.9-4.8c0-1.7,0.3-3.3,0.9-4.8c0.6-1.5,1.4-2.8,2.5-3.9c1.1-1.1,2.3-1.9,3.8-2.6c1.5-0.6,3.1-0.9,4.9-0.9
			c1.8,0,3.4,0.3,4.9,0.9c1.5,0.6,2.8,1.5,3.8,2.6c1.1,1.1,1.9,2.4,2.5,3.9s0.9,3.1,0.9,4.8c0,1.7-0.3,3.3-0.9,4.8
			c-0.6,1.5-1.4,2.8-2.5,3.9c-1.1,1.1-2.3,1.9-3.8,2.6S1002.2,399.3,1000.4,399.3z M1000.4,396.4c1.3,0,2.5-0.2,3.6-0.7s2-1.2,2.8-2
			c0.8-0.8,1.4-1.8,1.8-2.9c0.4-1.1,0.6-2.3,0.6-3.6c0-1.3-0.2-2.5-0.6-3.6c-0.4-1.1-1-2.1-1.8-2.9c-0.8-0.8-1.7-1.5-2.8-2
			c-1.1-0.5-2.3-0.7-3.6-0.7s-2.5,0.2-3.6,0.7c-1.1,0.5-2,1.2-2.8,2c-0.8,0.8-1.4,1.8-1.8,2.9c-0.4,1.1-0.6,2.3-0.6,3.6
			c0,1.3,0.2,2.5,0.6,3.6c0.4,1.1,1,2.1,1.8,2.9c0.8,0.8,1.7,1.5,2.8,2S999.1,396.4,1000.4,396.4z"/>
		<path fill="#777777" d="M1028.7,387.4c-0.5-0.6-1.1-1-1.7-1.3c-0.6-0.3-1.3-0.4-2.1-0.4c-0.8,0-1.5,0.1-2.1,0.4
			c-0.6,0.3-1.1,0.7-1.5,1.2c-0.4,0.5-0.7,1.1-0.9,1.8c-0.2,0.7-0.3,1.4-0.3,2.1c0,0.7,0.1,1.4,0.4,2c0.2,0.6,0.6,1.2,1,1.7
			c0.4,0.5,1,0.9,1.6,1.1s1.3,0.4,2.1,0.4c0.8,0,1.5-0.1,2.1-0.4c0.6-0.3,1.1-0.7,1.6-1.3l2.1,2.1c-0.8,0.9-1.7,1.5-2.7,1.8
			c-1,0.4-2.1,0.6-3.2,0.6c-1.2,0-2.3-0.2-3.3-0.6c-1-0.4-1.8-0.9-2.6-1.7c-0.7-0.7-1.3-1.6-1.7-2.6c-0.4-1-0.6-2.1-0.6-3.3
			c0-1.2,0.2-2.3,0.6-3.3c0.4-1,0.9-1.9,1.7-2.6c0.7-0.7,1.6-1.3,2.6-1.7c1-0.4,2.1-0.6,3.3-0.6c1.1,0,2.2,0.2,3.3,0.6
			c1,0.4,1.9,1,2.7,1.9L1028.7,387.4z"/>
		<path fill="#777777" d="M1043,385.8h-4.2v7c0,0.4,0,0.9,0,1.3c0,0.4,0.1,0.8,0.2,1.1c0.1,0.3,0.4,0.6,0.7,0.8s0.7,0.3,1.3,0.3
			c0.3,0,0.7,0,1.1-0.1c0.4-0.1,0.7-0.2,1-0.4v2.7c-0.3,0.2-0.8,0.3-1.4,0.4c-0.6,0.1-1,0.1-1.3,0.1c-1.1,0-2-0.2-2.6-0.5
			c-0.6-0.3-1.1-0.7-1.4-1.2c-0.3-0.5-0.5-1.1-0.5-1.7s-0.1-1.2-0.1-1.9v-8.1h-3.4v-2.6h3.4v-4.4h2.9v4.4h4.2V385.8z"/>
		<path fill="#777777" d="M1050.4,398.9c-0.6,0-1.1-0.2-1.5-0.6c-0.4-0.4-0.6-0.9-0.6-1.5c0-0.6,0.2-1.1,0.6-1.5
			c0.4-0.4,0.9-0.6,1.5-0.6c0.6,0,1.1,0.2,1.5,0.6s0.6,0.9,0.6,1.5c0,0.6-0.2,1.1-0.6,1.5C1051.5,398.7,1051,398.9,1050.4,398.9z"/>
		<path fill="#777777" d="M1068.9,378.3h-11.2v-2.8h14.6v2.7l-9.2,20.5h-3.5L1068.9,378.3z"/>
	</g>
	<g enable-background="new    ">
		<path fill="#777777" d="M1000.4,399.3c-1.8,0-3.4-0.3-4.9-0.9s-2.8-1.5-3.8-2.6c-1.1-1.1-1.9-2.4-2.5-3.9
			c-0.6-1.5-0.9-3.1-0.9-4.8c0-1.7,0.3-3.3,0.9-4.8c0.6-1.5,1.4-2.8,2.5-3.9c1.1-1.1,2.3-1.9,3.8-2.6c1.5-0.6,3.1-0.9,4.9-0.9
			c1.8,0,3.4,0.3,4.9,0.9c1.5,0.6,2.8,1.5,3.8,2.6c1.1,1.1,1.9,2.4,2.5,3.9s0.9,3.1,0.9,4.8c0,1.7-0.3,3.3-0.9,4.8
			c-0.6,1.5-1.4,2.8-2.5,3.9c-1.1,1.1-2.3,1.9-3.8,2.6S1002.2,399.3,1000.4,399.3z M1000.4,396.4c1.3,0,2.5-0.2,3.6-0.7s2-1.2,2.8-2
			c0.8-0.8,1.4-1.8,1.8-2.9c0.4-1.1,0.6-2.3,0.6-3.6c0-1.3-0.2-2.5-0.6-3.6c-0.4-1.1-1-2.1-1.8-2.9c-0.8-0.8-1.7-1.5-2.8-2
			c-1.1-0.5-2.3-0.7-3.6-0.7s-2.5,0.2-3.6,0.7c-1.1,0.5-2,1.2-2.8,2c-0.8,0.8-1.4,1.8-1.8,2.9c-0.4,1.1-0.6,2.3-0.6,3.6
			c0,1.3,0.2,2.5,0.6,3.6c0.4,1.1,1,2.1,1.8,2.9c0.8,0.8,1.7,1.5,2.8,2S999.1,396.4,1000.4,396.4z"/>
		<path fill="#777777" d="M1028.7,387.4c-0.5-0.6-1.1-1-1.7-1.3c-0.6-0.3-1.3-0.4-2.1-0.4c-0.8,0-1.5,0.1-2.1,0.4
			c-0.6,0.3-1.1,0.7-1.5,1.2c-0.4,0.5-0.7,1.1-0.9,1.8c-0.2,0.7-0.3,1.4-0.3,2.1c0,0.7,0.1,1.4,0.4,2c0.2,0.6,0.6,1.2,1,1.7
			c0.4,0.5,1,0.9,1.6,1.1s1.3,0.4,2.1,0.4c0.8,0,1.5-0.1,2.1-0.4c0.6-0.3,1.1-0.7,1.6-1.3l2.1,2.1c-0.8,0.9-1.7,1.5-2.7,1.8
			c-1,0.4-2.1,0.6-3.2,0.6c-1.2,0-2.3-0.2-3.3-0.6c-1-0.4-1.8-0.9-2.6-1.7c-0.7-0.7-1.3-1.6-1.7-2.6c-0.4-1-0.6-2.1-0.6-3.3
			c0-1.2,0.2-2.3,0.6-3.3c0.4-1,0.9-1.9,1.7-2.6c0.7-0.7,1.6-1.3,2.6-1.7c1-0.4,2.1-0.6,3.3-0.6c1.1,0,2.2,0.2,3.3,0.6
			c1,0.4,1.9,1,2.7,1.9L1028.7,387.4z"/>
		<path fill="#777777" d="M1043,385.8h-4.2v7c0,0.4,0,0.9,0,1.3c0,0.4,0.1,0.8,0.2,1.1c0.1,0.3,0.4,0.6,0.7,0.8s0.7,0.3,1.3,0.3
			c0.3,0,0.7,0,1.1-0.1c0.4-0.1,0.7-0.2,1-0.4v2.7c-0.3,0.2-0.8,0.3-1.4,0.4c-0.6,0.1-1,0.1-1.3,0.1c-1.1,0-2-0.2-2.6-0.5
			c-0.6-0.3-1.1-0.7-1.4-1.2c-0.3-0.5-0.5-1.1-0.5-1.7s-0.1-1.2-0.1-1.9v-8.1h-3.4v-2.6h3.4v-4.4h2.9v4.4h4.2V385.8z"/>
		<path fill="#777777" d="M1050.4,398.9c-0.6,0-1.1-0.2-1.5-0.6c-0.4-0.4-0.6-0.9-0.6-1.5c0-0.6,0.2-1.1,0.6-1.5
			c0.4-0.4,0.9-0.6,1.5-0.6c0.6,0,1.1,0.2,1.5,0.6s0.6,0.9,0.6,1.5c0,0.6-0.2,1.1-0.6,1.5C1051.5,398.7,1051,398.9,1050.4,398.9z"/>
		<path fill="#777777" d="M1068.9,378.3h-11.2v-2.8h14.6v2.7l-9.2,20.5h-3.5L1068.9,378.3z"/>
	</g>
</g>
<g>
	<g enable-background="new    ">
		<path fill="#777777" d="M1077.1,231c-1.8,0-3.4-0.3-4.9-0.9s-2.8-1.5-3.8-2.6c-1.1-1.1-1.9-2.4-2.5-3.9c-0.6-1.5-0.9-3.1-0.9-4.8
			c0-1.7,0.3-3.3,0.9-4.8c0.6-1.5,1.4-2.8,2.5-3.9c1.1-1.1,2.3-1.9,3.8-2.6c1.5-0.6,3.1-0.9,4.9-0.9c1.8,0,3.4,0.3,4.9,0.9
			c1.5,0.6,2.8,1.5,3.8,2.6c1.1,1.1,1.9,2.4,2.5,3.9s0.9,3.1,0.9,4.8c0,1.7-0.3,3.3-0.9,4.8c-0.6,1.5-1.4,2.8-2.5,3.9
			c-1.1,1.1-2.3,1.9-3.8,2.6S1078.8,231,1077.1,231z M1077.1,228.1c1.3,0,2.5-0.2,3.6-0.7s2-1.2,2.8-2c0.8-0.8,1.4-1.8,1.8-2.9
			c0.4-1.1,0.6-2.3,0.6-3.6c0-1.3-0.2-2.5-0.6-3.6c-0.4-1.1-1-2.1-1.8-2.9c-0.8-0.8-1.7-1.5-2.8-2c-1.1-0.5-2.3-0.7-3.6-0.7
			s-2.5,0.2-3.6,0.7c-1.1,0.5-2,1.2-2.8,2c-0.8,0.8-1.4,1.8-1.8,2.9c-0.4,1.1-0.6,2.3-0.6,3.6c0,1.3,0.2,2.5,0.6,3.6
			c0.4,1.1,1,2.1,1.8,2.9c0.8,0.8,1.7,1.5,2.8,2S1075.7,228.1,1077.1,228.1z"/>
		<path fill="#777777" d="M1105.3,219c-0.5-0.6-1.1-1-1.7-1.3c-0.6-0.3-1.3-0.4-2.1-0.4c-0.8,0-1.5,0.1-2.1,0.4
			c-0.6,0.3-1.1,0.7-1.5,1.2c-0.4,0.5-0.7,1.1-0.9,1.8c-0.2,0.7-0.3,1.4-0.3,2.1c0,0.7,0.1,1.4,0.4,2c0.2,0.6,0.6,1.2,1,1.7
			c0.4,0.5,1,0.9,1.6,1.1s1.3,0.4,2.1,0.4c0.8,0,1.5-0.1,2.1-0.4c0.6-0.3,1.1-0.7,1.6-1.3l2.1,2.1c-0.8,0.9-1.7,1.5-2.7,1.8
			c-1,0.4-2.1,0.6-3.2,0.6c-1.2,0-2.3-0.2-3.3-0.6c-1-0.4-1.8-0.9-2.6-1.7c-0.7-0.7-1.3-1.6-1.7-2.6c-0.4-1-0.6-2.1-0.6-3.3
			c0-1.2,0.2-2.3,0.6-3.3c0.4-1,0.9-1.9,1.7-2.6c0.7-0.7,1.6-1.3,2.6-1.7c1-0.4,2.1-0.6,3.3-0.6c1.1,0,2.2,0.2,3.3,0.6
			c1,0.4,1.9,1,2.7,1.9L1105.3,219z"/>
		<path fill="#777777" d="M1119.6,217.5h-4.2v7c0,0.4,0,0.9,0,1.3c0,0.4,0.1,0.8,0.2,1.1c0.1,0.3,0.4,0.6,0.7,0.8s0.7,0.3,1.3,0.3
			c0.3,0,0.7,0,1.1-0.1c0.4-0.1,0.7-0.2,1-0.4v2.7c-0.3,0.2-0.8,0.3-1.4,0.4c-0.6,0.1-1,0.1-1.3,0.1c-1.1,0-2-0.2-2.6-0.5
			c-0.6-0.3-1.1-0.7-1.4-1.2c-0.3-0.5-0.5-1.1-0.5-1.7s-0.1-1.2-0.1-1.9v-8.1h-3.4v-2.6h3.4v-4.4h2.9v4.4h4.2V217.5z"/>
		<path fill="#777777" d="M1127.1,230.6c-0.6,0-1.1-0.2-1.5-0.6c-0.4-0.4-0.6-0.9-0.6-1.5c0-0.6,0.2-1.1,0.6-1.5
			c0.4-0.4,0.9-0.6,1.5-0.6c0.6,0,1.1,0.2,1.5,0.6s0.6,0.9,0.6,1.5c0,0.6-0.2,1.1-0.6,1.5C1128.2,230.4,1127.7,230.6,1127.1,230.6z"
			/>
		<path fill="#777777" d="M1141.8,210.9l-4.3,3.9l-1.8-2.2l6.5-5.3h2.8v23.2h-3.1V210.9z"/>
		<path fill="#777777" d="M1163.4,225.3h-9.9v-3.2l9.2-14.9h3.8v15.3h3.3v2.8h-3.3v5.1h-3.1V225.3z M1163.4,211L1163.4,211
			l-7.1,11.6h7.1V211z"/>
	</g>
	<g enable-background="new    ">
		<path fill="#777777" d="M1077.1,231c-1.8,0-3.4-0.3-4.9-0.9s-2.8-1.5-3.8-2.6c-1.1-1.1-1.9-2.4-2.5-3.9c-0.6-1.5-0.9-3.1-0.9-4.8
			c0-1.7,0.3-3.3,0.9-4.8c0.6-1.5,1.4-2.8,2.5-3.9c1.1-1.1,2.3-1.9,3.8-2.6c1.5-0.6,3.1-0.9,4.9-0.9c1.8,0,3.4,0.3,4.9,0.9
			c1.5,0.6,2.8,1.5,3.8,2.6c1.1,1.1,1.9,2.4,2.5,3.9s0.9,3.1,0.9,4.8c0,1.7-0.3,3.3-0.9,4.8c-0.6,1.5-1.4,2.8-2.5,3.9
			c-1.1,1.1-2.3,1.9-3.8,2.6S1078.8,231,1077.1,231z M1077.1,228.1c1.3,0,2.5-0.2,3.6-0.7s2-1.2,2.8-2c0.8-0.8,1.4-1.8,1.8-2.9
			c0.4-1.1,0.6-2.3,0.6-3.6c0-1.3-0.2-2.5-0.6-3.6c-0.4-1.1-1-2.1-1.8-2.9c-0.8-0.8-1.7-1.5-2.8-2c-1.1-0.5-2.3-0.7-3.6-0.7
			s-2.5,0.2-3.6,0.7c-1.1,0.5-2,1.2-2.8,2c-0.8,0.8-1.4,1.8-1.8,2.9c-0.4,1.1-0.6,2.3-0.6,3.6c0,1.3,0.2,2.5,0.6,3.6
			c0.4,1.1,1,2.1,1.8,2.9c0.8,0.8,1.7,1.5,2.8,2S1075.7,228.1,1077.1,228.1z"/>
		<path fill="#777777" d="M1105.3,219c-0.5-0.6-1.1-1-1.7-1.3c-0.6-0.3-1.3-0.4-2.1-0.4c-0.8,0-1.5,0.1-2.1,0.4
			c-0.6,0.3-1.1,0.7-1.5,1.2c-0.4,0.5-0.7,1.1-0.9,1.8c-0.2,0.7-0.3,1.4-0.3,2.1c0,0.7,0.1,1.4,0.4,2c0.2,0.6,0.6,1.2,1,1.7
			c0.4,0.5,1,0.9,1.6,1.1s1.3,0.4,2.1,0.4c0.8,0,1.5-0.1,2.1-0.4c0.6-0.3,1.1-0.7,1.6-1.3l2.1,2.1c-0.8,0.9-1.7,1.5-2.7,1.8
			c-1,0.4-2.1,0.6-3.2,0.6c-1.2,0-2.3-0.2-3.3-0.6c-1-0.4-1.8-0.9-2.6-1.7c-0.7-0.7-1.3-1.6-1.7-2.6c-0.4-1-0.6-2.1-0.6-3.3
			c0-1.2,0.2-2.3,0.6-3.3c0.4-1,0.9-1.9,1.7-2.6c0.7-0.7,1.6-1.3,2.6-1.7c1-0.4,2.1-0.6,3.3-0.6c1.1,0,2.2,0.2,3.3,0.6
			c1,0.4,1.9,1,2.7,1.9L1105.3,219z"/>
		<path fill="#777777" d="M1119.6,217.5h-4.2v7c0,0.4,0,0.9,0,1.3c0,0.4,0.1,0.8,0.2,1.1c0.1,0.3,0.4,0.6,0.7,0.8s0.7,0.3,1.3,0.3
			c0.3,0,0.7,0,1.1-0.1c0.4-0.1,0.7-0.2,1-0.4v2.7c-0.3,0.2-0.8,0.3-1.4,0.4c-0.6,0.1-1,0.1-1.3,0.1c-1.1,0-2-0.2-2.6-0.5
			c-0.6-0.3-1.1-0.7-1.4-1.2c-0.3-0.5-0.5-1.1-0.5-1.7s-0.1-1.2-0.1-1.9v-8.1h-3.4v-2.6h3.4v-4.4h2.9v4.4h4.2V217.5z"/>
		<path fill="#777777" d="M1127.1,230.6c-0.6,0-1.1-0.2-1.5-0.6c-0.4-0.4-0.6-0.9-0.6-1.5c0-0.6,0.2-1.1,0.6-1.5
			c0.4-0.4,0.9-0.6,1.5-0.6c0.6,0,1.1,0.2,1.5,0.6s0.6,0.9,0.6,1.5c0,0.6-0.2,1.1-0.6,1.5C1128.2,230.4,1127.7,230.6,1127.1,230.6z"
			/>
		<path fill="#777777" d="M1141.8,210.9l-4.3,3.9l-1.8-2.2l6.5-5.3h2.8v23.2h-3.1V210.9z"/>
		<path fill="#777777" d="M1163.4,225.3h-9.9v-3.2l9.2-14.9h3.8v15.3h3.3v2.8h-3.3v5.1h-3.1V225.3z M1163.4,211L1163.4,211
			l-7.1,11.6h7.1V211z"/>
	</g>
</g>
<g>
	<g enable-background="new    ">
		<path fill="#777777" d="M1270.8,375.6h4.1l12.8,19.1h0.1v-19.1h3.1v23.2h-4l-12.9-19.1h-0.1v19.1h-3.1V375.6z"/>
		<path fill="#777777" d="M1296.7,391c0-1.1,0.2-2.2,0.6-3.2c0.4-1,1-1.8,1.8-2.6s1.6-1.3,2.6-1.8c1-0.4,2.1-0.6,3.2-0.6
			s2.2,0.2,3.2,0.6c1,0.4,1.9,1,2.6,1.8s1.3,1.6,1.8,2.6c0.4,1,0.6,2,0.6,3.2c0,1.1-0.2,2.2-0.6,3.2c-0.4,1-1,1.9-1.8,2.6
			c-0.7,0.7-1.6,1.3-2.6,1.7c-1,0.4-2.1,0.6-3.2,0.6s-2.2-0.2-3.2-0.6c-1-0.4-1.9-1-2.6-1.7c-0.7-0.7-1.3-1.6-1.8-2.6
			C1296.9,393.2,1296.7,392.1,1296.7,391z M1299.8,391c0,0.8,0.1,1.5,0.4,2.2c0.2,0.7,0.6,1.2,1,1.7c0.4,0.5,1,0.8,1.6,1.1
			c0.6,0.3,1.3,0.4,2.1,0.4c0.8,0,1.5-0.1,2.1-0.4c0.6-0.3,1.2-0.6,1.6-1.1c0.4-0.5,0.8-1,1-1.7c0.2-0.7,0.4-1.4,0.4-2.2
			s-0.1-1.5-0.4-2.2c-0.2-0.7-0.6-1.2-1-1.7c-0.4-0.5-1-0.8-1.6-1.1c-0.6-0.3-1.3-0.4-2.1-0.4c-0.8,0-1.5,0.1-2.1,0.4
			c-0.6,0.3-1.2,0.6-1.6,1.1c-0.4,0.5-0.8,1-1,1.7C1300,389.5,1299.8,390.2,1299.8,391z"/>
		<path fill="#777777" d="M1316.3,383.2h3.4l4.6,11.9l4.5-11.9h3.1l-6.1,15.5h-3.2L1316.3,383.2z"/>
		<path fill="#777777" d="M1335.8,398.9c-0.6,0-1.1-0.2-1.5-0.6c-0.4-0.4-0.6-0.9-0.6-1.5c0-0.6,0.2-1.1,0.6-1.5
			c0.4-0.4,0.9-0.6,1.5-0.6c0.6,0,1.1,0.2,1.5,0.6s0.6,0.9,0.6,1.5c0,0.6-0.2,1.1-0.6,1.5C1336.9,398.7,1336.4,398.9,1335.8,398.9z"
			/>
		<path fill="#777777" d="M1354.3,378.3H1343v-2.8h14.6v2.7l-9.2,20.5h-3.5L1354.3,378.3z"/>
	</g>
	<g enable-background="new    ">
		<path fill="#777777" d="M1270.8,375.6h4.1l12.8,19.1h0.1v-19.1h3.1v23.2h-4l-12.9-19.1h-0.1v19.1h-3.1V375.6z"/>
		<path fill="#777777" d="M1296.7,391c0-1.1,0.2-2.2,0.6-3.2c0.4-1,1-1.8,1.8-2.6s1.6-1.3,2.6-1.8c1-0.4,2.1-0.6,3.2-0.6
			s2.2,0.2,3.2,0.6c1,0.4,1.9,1,2.6,1.8s1.3,1.6,1.8,2.6c0.4,1,0.6,2,0.6,3.2c0,1.1-0.2,2.2-0.6,3.2c-0.4,1-1,1.9-1.8,2.6
			c-0.7,0.7-1.6,1.3-2.6,1.7c-1,0.4-2.1,0.6-3.2,0.6s-2.2-0.2-3.2-0.6c-1-0.4-1.9-1-2.6-1.7c-0.7-0.7-1.3-1.6-1.8-2.6
			C1296.9,393.2,1296.7,392.1,1296.7,391z M1299.8,391c0,0.8,0.1,1.5,0.4,2.2c0.2,0.7,0.6,1.2,1,1.7c0.4,0.5,1,0.8,1.6,1.1
			c0.6,0.3,1.3,0.4,2.1,0.4c0.8,0,1.5-0.1,2.1-0.4c0.6-0.3,1.2-0.6,1.6-1.1c0.4-0.5,0.8-1,1-1.7c0.2-0.7,0.4-1.4,0.4-2.2
			s-0.1-1.5-0.4-2.2c-0.2-0.7-0.6-1.2-1-1.7c-0.4-0.5-1-0.8-1.6-1.1c-0.6-0.3-1.3-0.4-2.1-0.4c-0.8,0-1.5,0.1-2.1,0.4
			c-0.6,0.3-1.2,0.6-1.6,1.1c-0.4,0.5-0.8,1-1,1.7C1300,389.5,1299.8,390.2,1299.8,391z"/>
		<path fill="#777777" d="M1316.3,383.2h3.4l4.6,11.9l4.5-11.9h3.1l-6.1,15.5h-3.2L1316.3,383.2z"/>
		<path fill="#777777" d="M1335.8,398.9c-0.6,0-1.1-0.2-1.5-0.6c-0.4-0.4-0.6-0.9-0.6-1.5c0-0.6,0.2-1.1,0.6-1.5
			c0.4-0.4,0.9-0.6,1.5-0.6c0.6,0,1.1,0.2,1.5,0.6s0.6,0.9,0.6,1.5c0,0.6-0.2,1.1-0.6,1.5C1336.9,398.7,1336.4,398.9,1335.8,398.9z"
			/>
		<path fill="#777777" d="M1354.3,378.3H1343v-2.8h14.6v2.7l-9.2,20.5h-3.5L1354.3,378.3z"/>
	</g>
</g>
<line fill="none" stroke="#777777" stroke-miterlimit="10" x1="1116.4" y1="431.4" x2="1116.4" y2="243.1"/>
<g>
	<g enable-background="new    ">
		<path fill="#777777" d="M1354,207.3h4.1l12.8,19.1h0.1v-19.1h3.1v23.2h-4l-12.9-19.1h-0.1v19.1h-3.1V207.3z"/>
		<path fill="#777777" d="M1379.8,222.7c0-1.1,0.2-2.2,0.6-3.2c0.4-1,1-1.8,1.8-2.6s1.6-1.3,2.6-1.8c1-0.4,2.1-0.6,3.2-0.6
			s2.2,0.2,3.2,0.6c1,0.4,1.9,1,2.6,1.8s1.3,1.6,1.8,2.6c0.4,1,0.6,2,0.6,3.2c0,1.1-0.2,2.2-0.6,3.2c-0.4,1-1,1.9-1.8,2.6
			c-0.7,0.7-1.6,1.3-2.6,1.7c-1,0.4-2.1,0.6-3.2,0.6s-2.2-0.2-3.2-0.6c-1-0.4-1.9-1-2.6-1.7c-0.7-0.7-1.3-1.6-1.8-2.6
			C1380.1,224.9,1379.8,223.8,1379.8,222.7z M1383,222.7c0,0.8,0.1,1.5,0.4,2.2c0.2,0.7,0.6,1.2,1,1.7c0.4,0.5,1,0.8,1.6,1.1
			c0.6,0.3,1.3,0.4,2.1,0.4c0.8,0,1.5-0.1,2.1-0.4c0.6-0.3,1.2-0.6,1.6-1.1c0.4-0.5,0.8-1,1-1.7c0.2-0.7,0.4-1.4,0.4-2.2
			s-0.1-1.5-0.4-2.2c-0.2-0.7-0.6-1.2-1-1.7c-0.4-0.5-1-0.8-1.6-1.1c-0.6-0.3-1.3-0.4-2.1-0.4c-0.8,0-1.5,0.1-2.1,0.4
			c-0.6,0.3-1.2,0.6-1.6,1.1c-0.4,0.5-0.8,1-1,1.7C1383.1,221.2,1383,221.9,1383,222.7z"/>
		<path fill="#777777" d="M1399.5,214.9h3.4l4.6,11.9l4.5-11.9h3.1l-6.1,15.5h-3.2L1399.5,214.9z"/>
		<path fill="#777777" d="M1418.9,230.6c-0.6,0-1.1-0.2-1.5-0.6c-0.4-0.4-0.6-0.9-0.6-1.5c0-0.6,0.2-1.1,0.6-1.5
			c0.4-0.4,0.9-0.6,1.5-0.6c0.6,0,1.1,0.2,1.5,0.6s0.6,0.9,0.6,1.5c0,0.6-0.2,1.1-0.6,1.5C1420,230.4,1419.5,230.6,1418.9,230.6z"/>
		<path fill="#777777" d="M1433.6,210.9l-4.3,3.9l-1.8-2.2l6.5-5.3h2.8v23.2h-3.1V210.9z"/>
		<path fill="#777777" d="M1455.3,225.3h-9.9v-3.2l9.2-14.9h3.8v15.3h3.3v2.8h-3.3v5.1h-3.1V225.3z M1455.3,211L1455.3,211
			l-7.1,11.6h7.1V211z"/>
	</g>
	<g enable-background="new    ">
		<path fill="#777777" d="M1354,207.3h4.1l12.8,19.1h0.1v-19.1h3.1v23.2h-4l-12.9-19.1h-0.1v19.1h-3.1V207.3z"/>
		<path fill="#777777" d="M1379.8,222.7c0-1.1,0.2-2.2,0.6-3.2c0.4-1,1-1.8,1.8-2.6s1.6-1.3,2.6-1.8c1-0.4,2.1-0.6,3.2-0.6
			s2.2,0.2,3.2,0.6c1,0.4,1.9,1,2.6,1.8s1.3,1.6,1.8,2.6c0.4,1,0.6,2,0.6,3.2c0,1.1-0.2,2.2-0.6,3.2c-0.4,1-1,1.9-1.8,2.6
			c-0.7,0.7-1.6,1.3-2.6,1.7c-1,0.4-2.1,0.6-3.2,0.6s-2.2-0.2-3.2-0.6c-1-0.4-1.9-1-2.6-1.7c-0.7-0.7-1.3-1.6-1.8-2.6
			C1380.1,224.9,1379.8,223.8,1379.8,222.7z M1383,222.7c0,0.8,0.1,1.5,0.4,2.2c0.2,0.7,0.6,1.2,1,1.7c0.4,0.5,1,0.8,1.6,1.1
			c0.6,0.3,1.3,0.4,2.1,0.4c0.8,0,1.5-0.1,2.1-0.4c0.6-0.3,1.2-0.6,1.6-1.1c0.4-0.5,0.8-1,1-1.7c0.2-0.7,0.4-1.4,0.4-2.2
			s-0.1-1.5-0.4-2.2c-0.2-0.7-0.6-1.2-1-1.7c-0.4-0.5-1-0.8-1.6-1.1c-0.6-0.3-1.3-0.4-2.1-0.4c-0.8,0-1.5,0.1-2.1,0.4
			c-0.6,0.3-1.2,0.6-1.6,1.1c-0.4,0.5-0.8,1-1,1.7C1383.1,221.2,1383,221.9,1383,222.7z"/>
		<path fill="#777777" d="M1399.5,214.9h3.4l4.6,11.9l4.5-11.9h3.1l-6.1,15.5h-3.2L1399.5,214.9z"/>
		<path fill="#777777" d="M1418.9,230.6c-0.6,0-1.1-0.2-1.5-0.6c-0.4-0.4-0.6-0.9-0.6-1.5c0-0.6,0.2-1.1,0.6-1.5
			c0.4-0.4,0.9-0.6,1.5-0.6c0.6,0,1.1,0.2,1.5,0.6s0.6,0.9,0.6,1.5c0,0.6-0.2,1.1-0.6,1.5C1420,230.4,1419.5,230.6,1418.9,230.6z"/>
		<path fill="#777777" d="M1433.6,210.9l-4.3,3.9l-1.8-2.2l6.5-5.3h2.8v23.2h-3.1V210.9z"/>
		<path fill="#777777" d="M1455.3,225.3h-9.9v-3.2l9.2-14.9h3.8v15.3h3.3v2.8h-3.3v5.1h-3.1V225.3z M1455.3,211L1455.3,211
			l-7.1,11.6h7.1V211z"/>
	</g>
</g>
<line fill="none" stroke="#777777" stroke-miterlimit="10" x1="1404" y1="431.4" x2="1404" y2="243.1"/>
<circle fill="#0098FF" cx="1116.4" cy="442.7" r="12.7"/>
<circle fill="#134791" cx="1400" cy="442.7" r="12.7"/>
</svg>
