<?xml version="1.0" encoding="utf-8"?>
<!-- Generator: Adobe Illustrator 17.1.0, SVG Export Plug-In . SVG Version: 6.00 Build 0)  -->
<!DOCTYPE svg PUBLIC "-//W3C//DTD SVG 1.1//EN" "http://www.w3.org/Graphics/SVG/1.1/DTD/svg11.dtd">
<svg version="1.1" id="圖層_1" xmlns="http://www.w3.org/2000/svg" xmlns:xlink="http://www.w3.org/1999/xlink" x="0px" y="0px"
	 viewBox="0 0 1600 900" enable-background="new 0 0 1600 900" xml:space="preserve">
<g>
	<g enable-background="new    ">
		<path fill="#777777" d="M694.7,619.8c-0.9,0-1.7-0.2-2.4-0.5c-0.7-0.3-1.3-0.7-1.9-1.3c-0.5-0.5-0.9-1.2-1.2-1.9
			c-0.3-0.7-0.4-1.5-0.4-2.4c0-0.8,0.1-1.6,0.4-2.4c0.3-0.7,0.7-1.4,1.2-1.9c0.5-0.5,1.1-1,1.9-1.3c0.7-0.3,1.5-0.5,2.4-0.5
			c0.9,0,1.7,0.2,2.4,0.5c0.7,0.3,1.3,0.7,1.9,1.3c0.5,0.5,0.9,1.2,1.2,1.9c0.3,0.7,0.4,1.5,0.4,2.4c0,0.8-0.1,1.6-0.4,2.4
			c-0.3,0.7-0.7,1.4-1.2,1.9s-1.1,1-1.9,1.3C696.4,619.6,695.6,619.8,694.7,619.8z M694.7,618.3c0.7,0,1.2-0.1,1.8-0.4
			c0.5-0.2,1-0.6,1.3-1c0.4-0.4,0.7-0.9,0.9-1.4c0.2-0.5,0.3-1.1,0.3-1.8c0-0.6-0.1-1.2-0.3-1.8c-0.2-0.5-0.5-1-0.9-1.4
			c-0.4-0.4-0.8-0.7-1.3-1c-0.5-0.2-1.1-0.4-1.8-0.4c-0.6,0-1.2,0.1-1.8,0.4c-0.5,0.2-1,0.6-1.3,1s-0.7,0.9-0.9,1.4
			c-0.2,0.5-0.3,1.1-0.3,1.8c0,0.6,0.1,1.2,0.3,1.8c0.2,0.5,0.5,1,0.9,1.4s0.8,0.7,1.3,1C693.5,618.2,694.1,618.3,694.7,618.3z"/>
		<path fill="#777777" d="M708.5,613.9c-0.3-0.3-0.5-0.5-0.8-0.6c-0.3-0.1-0.6-0.2-1-0.2c-0.4,0-0.7,0.1-1,0.2
			c-0.3,0.1-0.5,0.3-0.7,0.6c-0.2,0.2-0.3,0.5-0.4,0.9c-0.1,0.3-0.2,0.7-0.2,1s0.1,0.7,0.2,1c0.1,0.3,0.3,0.6,0.5,0.8
			c0.2,0.2,0.5,0.4,0.8,0.6c0.3,0.1,0.6,0.2,1,0.2c0.4,0,0.8-0.1,1-0.2c0.3-0.1,0.6-0.4,0.8-0.6l1,1c-0.4,0.4-0.8,0.7-1.3,0.9
			c-0.5,0.2-1,0.3-1.6,0.3c-0.6,0-1.1-0.1-1.6-0.3c-0.5-0.2-0.9-0.5-1.3-0.8c-0.4-0.3-0.6-0.8-0.8-1.2s-0.3-1-0.3-1.6
			c0-0.6,0.1-1.1,0.3-1.6s0.5-0.9,0.8-1.3c0.3-0.4,0.8-0.6,1.2-0.8c0.5-0.2,1-0.3,1.6-0.3c0.6,0,1.1,0.1,1.6,0.3s0.9,0.5,1.3,0.9
			L708.5,613.9z"/>
		<path fill="#777777" d="M715.5,613.1h-2.1v3.4c0,0.2,0,0.4,0,0.6s0.1,0.4,0.1,0.6c0.1,0.2,0.2,0.3,0.3,0.4
			c0.1,0.1,0.4,0.2,0.6,0.2c0.2,0,0.3,0,0.5,0s0.3-0.1,0.5-0.2v1.3c-0.2,0.1-0.4,0.2-0.7,0.2c-0.3,0-0.5,0.1-0.6,0.1
			c-0.6,0-1-0.1-1.3-0.2c-0.3-0.2-0.5-0.4-0.7-0.6s-0.2-0.5-0.3-0.8c0-0.3,0-0.6,0-0.9v-3.9h-1.7v-1.2h1.7v-2.1h1.4v2.1h2.1V613.1z"
			/>
		<path fill="#777777" d="M719.1,619.6c-0.3,0-0.5-0.1-0.7-0.3c-0.2-0.2-0.3-0.5-0.3-0.7c0-0.3,0.1-0.5,0.3-0.7
			c0.2-0.2,0.5-0.3,0.7-0.3c0.3,0,0.5,0.1,0.7,0.3s0.3,0.5,0.3,0.7c0,0.3-0.1,0.5-0.3,0.7S719.4,619.6,719.1,619.6z"/>
		<path fill="#777777" d="M726.3,609.9l-2.1,1.9l-0.9-1.1l3.1-2.6h1.4v11.3h-1.5V609.9z"/>
		<path fill="#777777" d="M736.9,617h-4.8v-1.6l4.5-7.3h1.9v7.5h1.6v1.3h-1.6v2.5h-1.5V617z M736.9,610L736.9,610l-3.5,5.7h3.5V610z
			"/>
	</g>
	<g enable-background="new    ">
		<path fill="#777777" d="M694.7,619.8c-0.9,0-1.7-0.2-2.4-0.5c-0.7-0.3-1.3-0.7-1.9-1.3c-0.5-0.5-0.9-1.2-1.2-1.9
			c-0.3-0.7-0.4-1.5-0.4-2.4c0-0.8,0.1-1.6,0.4-2.4c0.3-0.7,0.7-1.4,1.2-1.9c0.5-0.5,1.1-1,1.9-1.3c0.7-0.3,1.5-0.5,2.4-0.5
			c0.9,0,1.7,0.2,2.4,0.5c0.7,0.3,1.3,0.7,1.9,1.3c0.5,0.5,0.9,1.2,1.2,1.9c0.3,0.7,0.4,1.5,0.4,2.4c0,0.8-0.1,1.6-0.4,2.4
			c-0.3,0.7-0.7,1.4-1.2,1.9s-1.1,1-1.9,1.3C696.4,619.6,695.6,619.8,694.7,619.8z M694.7,618.3c0.7,0,1.2-0.1,1.8-0.4
			c0.5-0.2,1-0.6,1.3-1c0.4-0.4,0.7-0.9,0.9-1.4c0.2-0.5,0.3-1.1,0.3-1.8c0-0.6-0.1-1.2-0.3-1.8c-0.2-0.5-0.5-1-0.9-1.4
			c-0.4-0.4-0.8-0.7-1.3-1c-0.5-0.2-1.1-0.4-1.8-0.4c-0.6,0-1.2,0.1-1.8,0.4c-0.5,0.2-1,0.6-1.3,1s-0.7,0.9-0.9,1.4
			c-0.2,0.5-0.3,1.1-0.3,1.8c0,0.6,0.1,1.2,0.3,1.8c0.2,0.5,0.5,1,0.9,1.4s0.8,0.7,1.3,1C693.5,618.2,694.1,618.3,694.7,618.3z"/>
		<path fill="#777777" d="M708.5,613.9c-0.3-0.3-0.5-0.5-0.8-0.6c-0.3-0.1-0.6-0.2-1-0.2c-0.4,0-0.7,0.1-1,0.2
			c-0.3,0.1-0.5,0.3-0.7,0.6c-0.2,0.2-0.3,0.5-0.4,0.9c-0.1,0.3-0.2,0.7-0.2,1s0.1,0.7,0.2,1c0.1,0.3,0.3,0.6,0.5,0.8
			c0.2,0.2,0.5,0.4,0.8,0.6c0.3,0.1,0.6,0.2,1,0.2c0.4,0,0.8-0.1,1-0.2c0.3-0.1,0.6-0.4,0.8-0.6l1,1c-0.4,0.4-0.8,0.7-1.3,0.9
			c-0.5,0.2-1,0.3-1.6,0.3c-0.6,0-1.1-0.1-1.6-0.3c-0.5-0.2-0.9-0.5-1.3-0.8c-0.4-0.3-0.6-0.8-0.8-1.2s-0.3-1-0.3-1.6
			c0-0.6,0.1-1.1,0.3-1.6s0.5-0.9,0.8-1.3c0.3-0.4,0.8-0.6,1.2-0.8c0.5-0.2,1-0.3,1.6-0.3c0.6,0,1.1,0.1,1.6,0.3s0.9,0.5,1.3,0.9
			L708.5,613.9z"/>
		<path fill="#777777" d="M715.5,613.1h-2.1v3.4c0,0.2,0,0.4,0,0.6s0.1,0.4,0.1,0.6c0.1,0.2,0.2,0.3,0.3,0.4
			c0.1,0.1,0.4,0.2,0.6,0.2c0.2,0,0.3,0,0.5,0s0.3-0.1,0.5-0.2v1.3c-0.2,0.1-0.4,0.2-0.7,0.2c-0.3,0-0.5,0.1-0.6,0.1
			c-0.6,0-1-0.1-1.3-0.2c-0.3-0.2-0.5-0.4-0.7-0.6s-0.2-0.5-0.3-0.8c0-0.3,0-0.6,0-0.9v-3.9h-1.7v-1.2h1.7v-2.1h1.4v2.1h2.1V613.1z"
			/>
		<path fill="#777777" d="M719.1,619.6c-0.3,0-0.5-0.1-0.7-0.3c-0.2-0.2-0.3-0.5-0.3-0.7c0-0.3,0.1-0.5,0.3-0.7
			c0.2-0.2,0.5-0.3,0.7-0.3c0.3,0,0.5,0.1,0.7,0.3s0.3,0.5,0.3,0.7c0,0.3-0.1,0.5-0.3,0.7S719.4,619.6,719.1,619.6z"/>
		<path fill="#777777" d="M726.3,609.9l-2.1,1.9l-0.9-1.1l3.1-2.6h1.4v11.3h-1.5V609.9z"/>
		<path fill="#777777" d="M736.9,617h-4.8v-1.6l4.5-7.3h1.9v7.5h1.6v1.3h-1.6v2.5h-1.5V617z M736.9,610L736.9,610l-3.5,5.7h3.5V610z
			"/>
	</g>
</g>
<g>
	<g enable-background="new    ">
		<path fill="#777777" d="M688,747.7h2l6.2,9.3h0v-9.3h1.5V759h-2l-6.3-9.3h0v9.3H688V747.7z"/>
		<path fill="#777777" d="M700.6,755.2c0-0.6,0.1-1.1,0.3-1.6c0.2-0.5,0.5-0.9,0.9-1.3c0.4-0.4,0.8-0.6,1.3-0.9s1-0.3,1.6-0.3
			s1.1,0.1,1.6,0.3c0.5,0.2,0.9,0.5,1.3,0.9c0.4,0.4,0.6,0.8,0.9,1.3c0.2,0.5,0.3,1,0.3,1.6c0,0.6-0.1,1.1-0.3,1.6
			c-0.2,0.5-0.5,0.9-0.9,1.3c-0.4,0.4-0.8,0.6-1.3,0.8c-0.5,0.2-1,0.3-1.6,0.3s-1.1-0.1-1.6-0.3s-0.9-0.5-1.3-0.8
			c-0.4-0.4-0.6-0.8-0.9-1.3C700.7,756.3,700.6,755.8,700.6,755.2z M702.2,755.2c0,0.4,0.1,0.7,0.2,1.1c0.1,0.3,0.3,0.6,0.5,0.8
			s0.5,0.4,0.8,0.5c0.3,0.1,0.7,0.2,1,0.2s0.7-0.1,1-0.2c0.3-0.1,0.6-0.3,0.8-0.5c0.2-0.2,0.4-0.5,0.5-0.8c0.1-0.3,0.2-0.7,0.2-1.1
			s-0.1-0.7-0.2-1.1c-0.1-0.3-0.3-0.6-0.5-0.8c-0.2-0.2-0.5-0.4-0.8-0.5c-0.3-0.1-0.7-0.2-1-0.2s-0.7,0.1-1,0.2
			c-0.3,0.1-0.6,0.3-0.8,0.5s-0.4,0.5-0.5,0.8C702.2,754.5,702.2,754.9,702.2,755.2z"/>
		<path fill="#777777" d="M710.2,751.5h1.7l2.3,5.8l2.2-5.8h1.5l-3,7.6h-1.6L710.2,751.5z"/>
		<path fill="#777777" d="M719.7,759.1c-0.3,0-0.5-0.1-0.7-0.3c-0.2-0.2-0.3-0.5-0.3-0.7c0-0.3,0.1-0.5,0.3-0.7
			c0.2-0.2,0.5-0.3,0.7-0.3c0.3,0,0.5,0.1,0.7,0.3s0.3,0.5,0.3,0.7c0,0.3-0.1,0.5-0.3,0.7S720,759.1,719.7,759.1z"/>
		<path fill="#777777" d="M726.9,749.5l-2.1,1.9l-0.9-1.1l3.1-2.6h1.4V759h-1.5V749.5z"/>
		<path fill="#777777" d="M737.5,756.5h-4.8V755l4.5-7.3h1.9v7.5h1.6v1.3H739v2.5h-1.5V756.5z M737.5,749.5L737.5,749.5l-3.5,5.7
			h3.5V749.5z"/>
	</g>
	<g enable-background="new    ">
		<path fill="#777777" d="M688,747.7h2l6.2,9.3h0v-9.3h1.5V759h-2l-6.3-9.3h0v9.3H688V747.7z"/>
		<path fill="#777777" d="M700.6,755.2c0-0.6,0.1-1.1,0.3-1.6c0.2-0.5,0.5-0.9,0.9-1.3c0.4-0.4,0.8-0.6,1.3-0.9s1-0.3,1.6-0.3
			s1.1,0.1,1.6,0.3c0.5,0.2,0.9,0.5,1.3,0.9c0.4,0.4,0.6,0.8,0.9,1.3c0.2,0.5,0.3,1,0.3,1.6c0,0.6-0.1,1.1-0.3,1.6
			c-0.2,0.5-0.5,0.9-0.9,1.3c-0.4,0.4-0.8,0.6-1.3,0.8c-0.5,0.2-1,0.3-1.6,0.3s-1.1-0.1-1.6-0.3s-0.9-0.5-1.3-0.8
			c-0.4-0.4-0.6-0.8-0.9-1.3C700.7,756.3,700.6,755.8,700.6,755.2z M702.2,755.2c0,0.4,0.1,0.7,0.2,1.1c0.1,0.3,0.3,0.6,0.5,0.8
			s0.5,0.4,0.8,0.5c0.3,0.1,0.7,0.2,1,0.2s0.7-0.1,1-0.2c0.3-0.1,0.6-0.3,0.8-0.5c0.2-0.2,0.4-0.5,0.5-0.8c0.1-0.3,0.2-0.7,0.2-1.1
			s-0.1-0.7-0.2-1.1c-0.1-0.3-0.3-0.6-0.5-0.8c-0.2-0.2-0.5-0.4-0.8-0.5c-0.3-0.1-0.7-0.2-1-0.2s-0.7,0.1-1,0.2
			c-0.3,0.1-0.6,0.3-0.8,0.5s-0.4,0.5-0.5,0.8C702.2,754.5,702.2,754.9,702.2,755.2z"/>
		<path fill="#777777" d="M710.2,751.5h1.7l2.3,5.8l2.2-5.8h1.5l-3,7.6h-1.6L710.2,751.5z"/>
		<path fill="#777777" d="M719.7,759.1c-0.3,0-0.5-0.1-0.7-0.3c-0.2-0.2-0.3-0.5-0.3-0.7c0-0.3,0.1-0.5,0.3-0.7
			c0.2-0.2,0.5-0.3,0.7-0.3c0.3,0,0.5,0.1,0.7,0.3s0.3,0.5,0.3,0.7c0,0.3-0.1,0.5-0.3,0.7S720,759.1,719.7,759.1z"/>
		<path fill="#777777" d="M726.9,749.5l-2.1,1.9l-0.9-1.1l3.1-2.6h1.4V759h-1.5V749.5z"/>
		<path fill="#777777" d="M737.5,756.5h-4.8V755l4.5-7.3h1.9v7.5h1.6v1.3H739v2.5h-1.5V756.5z M737.5,749.5L737.5,749.5l-3.5,5.7
			h3.5V749.5z"/>
	</g>
</g>
<circle fill="none" stroke="#777777" stroke-width="4" stroke-miterlimit="10" cx="759.4" cy="153.6" r="12.6"/>
<line fill="none" stroke="#777777" stroke-width="4" stroke-miterlimit="10" x1="759.4" y1="166.1" x2="759.4" y2="755.3"/>
<circle fill="#FFFFFF" stroke="#777777" stroke-width="4" stroke-miterlimit="10" cx="759.4" cy="434.7" r="12.6"/>
<circle fill="#FFFFFF" stroke="#777777" stroke-width="4" stroke-miterlimit="10" cx="759.4" cy="573.8" r="12.6"/>
<circle fill="#FFFFFF" stroke="#777777" stroke-width="4" stroke-miterlimit="10" cx="759.4" cy="711.7" r="12.6"/>
<g enable-background="new    ">
	<path d="M783.5,151.7c-0.3,0.4-0.7,0.7-1.2,1.1c-0.2-0.2-0.5-0.5-0.7-0.6c1.4-1.1,2.5-2.6,3.1-3.7l1,0.2c-0.2,0.4-0.5,0.8-0.8,1.2
		h2.9c-0.2-0.4-0.4-0.8-0.6-1.2l0.9-0.3c0.3,0.5,0.6,1,0.8,1.5h3.9v0.8h-4.3v0.9h3.7v0.7h-3.7v0.9h3.8v0.7h-3.8v0.9h4.7v0.8h-8.8
		v0.4h-1V151.7z M786.3,158.3c-0.9,0.7-2.6,1.4-4,1.7c-0.1-0.2-0.4-0.6-0.6-0.8c1.4-0.3,3-0.8,3.8-1.4L786.3,158.3z M793.6,156.5
		v0.8h-5.4v3.2h-1v-3.2h-5.4v-0.8h5.4v-0.9h1v0.9H793.6z M787.6,150.6h-3.2v0.9h3.2V150.6z M787.6,152.2h-3.2v0.9h3.2V152.2z
		 M787.6,153.8h-3.2v0.9h3.2V153.8z M789.5,157.9c1.3,0.4,3,1,4,1.4L793,160c-0.9-0.4-2.7-1-4-1.5L789.5,157.9z"/>
	<path d="M800.1,152h-3.8v-0.8h3.8V152z M801.2,158.9c-1.1,0.6-2.7,1.3-4,1.6c-0.2-0.2-0.5-0.6-0.7-0.7c1.4-0.3,2.9-0.8,3.9-1.3
		L801.2,158.9z M799.8,149.9h-3.2v-0.8h3.2V149.9z M798.1,153.1h8.6v5.3h-8.6V153.1z M799,154.6h6.6v-0.9H799V154.6z M799,156.2h6.6
		v-0.9H799V156.2z M799,157.7h6.6v-0.9H799V157.7z M802.2,150.1c-0.3,0.5-0.6,1-1,1.3c-0.2-0.1-0.5-0.4-0.7-0.5
		c0.7-0.6,1.2-1.5,1.5-2.5l0.9,0.2c-0.1,0.3-0.2,0.5-0.3,0.7h4.4l0.2,0l0.7,0.2c-0.3,0.7-0.8,1.4-1.1,1.9l-0.8-0.3
		c0.2-0.3,0.4-0.7,0.6-1h-2.1v0.2c0,0.1,0,0.3,0,0.4c0.7,0.8,2.1,1.3,3.9,1.5c-0.2,0.2-0.4,0.5-0.6,0.8c-1.5-0.2-2.8-0.7-3.6-1.5
		c-0.4,0.6-1.5,1.3-3.8,1.6c-0.1-0.2-0.4-0.6-0.5-0.7c3.4-0.5,3.7-1.4,3.7-2.1v-0.1H802.2z M804.2,158.5c1.4,0.4,3,1,3.9,1.4
		l-0.9,0.6c-0.8-0.4-2.3-1-3.7-1.5L804.2,158.5z"/>
	<path d="M812.4,153.4v7.1h-1V149h4.8v4.4H812.4z M812.4,149.7v1.1h2.9v-1.1H812.4z M815.3,152.6v-1.1h-2.9v1.1H815.3z M818.6,157.3
		v3h-0.9v-3h-1.9c-0.1,0.9-0.5,2.3-1.8,3.1c-0.1-0.2-0.4-0.5-0.6-0.6c1.1-0.7,1.5-1.8,1.6-2.5h-1.7v-0.8h1.7V155h-1.4v-0.8h6.5v0.8
		h-1.5v1.4h1.8v0.8H818.6z M817.7,156.5V155h-1.9v1.4H817.7z M822.3,159.2c0,0.6-0.1,0.9-0.5,1.1c-0.4,0.2-1.1,0.2-2.1,0.2
		c0-0.3-0.2-0.7-0.3-1c0.7,0,1.4,0,1.6,0c0.2,0,0.3-0.1,0.3-0.3v-5.8h-3.9V149h4.9V159.2z M818.3,149.7v1.1h3v-1.1H818.3z
		 M821.3,152.6v-1.2h-3v1.2H821.3z"/>
	<path d="M829.9,149v4h-1.4v1.8h1.4v0.9h-1.4v2.4l1.6-0.4l0.1,0.8c-1.7,0.5-3.4,1-4.7,1.4l-0.3-0.9l0.7-0.2v-4.5h0.8v4.3l0.9-0.2
		V153h-1.7v-4H829.9z M829,149.8h-2.2v2.3h2.2V149.8z M835.7,159.5c0.7,0,0.8-0.3,0.9-1.6c0.2,0.1,0.6,0.3,0.8,0.4
		c-0.1,1.6-0.4,2.1-1.7,2.1h-3.1c-1.4,0-1.8-0.3-1.8-1.5v-6.3c-0.1,0.1-0.2,0.3-0.3,0.4c-0.1-0.2-0.5-0.5-0.7-0.7
		c0.8-0.9,1.5-2.3,1.9-3.8l0.9,0.2c-0.1,0.4-0.3,0.9-0.4,1.3h4.4v0.5c0,4.5,0,6-0.3,6.5c-0.2,0.3-0.5,0.4-0.8,0.4
		c-0.3,0-0.9,0-1.4,0c0-0.3-0.1-0.6-0.3-0.9c0.5,0,1,0.1,1.3,0.1c0.2,0,0.3,0,0.4-0.2c0.2-0.3,0.2-1.6,0.2-5.5h-3.8
		c-0.3,0.5-0.5,1-0.8,1.4h3.4v4h-2.8v2.6c0,0.6,0.2,0.7,1,0.7H835.7z M831.8,153v2.3h1.9V153H831.8z"/>
</g>
<g enable-background="new    ">
	<path fill="#134791" d="M781.2,430.6c-0.4,0.7-0.9,1.2-1.4,1.7c-0.1-0.2-0.5-0.5-0.7-0.6c0.8-0.7,1.5-1.8,2-2.9l0.9,0.2
		c-0.1,0.3-0.2,0.5-0.4,0.8h3.4v0.8h-2.5c0.4,0.4,0.9,0.9,1.2,1.2l-0.6,0.5c-0.3-0.4-0.8-0.9-1.3-1.4l0.5-0.4H781.2z M790.4,436.7
		c0,0,0,0.3,0,0.4c-0.2,1.8-0.4,2.6-0.7,3c-0.2,0.2-0.5,0.3-0.8,0.3c-0.3,0-1,0-1.7,0c0-0.3-0.1-0.7-0.3-0.9
		c0.6,0.1,1.3,0.1,1.5,0.1c0.2,0,0.4,0,0.5-0.1c0.2-0.2,0.3-0.7,0.5-1.9h-3.8v3.4h-1v-3c-1.2,1.3-2.9,2.5-4.5,3.1
		c-0.1-0.2-0.4-0.6-0.6-0.8c1.5-0.5,3.2-1.5,4.3-2.6h-3.5c0.2-0.8,0.4-2,0.5-2.9h3.8v-1.2h-4.3v-0.8h9.7v2.9h-4.4v1.2H790.4z
		 M781.6,435.4c-0.1,0.4-0.1,0.8-0.2,1.2h3.2v-1.2H781.6z M791.1,429.8v0.8h-2.8c0.5,0.4,1,0.8,1.3,1.2l-0.6,0.6
		c-0.3-0.3-0.9-0.9-1.4-1.3l0.6-0.5h-1.5c-0.3,0.5-0.6,0.9-1,1.2c-0.2-0.2-0.5-0.5-0.7-0.6c0.7-0.6,1.3-1.5,1.6-2.5l0.9,0.2
		c-0.1,0.3-0.2,0.6-0.3,0.8H791.1z M785.5,434.6h3.5v-1.2h-3.5V434.6z"/>
	<path fill="#134791" d="M805.5,438.5v1.1h-11.7v-1.1H805.5z M804.4,430.7v1h-9.4v-1H804.4z"/>
	<path fill="#134791" d="M812.4,437.3h-4.2v-1h4.2V437.3z M812,431.8h-3.5v-1h3.5V431.8z M816,433.6c0,0.2,0,0.4,0,0.6
		c0.6,2.8,1.9,4.9,4.3,5.7c-0.2,0.2-0.5,0.6-0.6,0.9c-2-0.8-3.2-2.4-4-4.5c-0.5,1.6-1.5,3.3-4.1,4.6c-0.2-0.2-0.5-0.6-0.7-0.8
		c3.8-1.9,4.1-4.7,4.1-6.6v-1h1V433.6z M813.8,432c-0.4,1.1-0.9,2-1.4,2.8c-0.2-0.2-0.7-0.4-1-0.6c1-1.3,1.7-3.4,2.1-5.4l1.1,0.2
		c-0.1,0.7-0.3,1.4-0.5,2.1h4.8l0.2-0.1l0.7,0.4c-0.3,1.3-0.9,2.7-1.4,3.6c-0.2-0.1-0.6-0.3-0.8-0.4c0.3-0.6,0.7-1.6,1-2.5H813.8z"
		/>
	<path fill="#134791" d="M826.8,433.8c0.4,0.9,0.7,2,0.9,2.7l-0.8,0.3c0-0.2-0.1-0.5-0.2-0.8c-3,0.4-3.4,0.5-3.7,0.7
		c0-0.2-0.2-0.7-0.3-0.9c0.3-0.1,0.6-0.4,1-0.9c0.2-0.2,0.6-0.8,1.2-1.5c-1.4,0.2-1.7,0.2-1.9,0.3c-0.1-0.2-0.2-0.6-0.3-0.9
		c0.2-0.1,0.5-0.3,0.8-0.7c0.3-0.4,1.2-1.9,1.8-3.4l0.9,0.4c-0.6,1.2-1.4,2.5-2.1,3.5l1.4-0.1c0.4-0.5,0.7-1.1,1-1.7l0.8,0.5
		c-0.9,1.5-1.9,3-3,4.2l2.2-0.3c-0.1-0.4-0.3-0.9-0.4-1.2L826.8,433.8z M824.1,437.4c-0.2,1.2-0.4,2.5-0.7,3.3
		c-0.2-0.1-0.6-0.2-0.8-0.3c0.3-0.8,0.5-2,0.6-3.2L824.1,437.4z M825.5,437.2c0.2,1,0.3,2.2,0.4,3l-0.8,0.2c0-0.8-0.2-2.1-0.3-3
		L825.5,437.2z M826.8,436.9c0.3,0.8,0.6,1.9,0.8,2.6l-0.7,0.3c-0.1-0.7-0.5-1.8-0.7-2.6L826.8,436.9z M831.5,431.5v2.1h2.7v0.9
		h-6.2v-0.9h2.5v-2.1h-2.9v-0.9h2.9v-1.8h1v1.8h3.1v0.9H831.5z M828.3,435.9h5.6v5h-1v-0.5h-3.7v0.6h-0.9V435.9z M829.2,436.8v2.7
		h3.7v-2.7H829.2z"/>
	<path fill="#134791" d="M839.4,430.5c-0.5,0.7-1,1.4-1.5,1.9c-0.1-0.2-0.4-0.6-0.6-0.8c0.8-0.7,1.6-1.7,2.1-2.8l0.9,0.3
		c-0.1,0.2-0.2,0.5-0.4,0.7h3.6v0.8H839.4z M849.2,430.5H847c0.3,0.3,0.6,0.7,0.8,1l-0.7,0.3h0.7v4.9h-1.6v1.1h3v0.8h-3v2.2h-1v-2.2
		h-3.5c-0.3,0.8-1.1,1.7-3,2.3c-0.1-0.2-0.4-0.5-0.6-0.7c1.5-0.4,2.2-1,2.6-1.6h-3.1v-0.8h3.4c0-0.1,0-0.2,0-0.3v-0.9H839v-4.9h2
		c-0.1-0.3-0.3-0.7-0.6-1l0.8-0.3c0.2,0.3,0.5,0.7,0.6,1l-0.8,0.3h2.7c-0.2-0.1-0.6-0.3-0.8-0.5c0.8-0.6,1.5-1.6,1.8-2.6l0.9,0.2
		c-0.1,0.3-0.2,0.5-0.3,0.8h3.8V430.5z M846.7,432.5H840v0.8h6.8V432.5z M846.7,433.9H840v0.8h6.8V433.9z M846.7,435.3H840v0.8h6.8
		V435.3z M845.1,436.7h-3.4v0.9c0,0.1,0,0.2,0,0.3h3.4V436.7z M847,431.8c-0.2-0.3-0.5-0.7-0.8-1l0.6-0.3H845
		c-0.3,0.5-0.7,1-1.1,1.3H847z"/>
</g>
<g>
	<g enable-background="new    ">
		<path fill="#0098FF" d="M867.1,610.6c-0.4,1.1-0.9,2.4-1.3,3.5c1,1.1,1.2,2,1.2,2.8c0,0.7-0.2,1.3-0.5,1.5
			c-0.2,0.1-0.4,0.2-0.7,0.2c-0.3,0-0.6,0-0.9,0c0-0.3-0.1-0.6-0.3-0.9c0.3,0,0.5,0,0.8,0c0.2,0,0.3,0,0.4-0.1
			c0.2-0.1,0.3-0.5,0.3-0.9c0-0.7-0.3-1.6-1.2-2.6c0.4-1,0.8-2.2,1.1-3h-1.7v10.6h-0.9v-11.5h3l0.2,0L867.1,610.6z M874.8,620.5v0.9
			h-8.4v-0.9h3.8v-1.8h-2.7v-0.9h2.7v-1.4h1v1.4h2.9v0.9h-2.9v1.8H874.8z M870.2,611.9h-2.6v-0.8h2.6v-1.4h1v1.4h2.7v0.8h-2.7v1.5
			h3.5v0.9h-2.4v1.1c0,0.3,0,0.4,0.3,0.4h1.3c0.2,0,0.6,0,0.7-0.1c0,0.2,0.1,0.5,0.1,0.7c-0.1,0-0.5,0.1-0.8,0.1h-1.4
			c-0.8,0-1-0.3-1-1.2v-1.1h-1.5c-0.2,1.5-0.7,2.3-2.4,2.8c-0.1-0.2-0.3-0.6-0.5-0.7c1.4-0.4,1.9-1,2-2.1h-2v-0.9h3.3V611.9z"/>
		<path fill="#0098FF" d="M878.6,618.2c-0.2,1.2-0.4,2.6-0.7,3.4c-0.2-0.1-0.6-0.2-0.8-0.3c0.3-0.9,0.5-2.1,0.7-3.3L878.6,618.2z
			 M880.9,617.7c0-0.2-0.1-0.5-0.1-0.8c-2.6,0.4-3,0.5-3.2,0.6c0-0.2-0.2-0.6-0.3-0.9c0.3-0.1,0.5-0.4,0.9-0.9
			c0.2-0.2,0.6-0.8,1.1-1.5c-1.3,0.2-1.6,0.2-1.8,0.3c-0.1-0.2-0.2-0.6-0.3-0.8c0.2-0.1,0.4-0.3,0.7-0.7c0.3-0.4,1.1-1.9,1.6-3.4
			l0.8,0.4c-0.5,1.2-1.2,2.5-1.9,3.5l1.3-0.1c0.3-0.6,0.6-1.2,0.9-1.8l0.8,0.5c-0.8,1.5-1.8,3.1-2.8,4.3l1.9-0.2
			c-0.1-0.5-0.2-0.9-0.4-1.3l0.7-0.2c0.3,0.9,0.6,2.1,0.7,2.8L880.9,617.7z M879.7,618.1c0.2,1,0.3,2.2,0.4,3l-0.8,0.1
			c0-0.8-0.2-2.1-0.3-3.1L879.7,618.1z M880.9,617.7c0.3,0.8,0.6,1.8,0.7,2.5l-0.7,0.2c-0.1-0.7-0.4-1.7-0.7-2.5L880.9,617.7z
			 M886.5,619.9c1,0.4,2,0.8,2.7,1.1l-0.4,0.7c-0.7-0.3-1.8-0.9-2.8-1.3l0.3-0.6h-2.3l0.7,0.6c-1,0.5-2.3,1-3.2,1.3
			c-0.1-0.2-0.3-0.5-0.4-0.7c0.9-0.3,2.1-0.8,2.8-1.2H882V616h6.5v3.9H886.5z M884.9,611.1h-3.4v-0.7h3.4v-0.7h1v0.7h3.2v0.7h-3.2
			v0.7h2.7v0.7h-6.5v-0.7h2.8V611.1z M881.6,613h7.4v2.4h-7.4V613z M882.4,614.7h1.5v-1.1h-1.5V614.7z M882.9,617.1h4.7v-0.6h-4.7
			V617.1z M882.9,618.2h4.7v-0.6h-4.7V618.2z M882.9,619.3h4.7v-0.6h-4.7V619.3z M886.1,614.7v-1.1h-1.4v1.1H886.1z M888.1,613.6
			h-1.3v1.1h1.3V613.6z"/>
		<path fill="#0098FF" d="M903,616.2v5.5h-1.1V621h-9.3v-4.7h1.1v3.8h3.6v-4.6h-4.1v-4.5h1v3.6h3v-4.8h1.1v4.8h3.1v-3.6h1.1v4.5
			h-4.2v4.6h3.6v-3.8H903z"/>
		<path fill="#0098FF" d="M908.7,612c-0.6,0.4-1.1,0.7-1.7,1c-0.2-0.2-0.5-0.5-0.7-0.7c1.4-0.6,3-1.6,3.9-2.7l0.9,0.3
			c-0.4,0.5-0.9,0.9-1.4,1.4v2.7h-1V612z M911.2,620.2c-1.1,0.6-2.7,1.2-4.1,1.6c-0.2-0.2-0.5-0.6-0.7-0.7c1.4-0.3,2.9-0.8,3.9-1.3
			L911.2,620.2z M908.1,614.3h8.6v5.3h-8.6V614.3z M909.1,615.9h6.6V615h-6.6V615.9z M909.1,617.4h6.6v-0.9h-6.6V617.4z M909.1,619
			h6.6v-0.9h-6.6V619z M913.7,613.8c-1.2,0-1.5-0.4-1.5-1.4v-2.7h1v1.1h4.3v0.8h-4.3v0.8c0,0.4,0.1,0.6,0.6,0.6h2.9
			c0.4,0,1,0,1.3-0.1c0,0.3,0.1,0.6,0.1,0.8c-0.3,0.1-0.8,0.1-1.4,0.1H913.7z M914.2,619.7c1.4,0.4,3,1,3.9,1.4l-0.9,0.6
			c-0.8-0.4-2.3-1-3.7-1.5L914.2,619.7z"/>
	</g>
	<g enable-background="new    ">
		<path fill="#157FFF" d="M867.1,610.6c-0.4,1.1-0.9,2.4-1.3,3.5c1,1.1,1.2,2,1.2,2.8c0,0.7-0.2,1.3-0.5,1.5
			c-0.2,0.1-0.4,0.2-0.7,0.2c-0.3,0-0.6,0-0.9,0c0-0.3-0.1-0.6-0.3-0.9c0.3,0,0.5,0,0.8,0c0.2,0,0.3,0,0.4-0.1
			c0.2-0.1,0.3-0.5,0.3-0.9c0-0.7-0.3-1.6-1.2-2.6c0.4-1,0.8-2.2,1.1-3h-1.7v10.6h-0.9v-11.5h3l0.2,0L867.1,610.6z M874.8,620.5v0.9
			h-8.4v-0.9h3.8v-1.8h-2.7v-0.9h2.7v-1.4h1v1.4h2.9v0.9h-2.9v1.8H874.8z M870.2,611.9h-2.6v-0.8h2.6v-1.4h1v1.4h2.7v0.8h-2.7v1.5
			h3.5v0.9h-2.4v1.1c0,0.3,0,0.4,0.3,0.4h1.3c0.2,0,0.6,0,0.7-0.1c0,0.2,0.1,0.5,0.1,0.7c-0.1,0-0.5,0.1-0.8,0.1h-1.4
			c-0.8,0-1-0.3-1-1.2v-1.1h-1.5c-0.2,1.5-0.7,2.3-2.4,2.8c-0.1-0.2-0.3-0.6-0.5-0.7c1.4-0.4,1.9-1,2-2.1h-2v-0.9h3.3V611.9z"/>
		<path fill="#157FFF" d="M878.6,618.2c-0.2,1.2-0.4,2.6-0.7,3.4c-0.2-0.1-0.6-0.2-0.8-0.3c0.3-0.9,0.5-2.1,0.7-3.3L878.6,618.2z
			 M880.9,617.7c0-0.2-0.1-0.5-0.1-0.8c-2.6,0.4-3,0.5-3.2,0.6c0-0.2-0.2-0.6-0.3-0.9c0.3-0.1,0.5-0.4,0.9-0.9
			c0.2-0.2,0.6-0.8,1.1-1.5c-1.3,0.2-1.6,0.2-1.8,0.3c-0.1-0.2-0.2-0.6-0.3-0.8c0.2-0.1,0.4-0.3,0.7-0.7c0.3-0.4,1.1-1.9,1.6-3.4
			l0.8,0.4c-0.5,1.2-1.2,2.5-1.9,3.5l1.3-0.1c0.3-0.6,0.6-1.2,0.9-1.8l0.8,0.5c-0.8,1.5-1.8,3.1-2.8,4.3l1.9-0.2
			c-0.1-0.5-0.2-0.9-0.4-1.3l0.7-0.2c0.3,0.9,0.6,2.1,0.7,2.8L880.9,617.7z M879.7,618.1c0.2,1,0.3,2.2,0.4,3l-0.8,0.1
			c0-0.8-0.2-2.1-0.3-3.1L879.7,618.1z M880.9,617.7c0.3,0.8,0.6,1.8,0.7,2.5l-0.7,0.2c-0.1-0.7-0.4-1.7-0.7-2.5L880.9,617.7z
			 M886.5,619.9c1,0.4,2,0.8,2.7,1.1l-0.4,0.7c-0.7-0.3-1.8-0.9-2.8-1.3l0.3-0.6h-2.3l0.7,0.6c-1,0.5-2.3,1-3.2,1.3
			c-0.1-0.2-0.3-0.5-0.4-0.7c0.9-0.3,2.1-0.8,2.8-1.2H882V616h6.5v3.9H886.5z M884.9,611.1h-3.4v-0.7h3.4v-0.7h1v0.7h3.2v0.7h-3.2
			v0.7h2.7v0.7h-6.5v-0.7h2.8V611.1z M881.6,613h7.4v2.4h-7.4V613z M882.4,614.7h1.5v-1.1h-1.5V614.7z M882.9,617.1h4.7v-0.6h-4.7
			V617.1z M882.9,618.2h4.7v-0.6h-4.7V618.2z M882.9,619.3h4.7v-0.6h-4.7V619.3z M886.1,614.7v-1.1h-1.4v1.1H886.1z M888.1,613.6
			h-1.3v1.1h1.3V613.6z"/>
		<path fill="#157FFF" d="M903,616.2v5.5h-1.1V621h-9.3v-4.7h1.1v3.8h3.6v-4.6h-4.1v-4.5h1v3.6h3v-4.8h1.1v4.8h3.1v-3.6h1.1v4.5
			h-4.2v4.6h3.6v-3.8H903z"/>
		<path fill="#157FFF" d="M908.7,612c-0.6,0.4-1.1,0.7-1.7,1c-0.2-0.2-0.5-0.5-0.7-0.7c1.4-0.6,3-1.6,3.9-2.7l0.9,0.3
			c-0.4,0.5-0.9,0.9-1.4,1.4v2.7h-1V612z M911.2,620.2c-1.1,0.6-2.7,1.2-4.1,1.6c-0.2-0.2-0.5-0.6-0.7-0.7c1.4-0.3,2.9-0.8,3.9-1.3
			L911.2,620.2z M908.1,614.3h8.6v5.3h-8.6V614.3z M909.1,615.9h6.6V615h-6.6V615.9z M909.1,617.4h6.6v-0.9h-6.6V617.4z M909.1,619
			h6.6v-0.9h-6.6V619z M913.7,613.8c-1.2,0-1.5-0.4-1.5-1.4v-2.7h1v1.1h4.3v0.8h-4.3v0.8c0,0.4,0.1,0.6,0.6,0.6h2.9
			c0.4,0,1,0,1.3-0.1c0,0.3,0.1,0.6,0.1,0.8c-0.3,0.1-0.8,0.1-1.4,0.1H913.7z M914.2,619.7c1.4,0.4,3,1,3.9,1.4l-0.9,0.6
			c-0.8-0.4-2.3-1-3.7-1.5L914.2,619.7z"/>
	</g>
</g>
<g enable-background="new    ">
	<path fill="#134791" d="M865.3,748.9c-0.4,1.1-0.9,2.4-1.3,3.5c1,1.1,1.2,2,1.2,2.8c0,0.7-0.2,1.3-0.5,1.5
		c-0.2,0.1-0.4,0.2-0.7,0.2c-0.3,0-0.6,0-0.9,0c0-0.3-0.1-0.6-0.3-0.9c0.3,0,0.5,0,0.8,0c0.2,0,0.3,0,0.4-0.1
		c0.2-0.1,0.3-0.5,0.3-0.9c0-0.7-0.3-1.6-1.2-2.6c0.4-1,0.8-2.2,1.1-3h-1.7V760h-0.9v-11.5h3l0.2,0L865.3,748.9z M872.9,758.8v0.9
		h-8.4v-0.9h3.8V757h-2.7v-0.9h2.7v-1.4h1v1.4h2.9v0.9h-2.9v1.8H872.9z M868.4,750.2h-2.6v-0.8h2.6V748h1v1.4h2.7v0.8h-2.7v1.5h3.5
		v0.9h-2.4v1.1c0,0.3,0,0.4,0.3,0.4h1.3c0.2,0,0.6,0,0.7-0.1c0,0.2,0.1,0.5,0.1,0.7c-0.1,0-0.5,0.1-0.8,0.1h-1.4c-0.8,0-1-0.3-1-1.2
		v-1.1H868c-0.2,1.5-0.7,2.3-2.4,2.8c-0.1-0.2-0.3-0.6-0.5-0.7c1.4-0.4,1.9-1,2-2.1h-2v-0.9h3.3V750.2z"/>
	<path fill="#134791" d="M876.8,756.5c-0.2,1.2-0.4,2.6-0.7,3.4c-0.2-0.1-0.6-0.2-0.8-0.3c0.3-0.9,0.5-2.1,0.7-3.3L876.8,756.5z
		 M879.1,756c0-0.2-0.1-0.5-0.1-0.8c-2.6,0.4-3,0.5-3.2,0.6c0-0.2-0.2-0.6-0.3-0.9c0.3-0.1,0.5-0.4,0.9-0.9c0.2-0.2,0.6-0.8,1.1-1.5
		c-1.3,0.2-1.6,0.2-1.8,0.3c-0.1-0.2-0.2-0.6-0.3-0.8c0.2-0.1,0.4-0.3,0.7-0.7c0.3-0.4,1.1-1.9,1.6-3.4l0.8,0.4
		c-0.5,1.2-1.2,2.5-1.9,3.5l1.3-0.1c0.3-0.6,0.6-1.2,0.9-1.8l0.8,0.5c-0.8,1.5-1.8,3.1-2.8,4.3l1.9-0.2c-0.1-0.5-0.2-0.9-0.4-1.3
		l0.7-0.2c0.3,0.9,0.6,2.1,0.7,2.8L879.1,756z M877.9,756.3c0.2,1,0.3,2.2,0.4,3l-0.8,0.1c0-0.8-0.2-2.1-0.3-3.1L877.9,756.3z
		 M879,756c0.3,0.8,0.6,1.8,0.7,2.5l-0.7,0.2c-0.1-0.7-0.4-1.7-0.7-2.5L879,756z M884.7,758.2c1,0.4,2,0.8,2.7,1.1L887,760
		c-0.7-0.3-1.8-0.9-2.8-1.3l0.3-0.6h-2.3l0.7,0.6c-1,0.5-2.3,1-3.2,1.3c-0.1-0.2-0.3-0.5-0.4-0.7c0.9-0.3,2.1-0.8,2.8-1.2h-2.1v-3.9
		h6.5v3.9H884.7z M883.1,749.3h-3.4v-0.7h3.4v-0.7h1v0.7h3.2v0.7H884v0.7h2.7v0.7h-6.5v-0.7h2.8V749.3z M879.8,751.3h7.4v2.4h-7.4
		V751.3z M880.6,753h1.5v-1.1h-1.5V753z M881.1,755.4h4.7v-0.6h-4.7V755.4z M881.1,756.5h4.7v-0.6h-4.7V756.5z M881.1,757.6h4.7
		v-0.6h-4.7V757.6z M884.3,753v-1.1h-1.4v1.1H884.3z M886.3,751.9H885v1.1h1.3V751.9z"/>
	<path fill="#134791" d="M901.2,754.5v5.5h-1.1v-0.8h-9.3v-4.7h1.1v3.8h3.6v-4.6h-4.1v-4.5h1v3.6h3v-4.8h1.1v4.8h3.1v-3.6h1.1v4.5
		h-4.2v4.6h3.6v-3.8H901.2z"/>
	<path fill="#134791" d="M906.9,750.3c-0.6,0.4-1.1,0.7-1.7,1c-0.2-0.2-0.5-0.5-0.7-0.7c1.4-0.6,3-1.6,3.9-2.7l0.9,0.3
		c-0.4,0.5-0.9,0.9-1.4,1.4v2.7h-1V750.3z M909.4,758.5c-1.1,0.6-2.7,1.2-4.1,1.6c-0.2-0.2-0.5-0.6-0.7-0.7c1.4-0.3,2.9-0.8,3.9-1.3
		L909.4,758.5z M906.3,752.6h8.6v5.3h-8.6V752.6z M907.3,754.2h6.6v-0.9h-6.6V754.2z M907.3,755.7h6.6v-0.9h-6.6V755.7z
		 M907.3,757.3h6.6v-0.9h-6.6V757.3z M911.9,752c-1.2,0-1.5-0.4-1.5-1.4V748h1v1.1h4.3v0.8h-4.3v0.8c0,0.4,0.1,0.6,0.6,0.6h2.9
		c0.4,0,1,0,1.3-0.1c0,0.3,0.1,0.6,0.1,0.8c-0.3,0.1-0.8,0.1-1.4,0.1H911.9z M912.4,758c1.4,0.4,3,1,3.9,1.4l-0.9,0.6
		c-0.8-0.4-2.3-1-3.7-1.5L912.4,758z"/>
</g>
<g>
	<g enable-background="new    ">
		<path fill="#0098FF" d="M783,566.9c-0.4,0.7-0.9,1.2-1.4,1.7c-0.1-0.2-0.5-0.5-0.7-0.6c0.8-0.7,1.5-1.8,2-2.9l0.9,0.2
			c-0.1,0.3-0.2,0.5-0.4,0.8h3.4v0.8h-2.5c0.4,0.4,0.9,0.9,1.2,1.2l-0.6,0.5c-0.3-0.4-0.8-0.9-1.3-1.4l0.5-0.4H783z M792.2,573
			c0,0,0,0.3,0,0.4c-0.2,1.8-0.4,2.6-0.7,3c-0.2,0.2-0.5,0.3-0.8,0.3c-0.3,0-1,0-1.7,0c0-0.3-0.1-0.7-0.3-0.9
			c0.6,0.1,1.3,0.1,1.5,0.1c0.2,0,0.4,0,0.5-0.1c0.2-0.2,0.3-0.7,0.5-1.9h-3.8v3.4h-1v-3c-1.2,1.3-2.9,2.5-4.5,3.1
			c-0.1-0.2-0.4-0.6-0.6-0.8c1.5-0.5,3.2-1.5,4.3-2.6h-3.5c0.2-0.8,0.4-2,0.5-2.9h3.8v-1.2h-4.3v-0.8h9.7v2.9h-4.4v1.2H792.2z
			 M783.4,571.8c-0.1,0.4-0.1,0.8-0.2,1.2h3.2v-1.2H783.4z M792.9,566.1v0.8h-2.8c0.5,0.4,1,0.8,1.3,1.2l-0.6,0.6
			c-0.3-0.3-0.9-0.9-1.4-1.3l0.6-0.5h-1.5c-0.3,0.5-0.6,0.9-1,1.2c-0.2-0.2-0.5-0.5-0.7-0.6c0.7-0.6,1.3-1.5,1.6-2.5l0.9,0.2
			c-0.1,0.3-0.2,0.6-0.3,0.8H792.9z M787.4,570.9h3.5v-1.2h-3.5V570.9z"/>
		<path fill="#0098FF" d="M807.5,570.6v1.1h-12v-1.1H807.5z"/>
		<path fill="#0098FF" d="M814.5,571.8l-1.7,0.5v3.7c0,0.6-0.1,0.8-0.5,1c-0.3,0.2-0.9,0.2-1.8,0.2c0-0.3-0.2-0.6-0.3-0.9
			c0.6,0,1.2,0,1.4,0c0.2,0,0.3-0.1,0.3-0.3v-3.4l-1.7,0.5l-0.3-1c0.6-0.1,1.2-0.3,2-0.5v-2.9h-1.8v-0.9h1.8v-2.6h1v2.6h1.5v0.9
			h-1.5v2.6l1.5-0.4L814.5,571.8z M818,574.6c0,0.3,0.1,0.7,0.1,0.9c-2.5,1.1-2.8,1.3-3,1.5c-0.1-0.3-0.3-0.7-0.4-0.9
			c0.2-0.1,0.3-0.3,0.3-0.8v-9.9h0.9v4h1.9v0.9H816v5.1L818,574.6z M820.9,576c0.3,0,0.3-0.3,0.4-1.6c0.2,0.2,0.6,0.3,0.8,0.4
			c-0.1,1.5-0.3,2.1-1.2,2.1h-1.4c-0.9,0-1.2-0.3-1.2-1.5v-10h0.9v4.1h2.1v0.9h-2.1v5c0,0.5,0.1,0.6,0.4,0.6H820.9z"/>
		<path fill="#0098FF" d="M828.6,571.8l-1.4,0.5v3.7c0,0.5-0.1,0.8-0.5,1c-0.3,0.2-0.8,0.2-1.7,0.2c0-0.2-0.2-0.6-0.3-0.9
			c0.6,0,1.1,0,1.2,0c0.2,0,0.2-0.1,0.2-0.3v-3.4c-0.6,0.2-1.1,0.3-1.6,0.5l-0.3-0.9c0.5-0.1,1.1-0.3,1.8-0.5v-2.9h-1.6v-0.9h1.6
			v-2.6h0.9v2.6h1.4v0.9h-1.4v2.6l1.3-0.4L828.6,571.8z M833.8,570.8c0.3,3,0.9,5.2,1.6,5.2c0.2,0,0.4-0.7,0.5-1.9
			c0.2,0.2,0.5,0.4,0.7,0.5c-0.3,2-0.7,2.5-1.2,2.5c-1.4,0-2.2-2.6-2.5-6.3h-2.6v3.8l2-0.7c0,0.2,0.1,0.6,0.1,0.8
			c-2.6,1-3,1.2-3.2,1.4c-0.1-0.2-0.2-0.6-0.4-0.8c0.2-0.1,0.6-0.3,0.6-0.8v-7.8h0l0,0c2-0.3,4.4-0.8,5.7-1.4l0.8,0.7
			c-0.7,0.2-1.4,0.5-2.3,0.7c0,1.1,0.1,2.2,0.2,3.2h2.7v0.9H833.8z M830.3,576.1h3.4v0.8h-3.4V576.1z M832.9,569.9
			c-0.1-0.9-0.1-2-0.2-3c-0.8,0.2-1.5,0.3-2.3,0.4v2.6H832.9z"/>
		<path fill="#0098FF" d="M842.3,571.5c-0.3,1.2-0.6,2.4-1.1,3.4c0.3,0.1,0.6,0.4,1.1,0.7c0.9,0.6,2.1,0.7,3.7,0.7
			c1.7,0,3.8-0.1,5.3-0.3c-0.1,0.3-0.3,0.7-0.3,1c-1,0.1-3.5,0.1-5.1,0.1c-1.7,0-2.9-0.1-3.9-0.7c-0.5-0.3-1-0.8-1.3-0.8
			c-0.3,0-0.7,0.8-1.1,1.7l-0.7-0.9c0.5-0.7,0.9-1.2,1.3-1.5c0.4-0.8,0.7-1.8,1-2.8h-1.7c0.4-0.8,0.8-1.9,1.2-3h-1.5v-0.9h2.7
			c-0.3,1-0.7,2.1-1.1,3h0.9l0.2,0L842.3,571.5z M840.5,567.7c-0.2-0.6-0.5-1.5-0.7-2.2l0.9-0.3c0.2,0.7,0.5,1.6,0.7,2.1
			L840.5,567.7z M844.7,568.7h-2.2v-0.8h3.7v-1h-2.9v-0.7h2.9v-1h1v1h2.9v0.7h-2.9v1h3.8v0.8h-2.3l0.6,0.2c-0.3,0.5-0.5,0.9-0.7,1.3
			h2.3v0.8h-3.6v0.9h3.1v0.7h-3.1v1h3.7v0.8h-3.7v1.3h-1v-1.3h-3.6v-0.8h3.6v-1h-3v-0.7h3v-0.9h-3.4v-0.8h1.9
			c-0.1-0.4-0.3-0.9-0.6-1.3L844.7,568.7z M847.7,570c0.2-0.4,0.5-0.9,0.6-1.3H845c0.3,0.4,0.5,0.9,0.6,1.3l-0.5,0.1h3L847.7,570z"
			/>
		<path fill="#0098FF" d="M861.7,566.7c1.3,1.1,2.8,2.7,3.5,3.8l-0.8,0.6c-0.2-0.3-0.5-0.7-0.8-1.1c-7.6,0.4-8.3,0.5-8.8,0.6
			c0-0.2-0.2-0.7-0.3-1c0.3-0.1,0.6-0.3,1.1-0.8c0.5-0.4,2-2.1,3-3.7l1,0.4c-1,1.4-2.2,2.8-3.4,3.9l6.8-0.3
			c-0.6-0.7-1.3-1.4-1.9-1.9L861.7,566.7z M855.4,571.7h8.4v5.5h-1v-0.7h-6.4v0.7h-1V571.7z M856.4,572.7v2.9h6.4v-2.9H856.4z"/>
		<path fill="#0098FF" d="M870,570.9c-0.4-0.4-1.2-1-1.9-1.4l0.6-0.7c0.7,0.3,1.5,0.9,1.9,1.3L870,570.9z M868.3,576.6
			c0.5-1,1.2-2.7,1.7-4.2l0.8,0.5c-0.4,1.4-1,3-1.5,4.2L868.3,576.6z M870.2,567.5c-0.4-0.4-1.2-1.1-1.8-1.5l0.6-0.6
			c0.7,0.4,1.5,1,1.9,1.4L870.2,567.5z M871.7,570.1c-0.1,0.6-0.3,1.4-0.6,1.8c-0.1-0.1-0.4-0.3-0.5-0.3c0.3-0.5,0.4-1.1,0.5-1.6
			L871.7,570.1z M873.4,569.5c0-0.1-0.1-0.3-0.2-0.4c-1.8,0.3-2.1,0.3-2.3,0.4c0-0.1-0.1-0.4-0.2-0.5c0.2,0,0.4-0.2,0.6-0.5
			c0.1-0.1,0.5-0.5,0.8-1c-0.9,0.1-1.1,0.1-1.2,0.2c0-0.1-0.1-0.4-0.2-0.5c0.1,0,0.3-0.1,0.4-0.3c0.1-0.2,0.6-0.9,0.8-1.6l0.6,0.2
			c-0.2,0.6-0.6,1.1-0.9,1.5l0.9-0.1c0.1-0.2,0.3-0.4,0.4-0.6l0.6,0.3c-0.5,0.8-1,1.5-1.6,2.1l1.2-0.1c-0.1-0.2-0.2-0.3-0.3-0.4
			l0.5-0.2c0.3,0.4,0.5,1,0.6,1.3L873.4,569.5z M879.6,574.6c0,0,0,0.3-0.1,0.4c-0.3,1.1-0.5,1.7-0.9,2c-0.3,0.2-0.6,0.3-1,0.3
			c-0.4,0-1.2,0-2-0.1c0-0.2-0.1-0.5-0.3-0.8c0.8,0.1,1.7,0.1,2,0.1c0.3,0,0.4,0,0.6-0.1c0.2-0.1,0.4-0.5,0.6-1.1h-7
			c0.2-0.6,0.4-1.3,0.6-2h6v-0.7h-6.5V572h7.4v2h-6.1c-0.1,0.2-0.1,0.5-0.2,0.7H879.6z M872.2,571.7c0-0.4-0.1-1.1-0.3-1.6l0.5-0.1
			c0.2,0.5,0.3,1.2,0.3,1.6L872.2,571.7z M873.4,569.7c0.2,0.5,0.4,1.1,0.5,1.4l-0.5,0.2c-0.1-0.4-0.3-1-0.5-1.5L873.4,569.7z
			 M876.9,567.1h-3.2v-0.6h1.4c-0.1-0.3-0.3-0.7-0.5-1l0.7-0.2c0.2,0.3,0.5,0.8,0.6,1l-0.6,0.2h1.6V567.1z M874.1,569.6h2.5v1.9
			h-2.5V569.6z M876.6,568.1h-2.4v-0.6h2.4V568.1z M874.2,568.5h2.4v0.5h-2.4V568.5z M874.8,571h1.2v-0.9h-1.2V571z M877.8,570
			c-0.1,0.6-0.3,1.3-0.6,1.8c-0.1-0.1-0.4-0.3-0.5-0.3c0.3-0.5,0.4-1,0.5-1.6L877.8,570z M879.6,569.6c0-0.1-0.1-0.3-0.2-0.5
			c-1.8,0.3-2.1,0.3-2.3,0.4c0-0.1-0.1-0.4-0.2-0.5c0.2,0,0.4-0.2,0.6-0.4c0.1-0.1,0.5-0.5,0.8-1c-0.9,0.1-1.1,0.1-1.2,0.2
			c0-0.1-0.1-0.4-0.2-0.5c0.2,0,0.3-0.1,0.4-0.3c0.1-0.2,0.6-0.9,0.8-1.6l0.6,0.2c-0.2,0.5-0.6,1.1-0.9,1.5l0.9-0.1
			c0.1-0.2,0.3-0.4,0.4-0.6l0.6,0.3c-0.5,0.7-1,1.5-1.6,2.1l1.2-0.1c-0.1-0.2-0.2-0.3-0.2-0.4l0.5-0.2c0.3,0.4,0.6,1,0.7,1.4
			L879.6,569.6z M878.4,571.8c0-0.5-0.1-1.2-0.3-1.8l0.5-0.1c0.2,0.6,0.3,1.3,0.3,1.7L878.4,571.8z M879.5,569.6
			c0.3,0.5,0.5,1.2,0.6,1.7l-0.5,0.2c-0.1-0.5-0.3-1.2-0.5-1.7L879.5,569.6z"/>
	</g>
	<g enable-background="new    ">
		<path fill="#157FFF" d="M783,566.9c-0.4,0.7-0.9,1.2-1.4,1.7c-0.1-0.2-0.5-0.5-0.7-0.6c0.8-0.7,1.5-1.8,2-2.9l0.9,0.2
			c-0.1,0.3-0.2,0.5-0.4,0.8h3.4v0.8h-2.5c0.4,0.4,0.9,0.9,1.2,1.2l-0.6,0.5c-0.3-0.4-0.8-0.9-1.3-1.4l0.5-0.4H783z M792.2,573
			c0,0,0,0.3,0,0.4c-0.2,1.8-0.4,2.6-0.7,3c-0.2,0.2-0.5,0.3-0.8,0.3c-0.3,0-1,0-1.7,0c0-0.3-0.1-0.7-0.3-0.9
			c0.6,0.1,1.3,0.1,1.5,0.1c0.2,0,0.4,0,0.5-0.1c0.2-0.2,0.3-0.7,0.5-1.9h-3.8v3.4h-1v-3c-1.2,1.3-2.9,2.5-4.5,3.1
			c-0.1-0.2-0.4-0.6-0.6-0.8c1.5-0.5,3.2-1.5,4.3-2.6h-3.5c0.2-0.8,0.4-2,0.5-2.9h3.8v-1.2h-4.3v-0.8h9.7v2.9h-4.4v1.2H792.2z
			 M783.4,571.8c-0.1,0.4-0.1,0.8-0.2,1.2h3.2v-1.2H783.4z M792.9,566.1v0.8h-2.8c0.5,0.4,1,0.8,1.3,1.2l-0.6,0.6
			c-0.3-0.3-0.9-0.9-1.4-1.3l0.6-0.5h-1.5c-0.3,0.5-0.6,0.9-1,1.2c-0.2-0.2-0.5-0.5-0.7-0.6c0.7-0.6,1.3-1.5,1.6-2.5l0.9,0.2
			c-0.1,0.3-0.2,0.6-0.3,0.8H792.9z M787.4,570.9h3.5v-1.2h-3.5V570.9z"/>
		<path fill="#157FFF" d="M807.5,570.6v1.1h-12v-1.1H807.5z"/>
		<path fill="#157FFF" d="M814.5,571.8l-1.7,0.5v3.7c0,0.6-0.1,0.8-0.5,1c-0.3,0.2-0.9,0.2-1.8,0.2c0-0.3-0.2-0.6-0.3-0.9
			c0.6,0,1.2,0,1.4,0c0.2,0,0.3-0.1,0.3-0.3v-3.4l-1.7,0.5l-0.3-1c0.6-0.1,1.2-0.3,2-0.5v-2.9h-1.8v-0.9h1.8v-2.6h1v2.6h1.5v0.9
			h-1.5v2.6l1.5-0.4L814.5,571.8z M818,574.6c0,0.3,0.1,0.7,0.1,0.9c-2.5,1.1-2.8,1.3-3,1.5c-0.1-0.3-0.3-0.7-0.4-0.9
			c0.2-0.1,0.3-0.3,0.3-0.8v-9.9h0.9v4h1.9v0.9H816v5.1L818,574.6z M820.9,576c0.3,0,0.3-0.3,0.4-1.6c0.2,0.2,0.6,0.3,0.8,0.4
			c-0.1,1.5-0.3,2.1-1.2,2.1h-1.4c-0.9,0-1.2-0.3-1.2-1.5v-10h0.9v4.1h2.1v0.9h-2.1v5c0,0.5,0.1,0.6,0.4,0.6H820.9z"/>
		<path fill="#157FFF" d="M828.6,571.8l-1.4,0.5v3.7c0,0.5-0.1,0.8-0.5,1c-0.3,0.2-0.8,0.2-1.7,0.2c0-0.2-0.2-0.6-0.3-0.9
			c0.6,0,1.1,0,1.2,0c0.2,0,0.2-0.1,0.2-0.3v-3.4c-0.6,0.2-1.1,0.3-1.6,0.5l-0.3-0.9c0.5-0.1,1.1-0.3,1.8-0.5v-2.9h-1.6v-0.9h1.6
			v-2.6h0.9v2.6h1.4v0.9h-1.4v2.6l1.3-0.4L828.6,571.8z M833.8,570.8c0.3,3,0.9,5.2,1.6,5.2c0.2,0,0.4-0.7,0.5-1.9
			c0.2,0.2,0.5,0.4,0.7,0.5c-0.3,2-0.7,2.5-1.2,2.5c-1.4,0-2.2-2.6-2.5-6.3h-2.6v3.8l2-0.7c0,0.2,0.1,0.6,0.1,0.8
			c-2.6,1-3,1.2-3.2,1.4c-0.1-0.2-0.2-0.6-0.4-0.8c0.2-0.1,0.6-0.3,0.6-0.8v-7.8h0l0,0c2-0.3,4.4-0.8,5.7-1.4l0.8,0.7
			c-0.7,0.2-1.4,0.5-2.3,0.7c0,1.1,0.1,2.2,0.2,3.2h2.7v0.9H833.8z M830.3,576.1h3.4v0.8h-3.4V576.1z M832.9,569.9
			c-0.1-0.9-0.1-2-0.2-3c-0.8,0.2-1.5,0.3-2.3,0.4v2.6H832.9z"/>
		<path fill="#157FFF" d="M842.3,571.5c-0.3,1.2-0.6,2.4-1.1,3.4c0.3,0.1,0.6,0.4,1.1,0.7c0.9,0.6,2.1,0.7,3.7,0.7
			c1.7,0,3.8-0.1,5.3-0.3c-0.1,0.3-0.3,0.7-0.3,1c-1,0.1-3.5,0.1-5.1,0.1c-1.7,0-2.9-0.1-3.9-0.7c-0.5-0.3-1-0.8-1.3-0.8
			c-0.3,0-0.7,0.8-1.1,1.7l-0.7-0.9c0.5-0.7,0.9-1.2,1.3-1.5c0.4-0.8,0.7-1.8,1-2.8h-1.7c0.4-0.8,0.8-1.9,1.2-3h-1.5v-0.9h2.7
			c-0.3,1-0.7,2.1-1.1,3h0.9l0.2,0L842.3,571.5z M840.5,567.7c-0.2-0.6-0.5-1.5-0.7-2.2l0.9-0.3c0.2,0.7,0.5,1.6,0.7,2.1
			L840.5,567.7z M844.7,568.7h-2.2v-0.8h3.7v-1h-2.9v-0.7h2.9v-1h1v1h2.9v0.7h-2.9v1h3.8v0.8h-2.3l0.6,0.2c-0.3,0.5-0.5,0.9-0.7,1.3
			h2.3v0.8h-3.6v0.9h3.1v0.7h-3.1v1h3.7v0.8h-3.7v1.3h-1v-1.3h-3.6v-0.8h3.6v-1h-3v-0.7h3v-0.9h-3.4v-0.8h1.9
			c-0.1-0.4-0.3-0.9-0.6-1.3L844.7,568.7z M847.7,570c0.2-0.4,0.5-0.9,0.6-1.3H845c0.3,0.4,0.5,0.9,0.6,1.3l-0.5,0.1h3L847.7,570z"
			/>
		<path fill="#157FFF" d="M861.7,566.7c1.3,1.1,2.8,2.7,3.5,3.8l-0.8,0.6c-0.2-0.3-0.5-0.7-0.8-1.1c-7.6,0.4-8.3,0.5-8.8,0.6
			c0-0.2-0.2-0.7-0.3-1c0.3-0.1,0.6-0.3,1.1-0.8c0.5-0.4,2-2.1,3-3.7l1,0.4c-1,1.4-2.2,2.8-3.4,3.9l6.8-0.3
			c-0.6-0.7-1.3-1.4-1.9-1.9L861.7,566.7z M855.4,571.7h8.4v5.5h-1v-0.7h-6.4v0.7h-1V571.7z M856.4,572.7v2.9h6.4v-2.9H856.4z"/>
		<path fill="#157FFF" d="M870,570.9c-0.4-0.4-1.2-1-1.9-1.4l0.6-0.7c0.7,0.3,1.5,0.9,1.9,1.3L870,570.9z M868.3,576.6
			c0.5-1,1.2-2.7,1.7-4.2l0.8,0.5c-0.4,1.4-1,3-1.5,4.2L868.3,576.6z M870.2,567.5c-0.4-0.4-1.2-1.1-1.8-1.5l0.6-0.6
			c0.7,0.4,1.5,1,1.9,1.4L870.2,567.5z M871.7,570.1c-0.1,0.6-0.3,1.4-0.6,1.8c-0.1-0.1-0.4-0.3-0.5-0.3c0.3-0.5,0.4-1.1,0.5-1.6
			L871.7,570.1z M873.4,569.5c0-0.1-0.1-0.3-0.2-0.4c-1.8,0.3-2.1,0.3-2.3,0.4c0-0.1-0.1-0.4-0.2-0.5c0.2,0,0.4-0.2,0.6-0.5
			c0.1-0.1,0.5-0.5,0.8-1c-0.9,0.1-1.1,0.1-1.2,0.2c0-0.1-0.1-0.4-0.2-0.5c0.1,0,0.3-0.1,0.4-0.3c0.1-0.2,0.6-0.9,0.8-1.6l0.6,0.2
			c-0.2,0.6-0.6,1.1-0.9,1.5l0.9-0.1c0.1-0.2,0.3-0.4,0.4-0.6l0.6,0.3c-0.5,0.8-1,1.5-1.6,2.1l1.2-0.1c-0.1-0.2-0.2-0.3-0.3-0.4
			l0.5-0.2c0.3,0.4,0.5,1,0.6,1.3L873.4,569.5z M879.6,574.6c0,0,0,0.3-0.1,0.4c-0.3,1.1-0.5,1.7-0.9,2c-0.3,0.2-0.6,0.3-1,0.3
			c-0.4,0-1.2,0-2-0.1c0-0.2-0.1-0.5-0.3-0.8c0.8,0.1,1.7,0.1,2,0.1c0.3,0,0.4,0,0.6-0.1c0.2-0.1,0.4-0.5,0.6-1.1h-7
			c0.2-0.6,0.4-1.3,0.6-2h6v-0.7h-6.5V572h7.4v2h-6.1c-0.1,0.2-0.1,0.5-0.2,0.7H879.6z M872.2,571.7c0-0.4-0.1-1.1-0.3-1.6l0.5-0.1
			c0.2,0.5,0.3,1.2,0.3,1.6L872.2,571.7z M873.4,569.7c0.2,0.5,0.4,1.1,0.5,1.4l-0.5,0.2c-0.1-0.4-0.3-1-0.5-1.5L873.4,569.7z
			 M876.9,567.1h-3.2v-0.6h1.4c-0.1-0.3-0.3-0.7-0.5-1l0.7-0.2c0.2,0.3,0.5,0.8,0.6,1l-0.6,0.2h1.6V567.1z M874.1,569.6h2.5v1.9
			h-2.5V569.6z M876.6,568.1h-2.4v-0.6h2.4V568.1z M874.2,568.5h2.4v0.5h-2.4V568.5z M874.8,571h1.2v-0.9h-1.2V571z M877.8,570
			c-0.1,0.6-0.3,1.3-0.6,1.8c-0.1-0.1-0.4-0.3-0.5-0.3c0.3-0.5,0.4-1,0.5-1.6L877.8,570z M879.6,569.6c0-0.1-0.1-0.3-0.2-0.5
			c-1.8,0.3-2.1,0.3-2.3,0.4c0-0.1-0.1-0.4-0.2-0.5c0.2,0,0.4-0.2,0.6-0.4c0.1-0.1,0.5-0.5,0.8-1c-0.9,0.1-1.1,0.1-1.2,0.2
			c0-0.1-0.1-0.4-0.2-0.5c0.2,0,0.3-0.1,0.4-0.3c0.1-0.2,0.6-0.9,0.8-1.6l0.6,0.2c-0.2,0.5-0.6,1.1-0.9,1.5l0.9-0.1
			c0.1-0.2,0.3-0.4,0.4-0.6l0.6,0.3c-0.5,0.7-1,1.5-1.6,2.1l1.2-0.1c-0.1-0.2-0.2-0.3-0.2-0.4l0.5-0.2c0.3,0.4,0.6,1,0.7,1.4
			L879.6,569.6z M878.4,571.8c0-0.5-0.1-1.2-0.3-1.8l0.5-0.1c0.2,0.6,0.3,1.3,0.3,1.7L878.4,571.8z M879.5,569.6
			c0.3,0.5,0.5,1.2,0.6,1.7l-0.5,0.2c-0.1-0.5-0.3-1.2-0.5-1.7L879.5,569.6z"/>
	</g>
</g>
<g enable-background="new    ">
	<path fill="#134791" d="M782.7,708.1c-0.4,0.7-0.9,1.2-1.4,1.7c-0.1-0.2-0.5-0.5-0.7-0.6c0.8-0.7,1.5-1.8,2-2.9l0.9,0.2
		c-0.1,0.3-0.2,0.5-0.4,0.8h3.4v0.8h-2.5c0.4,0.4,0.9,0.9,1.2,1.2l-0.6,0.5c-0.3-0.4-0.8-0.9-1.3-1.4l0.5-0.4H782.7z M792,714.2
		c0,0,0,0.3,0,0.4c-0.2,1.8-0.4,2.6-0.7,3c-0.2,0.2-0.5,0.3-0.8,0.3c-0.3,0-1,0-1.7,0c0-0.3-0.1-0.7-0.3-0.9
		c0.6,0.1,1.3,0.1,1.5,0.1c0.2,0,0.4,0,0.5-0.1c0.2-0.2,0.3-0.7,0.5-1.9h-3.8v3.4h-1v-3c-1.2,1.3-2.9,2.5-4.5,3.1
		c-0.1-0.2-0.4-0.6-0.6-0.8c1.5-0.5,3.2-1.5,4.3-2.6h-3.5c0.2-0.8,0.4-2,0.5-2.9h3.8v-1.2h-4.3v-0.8h9.7v2.9h-4.4v1.2H792z
		 M783.1,713c-0.1,0.4-0.1,0.8-0.2,1.2h3.2V713H783.1z M792.7,707.3v0.8h-2.8c0.5,0.4,1,0.8,1.3,1.2l-0.6,0.6
		c-0.3-0.3-0.9-0.9-1.4-1.3l0.6-0.5h-1.5c-0.3,0.5-0.6,0.9-1,1.2c-0.2-0.2-0.5-0.5-0.7-0.6c0.7-0.6,1.3-1.5,1.6-2.5l0.9,0.2
		c-0.1,0.3-0.2,0.6-0.3,0.8H792.7z M787.1,712.1h3.5v-1.2h-3.5V712.1z"/>
	<path fill="#134791" d="M807,716.1v1.1h-11.7v-1.1H807z M805.9,708.3v1h-9.4v-1H805.9z"/>
	<path fill="#134791" d="M814.2,713l-1.7,0.5v3.7c0,0.6-0.1,0.8-0.5,1c-0.3,0.2-0.9,0.2-1.8,0.2c0-0.3-0.2-0.6-0.3-0.9
		c0.6,0,1.2,0,1.4,0c0.2,0,0.3-0.1,0.3-0.3v-3.4l-1.7,0.5l-0.3-1c0.6-0.1,1.2-0.3,2-0.5v-2.9h-1.8V709h1.8v-2.6h1v2.6h1.5v0.9h-1.5
		v2.6l1.5-0.4L814.2,713z M817.7,715.8c0,0.3,0.1,0.7,0.1,0.9c-2.5,1.1-2.8,1.3-3,1.5c-0.1-0.3-0.3-0.7-0.4-0.9
		c0.2-0.1,0.3-0.3,0.3-0.8v-9.9h0.9v4h1.9v0.9h-1.9v5.1L817.7,715.8z M820.6,717.2c0.3,0,0.3-0.3,0.4-1.6c0.2,0.2,0.6,0.3,0.8,0.4
		c-0.1,1.5-0.3,2.1-1.2,2.1h-1.4c-0.9,0-1.2-0.3-1.2-1.5v-10h0.9v4.1h2.1v0.9H819v5c0,0.5,0.1,0.6,0.4,0.6H820.6z"/>
	<path fill="#134791" d="M828.3,713l-1.4,0.5v3.7c0,0.5-0.1,0.8-0.5,1c-0.3,0.2-0.8,0.2-1.7,0.2c0-0.2-0.2-0.6-0.3-0.9
		c0.6,0,1.1,0,1.2,0c0.2,0,0.2-0.1,0.2-0.3v-3.4c-0.6,0.2-1.1,0.3-1.6,0.5l-0.3-0.9c0.5-0.1,1.1-0.3,1.8-0.5v-2.9h-1.6V709h1.6v-2.6
		h0.9v2.6h1.4v0.9h-1.4v2.6l1.3-0.4L828.3,713z M833.5,712c0.3,3,0.9,5.2,1.6,5.2c0.2,0,0.4-0.7,0.5-1.9c0.2,0.2,0.5,0.4,0.7,0.5
		c-0.3,2-0.7,2.5-1.2,2.5c-1.4,0-2.2-2.6-2.5-6.3h-2.6v3.8l2-0.7c0,0.2,0.1,0.6,0.1,0.8c-2.6,1-3,1.2-3.2,1.4
		c-0.1-0.2-0.2-0.6-0.4-0.8c0.2-0.1,0.6-0.3,0.6-0.8v-7.8h0l0,0c2-0.3,4.4-0.8,5.7-1.4l0.8,0.7c-0.7,0.2-1.4,0.5-2.3,0.7
		c0,1.1,0.1,2.2,0.2,3.2h2.7v0.9H833.5z M830,717.3h3.4v0.8H830V717.3z M832.6,711.1c-0.1-0.9-0.1-2-0.2-3c-0.8,0.2-1.5,0.3-2.3,0.4
		v2.6H832.6z"/>
	<path fill="#134791" d="M842,712.7c-0.3,1.2-0.6,2.4-1.1,3.4c0.3,0.1,0.6,0.4,1.1,0.7c0.9,0.6,2.1,0.7,3.7,0.7
		c1.7,0,3.8-0.1,5.3-0.3c-0.1,0.3-0.3,0.7-0.3,1c-1,0.1-3.5,0.1-5.1,0.1c-1.7,0-2.9-0.1-3.9-0.7c-0.5-0.3-1-0.8-1.3-0.8
		c-0.3,0-0.7,0.8-1.1,1.7l-0.7-0.9c0.5-0.7,0.9-1.2,1.3-1.5c0.4-0.8,0.7-1.8,1-2.8h-1.7c0.4-0.8,0.8-1.9,1.2-3h-1.5v-0.9h2.7
		c-0.3,1-0.7,2.1-1.1,3h0.9l0.2,0L842,712.7z M840.2,708.8c-0.2-0.6-0.5-1.5-0.7-2.2l0.9-0.3c0.2,0.7,0.5,1.6,0.7,2.1L840.2,708.8z
		 M844.4,709.8h-2.2v-0.8h3.7v-1H843v-0.7h2.9v-1h1v1h2.9v0.7h-2.9v1h3.8v0.8h-2.3l0.6,0.2c-0.3,0.5-0.5,0.9-0.7,1.3h2.3v0.8h-3.6
		v0.9h3.1v0.7h-3.1v1h3.7v0.8h-3.7v1.3h-1v-1.3h-3.6v-0.8h3.6v-1h-3v-0.7h3V712h-3.4v-0.8h1.9c-0.1-0.4-0.3-0.9-0.6-1.3L844.4,709.8
		z M847.4,711.2c0.2-0.4,0.5-0.9,0.6-1.3h-3.3c0.3,0.4,0.5,0.9,0.6,1.3l-0.5,0.1h3L847.4,711.2z"/>
	<path fill="#134791" d="M861.4,707.9c1.3,1.1,2.8,2.7,3.5,3.8l-0.8,0.6c-0.2-0.3-0.5-0.7-0.8-1.1c-7.6,0.4-8.3,0.5-8.8,0.6
		c0-0.2-0.2-0.7-0.3-1c0.3-0.1,0.6-0.3,1.1-0.8c0.5-0.4,2-2.1,3-3.7l1,0.4c-1,1.4-2.2,2.8-3.4,3.9l6.8-0.3c-0.6-0.7-1.3-1.4-1.9-1.9
		L861.4,707.9z M855.1,712.9h8.4v5.5h-1v-0.7h-6.4v0.7h-1V712.9z M856.1,713.8v2.9h6.4v-2.9H856.1z"/>
	<path fill="#134791" d="M869.7,712.1c-0.4-0.4-1.2-1-1.9-1.4l0.6-0.7c0.7,0.3,1.5,0.9,1.9,1.3L869.7,712.1z M868,717.8
		c0.5-1,1.2-2.7,1.7-4.2l0.8,0.5c-0.4,1.4-1,3-1.5,4.2L868,717.8z M869.9,708.7c-0.4-0.4-1.2-1.1-1.8-1.5l0.6-0.6
		c0.7,0.4,1.5,1,1.9,1.4L869.9,708.7z M871.4,711.2c-0.1,0.6-0.3,1.4-0.6,1.8c-0.1-0.1-0.4-0.3-0.5-0.3c0.3-0.5,0.4-1.1,0.5-1.6
		L871.4,711.2z M873.2,710.7c0-0.1-0.1-0.3-0.2-0.4c-1.8,0.3-2.1,0.3-2.3,0.4c0-0.1-0.1-0.4-0.2-0.5c0.2,0,0.4-0.2,0.6-0.5
		c0.1-0.1,0.5-0.5,0.8-1c-0.9,0.1-1.1,0.1-1.2,0.2c0-0.1-0.1-0.4-0.2-0.5c0.1,0,0.3-0.1,0.4-0.3c0.1-0.2,0.6-0.9,0.8-1.6l0.6,0.2
		c-0.2,0.6-0.6,1.1-0.9,1.5l0.9-0.1c0.1-0.2,0.3-0.4,0.4-0.6l0.6,0.3c-0.5,0.8-1,1.5-1.6,2.1l1.2-0.1c-0.1-0.2-0.2-0.3-0.3-0.4
		l0.5-0.2c0.3,0.4,0.5,1,0.6,1.3L873.2,710.7z M879.3,715.8c0,0,0,0.3-0.1,0.4c-0.3,1.1-0.5,1.7-0.9,2c-0.3,0.2-0.6,0.3-1,0.3
		c-0.4,0-1.2,0-2-0.1c0-0.2-0.1-0.5-0.3-0.8c0.8,0.1,1.7,0.1,2,0.1c0.3,0,0.4,0,0.6-0.1c0.2-0.1,0.4-0.5,0.6-1.1h-7
		c0.2-0.6,0.4-1.3,0.6-2h6v-0.7h-6.5v-0.6h7.4v2h-6.1c-0.1,0.2-0.1,0.5-0.2,0.7H879.3z M871.9,712.8c0-0.4-0.1-1.1-0.3-1.6l0.5-0.1
		c0.2,0.5,0.3,1.2,0.3,1.6L871.9,712.8z M873.1,710.9c0.2,0.5,0.4,1.1,0.5,1.4l-0.5,0.2c-0.1-0.4-0.3-1-0.5-1.5L873.1,710.9z
		 M876.6,708.3h-3.2v-0.6h1.4c-0.1-0.3-0.3-0.7-0.5-1l0.7-0.2c0.2,0.3,0.5,0.8,0.6,1l-0.6,0.2h1.6V708.3z M873.8,710.8h2.5v1.9h-2.5
		V710.8z M876.3,709.3h-2.4v-0.6h2.4V709.3z M873.9,709.7h2.4v0.5h-2.4V709.7z M874.5,712.2h1.2v-0.9h-1.2V712.2z M877.5,711.2
		c-0.1,0.6-0.3,1.3-0.6,1.8c-0.1-0.1-0.4-0.3-0.5-0.3c0.3-0.5,0.4-1,0.5-1.6L877.5,711.2z M879.3,710.7c0-0.1-0.1-0.3-0.2-0.5
		c-1.8,0.3-2.1,0.3-2.3,0.4c0-0.1-0.1-0.4-0.2-0.5c0.2,0,0.4-0.2,0.6-0.4c0.1-0.1,0.5-0.5,0.8-1c-0.9,0.1-1.1,0.1-1.2,0.2
		c0-0.1-0.1-0.4-0.2-0.5c0.2,0,0.3-0.1,0.4-0.3c0.1-0.2,0.6-0.9,0.8-1.6l0.6,0.2c-0.2,0.5-0.6,1.1-0.9,1.5l0.9-0.1
		c0.1-0.2,0.3-0.4,0.4-0.6l0.6,0.3c-0.5,0.7-1,1.5-1.6,2.1l1.2-0.1c-0.1-0.2-0.2-0.3-0.2-0.4l0.5-0.2c0.3,0.4,0.6,1,0.7,1.4
		L879.3,710.7z M878.1,712.9c0-0.5-0.1-1.2-0.3-1.8l0.5-0.1c0.2,0.6,0.3,1.3,0.3,1.7L878.1,712.9z M879.2,710.8
		c0.3,0.5,0.5,1.2,0.6,1.7l-0.5,0.2c-0.1-0.5-0.3-1.2-0.5-1.7L879.2,710.8z"/>
</g>
<g>
	<g enable-background="new    ">
		<path fill="#777777" d="M707.6,149.8h1.5v8.1c0,0.7-0.1,1.3-0.3,1.8c-0.2,0.5-0.5,0.8-0.8,1.1c-0.3,0.3-0.7,0.4-1.1,0.5
			c-0.4,0.1-0.7,0.2-1.1,0.2c-0.8,0-1.5-0.2-2-0.6c-0.5-0.4-0.9-1-1-1.9l1.5-0.3c0.1,0.4,0.3,0.8,0.5,1c0.3,0.2,0.6,0.4,1,0.4
			c0.4,0,0.7-0.1,0.9-0.2c0.2-0.1,0.4-0.3,0.5-0.6c0.1-0.2,0.2-0.5,0.3-0.8c0-0.3,0.1-0.6,0.1-0.9V149.8z"/>
		<path fill="#777777" d="M718.8,161.1h-1.4v-1.2h0c-0.2,0.4-0.5,0.7-0.9,1c-0.4,0.3-1,0.4-1.6,0.4c-0.4,0-0.7-0.1-1.1-0.2
			s-0.6-0.3-0.9-0.5s-0.5-0.5-0.6-0.9c-0.1-0.4-0.2-0.8-0.2-1.3v-4.9h1.4v4.5c0,0.4,0,0.7,0.1,0.9c0.1,0.3,0.2,0.5,0.4,0.6
			c0.2,0.2,0.3,0.3,0.6,0.3s0.4,0.1,0.6,0.1c0.3,0,0.6,0,0.8-0.1c0.3-0.1,0.5-0.2,0.7-0.5s0.3-0.5,0.4-0.8c0.1-0.3,0.2-0.7,0.2-1.1
			v-3.9h1.4V161.1z"/>
		<path fill="#777777" d="M721.7,149h1.4v12.1h-1.4V149z"/>
		<path fill="#777777" d="M727.2,161.2c-0.3,0-0.5-0.1-0.7-0.3c-0.2-0.2-0.3-0.5-0.3-0.7c0-0.3,0.1-0.5,0.3-0.7
			c0.2-0.2,0.5-0.3,0.7-0.3c0.3,0,0.5,0.1,0.7,0.3c0.2,0.2,0.3,0.5,0.3,0.7c0,0.3-0.1,0.5-0.3,0.7S727.5,161.2,727.2,161.2z"/>
		<path fill="#777777" d="M736.2,151.1h-5.5v-1.3h7.1v1.3l-4.5,10h-1.7L736.2,151.1z"/>
	</g>
	<g enable-background="new    ">
		<path fill="#777777" d="M707.6,149.8h1.5v8.1c0,0.7-0.1,1.3-0.3,1.8c-0.2,0.5-0.5,0.8-0.8,1.1c-0.3,0.3-0.7,0.4-1.1,0.5
			c-0.4,0.1-0.7,0.2-1.1,0.2c-0.8,0-1.5-0.2-2-0.6c-0.5-0.4-0.9-1-1-1.9l1.5-0.3c0.1,0.4,0.3,0.8,0.5,1c0.3,0.2,0.6,0.4,1,0.4
			c0.4,0,0.7-0.1,0.9-0.2c0.2-0.1,0.4-0.3,0.5-0.6c0.1-0.2,0.2-0.5,0.3-0.8c0-0.3,0.1-0.6,0.1-0.9V149.8z"/>
		<path fill="#777777" d="M718.8,161.1h-1.4v-1.2h0c-0.2,0.4-0.5,0.7-0.9,1c-0.4,0.3-1,0.4-1.6,0.4c-0.4,0-0.7-0.1-1.1-0.2
			s-0.6-0.3-0.9-0.5s-0.5-0.5-0.6-0.9c-0.1-0.4-0.2-0.8-0.2-1.3v-4.9h1.4v4.5c0,0.4,0,0.7,0.1,0.9c0.1,0.3,0.2,0.5,0.4,0.6
			c0.2,0.2,0.3,0.3,0.6,0.3s0.4,0.1,0.6,0.1c0.3,0,0.6,0,0.8-0.1c0.3-0.1,0.5-0.2,0.7-0.5s0.3-0.5,0.4-0.8c0.1-0.3,0.2-0.7,0.2-1.1
			v-3.9h1.4V161.1z"/>
		<path fill="#777777" d="M721.7,149h1.4v12.1h-1.4V149z"/>
		<path fill="#777777" d="M727.2,161.2c-0.3,0-0.5-0.1-0.7-0.3c-0.2-0.2-0.3-0.5-0.3-0.7c0-0.3,0.1-0.5,0.3-0.7
			c0.2-0.2,0.5-0.3,0.7-0.3c0.3,0,0.5,0.1,0.7,0.3c0.2,0.2,0.3,0.5,0.3,0.7c0,0.3-0.1,0.5-0.3,0.7S727.5,161.2,727.2,161.2z"/>
		<path fill="#777777" d="M736.2,151.1h-5.5v-1.3h7.1v1.3l-4.5,10h-1.7L736.2,151.1z"/>
	</g>
</g>
<circle fill="#FFFFFF" stroke="#777777" stroke-width="4" stroke-miterlimit="10" cx="759.4" cy="294.1" r="12.6"/>
<g>
	<g enable-background="new    ">
		<path fill="#0098FF" d="M778.9,290.4c-0.4,0.7-0.9,1.2-1.4,1.7c-0.1-0.2-0.5-0.5-0.7-0.6c0.8-0.7,1.5-1.8,2-2.9l0.9,0.2
			c-0.1,0.3-0.2,0.5-0.4,0.8h3.4v0.8h-2.5c0.4,0.4,0.9,0.9,1.2,1.2l-0.6,0.5c-0.3-0.4-0.8-0.9-1.3-1.4l0.5-0.4H778.9z M788.1,296.4
			c0,0,0,0.3,0,0.4c-0.2,1.8-0.4,2.6-0.7,3c-0.2,0.2-0.5,0.3-0.8,0.3c-0.3,0-1,0-1.7,0c0-0.3-0.1-0.7-0.3-0.9
			c0.6,0.1,1.3,0.1,1.5,0.1c0.2,0,0.4,0,0.5-0.1c0.2-0.2,0.3-0.7,0.5-1.9h-3.8v3.4h-1v-3c-1.2,1.3-2.9,2.5-4.5,3.1
			c-0.1-0.2-0.4-0.6-0.6-0.8c1.5-0.5,3.2-1.5,4.3-2.6H778c0.2-0.8,0.4-2,0.5-2.9h3.8v-1.2H778v-0.8h9.7v2.9h-4.4v1.2H788.1z
			 M779.3,295.2c-0.1,0.4-0.1,0.8-0.2,1.2h3.2v-1.2H779.3z M788.8,289.6v0.8H786c0.5,0.4,1,0.8,1.3,1.2l-0.6,0.6
			c-0.3-0.3-0.9-0.9-1.4-1.3l0.6-0.5h-1.5c-0.3,0.5-0.6,0.9-1,1.2c-0.2-0.2-0.5-0.5-0.7-0.6c0.7-0.6,1.3-1.5,1.6-2.5l0.9,0.2
			c-0.1,0.3-0.2,0.6-0.3,0.8H788.8z M783.3,294.4h3.5v-1.2h-3.5V294.4z"/>
		<path fill="#0098FF" d="M803.4,294v1.1h-12V294H803.4z"/>
		<path fill="#0098FF" d="M810.2,297.1H806v-1h4.2V297.1z M809.8,291.6h-3.5v-1h3.5V291.6z M813.7,293.4c0,0.2,0,0.4,0,0.6
			c0.6,2.8,1.9,4.9,4.3,5.7c-0.2,0.2-0.5,0.6-0.6,0.9c-2-0.8-3.2-2.4-4-4.5c-0.5,1.6-1.5,3.3-4.1,4.6c-0.2-0.2-0.5-0.6-0.7-0.8
			c3.8-1.9,4.1-4.7,4.1-6.6v-1h1V293.4z M811.6,291.8c-0.4,1.1-0.9,2-1.4,2.8c-0.2-0.2-0.7-0.4-1-0.6c1-1.3,1.7-3.4,2.1-5.4l1.1,0.2
			c-0.1,0.7-0.3,1.4-0.5,2.1h4.8l0.2-0.1l0.7,0.4c-0.3,1.3-0.9,2.7-1.4,3.6c-0.2-0.1-0.6-0.3-0.8-0.4c0.3-0.6,0.7-1.6,1-2.5H811.6z"
			/>
		<path fill="#0098FF" d="M824.5,293.6c0.4,0.9,0.7,2,0.9,2.7l-0.8,0.3c0-0.2-0.1-0.5-0.2-0.8c-3,0.4-3.4,0.5-3.7,0.7
			c0-0.2-0.2-0.7-0.3-0.9c0.3-0.1,0.6-0.4,1-0.9c0.2-0.2,0.6-0.8,1.2-1.5c-1.4,0.2-1.7,0.2-1.9,0.3c-0.1-0.2-0.2-0.6-0.3-0.9
			c0.2-0.1,0.5-0.3,0.8-0.7c0.3-0.4,1.2-1.9,1.8-3.4l0.9,0.4c-0.6,1.2-1.4,2.5-2.1,3.5l1.4-0.1c0.4-0.5,0.7-1.1,1-1.7l0.8,0.5
			c-0.9,1.5-1.9,3-3,4.2l2.2-0.3c-0.1-0.4-0.3-0.9-0.4-1.2L824.5,293.6z M821.8,297.2c-0.2,1.2-0.4,2.5-0.7,3.3
			c-0.2-0.1-0.6-0.2-0.8-0.3c0.3-0.8,0.5-2,0.6-3.2L821.8,297.2z M823.2,297c0.2,1,0.3,2.2,0.4,3l-0.8,0.2c0-0.8-0.2-2.1-0.3-3
			L823.2,297z M824.5,296.7c0.3,0.8,0.6,1.9,0.8,2.6l-0.7,0.3c-0.1-0.7-0.5-1.8-0.7-2.6L824.5,296.7z M829.3,291.3v2.1h2.7v0.9h-6.2
			v-0.9h2.5v-2.1h-2.9v-0.9h2.9v-1.8h1v1.8h3.1v0.9H829.3z M826.1,295.6h5.6v5h-1v-0.5H827v0.6h-0.9V295.6z M827,296.5v2.7h3.7v-2.7
			H827z"/>
		<path fill="#0098FF" d="M837.1,290.3c-0.5,0.7-1,1.4-1.5,1.9c-0.1-0.2-0.4-0.6-0.6-0.8c0.8-0.7,1.6-1.7,2.1-2.8l0.9,0.3
			c-0.1,0.2-0.2,0.5-0.4,0.7h3.6v0.8H837.1z M847,290.3h-2.2c0.3,0.3,0.6,0.7,0.8,1l-0.7,0.3h0.7v4.9h-1.6v1.1h3v0.8h-3v2.2h-1v-2.2
			h-3.5c-0.3,0.8-1.1,1.7-3,2.3c-0.1-0.2-0.4-0.5-0.6-0.7c1.5-0.4,2.2-1,2.6-1.6h-3.1v-0.8h3.4c0-0.1,0-0.2,0-0.3v-0.9h-1.8v-4.9h2
			c-0.1-0.3-0.3-0.7-0.6-1l0.8-0.3c0.2,0.3,0.5,0.7,0.6,1l-0.8,0.3h2.7c-0.2-0.1-0.6-0.3-0.8-0.5c0.8-0.6,1.5-1.6,1.8-2.6l0.9,0.2
			c-0.1,0.3-0.2,0.5-0.3,0.8h3.8V290.3z M844.5,292.3h-6.8v0.8h6.8V292.3z M844.5,293.7h-6.8v0.8h6.8V293.7z M844.5,295.1h-6.8v0.8
			h6.8V295.1z M842.9,296.5h-3.4v0.9c0,0.1,0,0.2,0,0.3h3.4V296.5z M844.7,291.6c-0.2-0.3-0.5-0.7-0.8-1l0.6-0.3h-1.9
			c-0.3,0.5-0.7,1-1.1,1.3H844.7z"/>
	</g>
	<g enable-background="new    ">
		<path fill="#157FFF" d="M778.9,290.4c-0.4,0.7-0.9,1.2-1.4,1.7c-0.1-0.2-0.5-0.5-0.7-0.6c0.8-0.7,1.5-1.8,2-2.9l0.9,0.2
			c-0.1,0.3-0.2,0.5-0.4,0.8h3.4v0.8h-2.5c0.4,0.4,0.9,0.9,1.2,1.2l-0.6,0.5c-0.3-0.4-0.8-0.9-1.3-1.4l0.5-0.4H778.9z M788.1,296.4
			c0,0,0,0.3,0,0.4c-0.2,1.8-0.4,2.6-0.7,3c-0.2,0.2-0.5,0.3-0.8,0.3c-0.3,0-1,0-1.7,0c0-0.3-0.1-0.7-0.3-0.9
			c0.6,0.1,1.3,0.1,1.5,0.1c0.2,0,0.4,0,0.5-0.1c0.2-0.2,0.3-0.7,0.5-1.9h-3.8v3.4h-1v-3c-1.2,1.3-2.9,2.5-4.5,3.1
			c-0.1-0.2-0.4-0.6-0.6-0.8c1.5-0.5,3.2-1.5,4.3-2.6H778c0.2-0.8,0.4-2,0.5-2.9h3.8v-1.2H778v-0.8h9.7v2.9h-4.4v1.2H788.1z
			 M779.3,295.2c-0.1,0.4-0.1,0.8-0.2,1.2h3.2v-1.2H779.3z M788.8,289.6v0.8H786c0.5,0.4,1,0.8,1.3,1.2l-0.6,0.6
			c-0.3-0.3-0.9-0.9-1.4-1.3l0.6-0.5h-1.5c-0.3,0.5-0.6,0.9-1,1.2c-0.2-0.2-0.5-0.5-0.7-0.6c0.7-0.6,1.3-1.5,1.6-2.5l0.9,0.2
			c-0.1,0.3-0.2,0.6-0.3,0.8H788.8z M783.3,294.4h3.5v-1.2h-3.5V294.4z"/>
		<path fill="#157FFF" d="M803.4,294v1.1h-12V294H803.4z"/>
		<path fill="#157FFF" d="M810.2,297.1H806v-1h4.2V297.1z M809.8,291.6h-3.5v-1h3.5V291.6z M813.7,293.4c0,0.2,0,0.4,0,0.6
			c0.6,2.8,1.9,4.9,4.3,5.7c-0.2,0.2-0.5,0.6-0.6,0.9c-2-0.8-3.2-2.4-4-4.5c-0.5,1.6-1.5,3.3-4.1,4.6c-0.2-0.2-0.5-0.6-0.7-0.8
			c3.8-1.9,4.1-4.7,4.1-6.6v-1h1V293.4z M811.6,291.8c-0.4,1.1-0.9,2-1.4,2.8c-0.2-0.2-0.7-0.4-1-0.6c1-1.3,1.7-3.4,2.1-5.4l1.1,0.2
			c-0.1,0.7-0.3,1.4-0.5,2.1h4.8l0.2-0.1l0.7,0.4c-0.3,1.3-0.9,2.7-1.4,3.6c-0.2-0.1-0.6-0.3-0.8-0.4c0.3-0.6,0.7-1.6,1-2.5H811.6z"
			/>
		<path fill="#157FFF" d="M824.5,293.6c0.4,0.9,0.7,2,0.9,2.7l-0.8,0.3c0-0.2-0.1-0.5-0.2-0.8c-3,0.4-3.4,0.5-3.7,0.7
			c0-0.2-0.2-0.7-0.3-0.9c0.3-0.1,0.6-0.4,1-0.9c0.2-0.2,0.6-0.8,1.2-1.5c-1.4,0.2-1.7,0.2-1.9,0.3c-0.1-0.2-0.2-0.6-0.3-0.9
			c0.2-0.1,0.5-0.3,0.8-0.7c0.3-0.4,1.2-1.9,1.8-3.4l0.9,0.4c-0.6,1.2-1.4,2.5-2.1,3.5l1.4-0.1c0.4-0.5,0.7-1.1,1-1.7l0.8,0.5
			c-0.9,1.5-1.9,3-3,4.2l2.2-0.3c-0.1-0.4-0.3-0.9-0.4-1.2L824.5,293.6z M821.8,297.2c-0.2,1.2-0.4,2.5-0.7,3.3
			c-0.2-0.1-0.6-0.2-0.8-0.3c0.3-0.8,0.5-2,0.6-3.2L821.8,297.2z M823.2,297c0.2,1,0.3,2.2,0.4,3l-0.8,0.2c0-0.8-0.2-2.1-0.3-3
			L823.2,297z M824.5,296.7c0.3,0.8,0.6,1.9,0.8,2.6l-0.7,0.3c-0.1-0.7-0.5-1.8-0.7-2.6L824.5,296.7z M829.3,291.3v2.1h2.7v0.9h-6.2
			v-0.9h2.5v-2.1h-2.9v-0.9h2.9v-1.8h1v1.8h3.1v0.9H829.3z M826.1,295.6h5.6v5h-1v-0.5H827v0.6h-0.9V295.6z M827,296.5v2.7h3.7v-2.7
			H827z"/>
		<path fill="#157FFF" d="M837.1,290.3c-0.5,0.7-1,1.4-1.5,1.9c-0.1-0.2-0.4-0.6-0.6-0.8c0.8-0.7,1.6-1.7,2.1-2.8l0.9,0.3
			c-0.1,0.2-0.2,0.5-0.4,0.7h3.6v0.8H837.1z M847,290.3h-2.2c0.3,0.3,0.6,0.7,0.8,1l-0.7,0.3h0.7v4.9h-1.6v1.1h3v0.8h-3v2.2h-1v-2.2
			h-3.5c-0.3,0.8-1.1,1.7-3,2.3c-0.1-0.2-0.4-0.5-0.6-0.7c1.5-0.4,2.2-1,2.6-1.6h-3.1v-0.8h3.4c0-0.1,0-0.2,0-0.3v-0.9h-1.8v-4.9h2
			c-0.1-0.3-0.3-0.7-0.6-1l0.8-0.3c0.2,0.3,0.5,0.7,0.6,1l-0.8,0.3h2.7c-0.2-0.1-0.6-0.3-0.8-0.5c0.8-0.6,1.5-1.6,1.8-2.6l0.9,0.2
			c-0.1,0.3-0.2,0.5-0.3,0.8h3.8V290.3z M844.5,292.3h-6.8v0.8h6.8V292.3z M844.5,293.7h-6.8v0.8h6.8V293.7z M844.5,295.1h-6.8v0.8
			h6.8V295.1z M842.9,296.5h-3.4v0.9c0,0.1,0,0.2,0,0.3h3.4V296.5z M844.7,291.6c-0.2-0.3-0.5-0.7-0.8-1l0.6-0.3h-1.9
			c-0.3,0.5-0.7,1-1.1,1.3H844.7z"/>
	</g>
</g>
<g>
	<g enable-background="new    ">
		<path fill="#777777" d="M698.2,285.6h1.4l4.8,11.3h-1.8l-1.1-2.8h-5.4l-1.1,2.8h-1.8L698.2,285.6z M701,292.8l-2.1-5.2h0l-2.1,5.2
			H701z"/>
		<path fill="#777777" d="M712.9,296.9h-1.4v-1.2h0c-0.2,0.4-0.5,0.7-0.9,1c-0.4,0.3-1,0.4-1.6,0.4c-0.4,0-0.7-0.1-1.1-0.2
			s-0.6-0.3-0.9-0.5s-0.5-0.5-0.6-0.9c-0.1-0.4-0.2-0.8-0.2-1.3v-4.9h1.4v4.5c0,0.4,0,0.7,0.1,0.9c0.1,0.3,0.2,0.5,0.4,0.6
			c0.2,0.2,0.3,0.3,0.6,0.3s0.4,0.1,0.6,0.1c0.3,0,0.6,0,0.8-0.1c0.3-0.1,0.5-0.2,0.7-0.5s0.3-0.5,0.4-0.8c0.1-0.3,0.2-0.7,0.2-1.1
			v-3.9h1.4V296.9z"/>
		<path fill="#777777" d="M723.3,296.9c0,0.6-0.1,1.1-0.3,1.6c-0.2,0.5-0.5,0.9-0.8,1.2c-0.4,0.3-0.8,0.6-1.3,0.8s-1.1,0.3-1.7,0.3
			c-0.7,0-1.4-0.1-2-0.3c-0.6-0.2-1.2-0.6-1.7-1.1l1-1.2c0.4,0.4,0.8,0.7,1.2,0.9c0.4,0.2,0.9,0.3,1.5,0.3c0.5,0,1-0.1,1.3-0.2
			c0.4-0.2,0.6-0.4,0.8-0.6c0.2-0.2,0.4-0.5,0.4-0.8c0.1-0.3,0.1-0.6,0.1-1v-1.1h0c-0.3,0.5-0.7,0.8-1.1,1c-0.5,0.2-1,0.3-1.5,0.3
			c-0.6,0-1.1-0.1-1.5-0.3c-0.5-0.2-0.9-0.5-1.2-0.8c-0.3-0.3-0.6-0.8-0.8-1.2c-0.2-0.5-0.3-1-0.3-1.5s0.1-1.1,0.3-1.6
			c0.2-0.5,0.4-0.9,0.8-1.3c0.3-0.4,0.7-0.6,1.2-0.8c0.5-0.2,1-0.3,1.6-0.3c0.5,0,1,0.1,1.5,0.3c0.5,0.2,0.9,0.5,1.1,0.9h0v-1.1h1.4
			V296.9z M719.4,290.5c-0.4,0-0.7,0.1-1,0.2c-0.3,0.1-0.6,0.3-0.8,0.5c-0.2,0.2-0.4,0.5-0.5,0.8c-0.1,0.3-0.2,0.7-0.2,1.1
			c0,0.8,0.2,1.4,0.7,1.8s1.1,0.7,1.8,0.7s1.4-0.2,1.8-0.7s0.7-1.1,0.7-1.8c0-0.4-0.1-0.7-0.2-1.1c-0.1-0.3-0.3-0.6-0.5-0.8
			c-0.2-0.2-0.5-0.4-0.8-0.5C720.1,290.6,719.8,290.5,719.4,290.5z"/>
		<path fill="#777777" d="M727.3,297c-0.3,0-0.5-0.1-0.7-0.3c-0.2-0.2-0.3-0.5-0.3-0.7c0-0.3,0.1-0.5,0.3-0.7
			c0.2-0.2,0.5-0.3,0.7-0.3c0.3,0,0.5,0.1,0.7,0.3c0.2,0.2,0.3,0.5,0.3,0.7c0,0.3-0.1,0.5-0.3,0.7S727.6,297,727.3,297z"/>
		<path fill="#777777" d="M736.3,287h-5.5v-1.3h7.1v1.3l-4.5,10h-1.7L736.3,287z"/>
	</g>
	<g enable-background="new    ">
		<path fill="#777777" d="M698.2,285.6h1.4l4.8,11.3h-1.8l-1.1-2.8h-5.4l-1.1,2.8h-1.8L698.2,285.6z M701,292.8l-2.1-5.2h0l-2.1,5.2
			H701z"/>
		<path fill="#777777" d="M712.9,296.9h-1.4v-1.2h0c-0.2,0.4-0.5,0.7-0.9,1c-0.4,0.3-1,0.4-1.6,0.4c-0.4,0-0.7-0.1-1.1-0.2
			s-0.6-0.3-0.9-0.5s-0.5-0.5-0.6-0.9c-0.1-0.4-0.2-0.8-0.2-1.3v-4.9h1.4v4.5c0,0.4,0,0.7,0.1,0.9c0.1,0.3,0.2,0.5,0.4,0.6
			c0.2,0.2,0.3,0.3,0.6,0.3s0.4,0.1,0.6,0.1c0.3,0,0.6,0,0.8-0.1c0.3-0.1,0.5-0.2,0.7-0.5s0.3-0.5,0.4-0.8c0.1-0.3,0.2-0.7,0.2-1.1
			v-3.9h1.4V296.9z"/>
		<path fill="#777777" d="M723.3,296.9c0,0.6-0.1,1.1-0.3,1.6c-0.2,0.5-0.5,0.9-0.8,1.2c-0.4,0.3-0.8,0.6-1.3,0.8s-1.1,0.3-1.7,0.3
			c-0.7,0-1.4-0.1-2-0.3c-0.6-0.2-1.2-0.6-1.7-1.1l1-1.2c0.4,0.4,0.8,0.7,1.2,0.9c0.4,0.2,0.9,0.3,1.5,0.3c0.5,0,1-0.1,1.3-0.2
			c0.4-0.2,0.6-0.4,0.8-0.6c0.2-0.2,0.4-0.5,0.4-0.8c0.1-0.3,0.1-0.6,0.1-1v-1.1h0c-0.3,0.5-0.7,0.8-1.1,1c-0.5,0.2-1,0.3-1.5,0.3
			c-0.6,0-1.1-0.1-1.5-0.3c-0.5-0.2-0.9-0.5-1.2-0.8c-0.3-0.3-0.6-0.8-0.8-1.2c-0.2-0.5-0.3-1-0.3-1.5s0.1-1.1,0.3-1.6
			c0.2-0.5,0.4-0.9,0.8-1.3c0.3-0.4,0.7-0.6,1.2-0.8c0.5-0.2,1-0.3,1.6-0.3c0.5,0,1,0.1,1.5,0.3c0.5,0.2,0.9,0.5,1.1,0.9h0v-1.1h1.4
			V296.9z M719.4,290.5c-0.4,0-0.7,0.1-1,0.2c-0.3,0.1-0.6,0.3-0.8,0.5c-0.2,0.2-0.4,0.5-0.5,0.8c-0.1,0.3-0.2,0.7-0.2,1.1
			c0,0.8,0.2,1.4,0.7,1.8s1.1,0.7,1.8,0.7s1.4-0.2,1.8-0.7s0.7-1.1,0.7-1.8c0-0.4-0.1-0.7-0.2-1.1c-0.1-0.3-0.3-0.6-0.5-0.8
			c-0.2-0.2-0.5-0.4-0.8-0.5C720.1,290.6,719.8,290.5,719.4,290.5z"/>
		<path fill="#777777" d="M727.3,297c-0.3,0-0.5-0.1-0.7-0.3c-0.2-0.2-0.3-0.5-0.3-0.7c0-0.3,0.1-0.5,0.3-0.7
			c0.2-0.2,0.5-0.3,0.7-0.3c0.3,0,0.5,0.1,0.7,0.3c0.2,0.2,0.3,0.5,0.3,0.7c0,0.3-0.1,0.5-0.3,0.7S727.6,297,727.3,297z"/>
		<path fill="#777777" d="M736.3,287h-5.5v-1.3h7.1v1.3l-4.5,10h-1.7L736.3,287z"/>
	</g>
</g>
<g>
	<g enable-background="new    ">
		<path fill="#777777" d="M697.5,436.4c0.3,0.4,0.6,0.7,1.1,0.9c0.4,0.2,0.9,0.3,1.3,0.3c0.3,0,0.5,0,0.8-0.1
			c0.3-0.1,0.5-0.2,0.7-0.4c0.2-0.2,0.4-0.4,0.5-0.6c0.1-0.2,0.2-0.5,0.2-0.8c0-0.4-0.1-0.8-0.4-1c-0.3-0.2-0.6-0.4-1-0.6
			c-0.4-0.2-0.9-0.3-1.3-0.4c-0.5-0.1-0.9-0.3-1.3-0.6c-0.4-0.3-0.8-0.6-1-1c-0.3-0.4-0.4-1-0.4-1.8c0-0.3,0.1-0.7,0.2-1.1
			c0.1-0.4,0.4-0.7,0.7-1c0.3-0.3,0.7-0.6,1.2-0.8c0.5-0.2,1.1-0.3,1.8-0.3c0.6,0,1.2,0.1,1.8,0.3c0.6,0.2,1.1,0.5,1.5,1l-1.2,1.1
			c-0.2-0.3-0.5-0.5-0.8-0.7c-0.4-0.2-0.8-0.3-1.2-0.3c-0.4,0-0.8,0.1-1.1,0.2c-0.3,0.1-0.5,0.3-0.7,0.4c-0.2,0.2-0.3,0.4-0.4,0.6
			c-0.1,0.2-0.1,0.4-0.1,0.6c0,0.5,0.1,0.8,0.4,1.1s0.6,0.5,1,0.6c0.4,0.2,0.9,0.3,1.3,0.4c0.5,0.1,0.9,0.3,1.3,0.5
			c0.4,0.2,0.8,0.5,1,0.9c0.3,0.4,0.4,0.9,0.4,1.6c0,0.5-0.1,1-0.3,1.5c-0.2,0.4-0.5,0.8-0.8,1.1c-0.4,0.3-0.8,0.5-1.2,0.7
			c-0.5,0.2-1,0.2-1.5,0.2c-0.7,0-1.4-0.1-2.1-0.4c-0.7-0.3-1.2-0.7-1.6-1.2L697.5,436.4z"/>
		<path fill="#777777" d="M707.4,435.5c0,0.3,0.1,0.6,0.2,0.9c0.1,0.3,0.3,0.5,0.6,0.7c0.2,0.2,0.5,0.3,0.8,0.4
			c0.3,0.1,0.6,0.2,1,0.2c0.4,0,0.8-0.1,1.2-0.3s0.6-0.5,0.9-0.8l1.1,0.8c-0.8,1-1.9,1.6-3.4,1.6c-0.6,0-1.1-0.1-1.6-0.3
			c-0.5-0.2-0.9-0.5-1.2-0.8c-0.3-0.4-0.6-0.8-0.8-1.3c-0.2-0.5-0.3-1-0.3-1.6s0.1-1.1,0.3-1.6c0.2-0.5,0.5-0.9,0.8-1.3
			c0.3-0.4,0.8-0.6,1.2-0.8c0.5-0.2,1-0.3,1.6-0.3c0.7,0,1.2,0.1,1.7,0.4s0.8,0.5,1.1,0.9c0.3,0.4,0.5,0.8,0.6,1.3
			c0.1,0.5,0.2,1,0.2,1.4v0.5H707.4z M712,434.3c0-0.3-0.1-0.6-0.2-0.9c-0.1-0.3-0.2-0.5-0.4-0.7s-0.4-0.4-0.7-0.5
			c-0.3-0.1-0.6-0.2-1-0.2c-0.4,0-0.7,0.1-1,0.2c-0.3,0.1-0.5,0.3-0.7,0.5c-0.2,0.2-0.4,0.5-0.5,0.7c-0.1,0.3-0.2,0.5-0.2,0.8H712z"
			/>
		<path fill="#777777" d="M715.9,431.1h1.4v1.1h0c0.3-0.4,0.7-0.7,1.1-0.9c0.5-0.2,1-0.3,1.5-0.3c0.6,0,1.1,0.1,1.6,0.3
			c0.5,0.2,0.9,0.5,1.2,0.8c0.3,0.4,0.6,0.8,0.8,1.3c0.2,0.5,0.3,1,0.3,1.6c0,0.6-0.1,1.1-0.3,1.6c-0.2,0.5-0.4,0.9-0.8,1.3
			c-0.3,0.4-0.7,0.6-1.2,0.8c-0.5,0.2-1,0.3-1.6,0.3c-0.5,0-1.1-0.1-1.5-0.3c-0.5-0.2-0.8-0.5-1.1-0.9h0v5.6h-1.4V431.1z
			 M719.8,432.3c-0.4,0-0.7,0.1-1,0.2c-0.3,0.1-0.6,0.3-0.8,0.5c-0.2,0.2-0.4,0.5-0.5,0.8c-0.1,0.3-0.2,0.7-0.2,1.1s0.1,0.7,0.2,1.1
			c0.1,0.3,0.3,0.6,0.5,0.8c0.2,0.2,0.5,0.4,0.8,0.5s0.7,0.2,1,0.2s0.7-0.1,1-0.2c0.3-0.1,0.6-0.3,0.8-0.5c0.2-0.2,0.4-0.5,0.5-0.8
			c0.1-0.3,0.2-0.7,0.2-1.1s-0.1-0.7-0.2-1.1c-0.1-0.3-0.3-0.6-0.5-0.8c-0.2-0.2-0.5-0.4-0.8-0.5
			C720.5,432.4,720.2,432.3,719.8,432.3z"/>
		<path fill="#777777" d="M727.4,438.8c-0.3,0-0.5-0.1-0.7-0.3c-0.2-0.2-0.3-0.5-0.3-0.7c0-0.3,0.1-0.5,0.3-0.7
			c0.2-0.2,0.5-0.3,0.7-0.3c0.3,0,0.5,0.1,0.7,0.3c0.2,0.2,0.3,0.5,0.3,0.7c0,0.3-0.1,0.5-0.3,0.7S727.7,438.8,727.4,438.8z"/>
		<path fill="#777777" d="M736.4,428.7h-5.5v-1.3h7.1v1.3l-4.5,10h-1.7L736.4,428.7z"/>
	</g>
	<g enable-background="new    ">
		<path fill="#777777" d="M697.5,436.4c0.3,0.4,0.6,0.7,1.1,0.9c0.4,0.2,0.9,0.3,1.3,0.3c0.3,0,0.5,0,0.8-0.1
			c0.3-0.1,0.5-0.2,0.7-0.4c0.2-0.2,0.4-0.4,0.5-0.6c0.1-0.2,0.2-0.5,0.2-0.8c0-0.4-0.1-0.8-0.4-1c-0.3-0.2-0.6-0.4-1-0.6
			c-0.4-0.2-0.9-0.3-1.3-0.4c-0.5-0.1-0.9-0.3-1.3-0.6c-0.4-0.3-0.8-0.6-1-1c-0.3-0.4-0.4-1-0.4-1.8c0-0.3,0.1-0.7,0.2-1.1
			c0.1-0.4,0.4-0.7,0.7-1c0.3-0.3,0.7-0.6,1.2-0.8c0.5-0.2,1.1-0.3,1.8-0.3c0.6,0,1.2,0.1,1.8,0.3c0.6,0.2,1.1,0.5,1.5,1l-1.2,1.1
			c-0.2-0.3-0.5-0.5-0.8-0.7c-0.4-0.2-0.8-0.3-1.2-0.3c-0.4,0-0.8,0.1-1.1,0.2c-0.3,0.1-0.5,0.3-0.7,0.4c-0.2,0.2-0.3,0.4-0.4,0.6
			c-0.1,0.2-0.1,0.4-0.1,0.6c0,0.5,0.1,0.8,0.4,1.1s0.6,0.5,1,0.6c0.4,0.2,0.9,0.3,1.3,0.4c0.5,0.1,0.9,0.3,1.3,0.5
			c0.4,0.2,0.8,0.5,1,0.9c0.3,0.4,0.4,0.9,0.4,1.6c0,0.5-0.1,1-0.3,1.5c-0.2,0.4-0.5,0.8-0.8,1.1c-0.4,0.3-0.8,0.5-1.2,0.7
			c-0.5,0.2-1,0.2-1.5,0.2c-0.7,0-1.4-0.1-2.1-0.4c-0.7-0.3-1.2-0.7-1.6-1.2L697.5,436.4z"/>
		<path fill="#777777" d="M707.4,435.5c0,0.3,0.1,0.6,0.2,0.9c0.1,0.3,0.3,0.5,0.6,0.7c0.2,0.2,0.5,0.3,0.8,0.4
			c0.3,0.1,0.6,0.2,1,0.2c0.4,0,0.8-0.1,1.2-0.3s0.6-0.5,0.9-0.8l1.1,0.8c-0.8,1-1.9,1.6-3.4,1.6c-0.6,0-1.1-0.1-1.6-0.3
			c-0.5-0.2-0.9-0.5-1.2-0.8c-0.3-0.4-0.6-0.8-0.8-1.3c-0.2-0.5-0.3-1-0.3-1.6s0.1-1.1,0.3-1.6c0.2-0.5,0.5-0.9,0.8-1.3
			c0.3-0.4,0.8-0.6,1.2-0.8c0.5-0.2,1-0.3,1.6-0.3c0.7,0,1.2,0.1,1.7,0.4s0.8,0.5,1.1,0.9c0.3,0.4,0.5,0.8,0.6,1.3
			c0.1,0.5,0.2,1,0.2,1.4v0.5H707.4z M712,434.3c0-0.3-0.1-0.6-0.2-0.9c-0.1-0.3-0.2-0.5-0.4-0.7s-0.4-0.4-0.7-0.5
			c-0.3-0.1-0.6-0.2-1-0.2c-0.4,0-0.7,0.1-1,0.2c-0.3,0.1-0.5,0.3-0.7,0.5c-0.2,0.2-0.4,0.5-0.5,0.7c-0.1,0.3-0.2,0.5-0.2,0.8H712z"
			/>
		<path fill="#777777" d="M715.9,431.1h1.4v1.1h0c0.3-0.4,0.7-0.7,1.1-0.9c0.5-0.2,1-0.3,1.5-0.3c0.6,0,1.1,0.1,1.6,0.3
			c0.5,0.2,0.9,0.5,1.2,0.8c0.3,0.4,0.6,0.8,0.8,1.3c0.2,0.5,0.3,1,0.3,1.6c0,0.6-0.1,1.1-0.3,1.6c-0.2,0.5-0.4,0.9-0.8,1.3
			c-0.3,0.4-0.7,0.6-1.2,0.8c-0.5,0.2-1,0.3-1.6,0.3c-0.5,0-1.1-0.1-1.5-0.3c-0.5-0.2-0.8-0.5-1.1-0.9h0v5.6h-1.4V431.1z
			 M719.8,432.3c-0.4,0-0.7,0.1-1,0.2c-0.3,0.1-0.6,0.3-0.8,0.5c-0.2,0.2-0.4,0.5-0.5,0.8c-0.1,0.3-0.2,0.7-0.2,1.1s0.1,0.7,0.2,1.1
			c0.1,0.3,0.3,0.6,0.5,0.8c0.2,0.2,0.5,0.4,0.8,0.5s0.7,0.2,1,0.2s0.7-0.1,1-0.2c0.3-0.1,0.6-0.3,0.8-0.5c0.2-0.2,0.4-0.5,0.5-0.8
			c0.1-0.3,0.2-0.7,0.2-1.1s-0.1-0.7-0.2-1.1c-0.1-0.3-0.3-0.6-0.5-0.8c-0.2-0.2-0.5-0.4-0.8-0.5
			C720.5,432.4,720.2,432.3,719.8,432.3z"/>
		<path fill="#777777" d="M727.4,438.8c-0.3,0-0.5-0.1-0.7-0.3c-0.2-0.2-0.3-0.5-0.3-0.7c0-0.3,0.1-0.5,0.3-0.7
			c0.2-0.2,0.5-0.3,0.7-0.3c0.3,0,0.5,0.1,0.7,0.3c0.2,0.2,0.3,0.5,0.3,0.7c0,0.3-0.1,0.5-0.3,0.7S727.7,438.8,727.4,438.8z"/>
		<path fill="#777777" d="M736.4,428.7h-5.5v-1.3h7.1v1.3l-4.5,10h-1.7L736.4,428.7z"/>
	</g>
</g>
<g>
	<g enable-background="new    ">
		<path fill="#777777" d="M702.2,578.1c-0.9,0-1.7-0.2-2.4-0.5c-0.7-0.3-1.3-0.7-1.9-1.3c-0.5-0.5-0.9-1.2-1.2-1.9
			c-0.3-0.7-0.4-1.5-0.4-2.4c0-0.8,0.1-1.6,0.4-2.4c0.3-0.7,0.7-1.4,1.2-1.9c0.5-0.5,1.1-1,1.9-1.3c0.7-0.3,1.5-0.5,2.4-0.5
			c0.9,0,1.7,0.2,2.4,0.5c0.7,0.3,1.3,0.7,1.9,1.3c0.5,0.5,0.9,1.2,1.2,1.9c0.3,0.7,0.4,1.5,0.4,2.4c0,0.8-0.1,1.6-0.4,2.4
			c-0.3,0.7-0.7,1.4-1.2,1.9s-1.1,1-1.9,1.3C703.8,577.9,703,578.1,702.2,578.1z M702.2,576.6c0.7,0,1.2-0.1,1.8-0.4
			c0.5-0.2,1-0.6,1.3-1c0.4-0.4,0.7-0.9,0.9-1.4c0.2-0.5,0.3-1.1,0.3-1.8c0-0.6-0.1-1.2-0.3-1.8c-0.2-0.5-0.5-1-0.9-1.4
			c-0.4-0.4-0.8-0.7-1.3-1c-0.5-0.2-1.1-0.4-1.8-0.4c-0.6,0-1.2,0.1-1.8,0.4c-0.5,0.2-1,0.6-1.3,1s-0.7,0.9-0.9,1.4
			c-0.2,0.5-0.3,1.1-0.3,1.8c0,0.6,0.1,1.2,0.3,1.8c0.2,0.5,0.5,1,0.9,1.4s0.8,0.7,1.3,1C700.9,576.5,701.5,576.6,702.2,576.6z"/>
		<path fill="#777777" d="M716,572.2c-0.3-0.3-0.5-0.5-0.8-0.6c-0.3-0.1-0.6-0.2-1-0.2c-0.4,0-0.7,0.1-1,0.2
			c-0.3,0.1-0.5,0.3-0.7,0.6c-0.2,0.2-0.3,0.5-0.4,0.9c-0.1,0.3-0.2,0.7-0.2,1s0.1,0.7,0.2,1c0.1,0.3,0.3,0.6,0.5,0.8
			c0.2,0.2,0.5,0.4,0.8,0.6c0.3,0.1,0.6,0.2,1,0.2c0.4,0,0.8-0.1,1-0.2c0.3-0.1,0.6-0.4,0.8-0.6l1,1c-0.4,0.4-0.8,0.7-1.3,0.9
			c-0.5,0.2-1,0.3-1.6,0.3c-0.6,0-1.1-0.1-1.6-0.3c-0.5-0.2-0.9-0.5-1.3-0.8c-0.4-0.3-0.6-0.8-0.8-1.2s-0.3-1-0.3-1.6
			c0-0.6,0.1-1.1,0.3-1.6s0.5-0.9,0.8-1.3c0.3-0.4,0.8-0.6,1.2-0.8c0.5-0.2,1-0.3,1.6-0.3c0.6,0,1.1,0.1,1.6,0.3s0.9,0.5,1.3,0.9
			L716,572.2z"/>
		<path fill="#777777" d="M723,571.4h-2.1v3.4c0,0.2,0,0.4,0,0.6s0.1,0.4,0.1,0.6c0.1,0.2,0.2,0.3,0.3,0.4c0.1,0.1,0.4,0.2,0.6,0.2
			c0.2,0,0.3,0,0.5,0s0.3-0.1,0.5-0.2v1.3c-0.2,0.1-0.4,0.2-0.7,0.2c-0.3,0-0.5,0.1-0.6,0.1c-0.6,0-1-0.1-1.3-0.2
			c-0.3-0.2-0.5-0.4-0.7-0.6s-0.2-0.5-0.3-0.8c0-0.3,0-0.6,0-0.9v-3.9h-1.7v-1.2h1.7v-2.1h1.4v2.1h2.1V571.4z"/>
		<path fill="#777777" d="M726.6,577.9c-0.3,0-0.5-0.1-0.7-0.3c-0.2-0.2-0.3-0.5-0.3-0.7c0-0.3,0.1-0.5,0.3-0.7
			c0.2-0.2,0.5-0.3,0.7-0.3c0.3,0,0.5,0.1,0.7,0.3s0.3,0.5,0.3,0.7c0,0.3-0.1,0.5-0.3,0.7S726.9,577.9,726.6,577.9z"/>
		<path fill="#777777" d="M735.6,567.8h-5.5v-1.3h7.1v1.3l-4.5,10H731L735.6,567.8z"/>
	</g>
	<g enable-background="new    ">
		<path fill="#777777" d="M702.2,578.1c-0.9,0-1.7-0.2-2.4-0.5c-0.7-0.3-1.3-0.7-1.9-1.3c-0.5-0.5-0.9-1.2-1.2-1.9
			c-0.3-0.7-0.4-1.5-0.4-2.4c0-0.8,0.1-1.6,0.4-2.4c0.3-0.7,0.7-1.4,1.2-1.9c0.5-0.5,1.1-1,1.9-1.3c0.7-0.3,1.5-0.5,2.4-0.5
			c0.9,0,1.7,0.2,2.4,0.5c0.7,0.3,1.3,0.7,1.9,1.3c0.5,0.5,0.9,1.2,1.2,1.9c0.3,0.7,0.4,1.5,0.4,2.4c0,0.8-0.1,1.6-0.4,2.4
			c-0.3,0.7-0.7,1.4-1.2,1.9s-1.1,1-1.9,1.3C703.8,577.9,703,578.1,702.2,578.1z M702.2,576.6c0.7,0,1.2-0.1,1.8-0.4
			c0.5-0.2,1-0.6,1.3-1c0.4-0.4,0.7-0.9,0.9-1.4c0.2-0.5,0.3-1.1,0.3-1.8c0-0.6-0.1-1.2-0.3-1.8c-0.2-0.5-0.5-1-0.9-1.4
			c-0.4-0.4-0.8-0.7-1.3-1c-0.5-0.2-1.1-0.4-1.8-0.4c-0.6,0-1.2,0.1-1.8,0.4c-0.5,0.2-1,0.6-1.3,1s-0.7,0.9-0.9,1.4
			c-0.2,0.5-0.3,1.1-0.3,1.8c0,0.6,0.1,1.2,0.3,1.8c0.2,0.5,0.5,1,0.9,1.4s0.8,0.7,1.3,1C700.9,576.5,701.5,576.6,702.2,576.6z"/>
		<path fill="#777777" d="M716,572.2c-0.3-0.3-0.5-0.5-0.8-0.6c-0.3-0.1-0.6-0.2-1-0.2c-0.4,0-0.7,0.1-1,0.2
			c-0.3,0.1-0.5,0.3-0.7,0.6c-0.2,0.2-0.3,0.5-0.4,0.9c-0.1,0.3-0.2,0.7-0.2,1s0.1,0.7,0.2,1c0.1,0.3,0.3,0.6,0.5,0.8
			c0.2,0.2,0.5,0.4,0.8,0.6c0.3,0.1,0.6,0.2,1,0.2c0.4,0,0.8-0.1,1-0.2c0.3-0.1,0.6-0.4,0.8-0.6l1,1c-0.4,0.4-0.8,0.7-1.3,0.9
			c-0.5,0.2-1,0.3-1.6,0.3c-0.6,0-1.1-0.1-1.6-0.3c-0.5-0.2-0.9-0.5-1.3-0.8c-0.4-0.3-0.6-0.8-0.8-1.2s-0.3-1-0.3-1.6
			c0-0.6,0.1-1.1,0.3-1.6s0.5-0.9,0.8-1.3c0.3-0.4,0.8-0.6,1.2-0.8c0.5-0.2,1-0.3,1.6-0.3c0.6,0,1.1,0.1,1.6,0.3s0.9,0.5,1.3,0.9
			L716,572.2z"/>
		<path fill="#777777" d="M723,571.4h-2.1v3.4c0,0.2,0,0.4,0,0.6s0.1,0.4,0.1,0.6c0.1,0.2,0.2,0.3,0.3,0.4c0.1,0.1,0.4,0.2,0.6,0.2
			c0.2,0,0.3,0,0.5,0s0.3-0.1,0.5-0.2v1.3c-0.2,0.1-0.4,0.2-0.7,0.2c-0.3,0-0.5,0.1-0.6,0.1c-0.6,0-1-0.1-1.3-0.2
			c-0.3-0.2-0.5-0.4-0.7-0.6s-0.2-0.5-0.3-0.8c0-0.3,0-0.6,0-0.9v-3.9h-1.7v-1.2h1.7v-2.1h1.4v2.1h2.1V571.4z"/>
		<path fill="#777777" d="M726.6,577.9c-0.3,0-0.5-0.1-0.7-0.3c-0.2-0.2-0.3-0.5-0.3-0.7c0-0.3,0.1-0.5,0.3-0.7
			c0.2-0.2,0.5-0.3,0.7-0.3c0.3,0,0.5,0.1,0.7,0.3s0.3,0.5,0.3,0.7c0,0.3-0.1,0.5-0.3,0.7S726.9,577.9,726.6,577.9z"/>
		<path fill="#777777" d="M735.6,567.8h-5.5v-1.3h7.1v1.3l-4.5,10H731L735.6,567.8z"/>
	</g>
</g>
<g>
	<g enable-background="new    ">
		<path fill="#777777" d="M695.5,703.7h2l6.2,9.3h0v-9.3h1.5V715h-2l-6.3-9.3h0v9.3h-1.5V703.7z"/>
		<path fill="#777777" d="M708.1,711.2c0-0.6,0.1-1.1,0.3-1.6c0.2-0.5,0.5-0.9,0.9-1.3c0.4-0.4,0.8-0.6,1.3-0.9s1-0.3,1.6-0.3
			s1.1,0.1,1.6,0.3c0.5,0.2,0.9,0.5,1.3,0.9c0.4,0.4,0.6,0.8,0.9,1.3c0.2,0.5,0.3,1,0.3,1.6c0,0.6-0.1,1.1-0.3,1.6
			c-0.2,0.5-0.5,0.9-0.9,1.3c-0.4,0.4-0.8,0.6-1.3,0.8c-0.5,0.2-1,0.3-1.6,0.3s-1.1-0.1-1.6-0.3s-0.9-0.5-1.3-0.8
			c-0.4-0.4-0.6-0.8-0.9-1.3C708.2,712.3,708.1,711.8,708.1,711.2z M709.6,711.2c0,0.4,0.1,0.7,0.2,1.1c0.1,0.3,0.3,0.6,0.5,0.8
			s0.5,0.4,0.8,0.5c0.3,0.1,0.7,0.2,1,0.2s0.7-0.1,1-0.2c0.3-0.1,0.6-0.3,0.8-0.5c0.2-0.2,0.4-0.5,0.5-0.8c0.1-0.3,0.2-0.7,0.2-1.1
			s-0.1-0.7-0.2-1.1c-0.1-0.3-0.3-0.6-0.5-0.8c-0.2-0.2-0.5-0.4-0.8-0.5c-0.3-0.1-0.7-0.2-1-0.2s-0.7,0.1-1,0.2
			c-0.3,0.1-0.6,0.3-0.8,0.5s-0.4,0.5-0.5,0.8C709.7,710.5,709.6,710.8,709.6,711.2z"/>
		<path fill="#777777" d="M717.7,707.4h1.7l2.3,5.8l2.2-5.8h1.5l-3,7.6h-1.6L717.7,707.4z"/>
		<path fill="#777777" d="M727.2,715.1c-0.3,0-0.5-0.1-0.7-0.3c-0.2-0.2-0.3-0.5-0.3-0.7c0-0.3,0.1-0.5,0.3-0.7
			c0.2-0.2,0.5-0.3,0.7-0.3c0.3,0,0.5,0.1,0.7,0.3s0.3,0.5,0.3,0.7c0,0.3-0.1,0.5-0.3,0.7S727.5,715.1,727.2,715.1z"/>
		<path fill="#777777" d="M736.2,705h-5.5v-1.3h7.1v1.3l-4.5,10h-1.7L736.2,705z"/>
	</g>
	<g enable-background="new    ">
		<path fill="#777777" d="M695.5,703.7h2l6.2,9.3h0v-9.3h1.5V715h-2l-6.3-9.3h0v9.3h-1.5V703.7z"/>
		<path fill="#777777" d="M708.1,711.2c0-0.6,0.1-1.1,0.3-1.6c0.2-0.5,0.5-0.9,0.9-1.3c0.4-0.4,0.8-0.6,1.3-0.9s1-0.3,1.6-0.3
			s1.1,0.1,1.6,0.3c0.5,0.2,0.9,0.5,1.3,0.9c0.4,0.4,0.6,0.8,0.9,1.3c0.2,0.5,0.3,1,0.3,1.6c0,0.6-0.1,1.1-0.3,1.6
			c-0.2,0.5-0.5,0.9-0.9,1.3c-0.4,0.4-0.8,0.6-1.3,0.8c-0.5,0.2-1,0.3-1.6,0.3s-1.1-0.1-1.6-0.3s-0.9-0.5-1.3-0.8
			c-0.4-0.4-0.6-0.8-0.9-1.3C708.2,712.3,708.1,711.8,708.1,711.2z M709.6,711.2c0,0.4,0.1,0.7,0.2,1.1c0.1,0.3,0.3,0.6,0.5,0.8
			s0.5,0.4,0.8,0.5c0.3,0.1,0.7,0.2,1,0.2s0.7-0.1,1-0.2c0.3-0.1,0.6-0.3,0.8-0.5c0.2-0.2,0.4-0.5,0.5-0.8c0.1-0.3,0.2-0.7,0.2-1.1
			s-0.1-0.7-0.2-1.1c-0.1-0.3-0.3-0.6-0.5-0.8c-0.2-0.2-0.5-0.4-0.8-0.5c-0.3-0.1-0.7-0.2-1-0.2s-0.7,0.1-1,0.2
			c-0.3,0.1-0.6,0.3-0.8,0.5s-0.4,0.5-0.5,0.8C709.7,710.5,709.6,710.8,709.6,711.2z"/>
		<path fill="#777777" d="M717.7,707.4h1.7l2.3,5.8l2.2-5.8h1.5l-3,7.6h-1.6L717.7,707.4z"/>
		<path fill="#777777" d="M727.2,715.1c-0.3,0-0.5-0.1-0.7-0.3c-0.2-0.2-0.3-0.5-0.3-0.7c0-0.3,0.1-0.5,0.3-0.7
			c0.2-0.2,0.5-0.3,0.7-0.3c0.3,0,0.5,0.1,0.7,0.3s0.3,0.5,0.3,0.7c0,0.3-0.1,0.5-0.3,0.7S727.5,715.1,727.2,715.1z"/>
		<path fill="#777777" d="M736.2,705h-5.5v-1.3h7.1v1.3l-4.5,10h-1.7L736.2,705z"/>
	</g>
</g>
<line fill="none" stroke="#000000" stroke-miterlimit="10" x1="764.9" y1="614.9" x2="856.9" y2="614.9"/>
<line fill="none" stroke="#000000" stroke-miterlimit="10" x1="764.9" y1="755.3" x2="856.9" y2="755.3"/>
<circle fill="#0098FF" cx="759.4" cy="614.9" r="6.2"/>
<circle fill="#134791" cx="759.4" cy="755.3" r="6.2"/>
</svg>
